<?xml version="1.0" standalone="no"?>
<!DOCTYPE svg PUBLIC "-//W3C//DTD SVG 20010904//EN"
 "http://www.w3.org/TR/2001/REC-SVG-20010904/DTD/svg10.dtd">
<svg version="1.0" xmlns="http://www.w3.org/2000/svg"
 width="1214.000000pt" height="1214.000000pt" viewBox="0 0 1214.000000 1214.000000"
 preserveAspectRatio="xMidYMid meet">
<metadata>
Created by potrace 1.11, written by Peter Selinger 2001-2013
</metadata>
<g transform="translate(0.000000,1214.000000) scale(0.100000,-0.100000)"
fill="#000000" stroke="none">
<path d="M3747 12099 c-33 -27 -97 -131 -97 -157 0 -5 23 -12 51 -14 59 -6 74
-18 66 -51 -9 -33 -46 -47 -127 -47 -37 0 -76 -3 -85 -6 -37 -14 -101 -192
-77 -216 9 -9 8 -16 -3 -29 -9 -9 -20 -45 -26 -80 -11 -68 -39 -142 -58 -154
-7 -4 -21 1 -32 11 -25 23 -78 23 -112 1 -25 -16 -28 -26 -42 -143 -8 -67 -37
-102 -95 -115 -57 -13 -77 -31 -85 -79 -4 -21 -12 -46 -19 -56 -13 -16 -16
-16 -62 7 -35 17 -50 32 -55 52 -4 15 -18 40 -32 56 -13 16 -28 47 -32 68 -14
78 -102 230 -121 210 -3 -3 -10 -57 -15 -119 -5 -62 -16 -147 -24 -188 -28
-142 -74 -448 -85 -560 -6 -62 -13 -116 -15 -121 -3 -4 -16 -115 -30 -247 -27
-262 -70 -570 -85 -617 -6 -17 -30 -50 -55 -73 -52 -48 -75 -97 -75 -156 0
-39 16 -74 63 -139 19 -26 25 -108 12 -168 -11 -52 -43 -109 -91 -163 -51 -55
-55 -86 -24 -155 11 -24 20 -56 20 -71 0 -48 -86 -332 -134 -442 -71 -165
-135 -391 -136 -479 0 -36 -2 -38 -97 -92 -143 -81 -236 -150 -342 -252 -115
-111 -153 -160 -271 -350 -135 -216 -135 -217 -134 -410 1 -199 17 -330 51
-419 27 -73 67 -118 251 -289 52 -49 82 -84 82 -97 0 -30 -65 -184 -104 -250
-42 -68 -59 -147 -59 -270 0 -120 10 -155 84 -310 54 -115 60 -133 65 -210 3
-47 12 -113 21 -148 20 -81 8 -149 -53 -289 -79 -182 -91 -311 -53 -564 20
-132 20 -143 5 -177 -34 -77 -56 -313 -36 -405 10 -48 17 -62 43 -78 54 -33
107 -43 221 -41 95 2 112 0 142 -19 19 -11 41 -34 49 -49 13 -25 13 -34 0 -78
-9 -28 -35 -86 -60 -130 -25 -44 -45 -83 -45 -86 0 -4 -21 -52 -46 -107 -40
-87 -47 -113 -54 -196 -8 -94 -9 -96 -49 -137 -23 -23 -41 -47 -41 -52 0 -6
-12 -28 -26 -49 -25 -38 -25 -38 -10 -99 9 -34 20 -129 26 -212 8 -124 15
-166 41 -245 l31 -94 -21 -157 c-12 -86 -21 -200 -20 -255 2 -162 0 -185 -16
-263 -9 -41 -34 -124 -56 -185 -22 -60 -42 -116 -45 -124 -11 -33 18 -123 52
-161 63 -70 166 -106 476 -170 109 -22 228 -52 265 -66 102 -38 188 -53 367
-64 317 -19 540 -9 579 28 12 11 34 24 50 27 25 7 39 35 17 35 -5 0 -10 4 -10
9 0 5 24 12 53 16 64 8 117 24 117 35 0 4 -21 12 -47 18 -42 8 -44 10 -15 11
34 1 44 25 20 49 -9 9 -9 12 3 12 9 0 24 -9 33 -19 21 -23 98 -36 156 -26 48
8 48 26 2 40 -50 14 -32 29 44 38 38 4 75 9 82 12 27 10 9 24 -40 32 -111 17
-37 42 127 42 50 0 110 -4 135 -8 40 -6 43 -8 25 -17 -11 -6 -40 -14 -64 -17
-56 -7 -73 -23 -47 -43 14 -10 47 -14 108 -14 l88 0 -16 -26 c-15 -22 -15 -27
-3 -34 25 -16 119 -23 240 -18 127 5 155 -3 62 -18 -62 -10 -77 -26 -41 -45
34 -19 247 -23 459 -10 186 12 197 14 291 67 34 18 65 5 70 -28 6 -47 85 -30
112 23 7 15 24 26 46 30 52 10 521 22 553 14 19 -5 32 -18 42 -41 19 -47 55
-47 84 0 12 19 29 37 39 41 9 4 93 11 185 15 92 4 170 9 172 12 2 2 -59 9
-136 16 -78 7 -150 18 -162 25 -18 10 10 13 171 19 200 6 242 11 242 28 0 17
-48 30 -113 31 -34 0 -84 4 -112 8 l-50 7 45 6 c25 4 71 10 103 14 67 7 74 17
59 74 l-10 40 143 0 c149 0 208 11 186 33 -6 6 -53 14 -104 18 -51 3 -90 7
-87 9 3 1 82 5 177 9 120 4 176 10 185 19 18 18 -3 29 -70 38 -29 3 -55 10
-57 15 -7 10 49 17 205 24 115 5 154 14 137 31 -10 11 -88 23 -148 24 -38 0
-61 5 -69 15 -11 13 -7 15 29 15 45 0 46 1 29 29 -9 15 -9 23 3 37 13 16 35
16 284 10 341 -8 534 8 483 40 -7 5 -159 14 -338 20 -179 6 -327 12 -330 14
-21 8 81 21 215 26 140 5 321 -1 598 -23 60 -4 87 -2 122 12 100 38 53 47
-262 52 -240 4 -302 11 -240 26 12 3 65 9 117 12 126 9 168 20 181 49 10 21
19 24 116 30 59 3 256 6 438 6 336 0 399 4 392 24 -8 23 -82 29 -361 28 -159
-1 -285 3 -280 7 5 5 50 16 99 25 56 11 112 30 147 49 l57 31 31 -23 c29 -21
38 -22 93 -15 34 5 92 7 128 5 46 -2 74 2 90 12 13 8 39 17 57 21 19 3 46 14
60 25 21 14 50 20 122 23 101 4 160 25 160 55 0 13 -8 15 -47 9 -27 -4 -103
-13 -170 -21 -129 -15 -153 -22 -177 -56 -15 -22 -36 -18 -36 5 0 9 -20 15
-57 19 -44 5 -64 2 -95 -14 -44 -22 -83 -22 -83 1 0 8 18 19 42 26 82 24 485
441 609 629 39 61 109 155 155 210 103 123 136 173 194 298 25 54 61 119 80
146 19 27 42 68 50 92 9 24 41 89 72 143 30 55 71 141 90 190 18 49 50 116 69
148 19 31 56 99 80 150 25 50 54 103 65 116 10 14 19 32 19 41 0 9 11 32 23
51 48 71 162 384 185 510 22 117 23 163 1 260 -11 52 -33 156 -48 230 -16 77
-41 164 -58 202 -17 37 -34 80 -38 97 -3 16 -13 35 -21 42 -8 6 -14 29 -14 52
0 27 -18 83 -54 166 -29 69 -57 136 -60 148 -4 13 -18 26 -31 29 -33 8 -40 38
-22 87 8 23 18 61 21 83 3 23 22 99 41 169 19 70 41 182 49 249 9 75 24 147
40 189 14 37 30 95 36 130 27 146 164 667 223 847 132 398 280 816 336 949 32
75 64 161 71 191 7 30 25 80 40 110 15 30 42 102 60 160 18 58 63 173 101 257
42 92 69 165 69 186 0 36 -25 67 -54 67 -46 0 -146 -65 -146 -96 0 -23 -44
-66 -86 -85 -37 -15 -48 -27 -68 -73 -24 -53 -27 -56 -83 -72 -80 -23 -90 -31
-103 -83 -7 -32 -22 -55 -46 -77 -22 -19 -38 -44 -43 -64 -6 -31 -11 -35 -68
-52 -72 -21 -84 -35 -143 -163 -46 -100 -71 -180 -64 -200 4 -9 -12 -33 -39
-61 -46 -47 -54 -60 -105 -174 -16 -36 -41 -78 -56 -94 -27 -28 -29 -29 -109
-23 -88 6 -137 20 -137 38 0 6 8 23 19 37 10 15 22 47 26 72 4 25 13 60 21 79
24 59 18 81 -36 132 -28 26 -71 57 -95 69 -25 12 -45 28 -45 36 0 8 20 54 44
102 67 134 99 253 121 455 8 76 22 151 31 168 14 29 14 35 -17 122 -29 83 -31
100 -26 174 5 71 3 84 -14 104 -10 12 -19 30 -19 39 0 24 -54 80 -77 80 -47 0
-71 -38 -107 -170 -19 -68 -58 -130 -130 -209 -31 -34 -56 -64 -57 -68 -3 -30
-12 -47 -47 -95 -21 -29 -63 -98 -92 -153 -52 -98 -85 -145 -102 -145 -5 0
-27 12 -50 28 -101 66 -327 11 -328 -81 -1 -46 -40 -87 -83 -87 -34 0 -124 27
-170 52 -14 7 -36 29 -49 48 -19 27 -34 37 -73 46 -92 21 -98 29 -71 82 20 38
63 76 116 102 24 13 60 33 80 46 19 12 55 28 80 34 25 7 69 26 99 42 50 29 62
31 200 39 171 9 146 5 165 25 14 14 14 18 -1 47 -14 28 -15 42 -4 119 18 125
17 126 -123 153 -43 8 -81 17 -84 20 -3 3 0 16 7 29 8 13 11 28 8 33 -3 5 -13
41 -20 79 -8 38 -32 104 -52 147 l-37 78 16 58 c17 62 20 118 8 138 -4 7 -26
19 -47 26 -67 23 -70 38 -49 250 6 56 5 58 -29 90 -19 18 -38 42 -41 55 -4 12
-20 29 -36 37 -28 15 -29 16 -14 50 17 42 18 107 2 123 -7 7 -27 12 -44 12
-18 0 -35 4 -38 9 -4 5 7 43 24 84 34 86 41 171 14 181 -27 10 -80 7 -123 -9
l-43 -15 7 33 c4 17 16 52 26 76 24 56 24 61 -4 61 -28 0 -47 34 -47 84 0 46
-34 76 -88 76 -61 0 -105 -22 -171 -85 -32 -30 -65 -55 -73 -55 -9 0 -40 11
-69 24 -47 22 -55 23 -80 11 -51 -27 -169 -166 -204 -241 -18 -39 -41 -74 -50
-77 -11 -5 -32 8 -64 38 -26 25 -52 45 -58 45 -15 0 -50 -42 -57 -70 -4 -14
-12 -35 -19 -48 -8 -17 -8 -31 2 -57 15 -44 7 -71 -23 -79 -24 -6 -42 -36 -80
-129 l-15 -37 -64 2 c-79 2 -119 -19 -140 -74 -17 -42 -30 -49 -136 -74 -36
-9 -73 -23 -81 -30 -8 -8 -17 -38 -20 -66 -6 -66 -14 -70 -187 -104 -70 -14
-129 -26 -131 -28 -9 -10 -32 -116 -33 -154 -2 -50 7 -62 53 -71 30 -6 35 -12
51 -66 10 -33 25 -73 33 -88 18 -36 18 -78 0 -122 -12 -28 -20 -35 -43 -35
-58 1 -156 19 -164 32 -4 7 -6 39 -3 73 7 81 -15 125 -70 140 -33 9 -42 18
-55 53 -9 23 -21 46 -27 52 -14 14 -138 46 -214 55 -91 12 -92 13 -66 97 13
40 31 125 40 188 10 63 25 131 33 150 21 48 20 133 -1 162 -9 13 -28 38 -41
56 -27 37 -99 217 -109 273 -15 86 -49 88 -101 5 -16 -26 -57 -82 -91 -124
-158 -200 -254 -396 -254 -519 0 -37 -6 -40 -30 -18 -19 17 -122 45 -168 45
-19 0 -45 9 -59 20 -14 11 -37 20 -52 20 -20 0 -43 20 -105 92 -44 50 -86 105
-94 122 -8 17 -40 57 -70 88 l-56 57 12 64 c7 35 12 76 12 91 0 62 -84 166
-135 166 -24 0 -25 3 -25 55 0 46 -8 69 -51 151 -54 102 -53 96 -33 200 5 29
1 35 -55 78 -58 45 -61 49 -61 90 0 52 -30 101 -83 135 -31 21 -37 30 -37 60
-1 56 -17 114 -37 129 -13 10 -41 13 -100 10 l-83 -4 0 115 c0 132 -8 168 -50
234 -58 92 -151 115 -223 56z m538 -5444 c766 -58 831 -71 1027 -201 94 -63
98 -67 135 -142 21 -42 56 -108 78 -147 23 -38 44 -78 47 -87 4 -9 14 -99 23
-200 15 -186 28 -258 45 -258 5 0 22 -19 37 -42 32 -52 137 -288 152 -345 6
-22 29 -63 51 -91 55 -69 55 -103 -2 -138 -110 -68 -172 -140 -148 -169 6 -8
27 -15 47 -17 l35 -3 -21 -27 c-27 -34 -28 -68 -2 -68 35 0 34 -21 -4 -60 -49
-50 -51 -95 -6 -145 17 -19 38 -61 47 -92 30 -104 85 -129 256 -119 l108 6 26
-42 c51 -82 59 -87 135 -86 61 1 77 -3 152 -40 103 -51 132 -79 148 -144 13
-51 34 -72 49 -48 12 20 30 2 30 -30 0 -43 -10 -60 -34 -60 -12 0 -35 -14 -51
-30 -35 -37 -52 -38 -65 -5 -5 14 -16 25 -24 25 -9 0 -36 7 -62 16 l-46 15
-57 -54 c-36 -34 -72 -59 -97 -66 -45 -13 -164 -15 -164 -3 0 4 43 18 95 31
52 14 95 29 95 34 0 13 -115 1 -176 -19 -27 -8 -71 -21 -99 -28 -29 -8 -44
-15 -35 -19 8 -3 24 -8 35 -13 16 -5 12 -9 -22 -15 -57 -11 -76 -22 -163 -96
-162 -138 -230 -216 -230 -262 0 -34 39 -78 74 -86 86 -18 80 -14 61 -35 -28
-31 -59 -24 -99 20 -20 22 -36 47 -36 55 0 25 -35 17 -66 -16 -16 -18 -49 -40
-73 -51 -24 -11 -89 -54 -145 -97 -133 -101 -147 -109 -199 -120 -75 -17 -115
-5 -151 48 -51 75 -117 137 -169 156 -45 17 -51 17 -114 1 -88 -21 -170 -60
-212 -99 -55 -52 -165 -316 -186 -447 -4 -25 -13 -56 -20 -70 -7 -14 -20 -74
-29 -134 -9 -60 -20 -114 -26 -121 -6 -7 -22 -10 -36 -7 -15 3 -64 -1 -109 -8
-80 -13 -84 -12 -115 10 -60 42 -144 61 -318 71 -109 6 -170 6 -182 -1 -29
-15 -41 -45 -50 -119 -7 -54 -14 -70 -36 -90 -23 -19 -35 -22 -72 -18 -75 8
-75 9 -4 137 17 30 34 75 38 100 3 25 17 87 30 138 36 135 20 146 -73 50 -73
-77 -79 -88 -88 -162 -6 -47 -14 -66 -41 -96 -65 -71 -120 -76 -182 -14 -33
33 -34 37 -30 92 3 42 16 84 47 148 28 59 42 101 39 120 -3 26 -6 29 -42 29
-34 0 -41 4 -54 33 -16 33 -44 42 -59 20 -4 -7 -8 -71 -8 -143 l0 -130 -44
-62 c-24 -34 -53 -65 -64 -69 -11 -3 -46 -1 -78 6 l-59 13 0 58 c0 38 12 95
35 169 20 65 33 121 29 135 -9 36 -69 96 -88 89 -34 -13 -46 -59 -46 -173 0
-131 -13 -202 -45 -239 -21 -24 -30 -27 -87 -27 -34 0 -75 4 -91 8 -27 7 -27
7 -22 80 10 120 14 133 65 202 31 42 50 78 50 94 0 26 -31 71 -49 71 -9 0 -49
-28 -106 -74 -32 -26 -151 -63 -163 -52 -2 2 11 20 29 41 41 46 31 55 -68 55
-39 0 -75 4 -78 10 -11 17 13 47 60 74 45 27 58 46 30 46 -27 0 -27 26 -2 76
23 47 57 163 57 197 0 25 -22 32 -37 11 -12 -16 -15 -17 -23 -4 -5 8 -10 21
-10 28 0 18 -18 15 -24 -5 -2 -10 -7 -45 -11 -78 -8 -66 -50 -188 -71 -205
-10 -9 -20 -1 -47 42 -49 76 -81 143 -107 223 -41 126 -62 149 -93 105 -13
-18 -18 -19 -41 -9 -23 11 -30 10 -48 -9 -30 -29 -36 -120 -13 -182 24 -64 29
-97 15 -105 -16 -10 -93 21 -118 48 l-22 23 9 506 9 506 30 44 c49 72 91 163
97 214 4 31 -1 93 -13 169 -30 177 -33 216 -19 255 10 29 17 35 41 35 33 0 34
-1 80 -120 44 -113 52 -149 66 -308 13 -139 10 -172 -20 -240 -13 -29 -19 -65
-19 -103 1 -46 -7 -80 -36 -153 -40 -103 -41 -130 -7 -147 33 -16 32 -14 47
-119 7 -53 16 -99 19 -102 3 -3 12 -3 20 0 10 4 16 31 20 104 3 54 10 132 15
173 11 83 3 104 -28 76 -11 -10 -24 -16 -29 -15 -16 6 5 47 33 65 22 14 31 15
46 6 29 -18 42 -15 77 21 60 62 105 197 100 303 -2 42 2 66 11 78 22 26 120
73 200 95 38 11 97 32 130 46 33 15 65 24 71 20 9 -5 10 -31 5 -89 -5 -65 0
-124 25 -296 25 -170 31 -242 29 -345 -1 -71 -2 -157 -3 -190 l-1 -60 37 1
c74 2 98 50 98 192 0 82 6 120 35 226 50 182 77 230 115 206 11 -7 9 -11 -11
-18 -36 -14 -48 -32 -60 -94 -10 -48 -9 -61 9 -99 30 -68 86 -125 140 -145 26
-9 64 -33 84 -52 l36 -34 30 98 c65 212 70 259 47 454 -9 80 -21 149 -25 153
-4 5 -20 1 -34 -9 -17 -10 -31 -13 -36 -8 -16 16 -41 210 -43 338 l-2 121 52
100 c56 109 130 311 119 323 -13 12 -74 -64 -85 -106 -18 -66 -160 -366 -182
-384 -16 -14 -25 -15 -41 -7 -28 15 -41 51 -90 248 l-43 174 34 26 c109 84
136 109 139 127 1 10 -15 55 -36 99 -21 44 -42 93 -46 108 -4 15 -17 33 -31
39 -14 6 -25 18 -25 26 0 44 -97 128 -171 147 -28 8 -59 21 -69 30 -10 9 -33
18 -52 21 -28 5 -36 2 -42 -12 -5 -14 -1 -23 16 -34 63 -41 138 -124 124 -137
-3 -3 -10 6 -15 20 -5 14 -16 29 -23 34 -7 4 -62 8 -123 8 l-110 0 -25 47
c-14 27 -28 48 -32 48 -3 0 -12 -17 -18 -37 -33 -101 -56 -125 -96 -98 -26 17
-26 16 -65 -60 -13 -26 -21 -31 -68 -35 -54 -6 -81 -26 -81 -60 0 -9 -6 -25
-14 -35 -19 -26 -36 -11 -82 72 -20 34 -42 63 -50 63 -20 0 -18 -12 22 -111
38 -94 40 -115 11 -133 -15 -9 -24 -5 -53 27 -19 21 -39 35 -44 32 -6 -4 -10
-59 -10 -123 0 -108 -11 -254 -26 -345 -19 -119 -124 97 -124 255 0 88 47 229
137 407 45 91 105 202 133 246 41 67 139 273 179 377 21 55 230 195 331 221
30 8 82 24 115 35 35 12 114 25 183 31 68 6 164 18 215 26 51 8 181 19 290 24
134 7 208 15 230 25 18 8 46 17 62 20 63 10 730 -4 930 -19z m1528 -275 c38
-7 66 -15 63 -18 -3 -3 -54 -4 -113 -4 -115 2 -208 16 -219 34 -9 14 167 5
269 -12z m229 -121 c73 -16 422 -159 543 -224 55 -29 163 -77 240 -106 267
-99 750 -326 965 -455 52 -31 174 -102 270 -159 441 -258 523 -313 760 -509
115 -95 295 -262 315 -292 14 -22 14 -27 -5 -64 -31 -60 -27 -112 11 -150 51
-51 64 -31 38 57 -7 23 -9 46 -5 50 11 11 80 -68 118 -136 41 -74 57 -91 83
-91 13 0 27 -6 33 -12 15 -18 74 -170 68 -175 -8 -9 -26 8 -52 49 -14 22 -28
38 -30 35 -3 -3 0 -50 5 -105 6 -56 7 -111 2 -123 -7 -21 -9 -20 -31 19 -13
22 -30 44 -39 47 -17 7 -41 -20 -41 -46 0 -25 -35 -103 -77 -170 -29 -49 -34
-61 -23 -74 18 -22 48 -18 56 8 3 12 24 41 45 64 24 26 39 52 39 68 0 14 3 25
6 25 16 0 73 -43 88 -65 28 -43 21 -54 -36 -57 l-53 -3 -3 -53 c-3 -57 10 -72
47 -53 17 9 22 8 31 -9 13 -25 9 -102 -5 -106 -5 -2 -20 16 -31 39 -15 29 -29
43 -45 45 -13 2 -32 11 -41 19 -23 20 -38 8 -38 -29 0 -17 -7 -36 -17 -43 -22
-16 -21 -76 2 -111 27 -41 11 -38 -28 5 -48 53 -56 85 -28 115 21 22 26 60 15
104 -4 13 -12 21 -18 19 -19 -6 -56 -69 -68 -115 -13 -53 -42 -74 -185 -136
-55 -24 -118 -55 -140 -70 -40 -27 -42 -27 -74 -11 -32 17 -66 17 -157 -1 -28
-5 -42 0 -91 35 -58 40 -94 51 -106 31 -8 -13 -56 -13 -91 0 -15 6 -47 29 -71
50 -23 22 -47 40 -53 40 -16 0 -43 -48 -36 -65 8 -22 81 -53 178 -74 46 -11
112 -31 148 -46 66 -28 74 -28 193 -9 34 6 43 3 72 -26 28 -27 39 -31 62 -26
64 16 90 -2 118 -84 18 -54 37 -194 29 -215 -7 -18 -25 -20 -41 -4 -16 16 -30
4 -43 -39 -15 -46 -30 -63 -38 -42 -3 8 -19 29 -37 45 -17 17 -35 43 -39 58
-4 17 -13 27 -25 27 -29 0 -34 -29 -11 -65 21 -34 27 -99 10 -110 -5 -3 -17
10 -27 29 -9 20 -21 36 -25 36 -5 0 -18 23 -30 50 -21 51 -37 61 -57 36 -8
-10 -7 -34 5 -97 11 -56 14 -109 10 -161 -4 -64 -3 -77 11 -82 24 -9 40 10 47
56 9 53 23 73 42 57 42 -34 -22 -159 -152 -300 -90 -97 -110 -129 -81 -129 7
0 71 59 141 130 71 72 132 130 137 130 15 0 -11 -54 -53 -108 -49 -64 -188
-195 -240 -228 -55 -35 -51 -49 15 -44 44 3 31 -18 -15 -25 -24 -4 -99 -33
-168 -65 -123 -58 -324 -130 -358 -130 -26 1 -2 13 122 59 112 42 205 93 263
144 68 60 35 57 -99 -8 -139 -67 -245 -102 -261 -86 -13 13 45 47 92 56 124
23 384 215 498 369 50 67 55 101 18 118 -22 10 -25 18 -25 58 0 26 -7 61 -15
76 -8 16 -15 36 -15 45 0 22 -28 45 -40 33 -5 -5 -13 -28 -18 -52 -10 -44 -9
-46 30 -75 14 -10 15 -17 5 -46 -18 -53 -43 -64 -92 -42 -46 21 -63 45 -81
116 -28 104 -12 220 40 287 31 41 33 64 6 73 -20 6 -69 -14 -87 -37 -25 -32
-35 -97 -44 -288 -11 -232 -1 -205 -121 -333 -54 -59 -69 -69 -105 -74 -23 -3
-53 -3 -67 1 -23 6 -26 11 -26 52 0 25 -7 58 -15 74 -26 50 -57 39 -164 -57
-53 -48 -190 -123 -226 -123 -13 0 -33 -9 -44 -21 -20 -21 -61 -124 -61 -153
0 -9 -8 -16 -20 -16 -17 0 -20 7 -20 39 0 27 -8 49 -25 69 -31 37 -31 48 -1
56 26 6 40 31 29 51 -7 12 -95 74 -134 96 -30 16 -29 -16 3 -82 55 -115 48
-249 -13 -249 -31 0 -84 46 -145 123 -59 75 -64 95 -34 122 19 17 20 17 29 -8
30 -78 55 -22 48 102 -12 191 -48 244 -180 266 -50 8 -76 45 -156 220 -51 109
-65 152 -73 215 -15 113 -31 102 -26 -17 3 -86 10 -116 53 -240 27 -78 46
-145 41 -150 -12 -12 -73 63 -92 113 -19 49 -29 55 -38 22 -12 -45 -6 -84 19
-120 28 -41 35 -89 11 -69 -8 7 -17 24 -21 39 -3 15 -17 43 -30 63 -13 20 -27
58 -30 85 -9 62 -21 84 -44 84 -18 0 -17 5 10 53 16 28 43 93 59 144 24 71 36
94 53 99 12 3 32 16 44 27 20 17 26 19 49 8 19 -8 30 -9 40 0 18 15 34 3 34
-27 0 -15 -7 -27 -17 -30 -38 -12 -48 -22 -48 -50 0 -26 4 -29 37 -32 29 -3
38 -9 48 -33 17 -40 48 -39 57 1 6 35 25 38 75 13 18 -9 40 -19 48 -23 26 -12
59 -70 66 -117 6 -41 10 -47 45 -61 29 -11 41 -23 49 -48 17 -50 46 -46 70 11
11 25 23 45 28 45 14 0 21 -62 15 -123 -6 -62 10 -88 51 -80 19 4 26 1 26 -11
0 -29 -32 -96 -51 -107 -16 -8 -21 -5 -29 15 -18 49 -100 40 -127 -14 -14 -27
-18 -140 -5 -140 4 0 18 24 32 53 29 60 51 69 82 32 14 -15 38 -28 60 -32 40
-6 48 3 63 70 3 16 21 45 40 64 19 20 35 42 35 48 0 7 -11 37 -24 66 -14 30
-31 77 -39 105 -15 50 -14 53 9 90 13 22 24 49 24 61 0 30 20 40 37 18 12 -17
17 -18 49 -6 30 11 38 11 53 -3 25 -23 33 -20 71 19 19 19 37 35 41 35 4 0 15
-24 24 -54 10 -30 28 -65 41 -77 30 -28 32 -69 5 -69 -11 0 -23 5 -26 10 -4 6
-11 8 -16 5 -12 -8 -12 -102 0 -109 28 -18 132 68 145 118 10 42 -11 105 -40
116 -13 5 -24 15 -24 21 0 9 3 9 14 0 10 -9 16 -8 26 4 7 8 22 15 34 15 37 0
47 14 44 61 -3 41 -5 44 -33 47 -44 5 -52 18 -25 40 18 15 22 25 16 46 -10 40
-76 100 -152 137 -57 28 -80 34 -134 34 -61 0 -69 -3 -135 -47 -96 -64 -111
-78 -150 -144 -41 -68 -42 -75 -13 -114 24 -32 20 -45 -10 -36 -29 10 -42 48
-68 204 -32 195 -61 242 -146 242 -39 0 -155 -61 -213 -112 -43 -38 -47 -39
-75 -28 -35 15 -84 75 -76 95 4 11 21 15 59 15 116 0 218 54 303 160 29 35 62
69 73 74 28 12 124 -35 231 -113 l85 -62 90 5 c123 8 215 25 215 41 0 21 -27
26 -174 35 -117 7 -142 12 -160 28 -57 54 -273 162 -386 195 -43 13 -59 23
-75 49 -29 51 -115 137 -171 173 -46 30 -53 40 -78 106 -34 93 -51 119 -77
119 -19 0 -20 -4 -15 -35 6 -30 4 -35 -12 -35 -37 0 -71 87 -41 106 7 4 9 23
6 49 -5 31 -2 46 8 55 8 7 15 19 15 26 0 21 -79 93 -131 119 -48 25 -99 76
-99 101 0 18 7 18 61 -1 55 -20 79 -14 101 25 16 28 21 30 73 30 31 0 55 4 53
9 -1 5 -25 24 -53 43 -44 29 -50 37 -50 68 0 27 -5 37 -22 45 -27 11 -29 32
-8 62 14 20 12 27 -26 100 -22 43 -44 79 -48 81 -4 1 -16 -7 -26 -18 -15 -17
-16 -24 -7 -45 6 -14 9 -25 7 -25 -4 0 -55 95 -55 103 0 2 11 2 25 -1 14 -2
25 0 26 4 19 241 13 364 -16 364 -8 0 -15 -6 -15 -12 0 -9 -4 -8 -10 2 -17 26
-12 105 8 122 23 20 78 38 117 38 37 0 58 19 49 44 -7 19 -53 21 -100 4 -31
-11 -35 -9 -74 26 -22 20 -45 34 -49 32 -5 -3 -11 -24 -15 -45 -7 -46 -26 -91
-37 -91 -4 0 -10 8 -13 18 -14 44 -76 83 -76 47 0 -33 -25 -64 -81 -100 -64
-41 -73 -50 -64 -65 3 -5 34 1 76 16 90 33 129 30 142 -11 5 -16 19 -42 29
-57 23 -33 13 -36 -19 -6 -25 23 -40 17 -43 -17 -5 -48 1 -66 25 -77 20 -9 25
-18 25 -50 0 -31 -3 -38 -20 -38 -11 0 -20 5 -20 12 0 6 -21 34 -47 62 -27 29
-58 65 -70 81 -17 23 -24 27 -31 17 -5 -7 -7 -23 -5 -35 2 -13 -7 -34 -20 -50
l-24 -29 -35 49 c-57 79 -79 120 -72 136 4 10 -12 26 -50 52 -46 30 -61 49
-88 103 l-33 67 2 142 2 143 -54 107 c-41 79 -52 109 -42 114 38 22 321 34
399 18z m373 -70 c14 -7 7 -7 -20 -3 -22 3 -47 10 -55 15 -18 12 44 1 75 -12z
m105 -39 c19 -11 31 -19 25 -19 -5 0 -26 8 -45 19 -19 11 -30 19 -25 19 6 0
26 -8 45 -19z m235 -85 c174 -57 356 -130 545 -218 113 -52 248 -113 301 -136
53 -23 127 -62 165 -86 38 -24 121 -77 184 -117 63 -40 146 -96 184 -125 37
-29 127 -89 200 -132 191 -116 331 -214 443 -313 110 -97 191 -178 179 -178
-5 0 -36 28 -71 63 -87 87 -114 110 -167 140 -25 15 -71 49 -100 76 -32 29
-111 80 -189 122 -154 83 -237 136 -294 189 -23 21 -60 42 -85 49 -53 15 -135
59 -206 111 -28 21 -97 62 -155 90 -57 29 -128 70 -157 91 -30 21 -109 59
-175 85 -67 26 -185 75 -262 109 -77 34 -185 77 -240 95 -55 18 -109 40 -120
50 -11 9 -39 22 -61 28 -23 7 -48 20 -55 29 -13 15 -10 15 26 9 22 -4 72 -18
110 -31z m-4237 -583 c8 -6 1 -13 -23 -25 -47 -22 -48 -22 -29 8 17 26 30 30
52 17z m-536 -74 c-7 -7 -12 -8 -12 -2 0 14 12 26 19 19 2 -3 -1 -11 -7 -17z
m98 -42 c0 -3 -4 -8 -10 -11 -5 -3 -10 -1 -10 4 0 6 5 11 10 11 6 0 10 -2 10
-4z m4247 -88 c-6 -78 -14 -108 -28 -108 -12 0 -11 67 1 75 6 3 10 25 10 49 0
39 5 56 18 56 3 0 2 -33 -1 -72z m-177 -29 c0 -16 -19 -9 -30 10 -17 33 -11
48 10 22 11 -13 20 -27 20 -32z m-4175 12 c-3 -6 -11 -11 -17 -11 -6 0 -6 6 2
15 14 17 26 13 15 -4z m127 -3 c-7 -7 -12 -8 -12 -2 0 14 12 26 19 19 2 -3 -1
-11 -7 -17z m428 -6 c0 -5 -7 -17 -15 -28 -15 -19 -20 -8 -9 20 6 17 24 22 24
8z m-799 -49 c-10 -17 -10 -16 -11 3 0 23 13 41 18 25 2 -6 -1 -18 -7 -28z
m518 -30 l-1 -48 -10 34 c-5 18 -7 40 -4 47 10 27 16 14 15 -33z m-109 -12
c-12 -23 -29 -35 -37 -27 -7 7 26 46 39 46 5 0 4 -9 -2 -19z m225 -11 c17 -32
20 -70 6 -70 -7 0 -31 73 -31 94 0 14 11 4 25 -24z m3749 5 c29 -44 31 -83 7
-115 -25 -35 -26 -40 -4 -78 17 -30 17 -30 -16 -61 -26 -25 -32 -36 -27 -56
13 -49 18 -114 12 -131 -6 -15 -8 -15 -27 2 -12 11 -33 42 -47 69 -35 67 -35
141 0 210 13 28 30 77 37 110 8 33 15 63 18 68 9 15 31 6 47 -18z m111 -15
c-5 -15 -10 -19 -17 -12 -5 5 -7 20 -3 32 5 15 10 19 17 12 5 -5 7 -20 3 -32z
m-4354 -23 l-20 -20 6 24 c3 13 11 30 17 38 9 12 12 11 14 -4 2 -9 -5 -27 -17
-38z m-91 34 c0 -12 -20 -25 -27 -18 -7 7 6 27 18 27 5 0 9 -4 9 -9z m680 -30
c0 -6 -4 -13 -10 -16 -5 -3 -10 1 -10 9 0 9 5 16 10 16 6 0 10 -4 10 -9z
m-290 -66 c0 -8 -7 -15 -15 -15 -16 0 -20 12 -8 23 11 12 23 8 23 -8z m4120
-21 c0 -13 -4 -24 -10 -24 -5 0 -10 14 -10 31 0 17 4 28 10 24 6 -3 10 -17 10
-31z m-4390 -13 c0 -6 -4 -13 -10 -16 -5 -3 -10 1 -10 9 0 9 5 16 10 16 6 0
10 -4 10 -9z m-113 -58 c-3 -10 -5 -4 -5 12 0 17 2 24 5 18 2 -7 2 -21 0 -30z
m287 -12 c8 -28 6 -42 -16 -85 -46 -91 -60 -166 -43 -235 7 -29 6 -33 -11 -29
-27 5 -44 46 -44 108 0 72 16 127 40 140 17 9 20 21 20 76 0 62 1 65 22 62 16
-2 25 -13 32 -37z m4112 -18 c-11 -11 -19 6 -11 24 8 17 8 17 12 0 3 -10 2
-21 -1 -24z m-4236 -2 c0 -12 -29 -41 -41 -41 -10 0 -12 33 -2 43 10 10 43 8
43 -2z m300 -6 c0 -8 -6 -15 -14 -15 -17 0 -28 14 -19 24 12 12 33 6 33 -9z
m214 -26 c29 -35 35 -86 10 -96 -19 -7 -72 42 -80 74 -7 25 10 53 31 53 7 0
25 -14 39 -31z m3936 -34 c16 -27 31 -61 35 -75 7 -25 7 -25 -25 5 -32 31 -52
61 -65 103 -13 44 26 20 55 -33z m-130 6 c0 -6 -4 -13 -10 -16 -5 -3 -10 1
-10 9 0 9 5 16 10 16 6 0 10 -4 10 -9z m-4397 -50 c9 -36 2 -81 -12 -81 -8 0
-51 94 -51 112 0 5 12 8 27 6 21 -2 29 -10 36 -37z m4297 12 c0 -20 -3 -24
-11 -16 -7 7 -9 19 -6 27 10 24 17 19 17 -11z m175 -63 c4 -6 -6 -10 -22 -10
-22 0 -25 2 -13 10 19 12 27 12 35 0z m-86 -42 c0 -13 -4 -32 -8 -42 -7 -19
-8 -19 -13 2 -7 26 1 62 13 62 5 0 9 -10 8 -22z m-3799 2 c13 -8 13 -11 -2
-27 -21 -20 -45 -5 -35 21 7 18 16 20 37 6z m-230 -20 c0 -5 -4 -10 -10 -10
-5 0 -10 5 -10 10 0 6 5 10 10 10 6 0 10 -4 10 -10z m3920 -60 c0 -11 -7 -20
-15 -20 -15 0 -21 21 -8 33 12 13 23 7 23 -13z m-3770 -5 c0 -8 -7 -15 -15
-15 -16 0 -20 12 -8 23 11 12 23 8 23 -8z m3940 -45 c0 -5 -7 -10 -15 -10 -8
0 -15 5 -15 10 0 6 7 10 15 10 8 0 15 -4 15 -10z m-4381 -57 c26 -72 -17 -162
-49 -104 -21 40 -2 157 24 148 6 -2 17 -22 25 -44z m701 -8 c0 -23 -2 -24 -25
-13 -27 12 -32 24 -12 31 26 11 37 6 37 -18z m3581 -28 c-8 -8 -11 -5 -11 9 0
27 14 41 18 19 2 -9 -1 -22 -7 -28z m-114 -19 c-3 -8 -6 -5 -6 6 -1 11 2 17 5
13 3 -3 4 -12 1 -19z m321 -29 c53 -18 62 -24 62 -45 0 -30 -22 -31 -86 -3
-49 20 -64 34 -64 57 0 17 16 15 88 -9z m-3788 -182 c-7 -17 -9 -10 -9 28 1
43 2 46 9 22 5 -16 5 -38 0 -50z m3774 38 c18 -18 30 -54 22 -63 -9 -8 -43 28
-51 56 -7 25 6 29 29 7z m-4516 -144 c-2 -8 -11 -17 -21 -19 -14 -3 -17 4 -17
41 0 24 3 47 7 51 10 10 35 -51 31 -73z m1003 -84 c-8 -8 -11 -2 -11 19 0 40
14 54 18 19 2 -15 -1 -32 -7 -38z m-91 -48 c0 -11 -4 -17 -10 -14 -5 3 -10 13
-10 21 0 8 5 14 10 14 6 0 10 -9 10 -21z m91 -82 c-8 -8 -11 -5 -11 9 0 27 14
41 18 19 2 -9 -1 -22 -7 -28z m6669 -66 c-1 -68 -15 -51 -26 30 -7 50 -6 53 9
40 12 -10 17 -29 17 -70z m-76 -8 c20 -40 25 -113 7 -113 -13 0 -41 75 -41
110 0 37 15 39 34 3z m-2646 -61 c17 -20 35 -56 41 -79 6 -23 19 -49 28 -58
14 -15 18 -14 44 11 33 32 64 27 54 -8 -9 -32 -43 -58 -74 -58 -32 0 -60 -27
-90 -87 -21 -43 -38 -60 -48 -49 -4 3 2 15 13 27 19 21 19 21 -29 63 -53 46
-56 55 -27 81 33 30 44 80 27 123 -11 28 -12 41 -3 55 16 26 31 21 64 -21z
m-136 -77 c16 -34 3 -43 -29 -19 -37 28 -40 44 -9 44 18 0 30 -8 38 -25z
m2892 -41 c10 -26 7 -121 -4 -103 -14 24 -24 119 -12 119 5 0 13 -7 16 -16z
m-3180 -24 c60 -14 76 -36 83 -117 5 -65 4 -71 -18 -86 -22 -16 -24 -16 -35 5
-14 25 -37 36 -79 37 -16 1 -42 7 -57 15 -25 13 -30 12 -52 -5 -41 -32 -82
-23 -169 39 -28 20 -47 41 -45 50 9 44 265 87 372 62z m3085 -191 c1 -77 -3
-110 -13 -125 -14 -18 -15 -18 -25 9 -14 37 -14 52 4 111 8 27 15 74 16 105 2
100 17 16 18 -100z m-3518 -11 l-9 -33 -1 32 c-1 17 2 40 6 50 12 30 16 -9 4
-49z m119 -33 c0 -33 -20 -75 -37 -75 -14 0 -11 26 8 78 11 29 29 28 29 -3z
m3507 -62 c-8 -110 -26 -200 -42 -213 -21 -17 -27 34 -10 82 8 24 15 71 15
105 0 67 13 113 31 113 9 0 10 -24 6 -87z m-267 23 c0 -7 27 -46 60 -85 51
-62 60 -78 60 -112 0 -65 -43 -229 -61 -229 -10 0 -4 40 17 117 29 108 19 132
-81 191 -46 27 -50 32 -49 65 1 39 18 67 40 67 8 0 14 -6 14 -14z m-2900 -107
c0 -13 -21 -22 -82 -39 -156 -42 -179 -39 -192 25 -7 38 9 68 24 45 5 -8 10
-22 10 -31 0 -33 22 -38 94 -23 37 8 72 17 77 20 5 3 9 24 9 47 l1 42 29 -35
c17 -19 30 -42 30 -51z m89 4 c1 -14 -5 -23 -13 -23 -26 0 -35 57 -13 79 10
10 13 7 19 -11 3 -13 6 -33 7 -45z m475 51 c10 -26 -5 -39 -21 -19 -7 11 -13
22 -13 27 0 15 28 8 34 -8z m-1023 -35 l24 -20 -30 6 c-16 3 -51 8 -77 12 -60
7 -52 23 11 23 35 0 56 -6 72 -21z m3165 -25 c4 -17 1 -31 -9 -41 -13 -14 -16
-12 -22 16 -11 50 19 75 31 25z m-128 -11 c36 -31 122 -145 129 -171 3 -15 0
-35 -10 -52 -9 -14 -19 -57 -23 -94 -4 -37 -10 -63 -14 -59 -16 18 -32 83 -45
184 -13 110 -37 179 -61 179 -24 0 -26 -44 -5 -167 28 -161 28 -213 -1 -241
l-23 -21 -1 77 c-1 67 -7 92 -47 194 -26 64 -47 123 -47 131 0 20 18 33 60 45
51 15 65 14 88 -5z m-2900 -5 c-3 -7 -13 -13 -23 -13 -10 0 -20 6 -22 13 -3 7
5 12 22 12 17 0 25 -5 23 -12z m3183 -78 c29 0 49 -29 49 -71 0 -21 -4 -39 -8
-39 -4 0 -23 16 -42 35 -19 20 -44 35 -57 35 -27 0 -42 42 -23 65 11 13 15 12
37 -5 14 -11 34 -20 44 -20z m-2827 2 c7 -12 -16 -146 -27 -153 -5 -3 -13 -24
-17 -46 -5 -22 -22 -54 -37 -71 -16 -16 -50 -70 -77 -118 -27 -49 -71 -118
-97 -154 -82 -114 -92 -141 -100 -275 -4 -66 -14 -145 -23 -175 -18 -66 -66
-333 -66 -372 0 -20 -7 -32 -23 -39 -31 -14 -56 -57 -63 -112 -5 -38 -3 -47
17 -66 12 -11 27 -21 32 -21 22 0 50 25 63 56 8 19 19 32 23 29 5 -3 12 1 14
7 3 7 6 -5 6 -28 1 -32 -6 -47 -33 -77 -28 -31 -40 -37 -73 -37 -22 0 -48 -6
-58 -14 -19 -13 -17 -15 18 -21 41 -8 42 -10 22 -45 -27 -47 -13 -116 20 -103
19 7 26 -26 15 -71 -12 -54 -24 -62 -48 -36 -27 29 -42 18 -42 -30 0 -54 -12
-80 -60 -130 -24 -25 -67 -76 -97 -115 -63 -80 -90 -106 -226 -216 l-98 -79
-137 -1 c-377 -1 -409 2 -398 44 6 27 68 140 95 176 13 17 32 26 62 30 42 6
44 7 53 51 l9 45 16 -37 c33 -77 48 -41 75 187 8 66 28 173 45 239 17 65 34
144 38 175 3 31 12 65 19 76 18 30 37 156 32 213 -5 53 -57 202 -70 202 -5 0
-8 -58 -8 -130 0 -127 0 -130 -25 -146 -31 -20 -31 -28 -3 -83 17 -32 20 -45
10 -48 -33 -12 -41 -32 -68 -161 -3 -13 -24 -45 -48 -70 -60 -64 -84 -138 -95
-298 -6 -90 -13 -130 -24 -141 -22 -22 -37 -8 -37 35 0 41 -13 68 -28 58 -16
-10 -42 -72 -42 -100 0 -15 7 -29 15 -32 23 -9 18 -64 -11 -123 -28 -55 -72
-91 -111 -91 -50 0 -98 -30 -133 -83 l-35 -52 -5 35 c-4 31 -9 35 -36 38 -18
2 -40 12 -50 23 -9 10 -23 19 -31 19 -10 0 -13 11 -11 40 1 22 -1 43 -5 47
-17 16 -64 -15 -96 -65 -34 -52 -63 -67 -75 -37 -3 9 3 19 14 25 25 13 26 38
3 56 -32 24 -52 16 -81 -31 -15 -25 -32 -45 -39 -45 -6 0 -23 14 -36 30 -30
35 -47 38 -72 10 -26 -29 -37 -25 -84 30 -23 27 -46 50 -51 50 -5 0 -30 -18
-55 -40 -38 -33 -51 -39 -73 -34 -38 9 -83 33 -109 56 -28 26 -44 20 -58 -22
-9 -26 -19 -36 -44 -42 -17 -5 -46 -18 -64 -28 -42 -26 -56 -25 -97 5 l-34 25
-32 -31 c-38 -37 -110 -52 -265 -55 -105 -2 -154 -14 -146 -37 6 -18 100 -20
312 -7 239 14 315 25 357 49 50 29 132 37 165 16 20 -14 38 -16 84 -11 57 7
59 6 69 -19 8 -22 13 -24 29 -15 39 21 365 5 409 -19 12 -7 11 -11 -9 -22 -27
-14 -114 -16 -669 -9 l-335 4 -220 -33 c-176 -27 -254 -34 -390 -35 -175 -1
-256 7 -238 25 21 21 133 40 266 46 76 3 140 10 143 15 3 5 0 15 -6 23 -9 11
-34 15 -90 15 -43 0 -95 6 -117 14 -34 12 -51 12 -124 -1 -70 -13 -102 -13
-192 -3 -84 9 -115 9 -137 0 -24 -10 -37 -9 -74 5 -41 16 -48 16 -68 3 -20
-14 -25 -14 -45 0 -20 12 -26 12 -39 1 -9 -8 -40 -16 -68 -19 l-51 -5 3 -69 4
-69 -28 7 c-15 4 -45 21 -65 37 -21 16 -40 26 -43 21 -3 -5 1 -30 9 -57 24
-77 19 -81 -32 -34 -55 50 -66 40 -39 -37 13 -39 13 -46 1 -50 -8 -3 -30 3
-48 15 -19 12 -37 21 -40 21 -6 0 -27 -65 -27 -82 0 -5 11 -8 25 -8 30 0 32
-11 5 -35 -26 -23 -42 -15 -80 40 -51 74 -50 92 18 292 64 185 66 197 97 503
8 80 22 169 32 198 17 51 16 53 -5 97 -12 25 -22 51 -22 57 0 6 -19 52 -42
102 l-43 91 0 197 c0 194 0 197 24 222 14 14 28 26 31 26 12 0 46 -100 65
-185 19 -89 33 -110 63 -101 30 10 34 45 16 133 -9 43 -18 92 -21 109 -5 32
14 81 40 102 12 10 16 3 25 -40 15 -75 50 -165 76 -195 48 -56 74 5 41 97 -18
52 -19 94 -2 108 15 13 106 36 113 29 3 -3 11 -47 18 -99 16 -115 27 -138 65
-138 47 0 56 21 32 76 -28 63 -27 76 16 147 46 77 58 87 101 87 l35 0 -6 -62
c-4 -35 -18 -101 -32 -147 -29 -99 -31 -124 -9 -145 19 -19 68 -21 81 -3 6 6
14 57 17 112 9 132 24 162 94 188 29 11 56 17 59 13 4 -4 2 -37 -5 -74 -46
-260 -45 -242 -27 -268 22 -33 51 -31 70 7 9 16 23 81 31 142 17 133 19 139
44 162 29 27 85 13 111 -28 19 -29 20 -42 13 -132 -9 -136 -8 -156 15 -179 18
-17 24 -18 59 -8 58 18 69 45 48 128 -18 70 -15 112 10 152 18 28 59 29 123 2
61 -27 82 -62 84 -141 2 -74 -13 -89 -87 -89 -138 -1 -81 -65 93 -107 96 -23
100 -18 93 110 -6 124 1 137 74 137 30 0 67 -6 82 -14 15 -7 53 -20 85 -27 43
-9 61 -18 66 -33 9 -23 -3 -85 -24 -127 -23 -44 -18 -61 33 -112 l49 -48 26
35 c39 50 47 79 44 152 -2 59 0 67 23 84 38 29 81 34 144 16 l56 -17 0 -47 c0
-26 9 -79 20 -117 11 -39 20 -100 20 -137 l0 -68 40 0 c51 0 66 23 73 110 7
105 68 194 130 191 134 -5 192 -11 195 -20 5 -16 -25 -61 -41 -61 -6 0 -36
-11 -64 -25 -46 -21 -53 -28 -53 -52 1 -58 46 -87 103 -67 21 8 91 19 155 25
180 17 303 60 333 116 13 25 47 49 56 40 15 -15 -112 -233 -207 -356 -60 -78
-80 -117 -73 -138 9 -27 36 -11 115 70 102 103 158 188 261 396 79 160 82 164
91 133 5 -18 13 -32 17 -32 13 0 11 116 -7 510 -16 327 -16 358 -1 393 15 34
19 37 59 37 36 0 48 -6 85 -42 60 -59 65 -47 26 59 -8 21 204 113 262 113 12
0 64 -32 115 -71 92 -70 95 -71 141 -66 62 8 167 61 266 136 77 58 255 164
338 202 42 19 90 25 99 11z m1201 -26 c0 -19 -75 -86 -96 -86 -20 0 -7 50 21
80 33 36 75 39 75 6z m-1545 -11 c-14 -8 -34 -14 -45 -14 -15 1 -13 4 10 14
40 19 67 18 35 0z m-1262 -31 c12 -8 22 -21 22 -28 0 -6 20 -41 45 -76 25 -35
42 -66 39 -69 -4 -3 -16 7 -28 23 -58 81 -89 107 -120 104 -27 -3 -31 -7 -34
-37 -4 -39 11 -78 54 -142 26 -39 32 -60 38 -128 6 -70 4 -88 -15 -131 -25
-58 -44 -78 -53 -55 -10 28 -24 16 -65 -59 -22 -41 -45 -77 -50 -80 -9 -6 -49
35 -83 84 -17 24 -18 24 -32 6 -9 -10 -23 -42 -32 -70 -25 -78 -29 -80 -129
-71 l-88 7 7 112 c18 284 104 497 232 577 35 21 38 22 88 6 59 -19 109 -11
142 22 24 24 34 25 62 5z m4357 -85 c7 -33 -5 -56 -24 -45 -6 4 -11 23 -11 42
0 44 26 46 35 3z m315 6 c0 -12 -21 -25 -41 -25 -16 0 -10 29 8 39 20 11 33 6
33 -14z m-2391 -51 c24 -30 28 -74 7 -74 -20 0 -36 24 -43 64 -7 43 7 47 36
10z m-1309 -26 c0 -14 -18 -9 -24 8 -11 28 -6 39 9 20 8 -11 15 -23 15 -28z
m3468 -6 c3 -30 -37 -147 -64 -186 -25 -37 -28 11 -4 72 12 31 27 79 32 105
12 53 31 58 36 9z m-138 -71 c0 -6 -4 -13 -10 -16 -5 -3 -10 1 -10 9 0 9 5 16
10 16 6 0 10 -4 10 -9z m180 -38 c0 -46 -14 -123 -21 -123 -10 0 -12 123 -2
133 12 12 23 7 23 -10z m-280 -76 c-1 -57 -2 -60 -15 -43 -15 20 -21 97 -9
109 16 15 24 -8 24 -66z m-2574 -77 c4 -25 18 -73 31 -108 25 -63 25 -92 0
-92 -15 0 -62 173 -72 265 l-6 50 20 -35 c11 -19 23 -55 27 -80z m2941 78 c-3
-8 -6 -5 -6 6 -1 11 2 17 5 13 3 -3 4 -12 1 -19z m-7392 -8 c4 -6 -22 -38 -58
-73 -73 -71 -106 -140 -114 -244 -5 -54 -3 -63 10 -63 23 0 43 35 62 110 9 36
26 80 37 98 19 30 61 52 75 38 4 -4 -3 -37 -15 -74 -28 -86 -29 -135 -4 -130
11 2 31 36 57 98 28 66 53 108 82 138 23 23 47 42 53 42 6 0 10 -46 10 -125 0
-153 -2 -156 -116 -174 -126 -21 -188 -44 -241 -91 -26 -23 -66 -51 -87 -62
l-39 -20 7 71 c10 115 93 330 165 429 28 37 36 42 70 42 22 0 43 -5 46 -10z
m6952 -26 c7 -19 -21 -49 -36 -40 -6 4 -11 23 -11 42 0 32 2 34 21 24 11 -6
23 -18 26 -26z m-2576 -152 c10 -30 19 -66 19 -80 0 -25 0 -25 -20 -7 -25 22
-50 104 -50 159 l1 41 15 -29 c9 -16 24 -53 35 -84z m2506 67 c17 -33 16 -64
-3 -83 -25 -25 -32 -19 -43 34 -17 79 -15 91 12 81 12 -4 28 -19 34 -32z m217
19 c-13 -46 -23 -55 -24 -22 0 31 6 44 22 44 5 0 6 -10 2 -22z m196 -43 c0
-11 -5 -27 -10 -35 -7 -11 -10 -1 -10 35 0 36 3 46 10 35 5 -8 10 -24 10 -35z
m-551 -43 c15 -30 26 -71 29 -113 4 -61 3 -68 -18 -79 -12 -6 -24 -10 -26 -8
-2 3 0 40 6 82 10 82 3 116 -25 116 -16 0 -18 9 -9 34 10 25 17 19 43 -32z
m241 23 c0 -16 -6 -25 -15 -25 -9 0 -15 9 -15 25 0 16 6 25 15 25 9 0 15 -9
15 -25z m146 -93 c-13 -12 -17 8 -10 40 l9 33 3 -33 c2 -19 1 -36 -2 -40z
m-4227 16 c10 -30 9 -31 -4 -14 -8 11 -15 26 -15 33 0 22 8 14 19 -19z m4103
-41 l-21 -20 8 35 c12 54 25 69 29 34 2 -19 -3 -36 -16 -49z m-2712 58 c0 -2
-5 -16 -12 -30 -16 -35 -29 -31 -17 5 6 17 15 30 20 30 5 0 9 -2 9 -5z m593
-52 c48 -25 9 -29 -45 -4 -40 18 -41 19 -15 20 15 1 42 -7 60 -16z m-723 -3
c0 -15 -31 -60 -41 -60 -12 0 -11 13 1 44 9 25 40 37 40 16z m2730 -18 c0 -16
-7 -37 -15 -48 -14 -18 -14 -17 -15 13 0 37 9 63 21 63 5 0 9 -13 9 -28z
m-641 -82 c-10 -55 -23 -109 -29 -120 -16 -30 -152 -114 -217 -134 -40 -13
-15 22 31 43 100 45 166 116 166 179 0 48 38 132 60 132 4 0 -1 -45 -11 -100z
m146 78 c-14 -45 -41 -83 -63 -86 -33 -5 -30 44 5 80 34 35 67 38 58 6z m885
-35 c0 -16 -10 -48 -22 -73 l-23 -45 -3 49 c-4 67 4 96 28 96 15 0 20 -7 20
-27z m-2930 -32 c0 -17 -76 -101 -92 -101 -9 0 -15 27 -21 83 l-3 37 32 -31
c35 -34 54 -32 54 5 0 12 3 26 6 29 11 10 24 -2 24 -22z m2670 -17 c0 -8 -5
-12 -10 -9 -6 4 -8 11 -5 16 9 14 15 11 15 -7z m-2333 -31 c-3 -10 -5 -4 -5
12 0 17 2 24 5 18 2 -7 2 -21 0 -30z m2224 -6 c-8 -8 -11 -7 -11 4 0 20 13 34
18 19 3 -7 -1 -17 -7 -23z m-5346 -7 c3 -5 46 -10 95 -10 l89 0 7 -35 c7 -40
-10 -176 -27 -206 -19 -36 -43 -18 -59 45 -17 66 -43 92 -63 64 -7 -9 -20 -30
-29 -47 -22 -40 -42 -39 -84 3 -48 48 -46 86 7 149 41 48 53 55 64 37z m3275
-4 c0 -2 -7 -17 -15 -32 -19 -36 -19 -66 0 -128 20 -66 19 -88 -2 -84 -22 4
-61 115 -62 175 -1 32 4 45 21 57 20 14 58 22 58 12z m900 -27 c0 -15 -30 -23
-42 -11 -6 6 -8 18 -4 27 4 13 10 14 26 5 11 -6 20 -15 20 -21z m-1538 -39 c1
-34 -6 -45 -21 -35 -12 7 -15 54 -5 80 6 16 8 16 16 1 5 -9 10 -30 10 -46z
m2461 41 c-3 -11 -12 -22 -20 -25 -14 -6 -11 5 10 32 13 17 16 15 10 -7z m135
-22 c1 -19 -2 -41 -7 -49 -8 -12 -13 -12 -30 4 -25 23 -26 29 -5 62 22 32 38
26 42 -17z m-4192 -109 c3 -74 2 -88 -6 -65 -15 44 -24 218 -9 185 6 -14 12
-68 15 -120z m-264 111 c24 -11 51 -22 61 -25 14 -4 17 -17 17 -68 0 -35 -3
-80 -6 -100 -6 -35 -9 -37 -56 -47 -75 -17 -127 -14 -135 6 -4 9 1 38 10 64
19 54 21 96 7 135 -6 15 -9 33 -6 41 8 19 59 16 108 -6z m2258 -22 c0 -29 -13
-39 -25 -18 -10 15 4 61 15 54 6 -3 10 -19 10 -36z m-2566 -1 c18 -7 28 -22
32 -46 4 -19 17 -44 30 -55 30 -25 33 -86 7 -109 -40 -34 -153 -29 -181 9 -16
21 -11 157 7 192 13 24 63 29 105 9z m4896 2 c0 -5 -4 -10 -10 -10 -5 0 -10 5
-10 10 0 6 5 10 10 10 6 0 10 -4 10 -10z m-2570 -10 c0 -12 -28 -25 -36 -17
-9 9 6 27 22 27 8 0 14 -5 14 -10z m2667 -12 c-3 -8 -6 -5 -6 6 -1 11 2 17 5
13 3 -3 4 -12 1 -19z m-1397 -8 c0 -5 -5 -10 -11 -10 -5 0 -7 5 -4 10 3 6 8
10 11 10 2 0 4 -4 4 -10z m-935 -75 c31 -51 33 -70 6 -56 -23 13 -48 50 -57
85 -10 40 21 23 51 -29z m-139 8 c14 -16 42 -46 63 -68 67 -70 60 -99 -10 -51
-37 25 -99 108 -99 133 0 21 19 15 46 -14z m984 12 c0 -8 -7 -15 -15 -15 -16
0 -20 12 -8 23 11 12 23 8 23 -8z m-1275 -24 c8 -16 20 -31 26 -33 6 -2 9 -13
7 -23 -4 -18 -6 -17 -18 7 -7 15 -21 30 -32 33 -10 4 -18 15 -18 26 0 28 17
23 35 -10z m2265 19 c0 -5 -5 -10 -11 -10 -5 0 -7 5 -4 10 3 6 8 10 11 10 2 0
4 -4 4 -10z m290 -35 c-14 -17 -40 -20 -40 -6 0 6 10 17 22 26 26 17 37 3 18
-20z m-150 -9 c0 -8 -4 -18 -10 -21 -5 -3 -10 3 -10 14 0 12 5 21 10 21 6 0
10 -6 10 -14z m260 10 c0 -3 -4 -8 -10 -11 -5 -3 -10 -1 -10 4 0 6 5 11 10 11
6 0 10 -2 10 -4z m-2760 -37 c0 -11 -4 -17 -10 -14 -5 3 -10 15 -10 26 0 11 5
17 10 14 6 -3 10 -15 10 -26z m289 -16 c10 -21 28 -47 40 -57 19 -17 29 -46
16 -46 -4 0 -19 7 -35 15 -33 17 -60 61 -60 100 0 36 17 31 39 -12z m971 -8
c-22 -26 -30 -16 -12 15 12 21 18 25 20 14 2 -8 -2 -21 -8 -29z m480 15 c-20
-13 -57 -13 -65 0 -8 13 57 30 70 18 6 -6 5 -12 -5 -18z m-560 -34 c0 -3 -4
-8 -10 -11 -5 -3 -10 -1 -10 4 0 6 5 11 10 11 6 0 10 -2 10 -4z m1630 -11 c0
-2 -10 -9 -22 -15 -22 -11 -22 -10 -4 4 21 17 26 19 26 11z m-2743 -72 c-3
-10 -5 -4 -5 12 0 17 2 24 5 18 2 -7 2 -21 0 -30z m158 27 c8 -12 -47 -40 -80
-40 -33 0 -32 11 3 32 30 19 68 23 77 8z m-265 -27 c0 -20 -3 -24 -11 -16 -7
7 -9 19 -6 27 10 24 17 19 17 -11z m2264 14 c-7 -19 -64 -51 -64 -36 0 7 7 21
17 31 19 21 55 25 47 5z m-3647 -39 c-3 -7 -5 -2 -5 12 0 14 2 19 5 13 2 -7 2
-19 0 -25z m4061 -1 c4 -32 -14 -67 -33 -67 -18 0 -19 25 -4 69 13 37 33 36
37 -2z m-2088 13 c0 -5 -7 -10 -16 -10 -8 0 -12 5 -9 10 3 6 10 10 16 10 5 0
9 -4 9 -10z m1505 0 c6 -10 -28 -28 -85 -45 -23 -7 -24 -7 -10 10 13 16 64 44
82 45 4 0 10 -5 13 -10z m-3591 -33 c17 -12 17 -18 6 -51 -18 -55 -56 -96 -91
-96 -42 0 -37 23 16 67 25 20 45 41 45 45 0 4 -16 14 -35 22 -19 8 -35 17 -35
20 0 12 77 5 94 -7z m1630 -36 c18 -15 21 -31 6 -31 -11 0 -40 53 -39 72 0 7
4 4 9 -7 4 -12 15 -27 24 -34z m330 24 c-6 -16 -54 -21 -54 -7 0 15 12 22 36
22 17 0 22 -4 18 -15z m316 5 c0 -17 -62 -49 -108 -56 -55 -8 -63 0 -20 23 71
38 128 53 128 33z m1646 -35 c-9 -14 -21 -25 -26 -25 -19 0 -10 39 12 55 29
19 36 3 14 -30z m-2128 -8 c3 -14 -1 -18 -20 -15 -12 2 -24 11 -26 21 -3 14 1
18 20 15 12 -2 24 -11 26 -21z m1027 -7 c3 -5 -1 -10 -10 -10 -9 0 -13 5 -10
10 3 6 8 10 10 10 2 0 7 -4 10 -10z m-106 -42 c1 -5 -6 -8 -15 -8 -11 0 -14 5
-10 16 3 9 6 21 7 27 0 12 17 -20 18 -35z m877 23 c-19 -21 -115 -65 -123 -57
-18 17 68 76 111 76 28 0 28 -1 12 -19z m431 -58 c-9 -9 -29 -13 -58 -11 -44
4 -39 11 14 22 15 4 30 13 32 21 15 46 19 49 23 16 2 -20 -2 -39 -11 -48z
m-1969 32 c2 -16 7 -34 11 -38 4 -4 47 1 94 12 48 10 87 15 87 11 0 -13 -101
-56 -158 -69 -29 -6 -74 -11 -99 -11 l-47 0 22 20 c14 13 22 33 22 53 0 39 17
59 45 55 14 -2 21 -12 23 -33z m1060 13 c-3 -7 -12 -14 -21 -16 -12 -2 -15 1
-11 12 7 19 38 22 32 4z m-642 -55 c-10 -10 -19 5 -10 18 6 11 8 11 12 0 2 -7
1 -15 -2 -18z m1282 5 c-20 -29 -38 -34 -38 -10 0 20 12 30 39 31 11 1 11 -3
-1 -21z m-518 3 c0 -13 -29 -35 -37 -28 -7 8 15 37 28 37 5 0 9 -4 9 -9z
m-1360 -16 c24 -29 4 -38 -25 -12 -28 24 -28 26 -9 27 12 0 27 -7 34 -15z
m-116 -26 c-4 -6 -11 -6 -20 2 -21 17 -17 31 6 19 11 -6 18 -15 14 -21z m1016
7 c-24 -23 -206 -125 -308 -173 -51 -24 -123 -50 -160 -59 -37 -8 -76 -24 -88
-35 -24 -22 -102 -35 -124 -19 -24 16 6 30 66 30 40 0 58 6 90 30 61 44 486
239 524 240 13 0 13 -2 0 -14z m-442 -18 c-18 -27 -69 -46 -127 -47 -59 -1
-45 13 45 44 89 32 101 32 82 3z m1037 13 c8 -13 -23 -41 -46 -41 -24 0 -25
26 -1 39 22 13 39 14 47 2z m215 0 c0 -22 -106 -101 -137 -101 -12 0 60 71 92
91 33 21 45 24 45 10z m-1079 -27 c-34 -24 -180 -86 -193 -82 -17 6 77 56 117
64 19 3 39 12 46 20 6 8 21 14 32 14 21 0 21 0 -2 -16z m1357 -16 c-3 -7 -11
-13 -18 -13 -7 0 -15 6 -17 13 -3 7 4 12 17 12 13 0 20 -5 18 -12z m219 -30
c-3 -8 -6 -5 -6 6 -1 11 2 17 5 13 3 -3 4 -12 1 -19z m-1267 4 c0 -18 -57 -62
-99 -77 -98 -34 -87 -4 18 50 70 36 81 40 81 27z m-800 -22 c13 -8 12 -10 -2
-10 -28 0 -21 -29 9 -41 15 -6 42 -8 59 -4 17 3 44 0 60 -6 l29 -12 -30 -7
c-62 -15 -225 -8 -225 10 0 5 14 13 30 19 36 12 38 24 8 45 -22 16 -22 16 12
16 19 0 42 -5 50 -10z m980 -10 c-27 -21 -50 -26 -50 -10 0 11 35 28 60 29 10
0 6 -6 -10 -19z m-1180 -25 c0 -19 -11 -19 -36 0 -18 14 -18 14 9 15 17 0 27
-5 27 -15z m1288 -27 c-5 -15 -48 -24 -48 -10 0 14 12 22 33 22 10 0 17 -5 15
-12z m-258 -18 c0 -5 -7 -10 -16 -10 -8 0 -12 5 -9 10 3 6 10 10 16 10 5 0 9
-4 9 -10z m475 0 c-3 -5 -13 -10 -21 -10 -8 0 -14 5 -14 10 0 6 9 10 21 10 11
0 17 -4 14 -10z m350 -30 c3 -5 -1 -10 -10 -10 -9 0 -13 5 -10 10 3 6 8 10 10
10 2 0 7 -4 10 -10z m-700 -29 c-16 -14 -55 -23 -55 -13 0 12 17 20 45 21 11
1 15 -3 10 -8z m-465 -10 c0 -11 -59 -39 -99 -47 -16 -4 -40 -17 -52 -30 -14
-15 -34 -24 -52 -24 -27 0 -25 2 24 29 30 15 76 40 103 55 51 27 76 33 76 17z
m1260 -1 c0 -5 -5 -10 -11 -10 -5 0 -7 5 -4 10 3 6 8 10 11 10 2 0 4 -4 4 -10z
m-1060 -9 c0 -13 -63 -51 -84 -51 -23 0 -20 25 7 43 24 17 77 23 77 8z m400
-12 c0 -8 -58 -39 -75 -39 -14 0 -2 17 23 32 31 20 52 23 52 7z m-1252 -31
c-2 -15 -11 -24 -25 -26 -28 -4 -31 22 -5 37 26 16 34 13 30 -11z m1442 18 c0
-3 -4 -8 -10 -11 -5 -3 -10 -1 -10 4 0 6 5 11 10 11 6 0 10 -2 10 -4z m566
-11 c-11 -8 -29 -15 -40 -15 -19 1 -19 2 4 15 35 20 62 19 36 0z m-1859 -1
c-3 -3 -12 -4 -19 -1 -8 3 -5 6 6 6 11 1 17 -2 13 -5z m1593 -13 c0 -5 -7 -12
-16 -15 -22 -9 -24 -8 -24 9 0 8 9 15 20 15 11 0 20 -4 20 -9z m-706 -68 c-10
-7 -27 -13 -38 -13 -20 1 -20 1 2 20 13 10 30 16 39 13 14 -6 14 -8 -3 -20z
m-759 -4 c15 -6 7 -8 -27 -8 -52 -1 -78 6 -78 21 0 10 69 2 105 -13z m1574 -5
c-28 -30 -93 -69 -129 -77 -19 -5 -29 -1 -38 13 -13 22 -12 22 43 40 22 7 53
21 70 31 16 11 41 19 54 19 l24 0 -24 -26z m-985 -25 c-17 -19 -74 -27 -74
-10 0 5 19 18 43 30 46 23 61 13 31 -20z m406 32 c0 -11 -108 -53 -124 -48
-15 5 38 38 77 47 45 11 47 11 47 1z m-1375 -21 c3 -5 -1 -10 -9 -10 -8 0 -18
5 -21 10 -3 6 1 10 9 10 8 0 18 -4 21 -10z m795 -4 c0 -15 -21 -26 -47 -26
-14 0 -14 3 2 20 21 23 45 26 45 6z m758 -8 c-5 -15 -58 -24 -58 -9 0 11 17
19 43 20 11 1 17 -4 15 -11z m-1358 -8 c11 -7 1 -10 -35 -10 -36 0 -46 3 -35
10 8 5 24 10 35 10 11 0 27 -5 35 -10z m320 -34 c0 -11 -19 -15 -25 -6 -3 5 1
10 9 10 9 0 16 -2 16 -4z m605 -31 c-27 -21 -82 -35 -135 -35 l-45 1 29 16
c27 14 98 29 151 31 20 1 20 1 0 -13z m584 -6 c61 -21 27 -39 -77 -39 -75 0
-81 18 -11 37 57 15 51 15 88 2z m-294 -7 c-19 -17 -96 -42 -128 -42 -37 0
-65 14 -48 24 30 19 195 35 176 18z m-1465 -32 c9 -16 8 -22 -6 -27 -20 -8
-48 8 -52 31 -5 24 45 21 58 -4z m273 -37 c-7 -2 -19 -2 -25 0 -7 3 -2 5 12 5
14 0 19 -2 13 -5z m-475 -70 c-4 -20 -18 -26 -37 -14 -18 12 -5 31 20 31 14 0
19 -6 17 -17z m1176 -3 c-5 -5 -32 -12 -59 -15 -50 -5 -50 -5 -20 9 35 17 95
22 79 6z m332 -12 c-42 -24 -182 -51 -162 -30 15 15 102 40 141 41 34 0 37 -1
21 -11z m-2516 -17 c0 -6 -4 -13 -10 -16 -5 -3 -10 1 -10 9 0 9 5 16 10 16 6
0 10 -4 10 -9z m1365 0 c10 -17 -12 -21 -25 -6 -10 12 -10 15 3 15 9 0 18 -4
22 -9z m392 -18 c-20 -2 -52 -2 -70 0 -17 2 0 4 38 4 39 0 53 -2 32 -4z m-801
-39 c58 -20 78 -34 46 -34 -28 0 -87 24 -96 39 -9 14 -9 14 50 -5z m-226 -12
c0 -13 -39 -46 -46 -39 -12 12 8 47 27 47 10 0 19 -4 19 -8z m540 -2 c0 -12
-77 -12 -105 0 -14 6 -2 9 43 9 35 1 62 -3 62 -9z m-361 -91 c12 -7 4 -9 -28
-4 -24 3 -51 10 -60 16 -12 7 -4 9 28 4 24 -3 51 -10 60 -16z m584 -6 c-7 -2
-19 -2 -25 0 -7 3 -2 5 12 5 14 0 19 -2 13 -5z m-263 -13 c11 -7 1 -10 -35 -9
-37 0 -45 3 -30 9 27 12 47 12 65 0z m-396 -90 c20 -1 20 -1 2 -15 -27 -20
-122 -30 -141 -15 -33 27 -3 41 74 34 24 -2 53 -4 65 -4z m224 -12 c-5 -15
-88 -24 -88 -9 0 13 18 19 58 20 23 1 32 -3 30 -11z m290 3 c18 -11 -18 -21
-80 -21 -45 0 -71 13 -46 23 21 9 112 7 126 -2z m286 -10 c7 -11 -28 -21 -81
-21 -46 0 -67 16 -31 23 43 8 107 7 112 -2z m-944 -66 c0 -19 -20 -27 -57 -23
l-28 3 30 17 c38 22 55 22 55 3z m220 -15 c0 -11 -68 -25 -78 -16 -3 4 0 11 8
16 20 13 70 13 70 0z m314 1 c3 -4 -18 -11 -47 -14 -42 -5 -57 -12 -78 -37
-30 -35 -86 -54 -130 -45 -40 9 -28 22 28 31 32 5 55 15 72 34 14 15 33 30 41
33 24 9 108 8 114 -2z m-424 -70 c0 -13 -26 -21 -66 -21 -38 0 -46 16 -11 23
41 8 77 7 77 -2z m-237 -8 c-7 -2 -19 -2 -25 0 -7 3 -2 5 12 5 14 0 19 -2 13
-5z m791 -3 c-14 -14 -142 -26 -129 -12 12 12 44 19 100 21 26 1 36 -2 29 -9z
m-4290 -92 c-3 -5 -12 -4 -20 3 -7 6 -11 15 -8 21 3 5 12 4 20 -3 7 -6 11 -15
8 -21z m-130 7 c10 -7 15 -18 11 -24 -9 -15 -45 5 -45 24 0 19 10 18 34 0z
m261 6 c3 -5 1 -13 -5 -16 -15 -9 -43 3 -35 15 8 13 32 13 40 1z m3425 -20 c0
-10 -6 -23 -12 -29 -15 -11 -117 -32 -160 -32 -46 0 -33 26 20 40 26 7 67 18
92 25 61 17 60 18 60 -4z m276 10 c-3 -5 -17 -12 -31 -15 -14 -4 -47 -20 -74
-36 -47 -29 -121 -42 -121 -21 0 12 60 47 112 65 47 17 122 21 114 7z m287 3
c9 -10 -81 -74 -103 -74 -12 0 -55 -18 -96 -40 -72 -38 -117 -49 -128 -32 -5
8 110 70 167 92 16 6 31 19 34 30 3 10 12 21 22 23 25 7 97 8 104 1z m-1143
-44 c-6 -11 -13 -20 -16 -20 -2 0 0 9 6 20 6 11 13 20 16 20 2 0 0 -9 -6 -20z
m-380 -40 c-19 -3 -53 -3 -75 0 l-40 4 40 6 c22 3 56 3 75 0 l35 -4 -35 -6z
m567 14 c-3 -3 -12 -4 -19 -1 -8 3 -5 6 6 6 11 1 17 -2 13 -5z m-1357 -30 c0
-2 -19 -4 -42 -3 -35 1 -38 2 -18 8 23 7 60 4 60 -5z m-373 0 c-3 -3 -12 -4
-19 -1 -8 3 -5 6 6 6 11 1 17 -2 13 -5z m-867 -44 c0 -5 -4 -10 -10 -10 -5 0
-10 5 -10 10 0 6 5 10 10 10 6 0 10 -4 10 -10z m2974 1 c8 -12 -29 -21 -56
-13 -21 5 -21 6 -2 13 27 11 52 11 58 0z m-1226 -28 c-10 -2 -26 -2 -35 0 -10
3 -2 5 17 5 19 0 27 -2 18 -5z m179 1 c-3 -3 -12 -4 -19 -1 -8 3 -5 6 6 6 11
1 17 -2 13 -5z m-1860 -36 c-3 -8 -6 -5 -6 6 -1 11 2 17 5 13 3 -3 4 -12 1
-19z m3127 -9 c-20 -23 -40 -24 -85 -5 -33 14 -34 14 -9 20 42 9 74 12 93 8
17 -4 17 -6 1 -23z m-3890 13 c3 -5 -4 -21 -15 -38 l-19 -29 0 31 c0 39 19 59
34 36z m813 -120 c-8 -10 -22 -33 -30 -52 -18 -43 -61 -84 -104 -98 -44 -15
-41 -3 8 42 38 34 41 40 36 76 -5 39 -5 39 32 42 30 3 38 8 51 37 l15 35 3
-33 c2 -19 -3 -40 -11 -49z m2321 16 c-6 -18 -52 -32 -74 -23 -17 7 -16 9 11
21 38 17 68 18 63 2z m207 2 c-3 -5 -15 -10 -26 -10 -11 0 -17 5 -14 10 3 6
15 10 26 10 11 0 17 -4 14 -10z m205 0 c0 -5 -9 -10 -21 -10 -11 0 -17 5 -14
10 3 6 13 10 21 10 8 0 14 -4 14 -10z m260 0 c0 -5 -20 -10 -45 -10 -25 0 -45
5 -45 10 0 6 20 10 45 10 25 0 45 -4 45 -10z m-3750 -10 c0 -5 -5 -10 -11 -10
-5 0 -7 5 -4 10 3 6 8 10 11 10 2 0 4 -4 4 -10z m166 -29 c-8 -15 -27 -36 -41
-45 l-26 -17 17 28 c39 63 78 90 50 34z m364 19 c0 -5 -7 -10 -16 -10 -8 0
-12 5 -9 10 3 6 10 10 16 10 5 0 9 -4 9 -10z m2075 0 c7 -11 -35 -23 -61 -18
-9 1 -19 9 -22 16 -5 15 74 17 83 2z m-1779 -37 c-11 -11 -19 6 -11 24 8 17 8
17 12 0 3 -10 2 -21 -1 -24z m-1029 21 c-3 -3 -12 -4 -19 -1 -8 3 -5 6 6 6 11
1 17 -2 13 -5z m2535 -6 c-17 -8 -26 -8 -34 0 -9 9 -4 12 23 11 32 0 33 -1 11
-11z m473 2 c-3 -5 -12 -10 -20 -10 -8 0 -17 5 -20 10 -4 6 5 10 20 10 15 0
24 -4 20 -10z m-2745 -20 c0 -5 -6 -10 -14 -10 -8 0 -18 5 -21 10 -3 6 3 10
14 10 12 0 21 -4 21 -10z m2670 -30 c0 -5 -12 -10 -27 -9 -25 0 -26 1 -8 9 27
12 35 12 35 0z m-2450 -39 c0 -12 -20 -25 -27 -18 -7 7 6 27 18 27 5 0 9 -4 9
-9z m535 -21 c7 -11 -52 -40 -80 -40 -8 0 -15 6 -15 13 0 27 81 49 95 27z"/>
<path d="M2820 6529 c-40 -16 -68 -48 -87 -101 -10 -28 -23 -52 -29 -55 -7 -2
-48 14 -93 36 -44 23 -93 41 -108 41 -15 0 -36 8 -47 19 -35 32 -61 34 -90 9
-14 -13 -26 -30 -27 -38 -4 -41 2 -49 44 -60 23 -6 57 -18 75 -27 44 -22 143
-125 194 -202 57 -86 71 -94 103 -58 30 32 51 37 36 8 -24 -44 25 -124 130
-215 l66 -57 -5 -137 c-4 -114 -2 -140 10 -150 12 -10 21 -8 49 11 46 31 50
55 10 63 -17 4 -31 9 -31 13 0 3 9 43 20 89 11 46 20 93 20 105 0 12 -35 66
-80 122 -110 136 -157 235 -114 235 17 0 17 4 -2 172 -6 51 -3 62 25 111 17
30 31 60 31 66 0 14 -65 14 -100 0z"/>
<path d="M3624 6369 c-35 -34 -73 -80 -84 -103 -28 -59 -74 -266 -61 -279 16
-16 58 18 66 53 4 16 10 32 15 35 11 7 53 -63 155 -255 48 -91 96 -174 106
-186 17 -19 18 -27 9 -68 -6 -26 -23 -76 -40 -112 -32 -72 -60 -92 -100 -75
-59 26 -132 90 -175 153 -25 37 -59 75 -75 83 -18 9 -30 23 -30 36 0 26 -29
69 -47 69 -18 0 -55 -83 -51 -113 3 -19 11 -23 57 -29 39 -4 61 -13 80 -32 24
-24 26 -33 25 -104 0 -42 -4 -120 -8 -172 -8 -90 -7 -100 23 -190 34 -103 42
-118 83 -144 22 -14 26 -23 22 -46 -7 -30 -3 -32 68 -44 35 -6 137 -73 168
-110 13 -17 12 -17 -24 -2 -44 18 -76 21 -76 6 0 -15 112 -94 219 -155 53 -29
118 -70 146 -89 57 -41 62 -42 86 -20 15 14 23 14 56 3 21 -6 58 -24 83 -40
26 -15 112 -45 205 -70 137 -37 174 -43 255 -43 52 0 115 6 140 13 92 26 258
121 418 239 59 43 79 64 98 105 38 84 53 183 64 421 8 178 14 235 30 281 31
90 27 143 -13 191 -19 21 -38 53 -44 69 -6 17 -24 52 -41 79 -17 27 -39 71
-47 97 -11 32 -29 58 -53 78 -20 17 -46 39 -58 50 -11 11 -39 23 -62 27 -43 7
-47 13 -33 49 12 28 -5 45 -45 45 -18 0 -39 7 -48 15 -9 9 -34 15 -65 15 -43
0 -51 3 -51 19 0 10 -6 23 -12 29 -22 17 -141 36 -215 33 -68 -2 -72 -1 -75
21 -3 21 -8 23 -57 23 -35 0 -56 5 -58 13 -6 17 -33 15 -33 -3 0 -25 -29 -17
-36 10 -7 29 -38 34 -65 9 -16 -14 -18 -14 -24 6 -6 20 -12 21 -47 16 -32 -5
-43 -3 -53 11 -15 21 -13 23 -49 -41 -21 -36 -31 -45 -37 -35 -5 8 -9 22 -9
32 0 21 -14 22 -45 1 -36 -23 -48 -10 -40 46 11 81 -30 79 -65 -3 l-22 -52
-11 30 c-14 41 -22 45 -94 45 -46 0 -81 -8 -140 -31 -116 -46 -133 -57 -145
-90 -18 -53 -42 -26 -28 32 13 56 26 81 69 139 22 30 41 58 41 62 0 23 -39 1
-96 -53z m1204 -480 c-12 -7 -24 -7 -35 0 -15 9 -12 10 17 10 29 0 32 -1 18
-10z m149 -71 c-3 -8 -6 -5 -6 6 -1 11 2 17 5 13 3 -3 4 -12 1 -19z m-1064 5
c8 -7 -31 -53 -44 -53 -4 0 -3 14 2 30 10 28 28 38 42 23z m1257 -43 c0 -5 -5
-10 -11 -10 -5 0 -7 5 -4 10 3 6 8 10 11 10 2 0 4 -4 4 -10z m-1134 -46 c8
-20 14 -46 12 -58 -3 -19 -6 -17 -26 14 -23 37 -29 80 -11 80 5 0 17 -16 25
-36z m607 -5 c14 -22 -16 -69 -43 -69 -17 0 -20 7 -20 46 0 43 1 45 26 42 15
-2 32 -10 37 -19z m146 -45 c-17 -21 -39 1 -39 40 l1 31 25 -29 c20 -22 22
-31 13 -42z m-396 21 c-3 -9 -8 -14 -10 -11 -3 3 -2 9 2 15 9 16 15 13 8 -4z
m-405 -117 c36 -87 43 -119 44 -188 0 -36 -5 -57 -17 -69 -15 -15 -17 -15 -30
2 -24 33 -57 327 -36 327 5 0 23 -33 39 -72z m537 14 c-9 -9 -35 8 -35 24 0
16 2 16 20 -1 11 -10 18 -20 15 -23z m-265 -68 c0 -14 -4 -23 -10 -19 -5 3
-10 15 -10 26 0 10 5 19 10 19 6 0 10 -12 10 -26z m190 -3 c0 -6 -4 -13 -10
-16 -5 -3 -10 1 -10 9 0 9 5 16 10 16 6 0 10 -4 10 -9z m730 5 c0 -3 -4 -8
-10 -11 -5 -3 -10 -1 -10 4 0 6 5 11 10 11 6 0 10 -2 10 -4z m-582 -43 c2 -9
-8 -13 -32 -13 -28 0 -34 3 -29 16 7 18 54 16 61 -3z m332 -13 c0 -5 -5 -10
-11 -10 -5 0 -7 5 -4 10 3 6 8 10 11 10 2 0 4 -4 4 -10z m-1056 -22 c9 -37 7
-48 -9 -42 -9 4 -15 19 -15 35 0 34 15 38 24 7z m243 0 c-3 -8 -6 -5 -6 6 -1
11 2 17 5 13 3 -3 4 -12 1 -19z m273 -28 c0 -16 -4 -30 -10 -30 -5 0 -10 14
-10 30 0 17 5 30 10 30 6 0 10 -13 10 -30z m-210 -82 c-1 -26 -3 -30 -10 -16
-6 9 -7 23 -4 32 9 25 14 19 14 -16z m480 7 c-7 -8 -16 -12 -21 -9 -13 8 -1
24 18 24 13 0 13 -3 3 -15z m-195 -15 c7 -23 -12 -63 -26 -55 -17 11 -7 75 11
75 5 0 11 -9 15 -20z m-856 -11 c16 -12 52 -24 82 -27 62 -8 71 -24 39 -65
-27 -34 -41 -34 -73 3 -15 16 -40 36 -57 45 -21 11 -30 23 -30 40 0 30 3 31
39 4z m736 -19 c7 -23 -2 -60 -15 -60 -11 0 -23 56 -15 70 10 16 23 12 30 -10z
m-411 -17 c11 -40 17 -83 12 -83 -3 0 -21 8 -41 17 -38 18 -44 37 -18 65 20
23 40 23 47 1z m156 -23 c0 -12 7 -32 16 -45 18 -28 21 -102 5 -118 -8 -8 -11
-3 -11 14 0 14 -9 34 -20 44 -20 18 -27 75 -14 109 9 23 24 20 24 -4z m520 -1
c0 -24 -23 -21 -28 4 -2 10 3 17 12 17 10 0 16 -9 16 -21z m700 -10 c0 -5 -4
-9 -10 -9 -5 0 -10 7 -10 16 0 8 5 12 10 9 6 -3 10 -10 10 -16z m-1034 -31
c20 -38 15 -122 -10 -181 -32 -75 -44 -19 -30 146 7 80 14 86 40 35z m244 16
c0 -8 -7 -14 -15 -14 -17 0 -18 2 -9 24 7 18 24 12 24 -10z m205 16 c3 -5 1
-10 -4 -10 -6 0 -11 5 -11 10 0 6 2 10 4 10 3 0 8 -4 11 -10z m-1108 -92 c-3
-8 -6 -5 -6 6 -1 11 2 17 5 13 3 -3 4 -12 1 -19z m824 6 c28 -14 29 -17 17
-36 -8 -12 -24 -28 -35 -35 -18 -12 -23 -12 -37 2 -19 19 -21 71 -3 78 20 9
27 8 58 -9z m525 -21 c-10 -10 -19 5 -10 18 6 11 8 11 12 0 2 -7 1 -15 -2 -18z
m-396 -15 c0 -30 -1 -31 -17 -16 -13 14 -14 20 -3 32 18 22 20 20 20 -16z
m100 6 c0 -8 -5 -12 -10 -9 -6 4 -8 11 -5 16 9 14 15 11 15 -7z m-812 -30 c31
-9 28 -24 -5 -24 -15 0 -39 -11 -54 -26 l-28 -27 -33 20 c-18 10 -33 26 -33
33 0 23 100 38 153 24z m942 -14 c0 -5 -2 -10 -4 -10 -3 0 -8 5 -11 10 -3 6
-1 10 4 10 6 0 11 -4 11 -10z m-773 -29 c16 -33 -1 -71 -23 -50 -7 8 -17 29
-20 48 -6 29 -4 33 12 29 10 -2 24 -14 31 -27z m993 14 c0 -8 -4 -15 -9 -15
-13 0 -22 16 -14 24 11 11 23 6 23 -9z m-1405 -36 c8 -23 1 -34 -14 -24 -13 8
-15 45 -2 45 5 0 13 -9 16 -21z m922 -21 c-3 -8 -6 -5 -6 6 -1 11 2 17 5 13 3
-3 4 -12 1 -19z m113 -10 c0 -19 -2 -20 -10 -8 -13 19 -13 30 0 30 6 0 10 -10
10 -22z m118 -25 c-16 -15 -18 -15 -24 0 -3 9 -3 25 0 34 6 15 8 15 24 0 15
-16 15 -18 0 -34z m108 16 c10 -17 -13 -36 -27 -22 -12 12 -4 33 11 33 5 0 12
-5 16 -11z m354 -74 c0 -38 -46 4 -60 56 l-9 34 34 -37 c19 -21 35 -45 35 -53z
m-1025 12 c15 -44 17 -61 9 -75 -16 -24 -45 -27 -61 -6 -26 36 -10 151 20 141
7 -2 21 -29 32 -60z m-274 30 c53 -35 74 -97 34 -97 -28 0 -105 83 -105 115 0
13 40 3 71 -18z m1037 -14 c-4 -22 -22 -20 -26 1 -2 10 3 16 13 16 10 0 15 -7
13 -17z m-358 -24 c0 -18 -2 -19 -15 -9 -8 7 -15 16 -15 21 0 5 7 9 15 9 9 0
15 -9 15 -21z m-110 -14 c0 -8 -7 -15 -15 -15 -16 0 -20 12 -8 23 11 12 23 8
23 -8z m238 -32 c-4 -22 -22 -20 -26 1 -2 10 3 16 13 16 10 0 15 -7 13 -17z
m382 -34 c0 -6 -4 -7 -10 -4 -5 3 -10 11 -10 16 0 6 5 7 10 4 6 -3 10 -11 10
-16z m-109 -12 c-13 -13 -26 -3 -16 12 3 6 11 8 17 5 6 -4 6 -10 -1 -17z
m-666 -24 c28 -41 33 -73 11 -73 -14 0 -46 67 -46 95 0 23 7 18 35 -22z m-392
-40 c-7 -2 -19 -2 -25 0 -7 3 -2 5 12 5 14 0 19 -2 13 -5z m1008 -85 c-16 -36
-19 -39 -20 -18 0 14 6 34 14 44 8 11 16 31 16 45 l2 26 4 -27 c2 -15 -5 -46
-16 -70z m364 52 c3 -5 -3 -10 -15 -10 -12 0 -18 5 -15 10 3 6 10 10 15 10 5
0 12 -4 15 -10z m-1065 -58 c0 -7 -4 -10 -10 -7 -5 3 -10 16 -10 28 0 18 2 19
10 7 5 -8 10 -21 10 -28z m-229 -5 c-8 -8 -11 -7 -11 4 0 20 13 34 18 19 3 -7
-1 -17 -7 -23z m834 3 c3 -5 -3 -10 -15 -10 -12 0 -18 5 -15 10 3 6 10 10 15
10 5 0 12 -4 15 -10z m-929 -24 c10 -8 16 -17 13 -20 -3 -4 -17 2 -30 13 -27
23 -13 28 17 7z m432 -108 c20 -40 19 -63 -3 -63 -22 0 -42 43 -32 69 9 22 22
20 35 -6z m616 -14 c25 -4 46 -10 46 -14 0 -15 -70 -21 -112 -9 -36 10 -40 13
-23 20 26 10 33 10 89 3z m-397 -26 c-3 -8 -6 -5 -6 6 -1 11 2 17 5 13 3 -3 4
-12 1 -19z m132 -37 c1 -35 -5 -22 -12 24 -5 28 -4 34 3 20 5 -11 9 -31 9 -44z
m118 -17 c-3 -3 -12 -4 -19 -1 -8 3 -5 6 6 6 11 1 17 -2 13 -5z"/>
<path d="M3214 4729 c-3 -6 18 -61 47 -122 l54 -112 5 -164 c7 -235 27 -227
70 29 22 130 21 180 -6 232 -21 41 -92 116 -125 134 -34 17 -36 17 -45 3z"/>
<path d="M3863 4243 c-21 -8 -15 -23 22 -64 50 -56 49 -105 -6 -204 -22 -41
-46 -75 -53 -75 -7 0 -22 12 -35 26 -12 14 -27 24 -34 21 -38 -12 0 -88 92
-184 80 -84 108 -68 80 43 -14 54 -6 64 59 83 23 6 57 25 76 41 18 16 51 35
72 42 49 17 66 48 60 112 -7 63 -24 87 -87 124 -51 29 -54 30 -90 15 -32 -13
-41 -13 -66 0 -35 18 -74 26 -90 20z"/>
<path d="M3587 4212 c-30 -32 -19 -102 14 -102 29 0 56 62 41 95 -14 30 -33
32 -55 7z"/>
<path d="M4430 4212 c0 -7 17 -21 38 -32 20 -11 48 -29 62 -40 14 -11 71 -36
126 -54 148 -50 154 -54 212 -150 57 -93 144 -186 173 -186 15 0 19 8 19 35 0
41 -26 123 -47 147 -14 16 -13 21 16 53 48 55 39 75 -33 75 -18 0 -41 7 -52
15 -18 14 -18 16 -1 26 27 16 20 35 -20 54 -32 15 -44 16 -80 6 -64 -16 -88
-14 -209 20 -127 36 -204 47 -204 31z"/>
<path d="M3666 4175 c-3 -9 -6 -49 -6 -90 0 -84 10 -98 66 -93 61 5 64 25 19
115 -39 76 -66 100 -79 68z"/>
<path d="M1677 3784 c-4 -4 -7 -18 -7 -31 0 -28 23 -27 28 1 4 20 -11 40 -21
30z"/>
<path d="M5136 3711 c-16 -26 40 -67 81 -59 35 7 26 35 -17 52 -46 18 -57 20
-64 7z"/>
<path d="M5094 3614 c-11 -44 3 -106 36 -152 22 -31 30 -53 28 -76 -3 -29 -1
-31 27 -31 l30 0 -2 60 c-3 129 -97 286 -119 199z"/>
<path d="M3343 3281 c-3 -11 -16 -22 -30 -26 -23 -5 -25 -10 -20 -43 3 -20 8
-46 13 -57 7 -20 7 -20 -15 0 -25 21 -53 12 -59 -19 -6 -27 18 -75 39 -81 16
-5 19 -16 19 -64 0 -62 17 -98 43 -88 8 3 34 30 56 61 22 30 45 57 50 60 5 3
18 -10 30 -29 20 -35 55 -47 63 -23 9 27 -13 102 -52 176 -66 128 -124 183
-137 133z"/>
<path d="M6112 5991 c-20 -12 -12 -95 10 -99 20 -4 45 32 54 76 6 30 5 32 -22
32 -16 0 -35 -4 -42 -9z"/>
<path d="M6170 5850 c0 -34 29 -92 42 -87 14 4 13 43 -2 83 -11 29 -40 32 -40
4z"/>
<path d="M6100 5815 c0 -16 43 -115 51 -115 14 0 22 47 10 68 -19 35 -61 68
-61 47z"/>
<path d="M7005 5715 c-16 -8 -39 -14 -50 -15 -47 -1 -95 -21 -95 -39 0 -23 17
-27 130 -36 112 -9 129 1 105 63 -19 46 -36 51 -90 27z"/>
<path d="M6694 5701 c-38 -23 -74 -72 -74 -100 0 -25 11 -26 53 -5 69 36 118
77 115 99 -4 28 -54 31 -94 6z"/>
<path d="M7144 5615 c-9 -22 3 -33 45 -45 40 -10 101 2 101 21 0 30 -136 52
-146 24z"/>
<path d="M7465 5513 c-34 -8 -38 -20 -13 -43 38 -36 78 -52 111 -46 34 7 129
75 121 88 -5 8 -184 9 -219 1z"/>
<path d="M7208 5332 c-66 -44 -90 -117 -39 -117 30 0 91 74 91 111 0 28 -15
30 -52 6z"/>
<path d="M6906 5218 c-18 -26 -21 -54 -5 -63 16 -10 60 36 57 60 -4 28 -33 30
-52 3z"/>
<path d="M6746 5078 c-9 -13 -30 -42 -46 -65 -20 -29 -40 -45 -66 -52 -41 -11
-74 -37 -74 -58 0 -17 34 -17 49 1 7 8 28 17 49 21 76 13 158 94 150 147 -4
32 -42 36 -62 6z"/>
<path d="M8486 3150 c-85 -33 -108 -70 -42 -70 36 0 158 58 164 78 6 19 -65
14 -122 -8z"/>
<path d="M6766 2993 c-3 -4 -6 -23 -6 -43 0 -106 169 -308 239 -285 9 3 29 25
45 50 28 45 29 45 52 30 26 -17 44 -13 44 10 0 23 -84 105 -108 105 -12 0 -29
-11 -38 -25 -21 -33 -28 -32 -54 10 -20 32 -25 35 -63 33 -41 -3 -41 -3 -73
59 -18 34 -35 59 -38 56z"/>
<path d="M6944 2958 c4 -18 15 -42 26 -53 20 -19 20 -19 20 21 0 41 -13 64
-38 64 -11 0 -13 -8 -8 -32z"/>
<path d="M8330 2214 c-21 -18 -28 -30 -21 -37 13 -13 75 23 79 46 5 25 -22 21
-58 -9z"/>
<path d="M6810 3685 c-9 -11 -10 -19 -3 -26 14 -14 53 6 53 26 0 20 -34 19
-50 0z"/>
<path d="M5565 2788 c12 -54 68 -156 157 -283 69 -98 88 -120 108 -120 41 0
37 40 -14 141 -61 122 -137 227 -190 263 -58 40 -70 40 -61 -1z"/>
<path d="M5313 2664 c-3 -9 6 -50 20 -92 14 -42 33 -108 41 -147 25 -111 38
-158 51 -185 7 -14 15 -38 19 -54 8 -34 64 -123 94 -150 25 -21 52 -15 52 12
0 26 -31 114 -72 203 -19 40 -42 103 -52 139 -10 36 -25 74 -32 85 -8 11 -14
30 -14 43 0 12 -6 25 -14 28 -8 3 -18 24 -21 47 -12 71 -55 114 -72 71z"/>
<path d="M2220 1861 c0 -20 47 -61 103 -87 30 -14 39 -15 52 -4 29 24 17 46
-44 79 -68 36 -111 41 -111 12z"/>
<path d="M1820 1778 c-24 -54 -25 -143 -2 -218 21 -64 46 -78 56 -29 8 39 6
214 -3 253 -9 45 -29 43 -51 -6z"/>
<path d="M5859 1758 c-7 -24 -13 -95 -13 -158 -1 -110 0 -115 20 -118 28 -4
31 6 45 138 13 128 7 180 -21 180 -14 0 -22 -11 -31 -42z"/>
<path d="M2506 1771 c-13 -21 45 -52 153 -80 35 -9 67 -23 71 -31 4 -8 16 -34
28 -56 16 -32 19 -48 12 -70 -5 -16 -14 -60 -20 -99 -24 -145 -25 -133 3 -140
14 -4 30 -4 35 -1 25 15 72 103 78 145 3 25 12 52 18 60 6 8 11 44 11 80 l0
66 37 20 c53 28 51 49 -4 41 -24 -3 -50 -6 -58 -7 -25 0 -145 30 -224 56 -76
26 -131 32 -140 16z"/>
<path d="M2136 1748 c-21 -29 -21 -109 0 -198 18 -79 46 -123 77 -118 22 3 26
11 49 78 9 25 21 59 28 75 11 28 9 34 -31 95 -64 96 -93 112 -123 68z"/>
<path d="M2406 1668 c-23 -33 -20 -106 7 -158 36 -73 84 -61 106 27 15 56 7
93 -24 127 -30 32 -68 34 -89 4z"/>
<path d="M3098 1673 c-10 -2 -18 -8 -18 -13 0 -5 8 -13 18 -19 14 -8 17 -25
17 -118 0 -102 1 -108 21 -111 32 -5 43 18 50 99 6 77 20 129 35 129 5 0 9 6
9 14 0 21 -81 33 -132 19z"/>
<path d="M3576 1624 c-11 -28 -6 -91 8 -103 17 -14 43 -5 56 20 11 20 0 57
-25 82 -21 21 -31 21 -39 1z"/>
<path d="M5750 1572 c0 -5 -25 -37 -56 -73 -69 -79 -82 -103 -64 -124 26 -32
132 -8 144 32 10 38 18 132 11 152 -6 20 -35 30 -35 13z"/>
<path d="M4801 924 c-23 -20 -41 -42 -41 -49 0 -14 42 -35 70 -35 21 0 58 54
62 91 2 19 -2 25 -24 27 -19 2 -38 -7 -67 -34z"/>
<path d="M4586 831 c-21 -23 -18 -50 7 -65 15 -9 23 -6 43 17 34 39 32 67 -4
67 -16 0 -37 -9 -46 -19z"/>
<path d="M5040 797 c-30 -15 -37 -42 -14 -51 21 -8 104 31 104 50 0 18 -55 19
-90 1z"/>
<path d="M8881 1229 c-46 -18 -6 -30 142 -41 113 -9 150 -9 159 0 22 22 -7 33
-108 42 -124 12 -163 11 -193 -1z"/>
<path d="M7957 1061 c-54 -3 -97 -10 -97 -16 -1 -24 471 -38 525 -16 28 12 29
13 11 23 -23 13 -296 18 -439 9z"/>
<path d="M7135 795 c-55 -7 -102 -13 -105 -15 -12 -7 152 -16 228 -12 57 3 82
9 82 17 0 28 -42 30 -205 10z"/>
<path d="M5412 163 c-28 -3 -42 -8 -39 -16 3 -9 56 -12 198 -12 197 1 274 8
264 26 -6 9 -328 10 -423 2z"/>
</g>
</svg>
