<svg xmlns="http://www.w3.org/2000/svg" viewBox="0 0 479.66541 489.59057"><path fill="#dcc9a2" fill-rule="evenodd" d="M107.497 341.71l-28.258-17.897 15.07-50.864 14.13-25.432 19.78-26.374-26.374-58.399 5.652-43.328 20.722-40.502 35.793-35.793 15.07-11.303v-4.71l10.362-14.129 13.187-6.593 16.954 7.535 30.142-8.477 37.676-3.768 32.968 20.722 45.212 48.038 40.502-11.303 32.026-1.884 24.49 6.594 14.128 16.012-7.535 32.026-22.606-23.548-47.096-3.768-42.387 10.361-52.747 21.664-34.851 15.071-47.096 32.025-24.49 18.839-38.619 36.735-45.212 59.34z"/><path fill="#b71620" fill-rule="evenodd" stroke="#000" d="M116.779 183.733l56.45-55.057 115.69-70.389 52.965-18.12 22.998 29.968-54.36 18.817-48.784 26.483-19.514 13.938-113.598 89.206z"/><path fill="#efe0b9" fill-rule="evenodd" d="M3.886 488.649l421.98.942-7.536-12.245-15.07-19.78-8.478-25.433-19.78-15.07-38.619-15.07-65.934-23.549-57.457-14.129-49.922-2.826-45.212 21.665-26.374 44.27z"/><path fill="#edc9aa" fill-rule="evenodd" d="M176.46 362.386l38.68 4.42 77.91 18.787 21.55-34.259 15.473 2.21 29.285 2.21 20.998-6.63 27.076-106.645 1.105-22.103-8.841-18.234 2.763-37.022-8.289-21.55-107.75-17.682-53.046 43.1 3.315 50.836-28.18 8.288-18.788 27.076 49.178 46.415 3.316 7.184-19.34 14.92-13.814 20.444-34.26 10.499z"/><path fill="#a00" fill-rule="evenodd" d="M341.21 285.46l17.84-10.852.552-2.483 32.737 9.196-7.816 28.232-33.842-2.575z"/><path fill="#fff" fill-rule="evenodd" d="M343.063 284.725l42.21-6.14-4.35 14.07-19.058 4.221-6.267-4.093-10.616 1.535zm-35.419-82.765l4.046 18.208 9.012 2.023 23.174-13.978-12.69-8.828zm69.338 10.115l13.058-6.07 6.254-7.724-2.391-11.035-20.415 7.908z"/><path fill="#24676f" fill-rule="evenodd" d="M139.54 361.419l75.776-18.392 9.564-20.6 23.542-17.656 12.506-25.013-2.207-14.714-56.648-30.163 52.97-24.277 1.471-27.22 24.278-20.6 36.784-8.092 77.246-14.714 12.507 34.577 38.255-28.691 16.186-35.313-13.243-20.6-58.119-3.678-76.51 26.485-55.177 25.013-53.705 38.256-44.14 38.99-50.027 67.684z"/><path d="M275.768 0v.002c-3.272.468-5.234.83-14.235 1.314-11.995.645-20.618 2.413-34.795 7.135l-8.123 2.705-5.474-2.59c-7.426-3.513-12.019-3.343-18.39.682-6.113 3.863-11.392 8.26-11.392 9.488 0 .49-1.125 1.949-2.5 3.24s-2.5 2.971-2.5 3.733-.498 1.077-1.107.701c-.722-.446-.904-.03-.523 1.192.808 2.595-.043 3.538-6.487 7.187-6.198 3.51-10.803 7.254-21.588 17.555-4.607 4.4-7.743 6.675-8.699 6.308-1.014-.389-1.315-.108-.937.875.348.908-.068 1.45-1.112 1.45-.916 0-1.405.42-1.086.937.32.516.01 1.304-.69 1.75-.698.446-1.72 1.532-2.27 2.412-.55.88-2.196 3.355-3.657 5.5h-.004c-4.224 6.2-8.79 10.73-9.29 9.219-.033-.098-.064-.204-.096-.303l-8.905 16.432c-.332 1.344-1.282 3.414-2.506 5.338-1.674 2.631-3.043 5.388-3.043 6.127 0 .738-.575 1.82-1.277 2.402-.702.583-1.373 2.237-1.492 3.676-.12 1.439-.661 3.444-1.203 4.457s-1.281 4.477-1.643 7.697c-.361 3.22-1.056 6.363-1.543 6.985-.795 1.013-1.045 9.12-.912 29.699.032 4.97.55 7.555 1.9 9.5 1.021 1.47 2.472 4.101 3.225 5.85.753 1.747 1.612 3.03 1.908 2.85.296-.179.616 1.165.711 2.99.096 1.823.933 4.48 1.863 5.9.931 1.42 1.425 2.582 1.098 2.582-.327 0 .27 1.462 1.324 3.25 1.055 1.787 3.764 7.075 6.02 11.75 2.255 4.675 4.532 9.28 5.06 10.236 1.723 3.114 1.03 5.302-3.289 10.379-2.337 2.748-5.6 6.744-7.25 8.879a276.775 276.775 0 0 1-6 7.443c-4.134 4.91-7.5 9.8-7.5 10.898 0 .505-.64 1.452-1.423 2.102-.784.65-2.804 4.041-4.489 7.535-1.685 3.495-3.506 6.504-4.045 6.69-.539.185-1.083 1.913-1.21 3.838-.243 3.654-3.507 11.7-5.926 14.607-1.781 2.14-4.886 13.284-4.2 15.072.284.74.037 1.925-.55 2.633-1.67 2.011-.867 12.243 1.132 14.453.944 1.043 1.415 2.197 1.047 2.565-.368.367.029.67.881.67.853 0 1.798.944 2.1 2.1.324 1.24 1.013 1.814 1.683 1.4.665-.412 1.005-.142.823.652-.376 1.637 4.625 6.85 8.427 8.785 1.513.77 2.75 1.703 2.75 2.074 0 .371 2.245 2.206 4.989 4.078 3.652 2.493 4.84 3.876 4.433 5.159-.627 1.976 1.133 2.437 1.918.502.682-1.68 2.506.791 3.309 4.482.327 1.503.939 2.522 1.36 2.262.42-.26 1.013.481 1.318 1.646.37 1.413 1.072 1.919 2.113 1.52.942-.362 1.56-.06 1.56.763 0 1.654 2.177 2.577 6.082 2.577 1.605 0 2.918.45 2.918 1s1.013 1.005 2.25 1.005c2.06.01 2.007.133-.619 1.502-1.577.823-4.277 1.87-6 2.328-1.933.514-3.035 1.397-2.88 2.31.137.811-.553 2.349-1.536 3.415-.982 1.066-2.733 3.965-3.89 6.44-1.158 2.475-3.044 5.346-4.192 6.382-1.147 1.036-1.877 2.223-1.62 2.637.255.414-.205 1.309-1.024 1.988-.82.68-1.489 1.753-1.489 2.383 0 .63-1.125 2.8-2.5 4.824s-2.5 4.379-2.5 5.233c0 .854-.45 1.553-1 1.553s-1 .9-1 2-.341 2-.76 2c-.417 0-1.914 1.07-3.324 2.377-1.41 1.307-3.655 2.719-4.99 3.138-2.839.892-8.51 6.6-9.426 9.485-.349 1.1-1.055 2-1.568 2-.513 0-.932.594-.932 1.32 0 2.743-7.372 9.765-15.04 14.326-4.379 2.604-7.96 5.11-7.96 5.568 0 .46-1.012 1.28-2.25 1.825-4.998 2.2-15.322 9.505-19.855 14.05-1.983 1.989-4.997 4.231-6.7 4.985-1.701.753-3.643 2.393-4.314 3.646-.67 1.253-1.818 2.28-2.55 2.28-.733 0-1.33.34-1.33.755 0 .416-1.29 1.328-2.868 2.026-1.577.698-5.065 3.395-7.75 5.994L0 489.34h112.086c.036-.016.044-.03.086-.047a2.744 2.744 0 0 1 1.103-.194c.32.013.586.1.758.24h11.6c-.426-.544.193-1.476 1.816-2.945 1.026-.927 1.555-1.39 2-1.386.446 0 .809.476 1.5 1.422.776 1.06 1.41 2.293 1.41 2.738 0 .059-.033.116-.086.172h14.854c-.594-.17-.943-.376-1.04-.627-.89-2.324.341-11.046 1.944-13.76 1.349-2.283 1.417-3.648.457-9.162-1.406-8.075-1.453-15.496-.103-16.33.564-.349 3.48-.888 6.478-1.197a30.557 30.557 0 0 1 2.407-.168c4.885-.112 4.697 1.871.3 8.673-2.148 3.325-4.463 8.037-5.144 10.471-1.282 4.58-1.141 18.428.183 17.986.413-.137.709-.362.659-.5-.838-2.278 12.326-22.796 13.455-20.97.255.414.096 2.77-.356 5.236-1.04 5.678-.527 15.31.84 15.766.572.19.791.993.488 1.783-.303.79-.09 1.435.473 1.435s1.252-.562 1.53-1.25c.277-.687.538-.237.581 1 .028.777.009 1.28-.517 1.614h22.781c-6.394-1.169-5.453-4.263-6.361-12.227-1.559-13.657-1.107-17.298 3.302-26.678 2.31-4.912 4.616-5.704 6.735-2.312 1.091 1.748 1.516 1.887 2.283.75.78-1.158.891-1.136.65.129-.525 2.759 6.215 9.704 8.217 8.467.759-.47.594-1.45-.535-3.172-.899-1.372-1.393-2.736-1.098-3.031.296-.296-.343-2.264-1.42-4.374-1.777-3.484-2.556-6.916-1.568-6.916 1.147 0 18.207-3.373 25.111-4.964 4.4-1.014 9.688-2.132 11.75-2.485s3.75-1.07 3.75-1.595c0-1.29-3.656-1.21-6.17.134-1.12.6-4.578 1.254-7.683 1.451-3.106.198-10.948 1.325-17.428 2.504-6.48 1.18-12.433 1.895-13.232 1.588-2.081-.798-.713-3.538 2.123-4.25 1.314-.33 2.39-.964 2.39-1.41 0-.446-1.676-.349-3.726.217-3.54.977-3.869.86-6.543-2.33-4.29-5.118-7.959-11.824-7.344-13.426.325-.847 1.911-1.434 3.881-1.434 1.832 0 3.759-.414 4.281-.92.523-.505 3.426-1.402 6.451-1.994 15.384-3.006 20.132-4.05 21.07-4.63 1.19-.736 11.169-1.098 22.055-1.016 6.532.049 13.392.258 18.875.642 16.621 1.165 28.45 3.035 42 6.64 5.225 1.39 16.475 4.297 25 6.462 8.525 2.165 16.918 4.583 18.65 5.375 1.734.792 4.096 1.441 5.25 1.441 2.215 0 2.995 1.93.85 2.1-.687.055-.135.41 1.227.79 2.127.592 1.411 1.068-5.057 3.364-11.108 3.944-35.92 17.744-35.92 19.979 0 1.442-11.09 11.767-12.638 11.767-.702 0-2.533 1.604-4.069 3.565-6.056 7.73-28.035 22.24-31.611 20.867-.813-.312-1.766-.106-2.115.46-.111.179-1.194.335-3.082.472h25.287c-.6-.342-.587-.851-.504-1.647.254-2.423 10.413-12.7 12.566-12.713.734 0 1.15-.555.926-1.226-.224-.672 1.153-2.058 3.06-3.08 1.908-1.022 4.642-2.92 6.075-4.219 9.308-8.433 13.951-13.312 13.326-14.004-.396-.439-.197-.498.443-.13.641.366 3.116-.8 5.5-2.59 8.84-6.64 13.499-9.31 19.836-11.366 3.575-1.16 6.5-2.584 6.5-3.166 0-.582.41-1.434.91-1.892.53-.485.61-.309.192.417-.963 1.673-.512 1.614 9.89-1.263 4.947-1.368 10.841-2.487 13.1-2.487 3.63 0 4.706.607 9.258 5.231 2.832 2.877 5.15 5.781 5.15 6.451 0 .67 1.293 3.153 2.873 5.518 1.581 2.365 3.188 5.313 3.569 6.55.381 1.238 1.112 2.25 1.625 2.25.513 0 .933.675.933 1.5s.436 1.5.97 1.5c.532 0 .7.696.374 1.547-.34.888.176 2.112 1.211 2.87 1.718 1.255 1.7 1.377-.357 2.478-1.68.9-3.63.816-8.743-.37-3.618-.838-10.233-1.525-14.697-1.525-7.372 0-9.913.608-27.687 6.63-16.885 5.72-20.027 7.114-22.893 10.148-2.585 2.737-3.028 3.722-2 4.45.878.62.315.73-1.678.323-2.21-.45-2.605-.345-1.5.403 2.26 1.528 18.863 1.188 23.5-.483 2.2-.792 5.8-1.44 8-1.45 2.2-.01 6.025-.66 8.5-1.454 2.475-.794 7.2-1.954 10.5-2.576 3.3-.623 8.475-1.756 11.5-2.516 3.025-.76 8.65-1.624 12.5-1.922 3.85-.297 7.675-.656 8.5-.797.825-.14 1.662.177 1.86.707.198.53-5.202 3.872-12 7.426l-12.36 6.461-1.242.014h6.13c0-.113.033-.235.112-.363.34-.55 1.041-1 1.559-1s.941.45.941 1c0 .128-.042.25-.111.363h9.203l2.121-1.77 2.287-1.904-2.252.563c-1.238.309-2.032.207-1.765-.225.899-1.454 7.53-4.137 8.595-3.478.581.359 1.304-.294 1.606-1.45.37-1.417.984-2.073 1.764-1.994 1.002.102 2.28 1.419 3.672 3.895 1.236 2.2 2.84 4 3.564 4 2.895 0 1.096 2.01-1.934 2.16-1.404.07-4.659.147-7.922.203 2.843.051 8.596.07 15.05.066v-.746l-1.788-3.504c-1.071-2.1-3.532-5.714-5.467-8.03-5.6-6.703-10.201-15.078-12.584-22.901-1.214-3.988-2.697-7.25-3.293-7.25-.595 0-.8-.283-.455-.627.345-.345-.09-2.014-.966-3.707-1.064-2.058-1.23-3.2-.498-3.444.601-.2-.238-1.665-1.868-3.258-1.629-1.592-2.963-3.279-2.963-3.744 0-.944-12.444-11.492-14.308-12.127-.655-.223-2.587-1.461-4.293-2.754-2.97-2.25-25.289-12.34-27.297-12.34-2.799 0-20.904-6.523-22.738-8.193-1.176-1.07-6.271-3.074-11.323-4.455-5.05-1.38-10.67-3.488-12.488-4.682-1.817-1.193-4.079-2.625-5.027-3.183-1.537-.904-1.277-1.501 2.392-5.5 2.264-2.467 4.669-5.724 5.344-7.236.675-1.513 1.578-2.75 2.006-2.75.428 0 2.476-3.488 4.553-7.75l3.777-7.75 4.451.148c2.449.082 9.851.776 16.451 1.543 17.038 1.98 26.541 1.319 34.344-2.393 3.142-1.494 3.971-2.302 3-2.918-1.045-.662-.968-.853.348-.865.93-.01 1.972.436 2.314.99.948 1.534 3.43-1.424 4.13-4.923.333-1.67 1.227-3.554 1.986-4.184.758-.63 1.378-2.638 1.378-4.463 0-1.825.452-3.596 1.004-3.937.552-.342.73-1.72.393-3.06-.387-1.543-.183-2.438.555-2.438.642 0 .908-.42.591-.932-.316-.512-.117-1.213.442-1.559.559-.345 1.015-1.924 1.015-3.51 0-1.585.393-3.123.87-3.417.75-.465 1.7-5.118 2.466-12.082.121-1.1.71-2.9 1.311-4 .6-1.1 1.395-3.688 1.768-5.75.372-2.063 1.155-3.75 1.74-3.75.634 0 .81-1.008.435-2.5-.362-1.442-.195-2.5.393-2.5.56 0 .946-.338.857-.75-.088-.413.4-2.1 1.088-3.75.688-1.65 1.395-3.675 1.572-4.5.178-.825.883-2.85 1.567-4.5 1.486-3.59 2.025-5.489 2.129-7.5.042-.825.405-1.95.804-2.5.4-.55.64-2.013.532-3.25-.108-1.238.178-2.25.636-2.25.459 0 .832-.64.832-1.418 0-.78.563-1.643 1.25-1.92 1-.404 1-.521 0-.584-1.312-.083-1.799-3.08-.5-3.078.413 0 .696-3.038.63-6.75-.068-3.713.134-7.19.447-7.725.907-1.553.33-11.497-1.016-17.51-.68-3.034-1.253-5.952-1.273-6.484-.02-.533-1.094-2.108-2.385-3.5-3.238-3.492-4.528-6.031-3.065-6.031.854 0 .84-.384-.05-1.457-1.648-1.986-.692-3.164 3.193-3.938 1.799-.359 6.382-2.719 10.185-5.246 5.947-3.952 6.666-4.735 5.131-5.594-1.143-.64-2.011-.65-2.416-.029-.826 1.267-6.13 2.243-6.13 1.127 0-.474.45-.861 1-.861s1-.45 1-1-.73-1-1.622-1c-1.328 0-1.398-.272-.379-1.5.998-1.202.99-1.5-.043-1.5-2.114 0-.326-1.156 5.375-3.473 5.272-2.142 16.85-10.291 18.39-12.941.796-1.373 10.373-12.55 13.528-15.79.963-.987 1.75-2.246 1.75-2.796 0-.55.45-1 1-1s1-.675 1-1.5.45-1.5 1-1.5 1.002-.563 1.002-1.25c0-.688 2.016-3.818 4.479-6.955 2.544-3.24 4.043-5.973 3.47-6.326-.583-.361.512-2.694 2.606-5.547 1.988-2.708 3.239-4.938 2.78-4.955-.46-.018-.143-.58.704-1.25 1.56-1.234 6.96-11.926 6.96-13.78 0-.554.725-2.113 1.61-3.464.886-1.352 1.36-3.11 1.053-3.909-.306-.797-.175-2.78.292-4.406.548-1.913.458-3.344-.254-4.057-.798-.796-.8-1.405-.01-2.195.79-.79.71-1.828-.293-3.75-.763-1.462-1.393-3.444-1.393-4.406-.006-1.694-1.101-3.149-6.807-9.035-7.864-8.113-23.129-12.316-43.699-12.034-13.892.191-22.104 1.387-43.5 6.333-19.724 4.559-20.654 4.65-21.463 2.103-.37-1.165-1.1-2.117-1.623-2.117-.523 0-.68-1.088-.345-2.418.467-1.864.071-2.71-1.73-3.69l-2.339-1.271 2.5-.711 2.5-.71-2.75-.1c-2.83-.103-3.716-1.544-1.5-2.438.725-.293.491-.538-.558-.584-.995-.043-1.532-.528-1.192-1.078.34-.55-.283-1-1.383-1s-2.277-.45-2.617-1c-.34-.55-.087-1 .563-1 .891 0 .882-.36-.037-1.469-.67-.807-1.512-1.429-1.872-1.38-2.185.288-3.259-.369-3.103-1.901.334-3.288-.05-4.19-1.55-3.613-.923.354-1.5-.001-1.5-.924 0-1.579-2.63-3.062-3.966-2.237-.43.267-4.553-3.003-9.16-7.265-9.555-8.84-16.673-13.936-27.875-19.953a499.985 499.985 0 0 1-5.5-2.996 30.724 30.724 0 0 0-4.053-1.885l-9.63-1.873c-.339.3-.791.16-1.163-.227zm-4.916 5.895c6.569.078 12.863.936 17.63 2.498 12.307 4.03 25.975 13.255 39.627 26.746 4.786 4.728 5.05 5.448 2.334 6.31-2.516.799-7.239-.413-6.468-1.66.33-.536 1.679-.705 2.994-.375 2.48.622 3.39-.84 1.076-1.728-2.086-.801-6.734.402-6.02 1.558.375.607.157.742-.521.322-1.68-1.037-5.145.294-5.145 1.977 0 .851-.988 1.434-2.435 1.434-1.34 0-3.702.52-5.25 1.16-1.548.639-3.208 1.07-3.69.959-.48-.112-1.606.423-2.5 1.187-2.09 1.787-5.125 2.867-5.125 1.822 0-1.362-5.116-3.227-7.113-2.593-1.958.621-3.522 4.626-2.47 6.328.511.828-3.42 3.485-13.917 9.406-7.84 4.422-12.601 7.238-16.5 9.754-2.475 1.597-5.762 3.62-7.304 4.494-1.543.875-7.472 4.602-13.176 8.285a4659.762 4659.762 0 0 1-20.58 13.198c-14.987 9.542-21.95 13.19-22.389 11.728-.202-.675-.901-4.828-1.553-9.228-.65-4.4-1.545-10.22-1.988-12.934-1.05-6.435-.594-31.257.725-39.566 1.04-6.548 3.941-14 5.45-14 1.086 0 1.065.253-.788 9.5-2.061 10.283-2.088 35.485-.05 48.716 1.61 10.465 2.067 11.784 4.081 11.784 1.077 0 1.073-1.02-.023-5.735-2.084-8.963-2.703-26.489-1.46-41.265 2.082-24.727 2.887-31.067 4.14-32.59.492-.6 4.163-2.132 8.156-3.403 3.993-1.27 8.16-2.657 9.26-3.082 1.1-.424 4.25-1.529 7-2.455 2.75-.926 5.9-2.063 7-2.529 11.487-2.522 15.947-3.98 25.138-5.307a81.06 81.06 0 0 1 11.854-.716zm-64.186 4.763c.622-.003 1.215.034 1.768.115 4.376.643 3.57 2.028-2.825 4.856-11.363 5.025-18.759 8.612-19.25 9.338-.633.936-5 2.331-5 1.597 0-.581 6.284-6.487 11.862-11.146 3.297-2.755 9.089-4.74 13.445-4.76zm-8.367 14.33a.744.744 0 0 1 .635.23c.334.335.18 1.374-.344 2.311-.7 1.25-1.154 1.38-1.705.489-.655-1.06.437-2.915 1.414-3.03zm-7.04 3.989c1.439 0 1.433.047-.898 7.289-3.44 10.686-4.956 23.929-4.431 38.71.48 13.538 2.863 32.04 4.527 35.17.687 1.293.039 2.326-2.855 4.557-3.674 2.832-11.2 7.79-18.362 12.098-5.78 3.475-8.52 2.949-10.79-2.074-1.057-2.338-2.399-5.825-2.98-7.75-.58-1.925-2.004-6.541-3.165-10.256-1.162-3.715-2.416-9.79-2.787-13.5-.68-6.789.238-20.175 1.763-25.744.948-3.463 1.148-3.044 3.451 7.302 2.205 9.904 4.946 15.555 10.35 21.332 4.947 5.289 7.61 6.305 6.854 2.616-.998-4.863-1.59-9.727-2.584-21.206-.989-11.407-2.918-20.502-4.862-22.923-.495-.617-1.195-2.501-1.554-4.186-.582-2.725-.236-3.361 3.134-5.764l3.79-2.699.593 10.764c.624 11.296 1.011 13.234 3.957 19.808 1.862 4.156 6.458 9.456 8.201 9.456.565 0 .697-1.167.313-2.75-.367-1.513-1.28-10.175-2.028-19.25s-1.85-17.769-2.449-19.317c-.598-1.548-1.088-2.948-1.088-3.111 0-.638 12.867-8.572 13.9-8.572zm106.987 3.658c-.981-.065-1.922.377-2.863 1.318-2.238 2.238-2.731 7.572-.774 8.361.688.277 1.85.314 2.582.082.733-.231 1.735-.42 2.227-.42.492 0 1.634-1.128 2.537-2.505 1.352-2.063 1.414-2.78.356-4.055-1.475-1.777-2.803-2.698-4.065-2.781zm-18.023 8.013c-1.35.074-2.643.603-3.391 1.67-1.558 2.225-1.916 4.881-.807 5.99 2.186 2.186 9.59-1.54 9.147-4.603-.295-2.035-2.7-3.18-4.95-3.057zm1.078 2.329c.582 0 1.058.45 1.058 1s-.198 1-.441 1-.719-.45-1.059-1-.14-1 .442-1zm9.937 3.503c.184.002.393.048.621.135.825.317 1.5.978 1.5 1.469 0 .491-.675.893-1.5.893s-1.5-.661-1.5-1.47c0-.669.329-1.034.88-1.027zm46.746.014c.98-.013 1.375.333 1.375 1.07 0 1.614-2.57 1.916-3.5.413-.34-.55-.478-1.035-.308-1.077 1.048-.26 1.846-.398 2.433-.406zm-8.625 4.483c.55 0 1 .45 1 1s-.45 1-1 1-1-.45-1-1 .45-1 1-1zm-13.816 1.314c.144.005.263.026.357.063 2.82 1.081 1.568 2.805-1.54 2.123-2.33-.512-3-.313-3 .894 0 .86-1.901 2.42-4.25 3.486-2.338 1.062-6.5 2.179-9.25 2.483-2.75.304-4.119.297-3.042-.018 1.077-.314 2.99-1.248 4.25-2.074 1.26-.825 2.291-1.156 2.291-.732 0 .423.788.12 1.75-.676 2.887-2.387 10.279-5.63 12.434-5.549zm3.758.686c.517 0 1.218.45 1.558 1 .34.55-.084 1-.941 1s-1.559-.45-1.559-1 .424-1 .942-1zm11.158 1.712c.332-.124 1.725 1.571 3.371 4.155 1.881 2.952 4.361 6.028 5.512 6.834 1.15.806 3.153 2.524 4.449 3.82l2.355 2.357-2.992 1.043c-2.618.913-3.056.795-3.51-.939-.285-1.09-.916-1.982-1.402-1.982-.486 0-.883-.9-.883-1.998s-1.575-4.19-3.5-6.87c-1.925-2.68-3.488-5.492-3.474-6.252.002-.094.027-.15.074-.168zm16.594 6.4c.497 0 1.43.296 2.806.888 1.929.828 1.921.861-.191.93-1.205.038-2.469-.38-2.809-.93-.365-.592-.304-.887.194-.887zm83.08.179c1.86-.068 7.172 2.057 9.49 3.95 2.5 2.042 2.768 2.883 2.787 8.759.012 3.575-.07 7.287-.181 8.25-.129 1.108-1.057 1.75-2.536 1.75-2.36 0-2.702-.684-2.37-4.764.292-3.596-1.929-9.414-5.173-13.553-1.645-2.099-2.81-3.999-2.586-4.222.107-.107.303-.16.569-.17zm13.361.99c2.17.049 7.147 1.368 12.233 3.361 13.257 5.196 16.132 9.428 16.132 23.74 0 6.292-.372 9.072-1.255 9.368-.691.23-.987.858-.657 1.392.33.534.324 2.07-.013 3.414-.609 2.425-3.914 3.589-3.39 1.194.151-.688-.845-2.375-2.214-3.75-1.37-1.375-3.412-3.69-4.539-5.143-1.127-1.453-4.385-4.079-7.24-5.836-5.188-3.192-6.12-4.694-4.14-6.674.577-.578 1.065-3.858 1.081-7.289.028-5.912-.156-6.404-3.55-9.424-1.97-1.752-3.583-3.531-3.583-3.955 0-.288.412-.414 1.135-.398zm-22.307.215c1.998-.038 3.39.085 3.971.396 4.128 2.21 5.313 4.873 6.834 15.358.625 4.306 1.455 4.077-13.65 3.771-12.671-.257-27.722 1.659-43.983 5.6-13.419 3.252-33.806 9.292-38.5 11.406-1.1.495-4.7 1.84-8 2.984a698.094 698.094 0 0 1-7.75 2.65c-2.936.957-2.272-1.91 3.293-14.226 1.343-2.972 2.726-4.36 5.147-5.168 1.82-.607 6.46-2.288 10.31-3.736 7.178-2.7 23.258-7.862 29.5-9.47l9.5-2.454c14.653-3.786 34.673-6.948 43.328-7.111zm-98.82.683c.675.06.678.475.322 1.4-.54 1.407-.252 1.633 1.5 1.174 2.763-.722 2.728.185-.109 2.872-1.234 1.168-3.452 2.125-4.93 2.125-1.975 0-2.766-.562-2.992-2.125-.221-1.536-.929-2.06-2.553-1.887-3.356.356-2.712-1.49.754-2.16l5.998-1.158c.958-.185 1.605-.277 2.01-.24zm31.084.004c.405.06.919.42 1.676 1.106 1.04.94 2.957 1.71 4.262 1.71 1.402 0 1.981.355 1.42.868-.523.477-3.061 1.566-5.643 2.42-3.973 1.315-4.869 1.34-5.836.176-.628-.757-.822-1.896-.43-2.532.393-.635.094-1.585-.664-2.11-.96-.663-.656-.749.998-.28 1.516.429 2.67.196 3.19-.645.326-.528.622-.772 1.027-.713zm-60.06.817c1.082 0 1.968.584 1.968 1.298 0 1.975-2.143 3.702-4.593 3.702-1.207 0-2.463.702-2.793 1.562-.33.86-1.095 1.258-1.702.883-.606-.375-2.213-.086-3.572.64-2.086 1.117-2.614 1.096-3.39-.132-.728-1.15-.922-1.008-.934.68-.009 1.311-.818 2.343-2.096 2.677-1.56.409-1.935.168-1.5-.965.319-.83.58-2.138.58-2.908s1.238-1.703 2.75-2.072c1.513-.37 3.823-1.502 5.135-2.518 2.893-2.24 3.811-2.296 5.768-.34 1.732 1.733 3.746.975 2.947-1.109-.348-.906.156-1.398 1.432-1.398zm61.435 2.113c-.51 0-1.592.296-2.967.887-1.318.566-1.489.878-.5.914.825.03 2.175-.381 3-.914.914-.591.977-.887.467-.887zm-32.998.887c-.808 0-1.469.675-1.469 1.5s.402 1.5.893 1.5 1.152-.675 1.469-1.5c.35-.914.002-1.5-.893-1.5zm17.473 0c-.583 0-.782.45-.442 1s.816 1 1.059 1 .441-.45.441-1-.476-1-1.058-1zm-54.442.85c-.522 0-1.111.482-1.308 1.073-.197.592.392 1.077 1.308 1.077.917 0 1.506-.485 1.309-1.077-.197-.59-.786-1.074-1.309-1.074zm28.075.241c.8-.027 1.425.25 1.425.946 0 .647-.675.918-1.5.601-.913-.35-1.5-.002-1.5.893 0 .808-.484 1.469-1.074 1.469-.59 0-.922-.788-.738-1.75.232-1.219 2.053-2.112 3.387-2.159zm28.984 1.909c-.857 0-1.559.45-1.559 1s.424 1 .942 1c.517 0 1.218-.45 1.558-1 .34-.55-.084-1-.941-1zm-34.645.572c.689.06 1.091.61.543 1.496-.316.512-1.278.932-2.138.932-1.271 0-1.333-.28-.328-1.49.484-.584 1.094-.878 1.613-.934a1.62 1.62 0 0 1 .31-.004zm-33.714 1.428c.886 0 .907.292.078 1.12-.613.618-.896 1.709-.621 2.425.274.715-.333 1.745-1.348 2.289-2.806 1.501-9.011 2.457-9.615 1.48-.294-.476 1.903-1.979 4.883-3.34 2.979-1.36 5.42-2.812 5.42-3.224.001-.413.543-.75 1.203-.75zm57.918 3c1.1 0 1.722.45 1.382 1-.34.55-1.519 1-2.619 1-1.1 0-1.72-.45-1.38-1 .34-.55 1.517-1 2.617-1zm-31.118.037c.825-.014.21.647-1.365 1.469-3.647 1.902-4.572 1.913-2.076.025 1.068-.808 2.616-1.48 3.441-1.494zm15.278 1.013c.478 0 .613.317.222.95-.34.55-1.378.994-2.308.984-1.458-.013-1.484-.149-.192-.984.98-.633 1.8-.95 2.278-.95zm-21.438 1.92c.304.018.042.414-.713 1.342-1.5 1.845-4.127 2.283-4.127.688 0-.55.413-1 .918-1 .505 0 1.743-.31 2.75-.688.605-.227.99-.352 1.172-.342zm16.719 1.03c.858 0 1.281.45.941 1s-1.04 1-1.558 1-.942-.45-.942-1 .702-1 1.559-1zm-49.252 1.193c.151.01.274.054.36.139 1.09 1.09-1.835 3.668-4.167 3.668-1.24 0-2.786.637-3.433 1.418-.648.78-4.302 2.885-8.121 4.677-3.82 1.792-6.946 3.628-6.946 4.08 0 .453-.7.825-1.558.825-.88 0-1.263-.48-.881-1.098 1.121-1.814 9.697-6.902 11.635-6.902.992 0 1.804-.368 1.804-.817 0-.449 1.8-1.828 4-3.064 2.2-1.237 4-1.939 4-1.56 0 .377.686.115 1.524-.58.629-.523 1.33-.815 1.783-.786zm43.764 1.078c.339-.01.56.12.65.393.208.623 1.353.871 2.576.556 1.98-.51 2.061-.395.793 1.15-.775.946-2.037 1.48-2.803 1.186-.765-.294-1.127-.107-.804.414.696 1.127-8.135 5.363-9.465 4.541-.505-.312-1.428.388-2.053 1.555-.75 1.403-1.786 1.952-3.053 1.621-1.053-.275-1.663-.092-1.355.406.308.499-.167.907-1.057.907-.89 0-1.34.45-1 1 .34.55-.161 1-1.113 1s-2.63.787-3.728 1.75c-1.84 1.611-1.949 1.615-1.38.05.424-1.162.196-1.537-.72-1.185-.801.307-1.119 1.354-.791 2.607.458 1.75.194 2.002-1.611 1.53-1.188-.311-1.964-.25-1.725.136.635 1.027-11.537 7.142-14.182 7.125-1.237-.008-2.25.552-2.25 1.242 0 1.763-5.546 4.022-7.978 3.25-2.155-.684-2.882 1.007-.772 1.795.782.292.501.725-.75 1.157-1.1.379-2.822 1.132-3.828 1.673-1.23.663-2.254.63-3.133-.1-.962-.798-1.45-.704-1.859.36-.308.803.169 1.72 1.076 2.069 1.304.5.986 1.02-1.586 2.584-1.77 1.076-4.134 1.957-5.254 1.957-1.119 0-1.784.402-1.48.894.671 1.086-2.24 2.343-3.55 1.533-.515-.317-.812-.04-.661.616.151.655-1.637 2.276-3.975 3.603-3.331 1.89-4.25 2.091-4.25.932 0-.814.617-1.84 1.37-2.28 2.182-1.274 2.94-4.965 1.16-5.648-.935-.359-1.53-.03-1.53.846 0 1.546-3.374 3.797-4.302 2.869-.31-.31-.037-1.723.607-3.137.906-1.988.897-2.662-.041-2.975-2.423-.807 2.937-6.124 8.016-7.95 2.733-.983 5.185-2.354 5.45-3.046.266-.691.873-1.257 1.347-1.257.473 0 .558.787.189 1.748-.637 1.66-.538 1.66 1.975.013 2.394-1.568 2.793-1.585 4.203-.175.856.856 1.556 2.198 1.556 2.984s.48 1.43 1.067 1.43.8-.842.474-1.87c-.489-1.54.07-1.972 3.184-2.47 2.076-.332 4.9-.352 6.275-.045 1.964.439 2.178.328 1-.514-1.202-.858-.903-1.077 1.5-1.101 2.308-.024 2.654-.255 1.5-1-1.144-.74-.754-.973 1.643-.985 1.86-.009 3.378-.628 3.719-1.515.316-.825 1.377-1.495 2.357-1.485 1.381.012 1.476.209.424.875-.824.522-.967 1.1-.363 1.473 1.373.849 3.561-2.003 2.658-3.465-.534-.864.011-1.002 1.996-.504 1.537.386 2.493.294 2.182-.209-.767-1.24 3.064-4.421 8.123-6.742 2.33-1.07 4.24-2.28 4.25-2.693.006-.413.63-.75 1.388-.75.758 0 1.934-.67 2.614-1.489.68-.819 1.635-1.242 2.123-.941s.886.07.886-.512c0-.582 1.077-1.058 2.393-1.058 1.316 0 2.659-.695 2.984-1.543.442-1.151 1.056-1.297 2.412-.57 1.001.535 2.423.6 3.16.144 1.032-.637.903-.918-.554-1.215-1.645-.335-1.509-.642 1.03-2.33 1.184-.788 2.08-1.197 2.646-1.215zm-20.405 1.729c2.194 0 3.21.39 2.791 1.068-.363.587-1.338.807-2.168.488-.89-.342-2.732.616-4.496 2.34-2.806 2.744-7.46 4.99-6.236 3.01.915-1.48-1.29-1.03-2.914.594-1.702 1.701-3.643 1.981-3.643.525 0-1.72 5.867-4.09 8.74-3.531 2.063.4 2.272.323.827-.307-1.336-.582-1.568-1.069-.75-1.574.65-.403 1.635-.452 2.19-.11.553.343 1.277-.081 1.607-.94.383-1.001 1.844-1.563 4.052-1.563zm-157.517 3.81c.287-.04.491.166.57.69 1.269 8.413 2.948 13.892 5.96 19.441 4.183 7.711 11.598 16.633 15.5 18.65 4.095 2.118 3.497 3.046-2.429 3.766-2.887.351-7.34.917-9.894 1.258-4.266.57-4.706.427-5.385-1.748-.407-1.303-1.022-2.592-1.365-2.867-2.227-1.783-8.492-22.433-8.492-28-.001-3.558 3.986-10.972 5.535-11.19zm190.129 3.506c.224-.016.383.01.459.086.303.303-.188 2.49-1.092 4.857-.905 2.368-1.65 5.642-1.66 7.274-.02 3.764-.733 4.8-4.686 6.826-4.744 2.43-5.646 2.141-5.012-1.61 1.085-6.416 5.487-14.582 8.776-16.283 1.289-.666 2.541-1.102 3.215-1.15zm-52.852.684c1.5 0 3.196 3.712 2.166 4.742-.325.325-.592.065-.592-.576 0-.642-.926-1.166-2.058-1.166-1.2 0-1.785.443-1.403 1.062.794 1.284-2.31 4.938-4.195 4.938-.74 0-2.244.9-3.344 2-2.006 2.006-5.638 2.84-4.525 1.039.326-.528-.885-.431-2.691.214l-3.284 1.174 3 .668c1.65.368 2.216.72 1.258.785-.958.066-2.303 1.02-2.99 2.12-1.732 2.773-4.793 2.504-4.752-.418.008-.596.451-.407.984.418.829 1.281.972 1.245.985-.25.008-.963-.435-1.75-.985-1.75-2.145 0-.819-1.734 2.946-3.85 2.656-1.493 4.773-2.01 6.484-1.58 2.102.528 2.71.189 3.53-1.967.544-1.432 1.596-2.603 2.335-2.603.74 0 2.322-1.125 3.518-2.5 1.195-1.375 2.822-2.5 3.613-2.5zm174.1 1.353c.378-.056.474.415.474 1.524 0 1.22-.637 2.123-1.5 2.123-.825 0-1.5-.397-1.5-.88 0-.482.675-1.436 1.5-2.12.47-.39.799-.613 1.026-.647zm-41.338 1.666c2.988.1 4.835 1.572 6.098 4.72.828 2.068 1.3 4.098 1.05 4.51-.772 1.274-1.695.84-5.836-2.728-2.2-1.896-4.6-3.463-5.334-3.484-2.196-.062-.69-2.512 1.764-2.871a12.7 12.7 0 0 1 2.258-.147zm-18.29.924c.21-.022.452.072.706.326v-.004c.332.332.415 1.173.183 1.867-.338 1.02-.575 1.02-1.205 0-.625-1.012-.309-2.124.317-2.19zm64.714.4c.12.02.25.072.388.157.55.34 1 .816 1 1.058 0 .243-.45.442-1 .442s-1-.477-1-1.059c0-.437.253-.658.612-.598zm-211.354 1.87c.194.007.343.051.432.14.226.226-1.905 1.837-4.735 3.578-2.83 1.741-5.665 3.593-6.3 4.115-3.195 2.629-11.655 7.714-11.655 7.006 0-.446 2.588-2.552 5.75-4.681 3.163-2.13 5.901-4.209 6.084-4.621.184-.413.916-.75 1.627-.75.712 0 1.893-.724 2.625-1.606 1.219-1.468 4.816-3.237 6.172-3.182zm70.45.216a.15.15 0 0 1 .091.037c.267.267.038 1.057-.51 1.758-1.685 2.157-3.02 9.265-2.171 11.56.686 1.857.185 2.535-3.407 4.608-3.604 2.08-7.122 3.762-14.71 7.037-.826.356-2.4 1.194-3.5 1.862s-7.176 4.07-13.5 7.56c-10.987 6.063-22.271 13.34-32 20.639-2.476 1.856-4.865 3.406-5.31 3.443-.73.06-8.483 5.766-9.69 7.133-.486.549-7.92 5.89-12.434 8.934-4.823 3.25-37.221 31.618-43.567 38.146-1.925 1.98-7.941 8.157-13.369 13.727-5.427 5.569-10.215 10.127-10.64 10.127-.425 0-.633-3.599-.46-7.997.351-8.887 1.107-10.354 8.536-16.56 5.28-4.412 13.758-12.448 19.304-18.299 2.27-2.395 8.63-8.218 14.13-12.941 5.5-4.724 10.454-9.065 11.01-9.647.555-.581 2.805-2.443 5-4.138 2.194-1.696 6.847-5.296 10.34-8 3.495-2.705 7.421-5.593 8.726-6.418 2.303-1.458 9.951-6.739 23.562-16.274 13.527-9.476 61.887-36.625 64.568-36.297zm138.351 1.57c.518 0 .941.45.941 1s-.7 1-1.558 1c-.858 0-1.282-.45-.942-1s1.041-1 1.559-1zm-71.572 4.253c1.417-.02 2.513.622 2.513 1.654 0 .434-1.35.828-3 .875-3.393.096-4.022-1.323-1.01-2.28a5.21 5.21 0 0 1 1.497-.25zm-130.424 1.917c.527-.062.657.394.33 1.247-.334.87-1.047 1.584-1.584 1.584-1.314 0-.491-2.274 1.004-2.772.091-.03.175-.05.25-.059zm209.586 3.987c.385.009.351.343.351.863 0 .562-1.237 1.565-2.75 2.229-1.512.663-5.092 2.678-7.953 4.478-4.753 2.99-8.297 4.144-8.297 2.701 0-.728 2.68-3.427 3.403-3.427.3 0 3.78-1.575 7.736-3.5 5.062-2.464 6.868-3.359 7.51-3.344zm-101.21.03c1.097-.034 1.561.21 1.561.743 0 .653-.47.898-1.045.543s-1.586-.217-2.25.307c-.663.524-4.08 1.2-7.595 1.504-3.515.303-6.665.925-7 1.383-.336.457-1.141.935-1.791 1.06-6.834 1.314-9.319 1.414-9.319.375 0-.634 1.238-1.6 2.75-2.148 1.513-.548 3.65-1.428 4.75-1.957 1.1-.53 4.475-.896 7.5-.813 3.025.083 7.413-.207 9.75-.644 1.148-.215 2.032-.334 2.69-.354zm-140.673 3.427c.723-.042 1.33.176 1.516.732.47 1.411-3.928 4.991-5.18 4.217-.505-.312-1.972-.104-3.26.463-2.296 1.01-2.298 1.022-.092.596 2.599-.502 3.157 1.816.668 2.771-2.274.873-4.213.749-4.869-.312-.677-1.096 4.12-5.08 6.117-5.08.768 0 1.638-.632 1.934-1.403.432-1.126 1.96-1.914 3.166-1.984zm29.793 1.387c-1.532 0-2.559.564-2.559 1.406 0 .917.7 1.223 2.016.879 3.074-.804 3.426-2.285.543-2.285zm-11.17 4.382a.69.69 0 0 0-.389.118c-.55.34-1 1.04-1 1.558s.45.942 1 .942 1-.702 1-1.559c0-.644-.252-1.043-.611-1.059zm28.111.618c.825 0 1.5.176 1.5.392 0 .216-.675.652-1.5.969s-1.5.138-1.5-.395c0-.532.675-.966 1.5-.966zm-37.257 1.533c.427.052.628.586.98 1.539.495 1.338.367 2.717-.33 3.556-.833 1.005-.838 1.372-.016 1.372 2.037 0 1.171 1.54-1.879 3.341-1.65.976-3.445 1.5-3.988 1.164-.587-.362-.725.12-.34 1.192.357.99.32 1.508-.082 1.148-.401-.36-1.878-.058-3.283.67-1.405.73-3.173 1.087-3.93.797-.808-.31-1.375.122-1.375 1.045 0 .864-.871 2.038-1.935 2.607-2.574 1.378-3.065 1.309-3.065-.43 0-.805.912-1.953 2.028-2.55 1.115-.597 1.783-1.482 1.484-1.967-.3-.484-.088-1.162.47-1.508.56-.345 1.035-.038 1.057.682.022.72.65-.095 1.397-1.81 1.055-2.425 2.216-3.297 5.21-3.915 2.354-.485 3.158-.956 2.067-1.21-1.455-.34-1.092-.97 1.957-3.393 2.1-1.668 3.023-2.398 3.573-2.33zm-22.95 1.043c.558-.007.995.283 1.578.867 1.167 1.167 1.092 1.66-.498 3.266-2.324 2.346-7.531 5.728-8.873 5.763-.55.015-1 .509-1 1.098s-.756 1.827-1.68 2.75c-1.673 1.674-9.758 2.407-11.154 1.012-1.241-1.242-.675-2.332 1.211-2.332 1.033 0 2.43-.667 3.106-1.48 1.972-2.378 6.784-4.385 9.244-3.858 2.19.469 2.205.43.375-1.057-1.843-1.498-1.83-1.574.5-2.617 1.319-.591 3.522-1.716 4.896-2.498 1.06-.604 1.738-.907 2.295-.914zm246.157 3.44c1.435-.027-.424 1.502-4.73 3.888-2.08 1.152-4.33 2.088-5 2.078-1.388-.02 8.268-5.94 9.73-5.967zm-13.407 2.222c.11.002.203.014.276.039.65.22-.26 1.147-2.02 2.06-3.151 1.636-5.299 2.118-5.299 1.188 0-.858 5.404-3.31 7.043-3.287zm-135.845 1.164v.002c.958-.065 1.18.619-.014 1.812-.65.651-1.178 1.655-1.168 2.233.008.577.451.376.984-.45.793-1.226.972-1.113.985.628.008 1.17.644 2.65 1.412 3.287.801.665 1.16 2.068.84 3.29-.452 1.728-.223 2.003 1.213 1.452 1.306-.501 1.623-.29 1.203.805-.314.816-.026 1.834.638 2.261.665.427 1.855 1.6 2.645 2.604 1.248 1.587 1.248 1.945 0 2.734-1.169.74-1.1.911.373.924.995.008 1.556.426 1.246.928-.887 1.435 2.789 7.148 4.246 6.6.716-.27 1.055-.089.752.402-.303.49.798 1.36 2.447 1.935 2.433.848 3 .772 3-.402 0-2.038 1.76-1.807 2.31.303.406 1.55.47 1.559.573.076.092-1.322 1.042-1.639 4.516-1.504 2.973.115 5.024-.396 6.33-1.579 1.063-.961 2.185-1.498 2.492-1.19.307.306 2.886-.203 5.73-1.134 4.411-1.442 5.54-1.494 7.669-.355 1.372.734 4.058 1.334 5.968 1.334 2.438 0 3.323.388 2.973 1.3-.36.937.646 1.301 3.592 1.301 3.714 0 3.964-.156 2.718-1.687-1.222-1.503-1.152-1.596.63-.848 1.1.462 3.462 1.046 5.25 1.297 2.51.353 3.25.091 3.25-1.152 0-.885.704-1.61 1.566-1.61 1.085 0 1.383.585.965 1.903-.542 1.705-.264 1.82 2.681 1.101a7973.98 7973.98 0 0 1 8.455-2.056c3.489-.847 6.547-2.516 9.414-5.137 4.68-4.278 5.624-4.054 6.909 1.642l.834 3.702-6.973 4.672c-3.834 2.57-8.263 5.348-9.842 6.173-3.236 1.69-7.967 10.462-6.441 11.942.511.496 2.614 1.212 4.672 1.59 3.358.617 4.073.344 7-2.672 1.792-1.848 4.369-4.862 5.724-6.696 1.356-1.834 3.789-4.276 5.408-5.43l2.946-2.097-.668 5.682c-.395 3.36-.284 5.681.273 5.681.518 0 .902 1.395.854 3.102l-.088 3.103-7.463-.699c-5.315-.498-7.27-.384-6.787.397.373.603 1.465 1.097 2.428 1.097.962 0 2.619.635 3.68 1.41 1.81 1.324 1.697 1.453-1.813 2.112-2.057.386-5.763 2.246-8.237 4.135-3.242 2.475-4.498 3.003-4.498 1.888 0-.85.928-2.473 2.063-3.607 1.134-1.135 1.888-2.589 1.674-3.23-.214-.643-1.194.06-2.178 1.562-.984 1.501-2.592 2.73-3.574 2.73-4.319 0-4.828 15.04-.912 26.953.986 3 1.571 5.813 1.3 6.25-.27.438-.12.797.332.797s1.936 1.8 3.295 4 2.843 4 3.295 4c.453 0 .574.402.27.895-.304.492.147 1.163 1.004 1.492.856.329 1.278 1.052.935 1.606-.342.553.03 1.007.828 1.007 1.74 0 3.123 4.714 1.862 6.346-.491.635-2.941 3.706-5.446 6.824-5.433 6.766-6.823 11.3-4.093 13.367 2.594 1.966 2.83 1.84 2.953-1.576.061-1.717.929-3.639 2-4.43 1.695-1.25 1.928-1.17 2.238.786.19 1.2.701 2.633 1.135 3.183.434.55 1.093 2.423 1.465 4.162.556 2.607.328 3.275-1.293 3.79-1.083.343-2.21 1.253-2.504 2.021-.408 1.063-1.327 1.188-3.842.525-5.529-1.455-9.293-1.59-9.303-.332-.003.642-.413 1.542-.914 2-.529.484-.61.31-.191-.416.517-.898-.263-1.25-2.776-1.25-4.45 0-8.936 1.683-8.1 3.037.416.672-.235.82-1.831.42-1.849-.464-3.899.323-8.084 3.102-3.084 2.048-5.608 4.038-5.608 4.422 0 1.169-4.88 3-6.42 2.41-.925-.355-2.033.587-3.085 2.621-.903 1.746-1.497 3.31-1.319 3.477 1.32 1.228 7.783 2.15 8.697 1.236.748-.748 1.196-.642 1.518.357 2.206 6.846 2.718 9.192 2.26 10.385-.868 2.262 1.606 7.533 3.537 7.533 1.033 0 1.543.538 1.246 1.313-.28.729.652 1.93 2.096 2.703 2.24 1.199 2.727 1.19 3.52-.062.777-1.23.922-1.202.935.18.014 1.572 2.887 2.901 6.015 2.783.99-.037.82-.349-.5-.916-1.63-.7-1.687-.873-.308-.93.93-.039 2.01.447 2.402 1.08.491.795 1.14.565 2.098-.744 1.032-1.411 1.583-1.579 2.154-.654 1.03 1.665 7.458 2.352 8.389.896.448-.7.74-.345.75.912.008 1.134 1.018 3.138 2.242 4.452 1.73 1.856 2.194 3.483 2.088 7.298-.075 2.7-.625 5.401-1.225 6-.6.6-1.09 1.72-1.09 2.489 0 3.306-3.353 8.142-6.828 9.851-2.959 1.456-6.425 1.836-17.838 1.961-7.79.085-14.54-.174-15-.576-.83-.727-12.216-3.354-19.834-4.576-5.638-.905-17.64-4.626-20.5-6.356-.825-.499-4.65-2.142-8.5-3.652-17.178-6.738-20.568-8.42-31.5-15.625-9.774-6.441-13.273-11.018-9.523-12.457 3.897-1.496 12.34-16.425 13.127-23.213l.539-4.658-2.07 2.5-3.073 3.707c-.55.664-1 1.72-1 2.344 0 .624-.9 2.277-2 3.676-1.1 1.398-2 3.304-2 4.234 0 2.134-4.083 6.039-6.314 6.039-2.574 0-2.106-.972 3.828-7.953 3.017-3.55 5.486-7.173 5.486-8.05 0-.879.495-2.093 1.1-2.698.605-.606 1.918-4.14 2.916-7.856 1.79-6.667 1.787-6.79-.219-9.504-1.117-1.511-1.735-3.23-1.373-3.816.363-.587.008-2.092-.787-3.346-.795-1.253-1.768-4.284-2.164-6.738-1.185-7.348-4.473-10.98-4.473-4.943 0 3.1-3.309 8.904-5.076 8.904-1.149 0-.978-9.074.2-10.584.477-.612.308-2.257-.39-3.78-.958-2.094-1.736-2.574-3.484-2.148-1.587.388-2.25.103-2.25-.968 0-2.41-.984-1.849-6.093 3.48-2.637 2.75-5.08 5-5.428 5-.349 0-1.947-1.314-3.553-2.92s-4.384-3.214-6.174-3.574c-6.859-1.38-6.869-1.389-4.7-3.557 2.025-2.026 4.538-2.567 5.114-1.101.184.466 1.684.019 3.334-.994 1.65-1.014 2.325-1.853 1.5-1.864-1.176-.016-1.22-.199-.197-.847.717-.455 3.584-.467 6.371-.025 4.266.674 6.03.41 11.145-1.668 3.342-1.358 6.325-2.802 6.629-3.21.304-.406 1.452-1.228 2.552-1.824 1.1-.595 3.46-3.287 5.245-5.98 3.154-4.76 3.186-4.918 1.173-5.662-1.884-.697-1.928-.908-.494-2.342 1.736-1.736 2.164-3.913.576-2.932-.55.34-1 .19-1-.334s.675-1.21 1.5-1.527c2.244-.86 1.81-2.534-.5-1.93-2.638.69-2.523-.043.524-3.33 1.388-1.498 2.808-3.883 3.154-5.3.346-1.418.899-2.804 1.227-3.079 1.661-1.394 2.978-4.954 2.045-5.53-.926-.573-.036-1.853 5.097-7.321.851-.907 3.361-3.224 5.576-5.149 2.216-1.925 4.858-4.776 5.873-6.336 1.565-2.403 1.629-2.98.424-3.779-.781-.518-2.678-.779-4.215-.58-1.536.2-3.025-.014-3.308-.473-.85-1.374-2.896-.948-5.037 1.047-1.11 1.034-3.781 3.001-5.938 4.371-2.157 1.37-4.78 3.448-5.828 4.62-2.59 2.896-4.93 2.828-4.084-.12.832-2.899 5.54-7.247 14.57-13.46 5.398-3.714 7.376-5.89 6.082-6.69-.514-.318-1.492.091-2.171.91-1.351 1.628-2.99 1.982-2.99.647 0-.464 1.574-1.69 3.5-2.727 4.291-2.311 4.406-3.298.478-4.084-3.718-.744-4.649-1.999-2.086-2.812 2.147-.682 3.684-3.534 1.904-3.534-.627 0-1.963.744-2.969 1.655-1.594 1.443-1.828 1.458-1.828.117 0-1.517 7.428-5.562 15.483-8.43 2.19-.78 5.043-2.113 6.338-2.96.96-.63 1.801-.938 2.377-.977zm137.42 2.72c.333.03.189.38-.182.981-.375.607-2.539 1.948-4.809 2.979-2.27 1.03-5.027 1.865-6.127 1.865-1.1-.004.84-1.343 4.31-2.977 4.372-2.057 6.252-2.898 6.808-2.847zm-209.202 2.33c.232.048.274.24.077.56-.336.543-1.034.988-1.551.988-1.439 0-1.123-.718.61-1.383a2.72 2.72 0 0 1 .571-.162.866.866 0 0 1 .293-.002zm48.75 1.548c1.192 0 1.98.127 1.75.283-.229.155-1.203.884-2.166 1.62-1.498 1.147-1.75 1.106-1.75-.282 0-.998.834-1.621 2.166-1.621zm136.217.308a4.97 4.97 0 0 1 .586.004c.509.034.976.154 1.33.373.503.31.305.951-.441 1.424-1.988 1.26-5.087 1.078-4.637-.271.283-.85 1.772-1.46 3.162-1.53zm-85.383.692c.55 0 1 .45 1 1s-.45 1-1 1-1-.45-1-1 .45-1 1-1zm-123.533 1.076c.845-.05 1.258.912 1.315 2.924.065 2.297-.354 3-1.791 3-1.032 0-2.465.787-3.184 1.75-.719.962-3.046 3.1-5.17 4.75-6.098 4.735-6.93 5.108-10.555 4.716l-3.42-.369 3.42-2.922c1.88-1.607 4.01-2.923 4.733-2.923.723-.001 2.45-1.352 3.838-3.002 1.388-1.65 2.954-3 3.478-3 .9 0 2.065-.82 5.332-3.75.835-.75 1.497-1.144 2.004-1.174zm67.092 2.924c.243 0 .441.45.441 1s-.476 1-1.058 1c-.583 0-.782-.45-.442-1s.816-1 1.059-1zm171.824 0c.55 0 .126.659-.941 1.466-1.068.808-2.392 1.47-2.942 1.47-.55 0-.126-.662.942-1.47 1.067-.807 2.391-1.466 2.941-1.466zm-30.699.136c.58.003 1.22.028 1.926.076l4.89.336-4.5 2.204c-3.445 1.687-3.959 2.21-2.191 2.226 1.28.012 2.034.467 1.691 1.022-.34.55-1.709 1-3.04 1-1.768 0-2.596-.696-3.067-2.575-.791-3.151.237-4.308 4.291-4.289zm23.375 2.864c.582 0 .781.45.441 1s-.816 1-1.058 1c-.243 0-.442-.45-.442-1s.477-1 1.059-1zm-256.797 3.257c.463.014.738.12.738.338 0 .26-1.366 1.806-3.035 3.438-1.669 1.631-3.356 2.912-3.75 2.847-.393-.065-2.062-.405-3.709-.757l-2.992-.641 2.992-2.096c2.188-1.53 7.748-3.188 9.756-3.129zm249.297.743c.243 0 .441.45.441 1s-.476 1-1.058 1c-.583 0-.782-.45-.442-1s.816-1 1.059-1zm-4.092 2.464c.54.075-.6.774-3.467 2.135-8.12 3.855-9.865 4.426-10.478 3.434-.303-.49.467-1.183 1.713-1.541 1.245-.359 3.615-1.256 5.265-1.994 1.65-.74 4.35-1.608 6-1.928.256-.05.467-.083.633-.1a1.6 1.6 0 0 1 .334-.006zm-30.883.965c.481.013.079.343-1.045 1.164-2.197 1.607-3.539 1.805-3.539.522 0-.486 1.229-1.117 2.73-1.405.959-.183 1.566-.289 1.854-.28zm-8.138 1.637c.37.017.554.275.554.773 0 .462-1.146 1.362-2.547 2-3.736 1.703-4.292 1.381-1.453-.84 1.688-1.32 2.827-1.961 3.446-1.933zm-268.586.086c.07.001.14.014.215.039.59.197 1.076.786 1.076 1.309s-.485 1.111-1.076 1.308c-.592.197-1.075-.392-1.075-1.308 0-.803.371-1.355.86-1.348zm59.056 11.97c.348.015.647.106.813.272.332.332-.259.569-1.313.526-1.165-.048-1.4-.285-.603-.604a2.744 2.744 0 0 1 1.103-.193zm-5.44.878c2.348 0 2.945 2.217.985 3.65-1.867 1.365-4.46 1.82-4.46.783 0-1.573 2.242-4.433 3.476-4.433zm.466 1c-.583 0-.782.45-.442 1s.816 1 1.059 1 .441-.45.441-1-.476-1-1.058-1zm-42.692.016c2.172.027 4.095 1.653 2.858 2.418-.609.376-1.108 2.007-1.108 3.625 0 3.156-1.398 3.951-2.392 1.36-1.068-2.784-.666-7.42.642-7.403zm33.266.281c1.952-.055 3.224.316 2.896.846-.32.52-.065 1.57.57 2.336 1.264 1.521-.197 5.521-2.017 5.521-.53 0-.965.65-.965 1.445s-1.237 2.063-2.75 2.817-2.653 1.857-2.535 2.451c.123.615-.638.859-1.763.564-1.464-.382-1.831-.126-1.405.985.43 1.12-.3 1.606-2.869 1.906-3.389.396-3.448.34-3.5-3.402-.03-2.126.361-3.55.885-3.227.516.319.937-.623.937-2.09 0-2.398.278-2.601 2.75-2.027 2.04.474 2.363.376 1.25-.377-.825-.558-2.287-1.02-3.25-1.03-1.078-.01-1.75-.783-1.75-2.015 0-1.667.667-2 4-2 2.492 0 4.03.472 4.078 1.25.044.688.502.101 1.018-1.303.748-2.034 1.646-2.571 4.42-2.65zm74.232.412c.446-.025.882.062 1.256.293.79.489 1.226 1.082.967 1.318-1.154 1.054-4.97 1.722-4.97.87 0-1.307 1.41-2.404 2.747-2.48zm-74.189 1.291c-.857 0-1.559.45-1.559 1s.424 1 .942 1c.517 0 1.218-.45 1.558-1 .34-.55-.084-1-.941-1zm68.5 0c.582 0 .781.45.441 1s-.816 1-1.058 1c-.243 0-.442-.45-.442-1s.477-1 1.059-1zm-7.008 2.504c.472-.027.57.322.291 1.047-.644 1.68-1.01 1.793-1.777.553-.304-.493.097-1.145.89-1.45a2.07 2.07 0 0 1 .596-.15zm96.86.467c-6.685-.035-14.507.32-16.68.951-1.798.522-3.521.939-3.83.926-1.51-.063-7.468 6.527-8.922 9.869-4.59 10.55-4.438 9.894-2.684 11.648 2.449 2.449 3.09 2.073 5.305-3.115 2.244-5.253 5.771-9.381 10.535-12.33 3.469-2.147 14.585-2.873 17.957-1.172 9.037 4.559 27.783 7.913 31.014 5.55.977-.714 2.575-1.298 3.55-1.298 2.105 0 4.075-3.234 3.262-5.352-.865-2.254-3.068-2.808-12.918-3.25-4.95-.221-10.237-.626-11.75-.9a855.443 855.443 0 0 1-5.5-1.02c-1.727-.326-5.329-.486-9.34-.507zm-92.97.029c.583 0 1.06.45 1.06 1s-.2 1-.442 1c-.243 0-.719-.45-1.059-1-.34-.55-.14-1 .442-1zm-64.025.123a2.75 2.75 0 0 0-1.103.193c-.798.32-.562.556.603.604 1.054.043 1.645-.193 1.313-.526-.166-.166-.465-.257-.813-.271zm-5 1a2.75 2.75 0 0 0-1.103.193c-.798.32-.562.556.603.604 1.054.043 1.645-.193 1.313-.526-.166-.166-.465-.257-.813-.271zm1.584 1.877c-.825 0-1.5.45-1.5 1s.675 1 1.5 1 1.5-.45 1.5-1-.675-1-1.5-1zm89.559 10c.582 0 .781.45.441 1s-.816 1-1.058 1c-.243 0-.442-.45-.442-1s.477-1 1.059-1zm-81.1 2.201c.027.01.041.019.041.041 0 .172-.9 1.083-2 2.025s-2 1.283-2 .758c0-.525.9-1.437 2-2.025.963-.515 1.772-.841 1.96-.799zm-6.638 4.799c1.71 0-4.85 6.856-6.63 6.927-.994.04-1.574.452-1.288.915.286.462-1.038 2.35-2.942 4.195-2.198 2.13-3.46 2.817-3.46 1.88 0-.81.787-2.205 1.75-3.099.962-.893 2.898-2.93 4.302-4.527 2.793-3.176 6.888-6.291 8.268-6.291zm182.28.314c-.163 0-.288.04-.364.115-.314.314-.382.683-.153.82.23.138 1.766 1.026 3.416 1.973 3.532 2.03 5.211 2.3 3.284.528-1.953-1.795-5.034-3.457-6.182-3.436zm-12.224.846c-.407.01-1.31.114-2.752.287-2.13.257-4.733 1.245-5.783 2.195-1.314 1.19-3.292 1.657-6.351 1.498-6.271-.324-12.599 1.555-13.22 3.928-.356 1.366-1.381 1.932-3.495 1.932-2.383 0-2.86.339-2.35 1.67.353.918.083 2.016-.601 2.44-.952.587-.844 1.211.464 2.657.941 1.04 1.711 2.605 1.711 3.48 0 .962 1.209 1.86 3.053 2.264 2.996.659 3.647 2.945.863 3.034-2.72.087.035 5.455 2.8 5.455.808 0 2.548-.85 3.866-1.887l2.399-1.885-2.24-.67c-1.875-.56-1.425-.898 2.76-2.07 2.75-.77 5.16-1.421 5.357-1.445.197-.024.097 1-.223 2.275-.477 1.9.088 2.707 3.14 4.477h.003c5.237 3.036 9.885 2.804 15.527-.774 2.583-1.638 4.695-3.711 4.695-4.607 0-1.156-.508-1.423-1.75-.918-4.606 1.872-7.728 2.425-8.627 1.527-.61-.61-.341-1.195.739-1.61 2.694-1.033 3.59-3.689 2.652-7.849l-.857-3.804 6.172.681c9.122 1.008 10.671 1.538 10.671 3.666 0 2.336 2.283 2.465 4.127.23 1.15-1.392 1.153-1.737.02-2.119-.744-.25-2.911-1.967-4.815-3.816-1.903-1.849-5.188-3.826-7.3-4.394-3.912-1.054-11.717-.805-15.782.502-1.652.53-2.25.325-2.25-.772 0-1.816 1.534-3.102 5.5-4.613 1.86-.71 2.556-.977 1.877-.965zm72.733 1.34l-.483 3.69c-.378 2.9-.178 3.574.938 3.146.805-.31 1.717.232 2.107 1.25.403 1.05.199 1.957-.492 2.187-.649.216-1.18 1.255-1.18 2.309 0 1.442.709 1.918 2.864 1.918 2.592 0 3.024.517 4.584 5.474 2.457 7.813 2.834 20.25.703 23.188-.908 1.251-2.637 2.29-3.842 2.306-1.205.017-2.469.482-2.809 1.032-1.059 1.713-4.497 1.143-4.521-.75-.012-.963-.903-2.875-1.979-4.25s-1.966-3.125-1.978-3.887c-.012-.762-1.034-2.34-2.272-3.508-4.003-3.776-8.306-15.588-5.963-16.369 1.608-.536 1.56-2.236-.064-2.236-2.1 0-4.226-3.297-4.187-6.494.047-3.877 2.397-4.355 6.496-1.325 3.033 2.243 3.058 2.326.879 2.84-2.208.521-2.198.56.587 2.385 2.608 1.708 3.037 1.732 5.416.293 3.501-2.117 4.184-5.178.928-4.164-2.217.69-2.255.63-.717-1.152.894-1.036 2.381-3.233 3.305-4.883zm-46.27 2.584c-.478.062-.263.962.899 2.666 1.047 1.537 1.82 4.293 1.752 6.25-.067 1.925.021 3.795.195 4.156.598 1.242 4.379-.409 5.428-2.37 1.094-2.045.985-2.228-5.01-8.343-1.614-1.646-2.785-2.421-3.264-2.36zm35.479.396c.512.027 1.181.415 1.691 1.03 1.005 1.21.943 1.49-.328 1.49-1.867 0-3.087-1.631-1.81-2.42a.767.767 0 0 1 .447-.1zm-72.783 13.69c.141.015.347.09.617.213.74.338 2.135.892 3.097 1.232.963.34 1.75 1.014 1.75 1.5 0 1.784-3.965.82-5.062-1.23-.682-1.274-.828-1.76-.402-1.715zm-138.72.094c.075.02.116.099.116.236-.007 1.766-2.857 6.138-2.896 4.441-.02-.857.626-2.432 1.433-3.5.606-.8 1.125-1.24 1.348-1.177zm57.434.752c1.82.012 1.963.2.75.984-1.938 1.253-3 1.253-3 0 0-.55 1.013-.994 2.25-.984zm117.33.984c-1.987 0-4.597 2.794-4.502 4.82.05 1.04.272 1.205.584.43.278-.688 1.033-1.25 1.68-1.25s1.739-.9 2.426-2c1.031-1.652 1-2-.188-2zm-179.58 7c.55 0 1 .675 1 1.5s-.45 1.5-1 1.5-1-.675-1-1.5.45-1.5 1-1.5zm51.612 9.344c.12.02.25.07.388.156.55.34 1 .816 1 1.059 0 .242-.45.441-1 .441s-1-.476-1-1.059c0-.437.253-.658.612-.597zm-98.836 9.713c.661-.066 1.24.693 1.271 2.193.027 1.237.26 4.672.518 7.633.405 4.65.118 5.842-2.1 8.75-1.412 1.851-2.913 3.367-3.336 3.367-.423 0-.645-2.075-.496-4.61.165-2.791-.308-5.49-1.197-6.847-1.342-2.048-1.265-2.445.879-4.64 1.29-1.322 2.633-3.19 2.984-4.153.398-1.09.962-1.642 1.477-1.693zm241.191 1.181c-.567-.06-.967.154-.967.58 0 .569.788 1.24 1.75 1.492 2.874.751 3.106.732 3.75-.31.34-.55-.047-1-.859-1-.813 0-2.189-.274-3.059-.607a2.483 2.483 0 0 0-.615-.155zm-124.037.133c.709-.016.934 2.42.088 5.563-1.371 5.092-3.231 6.413-2.666 1.894.229-1.83.844-4.418 1.367-5.75.466-1.186.889-1.7 1.211-1.707zm-45.318 5.973c.12.02.25.07.388.156.55.34 1 .816 1 1.059 0 .242-.45.441-1 .441s-1-.476-1-1.059c0-.437.253-.658.612-.597zm176.218 2.42a48.892 48.892 0 0 0-3.023.072c-6.583.326-8.283 1.405-6.744 4.281.777 1.452 1.493 1.569 4.521.732 1.98-.546 4.218-.757 4.975-.466.757.29 1.662.069 2.01-.495.348-.563 1.264-.783 2.033-.488 1.615.62 1.773-.261.428-2.389-.531-.839-1.67-1.212-4.2-1.248zm-171.3 1.722c.398.066.767.814 1.435 2.428.72 1.74 1.77 3.008 2.332 2.82.563-.187 2.19.738 3.614 2.059 2.058 1.907 3.346 2.3 6.277 1.908 2.028-.271 3.908-.272 4.18 0 .82.82-.497 3.299-1.752 3.299-.644 0-1.941.9-2.883 2s-2.055 1.985-2.473 1.967c-.418-.017-3.01-2.442-5.76-5.389-7.577-8.119-7.567-8.104-6.111-10.096.503-.687.83-1.047 1.14-.996zm154.22.53c-1.39-.028-.763 1.97 1.25 3.984 2.72 2.72 4.337 2.573 2.758-.25-1.327-2.373-2.76-3.708-4.008-3.734zm-81.996 7.984c-.558 0-.448.663.246 1.5 1.223 1.473.366 2.06-2.324 1.594-.453-.08-.522.343-.154.94.378.61 1.864.82 3.414.48 1.695-.373 3.157-.108 3.82.691 1.306 1.573 18.03 1.717 19.067.164.372-.558 1.465-1.307 2.427-1.662.963-.355 1.75-1.056 1.75-1.559 0-1.345-5.206-2.109-7.18-1.052-.934.5-3.863.83-6.51.734-2.645-.096-6.202.15-7.901.543-2.238.518-3.443.29-4.372-.828-.705-.85-1.733-1.545-2.283-1.545zm-109.287 1.46c.06.024.126.118.195.29.278.687.278 1.812 0 2.5s-.503.125-.503-1.25c0-1.031.127-1.607.308-1.54zm-59.07 5.083c.262.044.464.413.713 1.047.412 1.05.781 3.424.82 5.275.039 1.851.807 5.451 1.707 8 1.83 5.183 2.47 3.115-5.9 18.996-2.07 3.926-4.254 7.139-4.856 7.139-.64 0-.807-.726-.4-1.75.382-.963 1.589-6.475 2.68-12.25a2406.41 2406.41 0 0 1 2.507-13.135c.29-1.45.005-3.606-.629-4.79-.951-1.779-.762-2.79 1.084-5.776 1.238-2.003 1.837-2.83 2.274-2.756zm259.545 8.457c.582 0 1.058.45 1.058 1s-.198 1-.441 1-.719-.45-1.059-1c-.34-.55-.14-1 .442-1zm-237.578.346c.09.014.2.167.32.466.289.722.252 1.584-.08 1.916-.332.333-.569-.258-.526-1.312.03-.728.134-1.093.286-1.07zm45.218 4.105a.902.902 0 0 1 .295 0c.158.023.348.077.57.162.854.328 1.553.774 1.553.99 0 .81-1.907.355-2.494-.595-.197-.319-.156-.512.076-.559zm6.278 3.72c.07-.01.14-.01.215.02.59.198 1.04.686 1 1.085-.041.399-.075 1.4-.075 2.224 0 .825-.45 1.5-1 1.5s-1-1.163-1-2.584c0-1.243.371-2.165.86-2.244zm205.299.395c.798.04.841.72.841 2.467 0 3.408-1.724 4.55-9.222 6.098-2.903.6-6.853 1.422-8.778 1.828l-3.5.738 2.5 1.088c1.677.73 1.946 1.107.82 1.15-.923.035-2.277-.535-3.011-1.269-1.92-1.92-9.71-2.994-11.42-1.574-1.866 1.548-1.777.153.111-1.735.825-.825 1.5-1.967 1.5-2.537 0-.57-.675-.775-1.5-.459-.907.348-1.5 0-1.5-.87 0-1.08 1.156-1.399 4.555-1.25 2.891.125 4.855-.286 5.375-1.128.583-.944 1.02-1.004 1.514-.205.382.618 1.167.83 1.746.473.579-.358 4.036-.802 7.681-.987 3.646-.184 8.092-.766 9.88-1.294 1.177-.348 1.928-.557 2.408-.534zm-128.041 1.72c.397.046.781.212 1.056.487 1.303 1.303-.372 2.34-2.078 1.286-.994-.615-1.022-.987-.115-1.547.328-.203.739-.274 1.137-.227zm-70.118 1.843c.453 0 .907.07 1.25.209.688.277.125.504-1.25.504s-1.937-.227-1.25-.504c.344-.139.797-.21 1.25-.21zm173.711 8.637c.659 0 1.305.638 1.973 1.925.724 1.396 1.316 2.935 1.316 3.422 0 .487-.476.887-1.058.887-.582 0-.832-.37-.553-.822.28-.452-.43-1.626-1.576-2.608-1.627-1.393-1.796-1.963-.766-2.6.223-.137.445-.206.664-.204zm-3.742 5.234c.533 0 .74.591.463 1.314-.33.86.804 1.652 3.281 2.29 3.753.964 3.762.977.98 1.556-1.788.372-3.33.061-4.25-.86-1.638-1.638-1.931-4.3-.474-4.3zm15.531 0c.825 0 1.5.45 1.5 1s-.675 1-1.5 1-1.5-.45-1.5-1 .675-1 1.5-1zm9.86.016c2.342-.061 4.64.302 4.64.984 0 .55-.562 1.025-1.25 1.057-.687.032-2.937.236-5 .453-3.774.397-5.108-.774-2.168-1.902.952-.365 2.372-.555 3.778-.592zm-138.133 5.94c.412-.07.786.171.848.769.04.399-.465.905-1.125 1.125-.66.22-1.02-.14-.8-.8.216-.645.665-1.025 1.077-1.095zm-57.285 4.044c.582 0 1.058.45 1.058 1s-.198 1-.441 1-.719-.45-1.059-1-.14-1 .442-1zm-89.442 1c1.124 0 1.538 1.316 1.649 5.25.194 6.896.32 7.88 1.31 10.25.46 1.1 1.45 3.53 2.202 5.403.75 1.872 1.203 3.566 1.005 3.763-.664.664-8.148-5.811-9.89-8.556-1.431-2.256-1.542-3.388-.656-6.664.586-2.171 1.473-4.374 1.972-4.897.5-.522.908-1.76.908-2.75s.675-1.799 1.5-1.799zm151.57 1.202c.624-.081 1.31.197 2.419.79 1.381.74 2.511 2.17 2.511 3.176 0 1.007.477 1.832 1.059 1.832s.792.433.465.961c-.327.529.816 2.216 2.539 3.75 1.723 1.534 4.466 3.979 6.098 5.434 1.745 1.557 2.478 2.808 1.779 3.04-.827.277-.51 1.75 1.045 4.856 1.585 3.165 2.204 6.115 2.138 10.164-.081 4.992.277 6.11 2.866 8.944 1.627 1.781 3.27 2.924 3.654 2.54.384-.383-.282-1.74-1.48-3.017-1.2-1.276-1.897-2.605-1.55-2.953.349-.348.3-1.44-.109-2.426-.408-.986-.897-2.918-1.086-4.293a131.057 131.057 0 0 0-1.947-10.75c-.48-2.168-.346-3.25.404-3.25.62 0 1.125.675 1.125 1.5 0 .962.987 1.512 2.75 1.532 3.384.039 9.68 6.022 9.721 9.238.016 1.24.584 2.12 1.28 1.98.687-.137 1.172.087 1.076.5-.223.959 2.388 6.571 3.398 7.305.421.306.866 1.768.988 3.25.123 1.482.54 2.695.926 2.695s.999 1.35 1.361 3c.363 1.65 1.027 3 1.479 3 1.265 0 3.324 9.8 2.47 11.762-.415.956-.668 2.47-.56 3.365.422 3.507-3.507 2.917-20.389-3.062-16.238-5.752-28.731-8.809-47.023-11.504-16.548-2.439-22.988-3.094-35.477-3.611-4.16-.173-4.273-.244-1.5-.95 1.65-.42 4.727-.817 6.838-.882 4.806-.149 16.207-5.345 19.666-8.965 4.187-4.381 9.156-12.085 8.49-13.162-.337-.546-.125-.99.471-.99 1.125 0 3.09-4.251 3.319-7.182.072-.925.6-1.6 1.173-1.5.574.099.98-.606.905-1.569-.077-.962.225-1.75.672-1.75.446 0 2.124-1.237 3.728-2.75s4.133-3.65 5.617-4.75c1.485-1.1 3.577-2.866 4.649-3.925.86-.85 1.42-1.292 2.043-1.373zm-57.7 4.902c.136.048.383.261.753.629.684.678.992 1.485.684 1.793-.308.308-.867-.246-1.242-1.233-.34-.89-.423-1.27-.195-1.19zm26.748 15.896c.55 0 .722.45.382 1s-1.069 1-1.619 1-.72-.45-.38-1c.34-.55 1.067-1 1.617-1zm56.941 2c-.582 0-1.059.45-1.059 1s.2 1 .442 1 .718-.45 1.058-1c.34-.55.141-1-.441-1zm55.941 17.121c.635 0 1.27.064 1.75.19.963.251.175.457-1.75.457s-2.712-.206-1.75-.457c.482-.126 1.116-.19 1.75-.19zm30.916 3.002c.348.014.647.106.813.272.332.332-.259.568-1.313.525-1.165-.048-1.4-.284-.603-.603a2.744 2.744 0 0 1 1.103-.194zm-92.607 1.89c-.207.028-.309.166-.309.411 0 .805 1.35 2.26 3 3.235 1.65.974 3 2.093 3 2.484s.788.916 1.75 1.168c.963.251 1.863.508 2 .572.138.064.25-.237.25-.67 0-.432-2.25-2.466-5-4.52-2.515-1.877-4.07-2.767-4.691-2.68zm-78.25 10.83c11.945-.105 24.716 1.04 35.324 3.259 18.891 3.95 29.881 5.852 30.742 5.32.49-.302 1.576.136 2.414.975.839.838 3.198 1.834 5.243 2.213 3.627.672 18.218 6.847 18.218 7.71 0 .24-2.012.207-4.472-.07-8.556-.964-34.235 3.233-60.028 9.811-6.6 1.683-12.912 3.292-14.027 3.574-1.263.32-2.717-.248-3.853-1.503-1.877-2.074-15.054-9.38-22.075-12.243-2.174-.886-4.094-2.038-4.267-2.558-.671-2.014 20.88-6.753 36.129-7.946 9.238-.722 9.797-1.935 1.445-3.134-4.043-.58-9.927-1.104-13.074-1.166-6.95-.137-28.394 2.5-35.278 4.338-5.22 1.393-8.5.685-8.5-1.836 0-1.818 2.662-3.913 3.955-3.114.575.355 1.045.221 1.045-.297 0-.826 5.153-1.567 19.5-2.806 3.688-.319 7.577-.493 11.559-.528zm-63.143 22.28c.348.014.647.106.813.272.332.332-.259.568-1.313.525-1.165-.048-1.4-.284-.603-.603a2.744 2.744 0 0 1 1.103-.194zm155.916 6.827c12.235-.04 32.961 3.22 41.64 6.548 3.315 1.272 11.428 3.976 18.028 6.01s13.51 4.342 15.356 5.13c1.845.786 4.32 1.16 5.5.831 1.44-.403 1.719-.304.847.303-1.63 1.136-.825 1.781 7.047 5.644 3.163 1.552 5.75 2.921 5.75 3.041 0 .12-2.065.298-4.588.393-2.522.095-5.335.54-6.25.988-1.911.936-4.397.537-8.662-1.388-1.65-.745-6.375-2.234-10.5-3.309-14.497-3.778-16.513-4.325-18-4.887-.825-.312-2.096-.47-2.824-.35-.728.12-1.853-.199-2.5-.71-.647-.512-2.976-1.246-5.176-1.631s-5.938-1.348-8.306-2.139c-4.125-1.377-18.869-4.028-27.567-4.957-12.193-1.302-26.837-2.46-32.127-2.539l-6-.09 3.5-1.53c5.83-2.546 23.872-5.32 34.832-5.357zm36.047 2.177c.544.01 1.052.08 1.39.217.678.274-.119.481-1.769.461-1.65-.02-2.203-.244-1.23-.498a6.311 6.311 0 0 1 1.61-.18zm8.721 3.19c2.303.15 17.4 4.687 17.4 5.3 0 .847-3.877.015-10.83-2.326-4.03-1.356-7.114-2.68-6.851-2.943.031-.032.127-.04.281-.03zm-143.95 1.082a1.112 1.112 0 0 1 .436 2.049 1.118 1.118 0 0 1-1.533-.364 1.115 1.115 0 0 1 .775-1.683c.108-.016.217-.016.323 0zm46.266.724c.348.014.647.106.813.272.332.332-.259.568-1.313.525-1.165-.048-1.4-.284-.603-.603a2.744 2.744 0 0 1 1.103-.194zm-68.879.405c1.172-.118 3.963 2.573 3.963 4.127 0 2.246-3.717 1.536-4.336-.828-.312-1.196-.32-2.575-.017-3.065a.493.493 0 0 1 .39-.234zm12.963 13.472c.55 0 .888.346.75.77-.137.424.306 1.436.987 2.25.68.814 2.785 3.577 4.675 6.14l3.438 4.66-6.676 1.15c-3.671.63-7.686 1.394-8.924 1.696-1.237.303-2.288.389-2.334.192-.146-.631-.77-4.238-1.466-8.47-.642-3.901-.531-4.15 2.134-4.82 2.203-.552 2.498-.908 1.364-1.636-.97-.623-.375-.725 1.802-.307 2.11.405 3.25.23 3.25-.5 0-.618.45-1.125 1-1.125zm-43 5c.55 0 1 .637 1 1.416 0 .78.47 1.575 1.043 1.766 1.341.447 1.686 8.49.418 9.754-1.252 1.25-12.387 2.993-12.98 2.033-.624-1.009 2.069-9.72 3.558-11.516.664-.799 2.277-1.453 3.584-1.453 1.308 0 2.377-.45 2.377-1s.45-1 1-1zm245.674 4.594c1.631-.047 3.539 0 5.326.149 5.51.461 6.998 1.017 9.766 3.65 1.796 1.709 3.944 4.12 4.773 5.357 2.136 3.188 1.38 2.798-2.593-1.336-4.61-4.796-8.422-6.689-11.924-5.92-1.6.352-3.117.163-3.486-.435-.36-.582-1.414-1.053-2.344-1.043-1.308.012-1.39.205-.358.86 1.064.674.997.974-.332 1.484-2.445.938-3.223.753-1.502-.36 1.197-.773.995-.992-1-1.084l-2.5-.115 2.5-.803c.688-.22 2.043-.357 3.674-.404zm-224.174 1.406c.834 0 1.5.89 1.5 2 0 1.993-1.066 2.6-2.334 1.332-1.218-1.218-.688-3.332.834-3.332zm215.059 2c.243 0 .441.45.441 1s-.476 1-1.058 1c-.583 0-.782-.45-.442-1s.816-1 1.059-1zm-183.363 2.04c1.296.03 1.831.576 1.627 1.638-.234 1.213-2.538 2.167-8.323 3.443-9.209 2.032-9.932 2.113-10.824 1.221-1.213-1.213 1.54-3.342 4.32-3.342 1.514 0 4.666-.675 7.004-1.5 2.842-1.002 4.9-1.49 6.196-1.46zm-30.196 1.96c1.1 0 2 .45 2 1s-.9 1-2 1-2-.45-2-1 .9-1 2-1zm1.858 3.614c2.067.035 3.623 1.968 1.941 3.017-2.027 1.265-4.638 1.44-5.308.356-.847-1.37.117-2.652 2.457-3.264.308-.08.614-.114.91-.11zm32.642.018c.99-.034 1.606.075 1.86.328 1.502 1.502.93 1.72-8.961 3.422-5.006.861-9.73 1.798-10.5 2.082-.77.283-2.05.102-2.846-.405-1.148-.73-.941-1.034 1-1.465a2671.89 2671.89 0 0 0 11.373-2.591c3.744-.86 6.426-1.315 8.074-1.371zm-55.855 1.37c.837-.022 1.355.072 1.355.323 0 .329-1.687 1.052-3.75 1.605-2.062.554-5.55 1.253-7.75 1.553l-4 .547 3.489-1.566c2.777-1.248 8.145-2.391 10.656-2.461zm-1.672 4.257c1.464.103 1.365 2.216-.473 3.742-.825.684-1.5 2.065-1.5 3.068 0 1.004-1.024 3.762-2.277 6.13-4.428 8.365-6.068 14.111-6.146 21.538-.054 5.1-.449 7.262-1.327 7.262-.687 0-1.25-.673-1.25-1.498s-.436-1.5-.968-1.5c-.533 0-.723.639-.422 1.422.73 1.903-2.685 3.623-6.801 3.425-1.82-.087-5.16.185-7.422.604-3.889.72-4.14.617-4.611-1.846-.423-2.213-.142-2.605 1.863-2.605 1.299 0 2.361-.436 2.361-.969 0-.533-.675-.71-1.5-.393-1.94.745-1.925-1.523.055-8.638.842-3.025 1.754-7.071 2.027-8.99.483-3.392 1.909-5.854 2.848-4.915.255.256.736 2.007 1.068 3.893.333 1.886 1.087 4.01 1.676 4.72.822.99.519 1.318-1.3 1.407-1.705.083-1.879.245-.618.574.966.252 2.906 2.806 4.31 5.676 1.483 3.027 3.265 5.272 4.245 5.346 1.523.115 1.665-1.268 1.453-14.012-.303-18.25.337-20.19 7.166-21.73 2.788-.63 5.858-1.36 6.82-1.624.273-.075.514-.102.723-.088zm28.475.154c1.08-.011 1.552.345 1.552 1.068 0 .835-.787 1.523-1.75 1.533-.962.01-2.762.284-4 .616-2.35.63-3.311-1.366-1-2.078 2.43-.749 4.118-1.128 5.198-1.14zm24.502.588c2.748 0 3.027.981 1.3 4.601-1.716 3.599-4.259 4.589-4.236 1.649.028-3.598 1.273-6.25 2.936-6.25zm-15.95 3c.55 0 1 .45 1 1s-.45 1-1 1-1-.45-1-1 .45-1 1-1zm-77.974 3c2.252 0 2.255-.038-.49 7.918-1.065 3.086-1.806 3.592-7.608 5.215-3.535.988-6.765 1.813-7.178 1.832-1.846.087-.352-2.225 4.623-7.149 7.124-7.05 8.17-7.816 10.653-7.816zm226.357 3c-.55 0-1.874.66-2.941 1.467-1.068.807-1.492 1.468-.942 1.468s1.874-.66 2.942-1.468c1.067-.808 1.491-1.467.941-1.467zm-176.969 1.71c.503-.118 1.73 1.248 2.729 3.036.999 1.787 1.546 3.25 1.215 3.25-.331 0-.126.573.457 1.275.773.931.27 2.894-1.856 7.25-1.603 3.286-2.925 7.18-2.937 8.653-.012 1.473-.73 3.385-1.594 4.25-2.02 2.02-5.428 2.033-5.428.023 0-.85 1.183-5.202 2.63-9.67s2.908-10.31 3.25-12.985c.34-2.675 1.032-4.965 1.534-5.084zm169.797 2.364c-.388-.011-.97.288-1.478.8-.98.988-.865 1.104.56.561.987-.375 1.54-.934 1.233-1.242a.448.448 0 0 0-.315-.119zm-3.363 2.158c-.228-.02-.916.266-2.098.895-3.555 1.892-7.75 5.171-7.75 6.058 0 .446 2.25-.805 5-2.78 3.622-2.603 5.35-4.128 4.848-4.173zm-218.512 4.977c.546.01.662.306.455.935-.245.745-1.761 1.502-3.369 1.682-3.332.373-2.376-1.161 1.446-2.318.659-.2 1.141-.303 1.468-.3zm206.873 2.845c-.566-.01-1.808.63-3.347 1.913-1.794 1.494-1.98 1.975-.768 2 .877.018 2.41-.867 3.406-1.967 1.165-1.287 1.276-1.938.71-1.946zm-207.998 2.02a.43.43 0 0 1 .315.12c.308.307-.246.866-1.233 1.241-1.425.543-1.54.427-.56-.56.509-.513 1.09-.812 1.478-.801zm326.104 3.467c.825.05.546.218-.815.504-3.95.829-15.223 1.293-14.416.593.23-.198 4.466-.603 9.416-.898 3.06-.182 4.99-.25 5.815-.2zm-124.637.039c-.393-.01-1.37.472-2.928 1.566-3.634 2.553-8.75 7.39-8.75 8.276 0 1.053.885.601 3.27-1.672 1.298-1.238 3.775-3.375 5.504-4.75 2.594-2.064 3.56-3.412 2.904-3.42zm-202.535 1.494c1.334.036 1.857.629 1.857 1.789 0 1.46-1.008 2.002-4.64 2.5-11.245 1.541-13.047.29-3.932-2.73 3.237-1.073 5.381-1.595 6.715-1.56zm332.576 2.004c.575.034 1.49.52 2.723 1.453 1.943 1.47 1.584 1.635-1.692.78-.962-.252-1.75-.876-1.75-1.386 0-.49.167-.768.495-.834a.854.854 0 0 1 .224-.014zm-51.719 3.922c1.165 0 1.84.45 1.5 1-.34.55-1.015 1-1.5 1-.485 0-1.16-.45-1.5-1-.34-.55.335-1 1.5-1zm-280.861.777c2.3.134 2.085 1.67-.885 2.37-4.799 1.128-11.254 1.688-11.254.976 0-.765 7.122-2.908 11-3.31.43-.046.81-.055 1.139-.036zm.777 7.346c.348.014.647.105.813.271.332.332-.259.569-1.313.526-1.165-.048-1.4-.285-.603-.604a2.744 2.744 0 0 1 1.103-.193z"/></svg>