<svg xmlns="http://www.w3.org/2000/svg" viewBox="0 0 194.46153 223.10743"><path fill="#0799c4" fill-rule="evenodd" d="M75.947 27.87L90.264 3.79l12.365-1.302 23.429 2.604 17.571 10.412 8.46 13.667 21.477 31.238 11.063 15.62-8.46 33.84-24.08-28.635 1.302-14.968 1.952-16.27-9.762-5.206-22.777-15.619-24.73-5.857z"/><path fill="#f7dbbd" fill-rule="evenodd" d="M91.24 223.107l-24.73-.65-12.69-24.405-9.437-32.214-6.508-22.127-5.532-6.183-6.182-15.944v-5.532s-.976-2.929 1.952-5.532l2.929-2.603-.326-4.23s-.325-2.929 2.278-3.254c2.603-.326 2.603-2.326 2.603-2.326l-8.135-18.5-1.952-5.857.976-3.904 5.207 3.904 2.928-.325 12.365 22.778 9.111 19.198 4.881-2.603s3.254-2.929 7.159-4.881l3.905-1.952 5.206 1.952-3.58 3.58-6.833 5.206-5.206 8.46-2.603 8.135-5.532 6.182 3.905 8.786 10.087 19.524 6.834 2.603 11.063-25.38.976-13.667 5.207-8.135 13.992-5.532 12.04-3.254v-7.81l-1.953-5.531-9.762 2.603-5.206-.651-4.556-11.714-10.087-11.39-.976-3.579-.326-10.412-5.857-5.857-1.627-13.667-1.627-14.968 19.199-5.857 17.571-.651 30.262 16.92 4.23 5.207 8.786 5.532-3.905 25.055 8.46 22.452 9.762 17.246 13.016 11.715 7.159 12.365 3.254 13.016-.326 26.357-13.992 42.301z"/><path fill="#0799c4" fill-rule="evenodd" d="M78.55 204.56l-18.548-17.246 5.206-10.738 4.23-5.207 3.905-9.762 9.762-8.46 6.508 37.42 12.04-7.809 8.46-20.5 13.992-7.81 2.278-5.531.976-2.929h3.254l-5.532 21.151-14.642 54.341z"/><path fill="#fff" d="M103.256 57.702a2.767 1.976 0 0 1-2.759 1.977 2.767 1.976 0 0 1-2.775-1.965 2.767 1.976 0 0 1 2.741-1.988 2.767 1.976 0 0 1 2.792 1.952l-2.766.024zm3.36 29.746a4.744 2.965 0 0 1-4.73 2.965 4.744 2.965 0 0 1-4.757-2.946 4.744 2.965 0 0 1 4.7-2.983 4.744 2.965 0 0 1 4.786 2.928l-4.743.036z"/><path d="M101.864 0c-2.602 0-5.428.728-6.902 2.012-.825.718-3.485 1.633-5.91 2.031-2.57.422-5.409 1.718-6.797 3.107-1.312 1.312-2.928 2.393-3.59 2.4-.833.011-.79.28.14.87 1.002.635.717 1.008-1.117 1.469-1.354.34-3.947 2.087-5.764 3.882l-3.21 3.174c.096.329.25.593.486.739.774.478 1.262 2.956 1.262 6.41 0 4.911.343 5.904 2.69 7.785 2.514 2.013 2.738 2.852 3.386 12.656.381 5.775 1.227 11.625 1.88 13 .654 1.375 1.005 3.326.778 4.334-.337 1.495.107 1.772 2.402 1.5 2.738-.324 2.811-.21 2.66 4.166-.129 3.751-.036 4 .559 1.5.472-1.983 1.294-2.951 2.428-2.86 1.19.097 1.717-.609 1.717-2.3 0-3.372-2.732-8.34-4.586-8.34-.844 0-1.283.404-.979.897.304.492-.196 1.182-1.111 1.533-.916.351-2.033.061-2.48-.645-1.327-2.09-.978-2.783 1.406-2.806l2.25-.022-2.15-1.728c-2.134-1.715-4.35-9.387-4.35-15.055 0-4 4.893-8.902 9.63-9.646 2.128-.335 5.67-1.102 7.87-1.706 11.536-3.167 13.745-2.65 14.898 3.495.71 3.785 3.867 7.12 7.602 8.033 4.06.991 9.006 4.468 8.443 5.935-.29.755.578 1.926 1.986 2.68 1.376.736 2.264 1.722 1.973 2.193-.882 1.428 2.304 2.07 4.482.905 1.207-.646 1.81-1.696 1.475-2.569-.312-.812.043-1.637.787-1.834.745-.196 2.844-.846 4.668-1.445l3.316-1.09-.681 3.188c-.375 1.753-1.187 3.815-1.807 4.582-.921 1.14-.718 1.265 1.115.683 2.254-.715 3.183.723 1.243 1.922-.55.34-.986 1.38-.97 2.31.028 1.46.243 1.415 1.557-.31 1.013-1.33 1.322-3.09.922-5.25-.675-3.65.293-4.08 3.885-1.726 2.83 1.854 2.703 5.127-.37 9.441-2.316 3.254-5.02 4.353-9.483 3.852-3.562-.4-4.233 2.406-1.743 7.29 1.728 3.388 4.257 4.072 6.65 1.797 2.307-2.192 3.338-.574 4.356 6.846 1.428 10.404 1.498 10.655 5.436 19.25 1.89 4.125 5.296 9.525 7.57 12 2.274 2.475 4.147 4.79 4.162 5.143.015.353-.985.908-2.222 1.234-1.238.326-4.95 2.645-8.25 5.15-4.953 3.762-6.647 4.512-9.707 4.305-2.04-.138-4.028.07-4.418.46-.39.39.978.708 3.04.708s3.6.41 3.417.91c-.55 1.498-10.646 11.847-14.207 14.563-1.823 1.39-4.254 2.527-5.403 2.527-2.116 0-3.875 3.138-2.765 4.934.326.527-.646.864-2.186.758-2.332-.161-2.774.203-2.791 2.289-.011 1.448-.844 2.904-2 3.5-1.09.56-4.118 2.504-6.73 4.318-3.685 2.559-4.75 3.906-4.75 6.006 0 1.755-1.325 4.112-3.762 6.701-2.068 2.197-5.045 5.682-6.617 7.744-1.572 2.063-3.209 3.75-3.635 3.75-1.065 0 .725-7.557 3.016-12.736 1.036-2.344 1.515-4.264 1.064-4.264-.451 0-1.812 2.305-3.023 5.121-2.94 6.835-4.395 5.234-4.395-4.845-.004-14.763.968-22.545 3.408-27.276 1.91-3.702 9.412-16.35 10.635-17.928.183-.236 2.127.529 4.32 1.7 2.193 1.17 3.989 1.713 3.989 1.205s-1.35-1.624-3-2.477c-1.65-.853-3-1.97-3-2.482 0-1.119 8.126-6.018 9.982-6.018 1.01 0 1.172 1.645.713 7.25-.436 5.328-.314 6.761.459 5.404 1.757-3.084 2.18-13.08.85-20.128-1.182-6.261-1.14-6.742.71-8.038 5.594-3.917 12.38-9.725 11.913-10.193-.293-.293-2.467 1.126-4.83 3.152-8.987 7.702-21.537 11.673-25.227 7.983-.864-.864-1.57-1.158-1.57-.654 0 .504.874 1.708 1.943 2.675 1.608 1.456 2.971 1.64 7.889 1.069 3.406-.396 6.19-.292 6.52.242.315.512.872 2.79 1.235 5.062.76 4.757.815 4.719-12.378 8.254-6.429 1.723-15.036 6.43-13.877 7.588.212.213 3.325-1.2 6.916-3.138 6.816-3.682 11.27-4.845 6.494-1.696-1.517 1-2.585 2.01-2.373 2.244.754.832-12.888 22.379-13.87 21.907-1.393-.67-.76-9.722.995-14.192 1.235-3.148 1.243-3.628.05-3.17-2.1.806-3.648 6.03-4.11 13.88-.38 6.441-.977 8.722-3.626 13.855-.66 1.28-.624 1.65.117 1.191.591-.365 1.067-.3 1.057.145-.021.952-7.503 7.308-8.604 7.308-.414 0 .568-1.462 2.182-3.25 2.92-3.232 2.915-3.23-.836.219-2.074 1.908-3.576 3.975-3.34 4.592.237.617.016 1.756-.49 2.531-1.533 2.349-7.07-4.827-6.437-8.346.272-1.515-.018-3.878-.643-5.25-1.136-2.492-2.814-3.385-2.814-1.496 0 .55-.675 1-1.5 1s-1.5.447-1.5.99c0 1.506-3.283 5.01-4.692 5.01-.697 0-.992-.66-.67-1.5.317-.825 1.09-1.502 1.719-1.506 1.554-.01 5.87-7.736 4.719-8.447-.505-.312-1.698-2.608-2.65-5.102l-1.733-4.533 3.062-3.205c1.685-1.763 3.629-5.232 4.32-7.707 1.827-6.533 8.248-14.627 12.757-16.08 5.374-1.732 5.474-1.888 2.638-4.12-3.542-2.785-7.965-1.93-14.105 2.73-6.34 4.81-6.317 4.782-2.846 3.466 1.639-.62 3.927-2.016 5.086-3.101 2.36-2.21 9.395-3.787 9.395-2.106 0 .577-1.52 1.987-3.373 3.133-6.04 3.732-12.381 12.887-12.57 18.143-.032.86-1.407 2.854-3.057 4.435-2.799 2.681-4.067 6.5-2.159 6.5.978 0 3.159 6.768 3.159 9.799 0 3.623-9.53 8.485-12.647 6.451-.63-.411-1.687-2.775-2.348-5.25-.66-2.475-1.69-5.097-2.289-5.826-.792-.966-.757-1.53.127-2.076.811-.502.081-1.36-2.195-2.586-2.141-1.153-4.214-3.494-5.574-6.295-1.192-2.452-2.377-4.249-2.633-3.992-.858.858 3.425 9.303 5.896 11.625 3.147 2.956 5.41 10.544 3.743 12.553-.78.939-.944 3.153-.489 6.583.545 4.109 1.152 5.347 2.952 6.032 1.695.644 2.54 2.149 3.363 5.984 2.877 13.416 16.765 46.865 20.445 49.24.186.12 3.385.231.486.33h4.256c-.99-.282-1.334-.753-1.588-1.552-.352-1.111-1.087-2.02-1.632-2.02-.791 0-7.527-13.376-12.842-25.5-1.488-3.395-6.723-20.265-7.278-23.453-.263-1.513.278-1.714 5.211-1.922 1.735-.073 4.385-1.37 6.383-3.125 2.13-1.87 3.405-2.804 4.34-2.808.935-.005 1.53.92 2.299 2.775.676 1.632 1.845 3.48 2.6 4.105.995.826 1.096 1.653.369 3.012-.821 1.534-.705 1.758.638 1.242 1.362-.522 1.459-.306.573 1.274-1.888 3.365-6.386 8.088-5.723 6.01.51-1.601.369-1.697-.92-.627-1.7 1.41-2.077 5.017-.523 5.017.55 0 1 .436 1 .969 0 .533-.675.711-1.5.394-4.244-1.628 1.664 10.708 8.312 17.356 2.787 2.787 7.516 6.467 10.51 8.18 6.242 3.57 7.263 4.602 8.18 8.255l.607 2.418h42.176l1.373-5.375c.8-3.132 2.534-10.647 3.855-16.697 1.321-6.05 2.801-12.35 3.291-14 .49-1.65.913-6.6.938-11 .035-6.14-.12-7.07-.664-4l-.711 4-1.281-3c-2.868-6.71-3.164-7.168-2.584-4l.546 3-1.978-2.5c-1.088-1.375-2.756-4.214-3.705-6.31-1.633-3.61-1.633-3.966 0-6.73 1.335-2.261 1.48-3.378.64-4.946-.89-1.664-.66-2.427 1.291-4.27 1.307-1.234 6.612-6.323 11.79-11.308 8.581-8.264 9.922-9.175 15.164-10.32 3.162-.692 5.75-1.628 5.75-2.08 0-.453-1.676-.447-3.723.015-2.047.462-3.876.685-4.065.496-.759-.76 6.491-5.37 9.42-5.99.546-.116 1.02-.19 1.479-.184 1.99.027 3.731 1.575 10.133 7.905 7.39 7.308 8.752 9.206 10.597 14.802 2.831 8.584 4.403 23.474 3.59 34.006-.55 7.113-1.645 11.122-6.38 23.367-5.728 14.81-9.051 19.819-9.051 13.639 0-2.468 3.757-14.187 7.564-23.592.685-1.692.58-1.812-.691-.781-1.745 1.416-4.632 7.689-8.41 18.281-1.472 4.125-3.663 9.975-4.87 13h-.002l-1.824 4.572h12.64c-.19-1.329 1.818-7.236 9.436-28.072l3.657-10-.116-17.5c-.1-15.479-.377-18.25-2.396-24-2.962-8.432-6.598-13.652-13.99-20.082-3.3-2.87-5.998-5.654-5.998-6.19 0-.534.668-.416 1.486.262 2.073 1.721 5.65.511 7.963-2.693 1.428-1.98 2.004-4.588 2.15-9.75.11-3.876.654-8.99 1.21-11.367.555-2.377.663-5.532.24-7.01-.425-1.478-.354-3.808.158-5.178 1.1-2.949.164-10.372-1.784-14.138-.76-1.47-3.01-4.014-4.998-5.653-3.112-2.565-3.463-3.263-2.521-5.023 1.566-2.926 1.35-9.782-.416-13.197-1.971-3.812-4.492-5.07-10.43-5.205l-4.86-.112-3.603-7.582c-6.89-14.492-21.331-28.008-29.98-28.058-2.136-.013-5.631-.546-7.766-1.186-2.661-.797-4.898-.858-7.115-.193-2.356.706-3.913.608-5.734-.358-1.057-.56-2.537-.822-4.098-.822zm-33.15 18.945a.585.585 0 0 1-.014-.047l-.078.137zm-.014-.047l2.023-3.554c1.41-2.476 1.654-3.52.74-3.17-1.77.68-3.27 4.846-2.763 6.724zM99.02 6.535c.583 0 .781.45.442 1-.34.55-.817 1-1.06 1-.242 0-.44-.45-.44-1s.476-1 1.058-1zm22.408 3.463c.06.023.126.115.196.287.277.688.277 1.813 0 2.5s-.504.125-.504-1.25c0-1.031.127-1.604.308-1.537zm-1.101 4.885c.09.014.198.166.318.465.289.722.252 1.585-.08 1.918-.332.332-.568-.259-.525-1.313.03-.728.135-1.093.287-1.07zm-12.807 5.652c.243 0 .442.45.442 1s-.477 1-1.06 1c-.582 0-.78-.45-.44-1s.816-1 1.058-1zm36.5 2c.583 0 .781.45.442 1-.34.55-.817 1-1.06 1-.242 0-.44-.45-.44-1s.476-1 1.058-1zm3.793 18.084c.642-.107 1.525.778 2.213 2.588.559 1.47.886 3.32.727 4.111-.44 2.183-3.791-1.893-3.791-4.611 0-1.32.352-2.004.851-2.088zm-44.025 4.74c-.961.025-1.88.166-2.819.418-3.723 1.004-9.272 5.52-8.44 6.868.674 1.088 3.27.036 7.204-2.92 2.883-2.167 3.923-2.382 8.75-1.815 3.013.354 5.479.427 5.479.164s-2.134-1.1-4.743-1.861c-2.113-.616-3.83-.895-5.431-.854zM.258 47.127c-.157-.03-.248.129-.257.484-.055 2.134 3.684 5.494 8.224 7.391 4.211 1.76 4.514 3.158 2.727 12.584-.556 2.928-.722 7.49-.371 10.137.35 2.647 1.04 4.812 1.529 4.812.49 0 .631-1.031.314-2.293-.937-3.734-.693-8.763.788-16.207 1.299-6.534 1.27-7.087-.43-8.306-1.002-.72-1.882-2.294-1.957-3.5l-.135-2.194-.434 2.25c-.238 1.238-.65 2.25-.914 2.25-1.843 0-6.587-3.496-7.816-5.762-.559-1.03-1.005-1.597-1.268-1.646zm110.766 3.52c-.905-.08-2.682.244-6.176.9-5.434 1.02-7.886 2.92-7.886 6.107 0 .955.787 1.942 1.75 2.194 2.829.74 3.008.73 5.552-.237 3.364-1.278 7.698-5.467 7.698-7.44 0-.961-.033-1.445-.938-1.525zm50.549 3.357c.105.02.203.084.289.2.342.458 1.03 1.169 1.527 1.581.498.413-.056.75-1.23.75-1.538 0-1.965-.441-1.528-1.582.251-.653.626-1.007.942-.95zm-60.7 2.656c.303-.028.6.055.839.293.339.34.135 1.099-.454 1.688-.718.718-1.279.733-1.7.05-.533-.861.41-1.945 1.316-2.03zm-83.546 3.223c-.152-.023-.257.342-.287 1.07-.044 1.054.193 1.645.525 1.313.332-.333.369-1.196.08-1.918-.12-.3-.227-.451-.318-.465zm128.797 4.053c.772.038 1.806 1.978 1.822 3.85.012 1.367-1.716 2.625-2.06 1.5-.57-1.861-.686-4.326-.239-5.05.135-.218.298-.31.477-.3zm13.15.601c.72 0 1.188 1.579 1.188 4 0 3.2-.365 3.998-1.819 3.998-1.437 0-1.662-.47-1.078-2.25.406-1.237.69-3.037.63-4-.06-.962.426-1.748 1.079-1.748zm-16.193 3.504c.55-.008.88.356.88 1.027 0 .808-.674 1.467-1.5 1.467s-1.5-.401-1.5-.892c0-.492.676-1.153 1.5-1.47a1.82 1.82 0 0 1 .62-.132zM26.719 69.549c-.466.004-.757.27-.757.87 0 .487.907 1.121 2.015 1.411 1.28.335 2.942 2.659 4.557 6.367 4.17 9.58 10.179 20.755 11.37 21.153 1.301.433-1.183-5.283-5.13-11.81-1.689-2.795-2.363-4.853-1.781-5.435.515-.514 1.073-.74 1.242-.501 2.588 3.65 7.74 13.135 8.262 15.212.375 1.496 1.026 2.72 1.449 2.72.721 0 5.069 9.206 5.414 11.464.087.57.51 1.598.94 2.285h-.003c.43.688 1.194 1.25 1.698 1.25 1.212 0-4.863-13.278-11.145-24.357-4.96-8.75-4.996-8.88-2.955-10.309 2.62-1.835 2.65-3.334.066-3.334-1.11 0-2 .667-2 1.5 0 .825-.476 1.5-1.058 1.5-.582 0-.85-.337-.596-.75.663-1.072-4.114-6.815-4.963-5.967-.387.388.113 1.608 1.112 2.711.998 1.104 1.308 2.006.687 2.006s-1.821-1.335-2.666-2.969c-1.39-2.688-4.36-5.03-5.758-5.017zm60.838.68c-.054.002-.12.1-.195.306-.3.825-1.022 2.479-1.602 3.674-1.644 3.388-.197 6.834 5.09 12.121 2.678 2.678 5.219 5.957 5.647 7.287.427 1.33.97 1.856 1.205 1.168.506-1.482 3.26-1.694 3.26-.25 0 .55.787.995 1.75.986 1.401-.012 1.472-.191.353-.9-1.123-.71-.96-1.149.824-2.234 1.745-1.06 8.073-9.056 8.073-10.2 0-.805-17.631 1.628-18.795 2.594-1.136.943-1.98.493-4.284-2.285-3.392-4.091-3.66-5.42-.921-4.576 5.175 1.596 6.21 1.561 3-.098-3.081-1.592-3.473-2.226-3.276-5.297.092-1.439.033-2.303-.129-2.296zm11.428 1.306c-.658 0-.593.718.18 1.955 1.379 2.21 2.35 1.935 1.45-.41-.325-.849-1.058-1.545-1.63-1.545zm-3.523 4c-1.375 0-2.5.45-2.5 1s1.125 1 2.5 1 2.5-.45 2.5-1-1.125-1-2.5-1zm14.144 0c-.68 0-.653.392.078 1.123.617.617 1.005 1.63.863 2.25-.141.62-.077.815.143.434.22-.382 1.16-.418 2.086-.08 1.445.526 1.415.304-.219-1.557-1.048-1.193-2.376-2.17-2.951-2.17zm49.762 1.094c.905-.034.562.266-.848 1.377-2.35 1.852-3.875 1.98-3.314.28.226-.688 1.502-1.376 2.834-1.53a19.859 19.859 0 0 1 1.328-.127zm19.263.976c.36.025.91.216 1.748.538.87.333 1.583 1.008 1.583 1.5 0 .49-.9.892-2 .892-1.112 0-2-.667-2-1.5 0-1.052.07-1.471.67-1.43zM28.5 78.973c-.157-.016-.31.058-.438.23a10.537 10.537 0 0 1-1.474 1.53c-.469.382.05.627 1.152.544 1.26-.095 1.807-.662 1.474-1.529-.182-.474-.453-.749-.714-.775zm-2.16 4.691c-.619-.035-2.275.244-4.852.842-2.538.588-4.194.567-4.58-.059-.676-1.094-3.945-.16-3.945 1.127 0 .453 1.012.984 2.25 1.182 2.345.375 5.502-.29 9.75-2.055 1.574-.654 1.994-1.002 1.376-1.037zm77.273 1.936c.472-.01.232.373-.531 1.293-.75.904-2.3 1.642-3.442 1.642-2.536 0-1.196-1.465 2.315-2.531.836-.254 1.375-.4 1.658-.404zm62.025 1.289c.859-.054 1.768.831 2.64 2.582 1.415 2.834 1.399 3.064-.212 3.064-.959 0-2.72-1.125-3.916-2.5-1.195-1.375-1.765-2.5-1.264-2.5.502 0 1.578-.253 2.389-.564a1.2 1.2 0 0 1 .363-.082zM34.385 95.465c-.134-.035-.098.414.078 1.32.295 1.513.11 2.75-.412 2.75s-1.653.708-2.517 1.572c-1.79 1.79-2.141 7.428-.463 7.428.7 0 .862-.977.441-2.654-.633-2.523.516-4.29 2.819-4.33 1.622-.029 9.63 9.117 9.63 10.998 0 2.684-1.725 3.369-2.91 1.156-.555-1.037-2.207-2.67-3.672-3.63-2.821-1.85-2.59-.732.616 2.96 2.041 2.352 3.475 6.5 2.246 6.5-.47 0-2.412-1.331-4.317-2.959-4.112-3.515-5.333-3.782-4.441-.97.497 1.567.15 2.203-1.432 2.617-1.149.3-2.09.943-2.09 1.43 0 1.114.048 1.111 3.926-.24 2.956-1.031 3.488-.875 6.399 1.876 1.746 1.65 3.85 3.215 4.675 3.475 1.964.619 2.391-.63 1.065-3.108-1.715-3.204-1.315-4.657.764-2.775 2.83 2.56 4.32 2.098 3.527-1.096-1.407-5.665-3.545-9.476-7.033-12.539-1.977-1.736-4.44-4.968-5.475-7.183-.797-1.707-1.251-2.553-1.424-2.598zm-6.298 14.549c-.046-.008-.1.006-.163.045-2.065 1.276-3.184 8.775-1.894 12.685.69 2.091 1.46 3.597 1.709 3.348.25-.25.021-1.714-.508-3.254-1.072-3.122-.952-5.258.568-10.07.498-1.574.604-2.703.288-2.754zm23.4 9.521c-.667 0-3.14 5.013-3.947 8-.486 1.799.039 1.378 1.869-1.5 2.34-3.68 3.24-6.5 2.078-6.5zm82.685 7.102c-3.498-.107-11.21 3.278-11.21 4.92 0 1.434.86 1.216 3.992-1.014 1.54-1.097 4.534-2.402 6.654-2.9l3.854-.907zm-6.269 19.898c.582 0 1.059.45 1.059 1s-.2 1-.442 1-.719-.45-1.058-1c-.34-.55-.142-1 .441-1zm-6.416 10.418c.412-.013.475.369.475 1.024 0 .857-.628 1.558-1.395 1.558s-2.84 1.35-4.605 3c-1.767 1.65-3.614 3-4.106 3-1.98 0-.671-1.818 3.356-4.662 3.935-2.78 5.589-3.898 6.275-3.92zm-81.904.7c.326-.003.814.107 1.494.318 1.31.406 3.172.726 4.135.713.962-.014 1.75.623 1.75 1.414s-.675 1.437-1.5 1.437-1.5-.372-1.5-.828-.967-.794-2.149-.75c-1.182.044-2.368-.551-2.635-1.322-.23-.667-.139-.98.405-.983zm10.29 1.007c.303-.028.6.055.839.293.339.34.135 1.099-.454 1.688-.718.718-1.279.733-1.7.05-.533-.861.41-1.945 1.316-2.03zm66.044 13.004c.099.019-.335.52-1.205 1.52-.963 1.105-1.75 2.377-1.75 2.826 0 2.041-5.617 9.495-6.813 9.04-.81-.307-1.226.167-1.092 1.243.12.958-.33 3.08-.998 4.715-.847 2.071-.913 3.636-.217 5.166.771 1.691.654 2.327-.51 2.773-.987.38-1.289 1.272-.872 2.584.496 1.565.184 2.004-1.43 2.004-1.137 0-2.068.45-2.068 1 0 1.696-1.874 1.106-2.965-.933-1.378-2.574-1.307-4.637.215-6.245.687-.726 1.981-2.897 2.875-4.822 2.185-4.708 11.676-17.185 14.834-19.5 1.263-.926 1.896-1.39 1.996-1.37zm-50.32 4.21a.62.62 0 0 0-.247.001c-.12.023-.251.075-.388.16-.55.34-1 1.07-1 1.62s.45.72 1 .38 1-1.067 1-1.617c0-.31-.143-.499-.366-.545zm-.854 13.741c.705-.043 1.547.616 1.873 1.465.326.849.311 1.823-.031 2.166-.343.343-.623-.09-.623-.96s-.563-1.81-1.25-2.087c-.98-.395-.973-.522.03-.584z"/></svg>