<svg xmlns="http://www.w3.org/2000/svg"><rect width="1000%" height="1000%" fill="#fff"/><rect width="100%" height="100%" fill="#dc1921"/><svg x="50%" y="90%" overflow="visible"><rect width="2000%" height="2000%" fill-opacity=".1" transform="rotate(20)"/><rect width="2000%" height="2000%" fill-opacity=".1" transform="rotate(40)"/><rect width="2000%" height="2000%" fill-opacity=".1" transform="rotate(60)"/><rect width="2000%" height="2000%" fill-opacity=".1" transform="rotate(80)"/><rect width="2000%" height="2000%" fill-opacity=".1" transform="rotate(100)"/><rect width="2000%" height="2000%" fill-opacity=".1" transform="rotate(120)"/><rect width="2000%" height="2000%" fill-opacity=".1" transform="rotate(140)"/><rect width="2000%" height="2000%" fill-opacity=".1" transform="rotate(160)"/><rect width="2000%" height="2000%" fill-opacity=".1" transform="rotate(180)"/><rect width="2000%" height="2000%" fill-opacity=".1" transform="rotate(200)"/><rect width="2000%" height="2000%" fill-opacity=".1" transform="rotate(220)"/><rect width="2000%" height="2000%" fill-opacity=".1" transform="rotate(240)"/><rect width="2000%" height="2000%" fill-opacity=".1" transform="rotate(260)"/><rect width="2000%" height="2000%" fill-opacity=".1" transform="rotate(280)"/><rect width="2000%" height="2000%" fill-opacity=".1" transform="rotate(300)"/><rect width="2000%" height="2000%" fill-opacity=".1" transform="rotate(320)"/><rect width="2000%" height="2000%" fill-opacity=".1" transform="rotate(340)"/><rect width="2000%" height="2000%" fill-opacity=".1" transform="rotate(360)"/></svg></svg>