<svg xmlns="http://www.w3.org/2000/svg" viewBox="0 0 412.95723 444.10312"><path fill-rule="evenodd" d="M0 0h411.751v444.103H0z"/><path fill="#8fbd92" d="M192.272 50.716c-7.107 0-10.5.404-10.5 1.25 0 .55.749 1 1.666 1 .916 0 1.386.28 1.043.623-.343.343-1.43.276-2.416-.15-3.143-1.356-5.293-1.495-5.293-.342 0 .71-1.097.9-3 .52-2.105-.421-3-.212-3 .7 0 .884-1.044 1.175-3.25.905-2.568-.314-2.936-.164-1.75.717 1.229.914 1.048 1.076-1 .896-1.375-.12-4.242.535-6.371 1.456-2.13.92-4.38 1.69-5 1.707-1.545.043-5.31 2.968-3.82 2.968.654 0 1.19.408 1.19.907 0 .498-.854.683-1.898.41-2.432-.636-6.369 1.441-5.474 2.888.396.642.227.822-.403.432-.597-.369-1.373-.205-1.724.363s-1.057.774-1.569.457c-.512-.316-.931-.204-.931.248 0 .453-1.8 1.936-4 3.295s-4 2.816-4 3.237c0 .42-.47.763-1.043.763s-1.586.456-2.25 1.014c-3.72 3.125-15.64 11.478-24.285 17.018-15.28 9.789-17.164 11.504-20.985 19.091l-3.463 6.877 5.764-.011c8.16-.016 21.262-4.456 21.262-7.205 0-.432.543-.784 1.207-.784.663 0 3.772-1.8 6.908-4s6.19-4 6.787-4c1.402 0 21.098-19.553 21.098-20.945 0-.58.566-1.055 1.257-1.055.692 0 2.703-1.575 4.47-3.5 1.766-1.925 3.638-3.5 4.16-3.5.52 0 1.095-.34 1.279-.758.547-1.244 8.131-6.744 11.002-7.978 4.425-1.903 18.65-2.947 32.582-2.393 3.962.158 4.276 1.698.5 2.452a548.63 548.63 0 0 0-7.442 1.572c-2.58.563-8.88 1.092-14 1.176-13.044.213-18.408 2.9-31.726 15.896-5.545 5.411-10.099 10.22-10.12 10.686-.02.465-2.092 2.422-4.603 4.347-2.51 1.925-5.082 3.965-5.713 4.534-.63.568-2.721 2.12-4.646 3.45-1.925 1.331-3.725 2.669-4 2.973-1.316 1.458-12.002 8.824-16 11.03-3.858 2.128-5.896 2.5-14.287 2.617-8.834.123-11.829.631-10.63 1.803.23.223 4.006.664 8.393.978 8.067.577 13.227-.253 19.309-3.105 1.807-.848 3.587-1.242 3.953-.875.652.651-4.025 5.595-5.293 5.595-.596 0-5.165 1.902-9.986 4.159-2.609 1.22-10.364 1.38-17.668.363-5.638-.785-5.727-.758-6.98 2.092-.7 1.587-1.717 3.199-2.262 3.582-1.143.801.277 1.37 5.642 2.26 2.388.395 4.408 1.571 5.719 3.328 1.805 2.419 2.034 2.498 2.092.716.062-1.897.164-1.881 1.998.319 1.264 1.517 3.147 2.381 5.449 2.5 1.935.1 3.737.744 4.004 1.431.574 1.48 4.547 1.7 4.547.25 0-.55.535-.887 1.187-.75.8.169 1.1-1.136.922-4-.157-2.53.174-4.25.815-4.25 1.068 0 1.42 1.664 1.164 5.5-.074 1.1.951 3.25 2.279 4.778 1.327 1.527 2.967 4.115 3.644 5.75.677 1.634 1.796 2.972 2.487 2.972 2.052 0 3.81 2.86 3.718 6.053-.097 3.42.927 3.119 4.725-1.394 3.746-4.453 13.084-7.772 11.697-4.159-.316.825-.177 1.5.31 1.5.489 0 1.678.304 2.643.674 1.354.52 1.609.29 1.114-1-.864-2.25 3.524-2.309 5.38-.072 1.206 1.452 1.494 1.401 3.073-.549.958-1.183 1.492-2.803 1.185-3.602-.683-1.781.757-1.89 2.68-.2.783.687.578.237-.455-1-1.673-2.004-1.696-2.25-.223-2.25.91 0 1.655-.45 1.655-1s1.405-1 3.123-1c2.673 0 2.942-.22 1.867-1.514-.775-.934-1.683-1.175-2.373-.631-.615.485-3.336 1.12-6.047 1.41-3.98.426-5.475.125-7.766-1.568l-2.836-2.098-1.54 2.2c-2.543 3.628-8.643 2.565-12.587-2.196-1.368-1.652-1.679-3.605-1.44-9.104.305-7.078 3.483-16.5 5.564-16.5 1.405 0 1.253 1.127-.458 3.387-1.056 1.395-1.16 2.394-.392 3.828.571 1.067.794 2.581.494 3.363-.3.782-.057 1.422.54 1.422.596 0 .85.9.562 2-.288 1.1-.128 2 .357 2 .49 0 .46 1.11-.068 2.5-.958 2.519.3 3.622 1.425 1.25.327-.687.366.264.086 2.116-.467 3.096-.327 3.317 1.74 2.763 1.237-.331 3.036-.607 3.999-.615.962-.008 1.75-.45 1.75-.982 0-.533-.63-.727-1.399-.432-1.413.542-2.879-1-3.244-3.412-.27-1.784 2.508-2.722 3.91-1.32 1.403 1.402 4.08 1.506 3.227.124-1.014-1.64 2.008-4.088 3.369-2.728.847.848 1.137.465 1.137-1.506 0-1.452.45-2.918 1-3.258.55-.34 1-1.685 1-2.988s.675-3.044 1.5-3.87c.825-.824 1.5-2.241 1.5-3.148 0-.906 1.35-2.998 3-4.648s3-3.641 3-4.424c0-.783.444-1.422.988-1.422.543 0 1.275-1.8 1.627-4 .67-4.187 1.917-5.228 2.695-2.25.282 1.077.503.692.574-1 .126-2.981 1.112-3.358 4.31-1.646 1.91 1.022 2.028.873 1.606-2-.58-3.956 1.859-4.295 2.547-.354.264 1.513.393.826.287-1.523-.135-3.002.17-4.133 1.024-3.805.668.257 1.401-.296 1.627-1.228.327-1.353.629-1.19 1.498.806l1.09 2.5.062-2.75c.045-1.962.582-2.75 1.871-2.75 1.026 0 2.304 1.19 2.957 2.75 1.077 2.574 1.136 2.45.942-1.916-.162-3.635.069-4.435 1.043-3.627.687.571 1.303 1.994 1.367 3.164.092 1.69.21 1.77.574.38.252-.963.822-1.75 1.268-1.75 1.613 0 1.832 4.111.375 7.032-.82 1.645-1.281 3.548-1.024 4.229.257.68 1.155-.347 1.996-2.283 1.685-3.878 5.33-7.676 6.37-6.637.364.365 1.486-.083 2.494-.994 2.518-2.279 2.304-.244-.344 3.268-1.938 2.57-1.775 2.507 1.5-.563 4.437-4.16 4.82-2.769.676 2.447-4.761 5.99-3.523 5.46 3.5-1.5 3.575-3.543 6.5-5.948 6.5-5.343 0 .604-.675 1.659-1.5 2.343s-1.5 1.639-1.5 2.121c0 1.828 1.958.744 5.601-3.101 4.23-4.465 5.408-4.612 2.86-.358-1.639 2.736-1.588 2.722 1.406-.412 5.922-6.199 4.824-2.712-1.334 4.239-4.507 5.087-4.521 6.366-.033 2.943 1.925-1.468 3.5-3.018 3.5-3.443 0-.426.675-1.033 1.5-1.35 2.89-1.109 1.445 1.194-4.858 7.75-3.496 3.636-6.177 6.611-5.959 6.611.744 0 6.807-4.494 8.432-6.25.89-.962 1.88-1.75 2.2-1.75s1.8-1.129 3.29-2.51c1.49-1.38 2.938-2.278 3.22-1.996.283.283-2.48 3.437-6.142 7.01-3.662 3.573-6.283 6.496-5.824 6.496.459 0 1.915-.947 3.236-2.105 3.916-3.431 11.008-8.125 11.514-7.62.563.564-6.74 7.634-11.555 11.184-1.894 1.398-3.088 2.541-2.654 2.541 1.294 0 8.783-5.55 14.166-10.5 1.196-1.1 2.796-2.149 3.555-2.332 1.481-.357-2.15 4.027-5.924 7.153-1.267 1.049-2.081 2.13-1.809 2.402.545.544 6.91-3.678 7.444-4.938.183-.432 1.083-.77 2-.753 1.213.023.852.71-1.332 2.525-4.564 3.793-4.67 3.86-9.75 6.234-2.613 1.221-4.75 2.69-4.75 3.266 0 1.114 8.461-3.247 15.351-7.91 6.719-4.548 7.426-4.88 5.649-2.653-1.356 1.699-1.337 1.82.199 1.245 1.214-.455 1.54-.224 1.142.812-.305.797-.862 1.45-1.236 1.45-1.125 0-7.687 5.915-6.605 5.954.55.02 3.362-1.756 6.25-3.945s5.25-3.575 5.25-3.08c0 .908-3.813 4.748-7.5 7.553-2 1.521-2 1.521 0 .842 1.1-.374 2.225-.967 2.5-1.319 1.504-1.922 9.887-6.879 9.375-5.543-.341.889-.05 1.537.691 1.537.755 0 .286 1.092-1.143 2.66-1.835 2.015-1.999 2.508-.673 2.032.971-.35 1.75-.15 1.75.447 0 .592.675.817 1.5.5.825-.317 1.5-.14 1.5.393 0 .532-.445.968-.989.968s-.88.915-.75 2.033c.16 1.357-.761 2.607-2.761 3.75a472.02 472.02 0 0 0-3.418 1.967c-.23.138-.137.53.205.871.342.342 2.668-.578 5.168-2.043 2.5-1.465 4.545-2.29 4.545-1.836 0 .455-1.444 1.68-3.21 2.723-1.816 1.073-2.666 2.077-1.958 2.313.992.33.983.74-.041 1.982-1.081 1.31-1.047 1.456.209.902.825-.364 2.287-.94 3.25-1.279.962-.34 1.75-1.213 1.75-1.941 0-.729.407-1.577.906-1.885 1.053-.65.21 3.42-1.043 5.035-.466.6-.513 1.459-.106 1.908.408.45.035.566-.83.258-.919-.327-2.064.23-2.757 1.342-.94 1.503-.915 1.9.12 1.9.72 0 1.842-.532 2.493-1.183.65-.651 1.526-.84 1.947-.418.42.42-.133 1.462-1.232 2.316-1.115.866-1.335 1.334-.498 1.057 7.009-2.324 6.888-2.475 2.771 3.47-1.045 1.51-1.62 3.195-1.28 3.747.342.55-.6 2.134-2.093 3.517-1.492 1.383-2.423 2.802-2.07 3.154.353.353 2.785-1.347 5.406-3.777 8.95-8.298 9.642-8.883 10.512-8.883.478 0 .617.411.306.914-.31.503-.082 1.077.508 1.274 1.473.49-10.442 12.256-14.379 14.197-2.399 1.183-2.69 1.572-1.181 1.582 1.1.007 4.33-1.322 7.177-2.955 5.302-3.04 7.932-5.519 4.623-4.355-1.049.369-.103-1.203 2.262-3.762 9.758-10.558 9.95-11.032 9.826-24.145-.06-6.462.277-11.75.75-11.75s.9.563.946 1.25.306 3.275.578 5.75c1.513 13.803.398 17.394-8.444 27.18-2.029 2.246-3.74 4.586-3.802 5.201-.062.615-.18 1.61-.264 2.211-.084.601-2.143 2.118-4.576 3.37-3.117 1.602-4.25 2.726-3.836 3.804.468 1.22.01 1.419-2.264.984-1.568-.3-3.488-.299-4.267 0-2.147.824 4.007 3.123 6.892 2.574 1.712-.325 3.472.5 6.149 2.885 4.097 3.65 4.896 5.385 1.75 3.8l-4-2.018c-1.562-.788-2-.678-2 .5 0 2.104-2.628 1.884-4.926-.415-2.4-2.4-4.725-3.61-8.574-4.464-2.846-.631-2.79-.523 1.115 2.11 11.075 7.472 12.97 9.026 12.086 9.91-.295.294-1.407-.338-2.473-1.403-1.065-1.066-3.802-2.986-6.082-4.268-2.28-1.282-4.146-2.649-4.146-3.039 0-1.025-2.912-2.007-7.5-2.53-2.2-.25-4.63-.676-5.4-.948-.77-.273-3.648.679-6.395 2.115-4.636 2.424-8.705 3.81-8.705 2.967 0-.198 2.888-1.768 6.42-3.489 5.664-2.76 7.038-3.045 11.652-2.433 3.828.508 5.04.386 4.52-.455-.395-.64-.13-1.164.597-1.182.87-.021.723-.477-.44-1.36-1.931-1.466-2.315-4.139-.734-5.116.56-.346.78-1.011.49-1.479-.288-.468.188-1.562 1.057-2.432.93-.93 1.11-1.58.438-1.58-1.462 0-3.128-1.777-4.92-5.25-.78-1.512-1.793-2.75-2.25-2.75s-.83-.473-.83-1.05c0-4.373-20.601-17.83-29.5-19.27-1.65-.267-3.742-.784-4.649-1.15-.907-.366-1.947-.186-2.31.402-.363.587-1.539 1.068-2.614 1.068s-2.736.421-3.691.938c-.955.516-4.324 2.067-7.486 3.445-3.163 1.378-5.75 3.036-5.75 3.684 0 .9.331.903 1.41.008 1.018-.845 1.602-.864 2.094-.069.48.779 1.315.69 2.837-.3 4.817-3.134 19.371-3.803 28.018-1.29 6.727 1.956 14.004 7.585 18.64 14.42 1.926 2.838 4.197 5.161 5.05 5.162.852.001 2.08.531 2.726 1.178 1.967 1.967-.465 3.829-4.113 3.149-2.637-.492-2.95-.363-1.887.77 1.044 1.11.885 1.653-.879 2.984-2.12 1.6-2.09 1.635 1.975 2.285 2.27.363 4.129 1.105 4.129 1.648 0 1.27-1.016 1.244-6.25-.156-3.973-1.063-4.705-.923-10.264 1.963-9.394 4.876-14.31 6.283-23.986 6.861-7.479.447-9.838.204-13.955-1.435-2.726-1.086-5.14-2.53-5.366-3.207-.307-.924.181-.894 1.953.115 3.42 1.947 22.972 1.6 28.868-.512 2.475-.887 5.1-1.619 5.836-1.627.734-.008 3.752-1.701 6.705-3.764 5.967-4.167 6.113-4.989 2.26-12.75-4.337-8.733-10.801-12.781-20.319-12.722-10.834.067-22.91 4.813-25.613 10.066-.752 1.46-1.638 2.881-1.969 3.156-3.06 2.543-3.892 12.576-1.434 17.29 1.332 2.553 1.284 2.958-.568 4.81-1.117 1.117-3.002 1.883-4.21 1.711-1.75-.249-2.188-.978-2.188-3.629 0-2.191-.632-3.671-1.858-4.36-1.711-.96-1.803-.732-1.187 2.913.588 3.48.37 4.148-1.803 5.572-3.352 2.197-4.981.271-4.21-4.98.308-2.105.297-3.264-.024-2.577-.322.688-1.206 1.25-1.963 1.25-.757 0-1.903 1.76-2.547 3.91-1.044 3.484-.94 4.239.959 6.905 2.722 3.823 2.69 4.007-.617 3.416-4.305-.77-6.25-3.07-6.25-7.387 0-2.115-.415-3.844-.92-3.844-.505 0-1.647-.28-2.54-.623-1.02-.391-1.514-.155-1.331.637.402 1.74-4.957 3.133-9.348 2.43-4.697-.752-11.815 1.165-12.478 3.36-.283.933-2.516 5.746-4.963 10.696-4.579 9.262-4.998 10.771-5.836 21-.27 3.3-1.259 9.6-2.198 14-2.576 12.076-2.689 19.476-.353 23.317 1.065 1.75 2.482 3.183 3.15 3.183.945 0 .949-.267.016-1.2-1.57-1.57-1.539-6.964.05-9.087.688-.918 3.05-2.085 5.25-2.591l4-.92-3.667-.102c-2.017-.055-3.858-.662-4.092-1.35-.514-1.508 1.708-11.554 2.775-12.546.417-.388.96-.141 1.205.546.246.688 1.083 1.25 1.862 1.25.779 0 1.418.675 1.418 1.5s.45 1.5 1 1.5 1 .43 1 .956c0 1.536 4.872 8.307 8.127 11.294 1.648 1.513 4.061 2.75 5.363 2.75 2.471 0 4.582 1.656 7.193 5.641 1.992 3.04 2.441 2.983 6.461-.797 3.02-2.84 3.955-3.149 9.356-3.09 9.611.105 12.083-1.046 13.39-6.238.61-2.42 1.11-6.21 1.11-8.422 0-3.696-.489-4.428-6.053-9.058-3.329-2.77-6.505-5.036-7.059-5.036-.554 0-.748-.42-.431-.931.316-.512.192-1.166-.276-1.455-1.085-.671-.248-6.614.932-6.614.488 0 .887 1.48.887 3.288 0 2.665.414 3.317 2.19 3.45 1.203.091 3.435 1.087 4.958 2.214 1.524 1.126 3.271 2.048 3.883 2.048 1.434 0 3.969 2.531 3.969 3.963 0 .785.563.806 1.933.073 2.68-1.434 3.102-1.306 2.366.714-.602 1.651-.528 1.654 1.304.051 1.305-1.142 2.42-1.405 3.4-.799 1.203.744.948 1.44-1.458 3.952-3.605 3.763-2.213 4.06 1.656.353 2.13-2.041 3.092-2.413 3.97-1.535.879.878 1.461.744 2.41-.555 1.436-1.963 3.168-.952 1.811 1.057-.49.727.117.174 1.352-1.227 1.588-1.802 2.246-2.097 2.25-1.007 0 .847-1.794 3.53-3.994 5.96-2.2 2.431-4 4.77-4 5.2 0 .429 2.362-1.875 5.25-5.121 2.887-3.246 5.812-5.942 6.5-5.99 1.843-.131 1.525.937-.905 3.044-2.632 2.283-1.163 2.479 1.997.266 3.146-2.204 3.803-1.097.974 1.644-2.314 2.242-2.312 2.243 1.99-.115 3.278-1.795 4.493-2.062 5.08-1.111.425.688 1.48.98 2.342.648.863-.33 1.839-.166 2.168.368.33.533-1.422 1.801-3.894 2.818-2.472 1.016-4.496 2.187-4.498 2.6-.002.412-.497.75-1.1.75s-2.29.813-3.75 1.806c-3.435 2.337-12.307 4.535-18.658 4.623-4.176.058-5.498.566-8 3.07-1.649 1.65-3.964 3.538-5.147 4.196-2.523 1.403-10.457 1.808-15.125.771-3.17-.704-3.268-.63-3.045 2.303.127 1.667-.35 3.729-1.058 4.582-.815.982-1.004 2.395-.516 3.85 2.04 6.074 1.995 8.953-.195 12.295-1.876 2.863-7.124 5.775-7.963 4.418-.314-.508-.323-2.472-.022-4.368.558-3.505-.228-4.964-2.007-3.73-1.397.968-8.418 9.756-8.418 10.535 0 1.29 2.313.606 3.72-1.102 1.374-1.666 1.417-1.666.893 0-.484 1.538.203 1.75 5.668 1.752 5.769.002 6.725-.34 13.219-4.742 3.85-2.61 7.15-5.085 7.334-5.502.183-.417.972-.758 1.754-.758.781 0 3.71-1.104 6.505-2.453 5.027-2.425 10.537-3.844 14.395-3.707 3.5.125 9.9 3.437 13.72 7.102 5.523 5.296 7.397 6.8 10.489 8.422 3.16 1.658 11.63 9.679 13.935 13.197.836 1.275 1.577 4.773 1.647 7.775.139 5.93.728 5.013-11.408 17.752l-4.371 4.588-13.344 2.184c-7.339 1.2-15.186 3.074-17.438 4.162-2.252 1.088-4.508 1.978-5.013 1.978-.505 0-2.637 1.362-4.739 3.026-3.27 2.59-4.933 5.718-5.162 9.707-.024.421-.442 1.892-.93 3.267l-.886 2.5 2.15-2.5 2.15-2.5-.505 2.75c-.536 2.913.602 3.797 1.586 1.233.776-2.023 6.63-1.644 6.63.43 0 1.156.267 1.22 1.2.287 1.357-1.357 3.19-1.64 2.406-.372-.725 1.174 3.411.74 4.225-.443.702-1.021 7.873-5.385 8.85-5.385.31 0 .05.62-.579 1.377-1.634 1.97 2.227 2.85 4.602 1.05 2.785-2.113 3.513-1.691 2.787 1.614-.619 2.818-.493 2.997 1.695 2.448 1.3-.326 3.476-.147 4.838.396l2.477.988-2.809.063c-1.545.035-2.558.472-2.25.97.308.5-.372.662-1.514.364-1.14-.299-3.73-.059-5.752.531-10.576 3.086-13.141 3.472-14.664 2.21-1.258-1.045-2.373-.333-6.88 4.396-2.959 3.103-6.076 7.543-6.928 9.867-2.289 6.242-3.894 14.985-2.875 15.65.485.317 1.423 2.239 2.086 4.272.833 2.557 1.65 3.525 2.652 3.14 1.048-.402 1.378.095 1.191 1.803-.21 1.929.152 2.303 1.985 2.049 1.8-.25 2.108.045 1.562 1.5-.6 1.598-.478 1.65 1.024.428 1.477-1.203 1.932-1.125 3.437.591 1.79 2.042 2.804 2.296 9.93 2.502 2.307.067 4.166.386 4.13.707-.197 1.828.54 2.108 3.925 1.496 2.062-.372 3.92-.827 4.13-1.01.21-.182 1.183.096 2.16.62 2.105 1.126 16.834-.497 18.36-2.024.55-.55 1.696-1 2.549-1.004 6.176-.022 15.814-6.519 17.486-11.789.385-1.213 1.082-2.205 1.55-2.205 1.51 0 6.74-16.46 9.392-29.564 2.541-12.56 5.86-23.889 7.308-24.947 2.35-1.718 3.275-8.31 2.947-20.989-.245-9.49-.781-13.255-2.57-18-1.244-3.3-2.617-7.743-3.05-9.873-.434-2.13-1.188-4.154-1.676-4.5-2.135-1.51-7.467-9.234-7.112-10.3.216-.647 1.469.366 2.785 2.25 1.317 1.883 2.652 3.648 2.965 3.923 3 2.63 10.017 12.116 10.559 14.276.378 1.508 1.04 2.96 1.47 3.226.431.266.433-.976.005-2.76-.745-3.102-1.217-4.612-2.659-8.492-.357-.962-.814-2.604-1.015-3.646-.687-3.558-7.2-13.095-12.364-18.104-5.002-4.852-12.525-15.279-11.654-16.15.237-.237 2.372 1.95 4.746 4.86 2.375 2.909 6.744 7.737 9.711 10.73 2.967 2.992 6.306 7.38 7.42 9.75 2.413 5.133 3.228 5.516 2.256 1.06-1.179-5.407-4.966-13.122-10.379-21.144-2.822-4.183-4.699-7.606-4.17-7.606 1.077 0 11.078 14.115 12.754 18 .593 1.375 1.56 3.625 2.15 5 1.979 4.615 4.206 13.81 3.678 15.186-.479 1.248 1.083 10.196 3.285 18.814l.895 3.5.709-4c.39-2.2.478-5.575.197-7.5a262.292 262.292 0 0 1-.994-8c-.626-5.817-3.153-17.762-4.514-21.34-1.332-3.504-1.355-5.66-.06-5.66.55 0 1 1.1 1 2.442s.52 2.761 1.156 3.154c1.528.944.557-5.2-1.586-10.045l-3.137-7.092c-2.405-5.439-1.312-7.602 1.207-2.388 3.254 6.732 6.563 19.724 5.85 22.97-.418 1.903-.026 3.739 1.195 5.606 1.117 1.707 1.295 2.455.465 1.943-1.078-.665-1.135-.43-.285 1.158.586 1.094.82 2.235.52 2.536-.3.3-.048 1.477.562 2.617 2.359 4.407 1.126 28.77-1.953 38.6-1.184 3.779-1.857 16.211-.934 17.234.63.696-.937 9.852-2.525 14.765-.572 1.768-.452 1.74 1.031-.25.923-1.237 2.037-2.25 2.477-2.25.44 0 2.748-1.998 5.129-4.44 6.808-6.98 8.425-8.883 9.822-11.56.718-1.375 1.632-2.725 2.031-3 1.371-.945 4.894-8.321 4.375-9.16-.285-.462-.094-.84.424-.84 1.496 0 2.238-4.341.889-5.199-.667-.424-.748-.777-.178-.785 2.618-.039.328-17.41-3.197-24.246-1.495-2.899-2.824-5.72-2.951-6.27-.128-.55-1.366-4.262-2.75-8.25-1.385-3.987-2.23-7.25-1.877-7.25.352 0 .175-.465-.393-1.033-1.2-1.2-.653-10.018.709-11.418.582-.598.924-.55.924.129 0 .593 1.585 3.712 3.523 6.93 1.938 3.218 3.962 7.476 4.496 9.463 1.25 4.642 3.457 6.576 8.897 7.798 4.26.957 4.488.88 8.002-2.691 1.99-2.023 4.81-6.153 6.265-9.178a6260.1 6260.1 0 0 0 6.704-14c2.231-4.675 5.533-11.226 7.335-14.558 4.64-8.575 6.035-12.217 5.198-13.573-.456-.738-.298-.912.426-.464.635.392 1.224.124 1.31-.596l.455-3.809c.165-1.375.376-5.53.469-9.232.109-4.325.538-6.505 1.2-6.096.64.396.72.136.21-.69-.45-.728-.93-2.71-1.066-4.404-.136-1.693-.382-4.797-.545-6.898-.261-3.348-1.685-6.201-1.99-3.988-.062.445-.28 2.383-.483 4.308-.204 1.925-1.057 6.65-1.894 10.5-1.31 6.018-1.849 13.978-1.325 19.557.175 1.864-4.22 10.943-5.297 10.943-.415 0-1.007.788-1.316 1.75-.799 2.491-5.817 8.38-12.521 14.696-4.148 3.907-7.053 9.103-7.053 12.617 0 2.909-1.916 3.286-2.945.58-1.597-4.2.886-8.23 10.751-17.432 6.165-5.75 10.52-10.808 12.807-14.879 3.283-5.841 3.446-6.577 3.06-13.875-.223-4.238-.029-9.337.434-11.332.463-1.994 1.122-6.144 1.463-9.222.57-5.147.4-5.83-2.115-8.5-1.867-1.983-2.882-2.49-3.197-1.598-.678 1.917-4.43 5.195-5.948 5.195-.72 0-1.31.478-1.31 1.063s-1.8.053-4-1.184c-2.2-1.236-4-2.854-4-3.595 0-2.305-3.168-2.775-4.682-.696-.766 1.052-2.878 3.487-4.693 5.412-2.895 3.07-6.226 8-5.404 8 .16 0 1.844-.446 3.742-.99 4.989-1.43 11.532 1.855 13.63 6.844 2.593 6.163 3.442 12.702 2.32 17.885-.565 2.618-1.372 6.561-1.792 8.761s-1.56 5.516-2.53 7.367c-1.61 3.075-2.068 3.316-5.267 2.797-4.328-.702-6.586-2.402-5.316-4.002.507-.639 2.29-2.799 3.96-4.798 7.23-8.652 6.894-14.98-.865-16.346-2.12-.374-3.109-.147-3.119.717-.01.861-.323.788-.984-.235-.533-.825-.977-1.037-.985-.472-.008.565.705 2.054 1.584 3.31 2.107 3.008 1.158 8.053-2.197 11.672-3.563 3.844-4.657 7.108-3.178 9.477 1.49 2.386.595 3.408-2.207 2.52-3.506-1.114-5.29-8.035-2.753-10.686 3.06-3.199 7.736-9.71 7.736-10.774 0-.64-1.377-2.877-3.059-4.97-5.677-7.065-5-18.715 1.543-26.577 1.373-1.65 6.181-6.707 10.684-11.238 6.155-6.194 9.06-8.401 11.71-8.898 5.12-.96 11.077 1.42 13.84 5.535l2.284 3.4-.229-2.77c-.126-1.522-.802-2.987-1.502-3.255-.7-.269-1.271-1.115-1.271-1.881s-.478-1.393-1.063-1.393-.982-.787-.885-1.75c.309-3.033-.05-3.8-1.052-2.25-.822 1.272-.972 1.226-.985-.308-.008-.995-.465-1.532-1.015-1.192s-1-.335-1-1.5-.433-1.85-.963-1.523c-.53.327-1.872-.311-2.98-1.42-2.232-2.231-6.064-1.998-11.557.703-4.206 2.068-11.915 10.406-15.844 17.135-1.158 1.983-2.922 4.497-3.92 5.586-.998 1.089-2.07 3.001-2.383 4.25-.478 1.907-3.353 3.39-3.353 1.73 0-1.415 7.378-16.46 8.072-16.46.436 0 1.065-.86 1.398-1.909 1.787-5.63 13.427-16.036 18.03-16.119 1.973-.036 1.974-.057.058-1.506-1.067-.807-1.599-1.467-1.181-1.467.417 0-.171-1.307-1.309-2.904-1.137-1.597-2.068-3.202-2.068-3.566 0-.365-1.18-2.208-2.62-4.096-1.44-1.888-2.317-3.434-1.95-3.434s-.705-1.995-2.381-4.431c-1.677-2.437-3.05-5.137-3.05-6 0-.864-.498-1.569-1.107-1.569s-.861-.638-.562-1.418a1.532 1.532 0 0 0-.893-1.968c-.79-.304-1.437-1.24-1.437-2.082 0-.843-.563-1.54-1.25-1.547-.834-.01-.75-.338.25-.985.958-.619 1.057-.974.275-.984-.673-.008-4.012-4.178-7.42-9.266-7.548-11.268-12.71-16.512-21.025-21.361-1.048-.611-2.9-2.016-4.117-3.121s-3.397-2.63-4.842-3.389c-1.446-.758-5.167-3.066-8.27-5.129-3.102-2.062-5.881-3.75-6.176-3.75-.673 0-9.333-3.742-11.675-5.045-1.235-.687-1.75-.62-1.75.227 0 .66-.616.357-1.37-.674-1.065-1.457-2.712-1.889-7.398-1.941-3.315-.037-5.82-.404-5.57-.817.398-.655-2.07-1-7.162-1zm9.068 16.008c4.148-.09 11.735 1.146 12.932 2.363.676.689-1.264.958-6 .836-10.632-.274-13.5-.051-13.5 1.043 0 .55 1.405 1 3.123 1 5.752 0 1.397 2.627-6.63 4-4.12.705-7.494 1.556-7.493 1.89 0 .336-2.982.533-6.625.438-3.644-.094-7.428.131-8.41.5-3.223 1.212-10.486 8.607-14.385 14.647-2.876 4.455-5.695 7.83-12.81 15.35-2.77 2.925-4.687 4.169-5.93 3.843-1.08-.282-1.84.049-1.84.803 0 .706-.682 1.848-1.514 2.54-.832.69-1.414 1.758-1.293 2.372.222 1.125-3.088 8.617-3.807 8.617-.212 0-.359-1.012-.324-2.25.114-4.045 5.273-13.22 7.623-13.558 3.31-.476 9.196-6.626 17.887-18.692 7.171-9.955 7.157-9.93 3.787-8.183-3.103 1.608-10.36 8.299-10.36 9.55 0 .425-1.385 2.317-3.077 4.204-1.694 1.886-3.817 4.667-4.717 6.18-.9 1.512-2.178 2.75-2.838 2.75-.66 0-1.35.358-1.533.796-.407.973-14.647 9.203-15.922 9.203-.502 0-.912.366-.912.815 0 1.116-7.99 5.53-8.71 4.81-.84-.84 1.719-3.625 3.333-3.625.757 0 1.377-.356 1.377-.79 0-.436 4.11-3.248 9.134-6.25 5.025-3.003 10.537-6.89 12.25-8.64 5.348-5.457 9.121-10.514 8.965-12.013-.082-.792.091-1.2.387-.904.295.295 2.716-1.423 5.379-3.817 2.844-2.557 6.756-4.916 9.482-5.719 2.553-.751 5.605-2.492 6.782-3.867 3.192-3.73 6.327-4.856 14.62-5.248 5.136-.242 8.896-1.046 11.925-2.547 2.432-1.205 4.617-1.997 4.853-1.761.236.236 1.401.06 2.59-.393.47-.179 1.244-.272 2.201-.293zm14.432 4.242c1.833 0 3 .518 3 1.332 0 1.348-1.062 1.571-4.25.893-2.883-.614-1.977-2.225 1.25-2.225zm-14.295 3.412c1.36-.11 4.53.876 8.13 2.627 2.01.978 4.05 1.53 4.538 1.229.487-.301.678.078.424.842-.706 2.119-3.025 2.087-5.797-.08-1.375-1.076-3.738-2.233-5.25-2.573-1.513-.34-2.75-1.04-2.75-1.556 0-.294.251-.452.705-.489zm22.045 1.592c.412.003 2.1 1.113 3.75 2.465 3.438 2.819 2.335 3.307-1.75.773-2.615-1.62-3.62-3.248-2-3.238zm17.75 3.069c1.195-.011 3.483 1.768 5.373 4.177 2.006 2.558 1.016 2.147-2.91-1.209-1.905-1.627-3.013-2.963-2.463-2.968zm-24.47 1.927c.568 0 1.31.788 1.65 1.75.338.963 1.497 3.744 2.576 6.182 1.747 3.95 2.075 4.228 3.017 2.545 1.03-1.84 1.075-1.84 1.82.066 1.252 3.199 1.006 5.457-.593 5.457-.825 0-1.514-.787-1.532-1.75-.029-1.595-.141-1.608-1.263-.134-.982 1.29-1.467 1.362-2.403.36-.645-.69-.906-2.28-.578-3.534.48-1.832.27-2.155-1.064-1.643-1.083.416-1.66.128-1.66-.83 0-.808-.563-1.483-1.25-1.5-.691-.017-.465-.487.506-1.053 1.354-.789 1.526-1.453.75-2.904-1.273-2.378-1.267-3.012.025-3.012zm27.269 3.362c.244 0 .59.439 1.257 1.318 1.55 2.046 1.888 3.712.588 2.908-.47-.29-.65.544-.4 1.854.38 1.987-1.327 7.105-1.854 5.558-.504-1.482-.661-8.756-.222-10.32.247-.88.386-1.318.63-1.318zm-12.004.638c1.051 0 2.125.889 2.416 2 .287 1.1 1.06 2 1.718 2 .659 0 1.815 1.575 2.57 3.5.756 1.925 1.667 3.5 2.026 3.5 1.241 0 2.942 4.902 1.92 5.534-.538.332-.719 1.023-.402 1.535.316.512.21.87-.235.795-.445-.075-1.894-.34-3.22-.59-1.917-.361-2.122-.659-1-1.442 1.046-.73 1.098-1.112.2-1.478-.746-.305-1.023-1.713-.722-3.674.474-3.09.455-3.11-.691-.68-.98 2.077-1.252 2.204-1.602.75-.231-.962-.796-1.75-1.254-1.75-.458 0-.594-.907-.304-2.015.39-1.497.138-1.866-.979-1.438-1.127.432-1.606-.316-1.918-2.984-.347-2.975-.104-3.563 1.477-3.563zm20.736 4c1.208 0 2.315 2.461 1.8 4.004-.238.716-.766.662-1.593-.166-1.502-1.502-1.628-3.838-.207-3.838zm-5.639 4.635c.21-.085.461.604.887 1.865.557 1.65 1.567 3.328 2.242 3.729.822.488 1.097 2.637.836 6.5-.38 5.63-.354 5.698 1.045 2.771l1.436-3 .08 3.16c.09 3.535-3.72 14.34-5.057 14.34-.474 0-.861-.24-.861-.533 0-.293.652-2.093 1.449-4 1.293-3.096 1.282-3.467-.113-3.467-1.29 0-1.444-.802-.873-4.607.48-3.208.362-4.402-.393-3.936-1.754 1.084-2.35-2.081-1.55-8.224.403-3.1.603-4.488.872-4.598zm-62.672.348c-.396-.015-1.22 1.144-2.255 3.267l-1.586 3.25 2.039-2.5c1.12-1.375 2.048-2.837 2.06-3.25.015-.511-.077-.76-.258-.767zm71.143 1.207c.181.02.415.087.707.199.876.336 1.808.611 2.07.611.263 0 .2.45-.14 1-.918 1.484-2.204 1.214-2.905-.611-.339-.885-.276-1.257.268-1.2zm6.178.775c.166-.03.358.102.586.33.918.918 1 16.557.111 21.065-1.847 9.355-2.653 6.727-2.104-6.86.457-11.274.685-14.408 1.407-14.535zm-62.184 5.541c-.551-.136-3.133 1.653-7.857 5.444-4.152 3.33-1.019 2.293 3.62-1.2 2.375-1.787 4.331-3.618 4.348-4.068.004-.098-.032-.156-.11-.176zm-15.287 1.494c-.275 0-.982.9-1.57 2-.589 1.1-.846 2-.57 2s.981-.9 1.57-2c.588-1.1.845-2 .57-2zm17.846 10.453a.866.866 0 0 0-.293.002 2.782 2.782 0 0 0-.57.163c-1.733.664-2.05 1.382-.612 1.382.518 0 1.215-.444 1.55-.988.198-.319.156-.512-.075-.559zm53.232 2.543c.246-.045.326.427.332 1.313.012 1.614.445 2.546 1.02 2.191.565-.349 1.069.604 1.158 2.192.15 2.665.113 3.403-.377 7.558-.118 1-1.045 1.75-2.16 1.75-1.075 0-1.661.293-1.303.65.358.359-.13 1.245-1.084 1.97-2.023 1.536-3.607 1.792-2.777.449.316-.512.095-1.226-.49-1.588-.735-.454-.681-1.122.17-2.147.857-1.033.907-1.692.163-2.16-.695-.438.107-2.951 2.293-7.174 1.77-3.417 2.645-4.928 3.055-5.004zm17.486 3.977c.165-.056.363.027.602.225 1.63 1.35.9 16.989-1.02 21.802-4.25 10.66-7.716 16.532-7.716 13.069 0-.513 1.403-4.675 3.119-9.25 3.412-9.1 4.093-12.456 4.265-20.983.067-3.28.257-4.695.75-4.863zm-16.337 1.027c-.118 0-.33.334-.707 1-.467.825-1.146 2.625-1.51 4l-.664 2.5 1.506-2.5c.828-1.375 1.508-3.175 1.511-4 .002-.666-.02-1-.136-1zm-151.579 8c.689 0 .86 1.945.489 5.545-.713 6.91.504 10.388 4.531 12.955 1.726 1.1 3.728 3.463 4.451 5.25 1.19 2.94 1.148 3.236-.437 3.114-.964-.075-3.178-.862-4.92-1.75-4.616-2.353-6.61-6.348-6.567-13.159.044-7.092 1.042-11.955 2.453-11.955zm142.899 13c.55 0 .723.45.383 1s-1.068 1-1.618 1-.722-.45-.382-1 1.067-1 1.617-1zm-183.2.49c-.537-.058-.917.142-.917.542 0 .532.675.968 1.5.968s1.5-.176 1.5-.392c0-.216-.675-.652-1.5-.969a2.362 2.362 0 0 0-.582-.148zm131.561 1.981c2.281-.05 4.308 1.271 6.072 3.965 1.555 2.373 1.54 2.725-.246 5.795-2.043 3.512-5.75 4.538-10.025 2.773-4.653-1.921-4.085-9.02.93-11.613 1.142-.59 2.232-.897 3.27-.92zm-.638 4.541a3.955 3.955 0 0 0-.475.004c-.756.055-1.47.343-1.818.908-.491.794.89 1.524 3.703 1.96.412.063.75-.559.75-1.384 0-.89-1.054-1.428-2.16-1.488zm55.576 1.441c.231.047.273.24.076.559-.587.95-2.492 1.406-2.492.596 0-.216.699-.663 1.552-.99a2.74 2.74 0 0 1 .57-.163.863.863 0 0 1 .294-.002zm8.035 1.838c.685-.09.843 1.34.556 4.71-.228 2.685-2.826 8.16-3.083 6.5-.453-2.914-.34-4.062.45-4.637.482-.35.876-1.82.876-3.268s.393-2.876.875-3.174a.85.85 0 0 1 .326-.13zm11.264 1.084c.842-.163.832 1.755-.465 4.635-.865 1.92-1.65 3.715-1.744 3.99-.095.275-.695 1.757-1.332 3.293-.638 1.537-1.438 3.904-1.778 5.26-.904 3.604-2.396 4.025-2.396.676 0-3.078 3.46-12.323 6.078-16.237.694-1.038 1.254-1.542 1.637-1.617zm-193.157.625c-.792 0-1.718.45-2.058 1-.34.55.309 1 1.441 1 1.132 0 2.059-.45 2.059-1s-.65-1-1.442-1zm148.358.123c.347.015.646.106.812.272.332.332-.258.569-1.312.525-1.165-.048-1.402-.284-.604-.603a2.74 2.74 0 0 1 1.104-.194zm-152.114 2.077c-.174.004-.47.285-.802.8-.534.825-.97 1.95-.97 2.5s.436.325.97-.5.968-1.95.968-2.5c0-.206-.06-.302-.166-.3zm39.463.851c.756 0 1.756.317 2.735.95 1.169.755.893.972-1.25.984-1.513.008-2.75-.435-2.75-.985 0-.632.51-.949 1.265-.949zm-43.644.338c-.365.012-.621.41-.621 1.053 0 1.756.6 2.014 1.457.627.316-.512.117-1.213-.442-1.559a.711.711 0 0 0-.394-.121zm-3.446 2.703c-.135-.015-.024.402.243 1.24.32 1.008.582 2.245.582 2.75 0 .505.45.918 1 .918s1-.363 1-.808-.712-1.683-1.582-2.75c-.724-.888-1.107-1.335-1.243-1.35zm194.12 2.262c.393-.078.668.467.634 1.338-.098 2.533-1.378 5.525-2.068 4.836-.787-.787.17-5.43 1.258-6.102a.533.533 0 0 1 .176-.072zm-177.46 2.29c-.316-.075-1.146.402-2.261 1.485-1.059 1.03-1.45 1.871-.871 1.871s1.62-.687 2.316-1.525c.935-1.127 1.133-1.754.817-1.83zm2.223.356c-.582 0-1.058.45-1.058 1s.198 1 .441 1 .719-.45 1.059-1c.34-.55.14-1-.442-1zm-20.006.135c-.283-.036-.54.018-.718.197-.717.717.544 2.668 1.724 2.668a.944.944 0 0 0 .942-.941c0-.885-1.097-1.816-1.948-1.924zm104.319 1.315c1.446-.056 3.178.382 6.232 1.406 3.244 1.087 7.581 2.289 9.639 2.67 2.058.38 3.556.99 3.332 1.353-.224.363 3.043.819 7.26 1.014 11.056.511 14.147.503 18.916-.043 2.337-.268 4.25-.098 4.25.377s1.575.568 3.5.207c2.38-.447 3.5-.282 3.5.514 0 .643-.42.912-.932.595-.512-.316-1.213-.12-1.559.44-.346.56.28 1.017 1.397 1.017 2.433 0 9.094 3.047 9.094 4.16 0 .435-1.163.347-2.584-.193s-2.939-.764-3.371-.496c-.433.267-1.814-.404-3.069-1.492-2.59-2.246-3.242-2.337-7.677-1.065-2.25.645-3.316.572-3.62-.25-.32-.866-.768-.843-1.754.086-.728.688-2.42 1.25-3.757 1.25-1.338 0-3.949.935-5.801 2.08-3.526 2.18-4.224 3.118-2.117 2.844 4.704-.61 6.366.289 9.562 5.176 2.17 3.319 3.808 4.875 4.75 4.514 2.113-.811 4.436.358 4.453 2.242.008.903.436 2.307.95 3.119.773 1.223 1.07 1.104 1.736-.695l.803-2.17 1.154 2.445c.635 1.346.747 2.195.248 1.887-.499-.308-.906.142-.906 1 0 3.109-4.034 1.72-5.551-1.91-1.022-2.446-1.907-3.294-2.998-2.876-1.753.673-3.838-1.552-6.033-6.44-1.288-2.869-5.06-5.506-7.203-5.036-1.379.302-8.215-1.41-8.215-2.057 0-.359-2.588-.62-5.75-.58-3.163.04-6.425-.247-7.25-.636-.825-.39-2.905-.93-4.621-1.2-3.854-.606-7.736-3.079-9.809-6.242-2.268-3.462-1.947-5.066 1.283-6.404.887-.367 1.65-.578 2.518-.611zm-96.17.55c-.665 0-6.201 8.519-6.201 9.541 0 1.194.943.068 3.808-4.54 1.71-2.75 2.787-5 2.393-5zm157.072 1.496a1.32 1.32 0 0 1 .254.006c.547.057 1.605.356 3.223.94 7.807 2.816 12.846 5.398 15.64 8.015 1.72 1.61 3.147 2.29 3.526 1.678 1.184-1.916 2.833.34 4.65 6.365.995 3.3 2.617 6.92 3.606 8.047 2.205 2.513 3.423 7.967 1.978 8.86-.578.357-1.522-.234-2.1-1.313-.577-1.08-1.05-2.846-1.05-3.926 0-2.549-9.959-15.272-13.39-17.11-1.632-.872-2.222-1.679-1.54-2.1.611-.378-2.495-2.429-6.93-4.573-5.894-2.85-8.87-4.795-7.867-4.889zm37.34 1.868a.132.132 0 0 1 .123.039c.793.793-.669 5.597-1.703 5.597-.543 0-.486-1.269.135-3.05.512-1.469 1.116-2.53 1.445-2.586zm-181.688 1.023c-2.887.053-5.23.518-6.199 1.486-.62.62-1.874 1.127-2.787 1.127-2.894 0-11.63 9.591-13.09 14.37-1.962 6.427 1.475 11.91 8.448 13.474 2.311.518 4.293.99 4.404 1.049.11.059 2.585-.398 5.5-1.016 8.834-1.872 16.734-6.877 10.855-6.877-2.375 0-5.056-3.607-5.056-6.8 0-2.617 5.003-8.2 7.35-8.2.827 0 2.476 1.234 3.663 2.742 2.121 2.697 2.183 2.71 3.616.75 2.519-3.444 2.797-6.453.742-8.03-3.11-2.387-10.415-3.954-16.178-4.073a31.58 31.58 0 0 0-1.268-.002zm67.786.043c2.528.096 9.464 2.601 11.029 4.166.772.772 1.709 1.405 2.082 1.406.373.001 2.198 1.303 4.057 2.89 3.614 3.09 7.465 4.08 15.933 4.097 5.355.01 16.188 4.082 16.188 6.084 0 1.135-.32 1.161-1.551.13-1.816-1.52-8.444-3.324-9.598-2.61-.72.445-.89.279-.447-.438.485-.786-.365-1.155-2.662-1.155-7.797 0-23.807-4.234-27.742-7.336-.825-.65-3.188-2.035-5.25-3.08-3.779-1.913-4.528-2.986-2.825-4.039.153-.094.424-.129.786-.115zm-22.844 3.965c.192.028.377.191.558.484.386.625.027 1.395-.798 1.711-.825.317-1.257 1.213-.957 1.992.614 1.603-1.22 1.956-2.17.418-.34-.55-1.154-.999-1.809-.996-.655.003.075 1.018 1.621 2.256 1.955 1.565 2.608 2.784 2.143 3.996-.732 1.908-1.835 2.07-5.104.75-1.181-.476-2.452-1.36-2.826-1.965-.874-1.413 3.449-6 5.676-6.023.935-.01 2.11-.75 2.611-1.647.392-.7.735-1.024 1.055-.976zm18.07 1.215c.613-.058 1.9.53 3.09 1.445 1.627 1.25 1.96 1.897.973 1.89-.825-.004-2.315-.625-3.31-1.38-.996-.755-1.432-1.606-.972-1.89a.5.5 0 0 1 .22-.065zm-15.015 1.357c.282.024.667.351 1.117 1.063 1 1.582 1.297 4.97.435 4.97-.288 0-.975-1.187-1.527-2.638-.772-2.03-.647-3.447-.025-3.395zm-22.727 1.033c.481 0 .41.87-.16 1.934s-1.035 2.568-1.035 3.344c0 1.77 3.657 5.926 7.18 8.16 2.48 1.573 2.864 1.579 5.158.076 1.667-1.092 2.693-1.273 3.138-.553.364.589 1.06.825 1.547.524.487-.301 2.1-.24 3.588.133 2.588.65 2.623.738.797 2.095-1.772 1.317-1.712 1.37.842.744 3.873-.95 3.462 1.006-.5 2.377-3.212 1.112-3.216 1.12-.325.75 2.882-.369 5.575 1.246 5.575 3.344 0 .59.45 1.072 1 1.072s1 .422 1 .938c0 1.149-2.72.956-5.764-.408-1.245-.559-2.044-1.593-1.773-2.297.372-.97.03-1.032-1.42-.256-2.605 1.394-3.359 1.284-2.715-.393.406-1.057-.26-1.365-2.643-1.224-1.752.104-3.656.484-4.232.847-1.419.894-3.87-.723-3.067-2.023.354-.572-.266-1.33-1.377-1.682-4.322-1.372-8.01-5.535-8.01-9.045 0-3.676 1.807-8.457 3.196-8.457zm147.863 0c.583 0 .782.45.442 1s-.816 1-1.059 1c-.242 0-.441-.45-.441-1s.476-1 1.058-1zm-22.058.037c1.634.03 5.62 2.711 4.927 3.317-.234.205-1.777-.463-3.427-1.485-1.65-1.022-2.325-1.846-1.5-1.832zm56.28 1.422c1.349.039 3.631.606 6.22 1.61 3.135 1.216 7.302 5.625 9.629 10.185 1.809 3.547 2.038 5.24 1.525 11.31-.332 3.928-.889 7.882-1.236 8.788-.97 2.526-2.658 1.974-1.838-.602.393-1.237.68-5.042.635-8.455-.117-8.872-2.82-14.417-8.887-18.226-2.656-1.668-5.39-3.04-6.078-3.051-.688-.01-1.25-.477-1.25-1.037 0-.377.472-.545 1.28-.522zm-28.825.541c1.522 0 2.713 4.385 2.926 10.772.165 4.955-1.968 5.217-2.749.338-.348-2.183-1.34-4.675-2.205-5.54-.864-.863-1.089-1.57-.5-1.57.59 0 1.073-.9 1.073-2s.655-2 1.455-2zm-34.346.028c1.209.068 3.366.937 6.266 2.558 5.743 3.21 6.262 4.357 1.125 2.485-5.084-1.853-8.5-3.578-8.5-4.291 0-.547.384-.793 1.11-.752zm-69.574.058c.9.048 3.588.988 10.086 3.328 3.916 1.41 9.541 2.968 12.5 3.46 2.958.49 4.254.978 2.879 1.083-1.375.105-3.4.343-4.5.528s-4.363-.289-7.25-1.053c-5.917-1.567-12.75-4.815-13.838-6.576-.313-.506-.417-.798.123-.77zm-64.57 1.77c-.774.008-1.683 2.714-1.168 4.052.469 1.22.758 1.01 1.244-.908.348-1.375.457-2.711.242-2.97-.1-.121-.208-.175-.318-.174zm44.435.416c.189-.002.388.003.598.017 1.649.116 2.999.558 3 .983 0 .424 1.127 1.283 2.502 1.91 1.375.626 2.5 1.742 2.5 2.478 0 .737.45 1.34 1 1.34s1-.476 1-1.058.515-.743 1.144-.354c.63.39 2.488.67 4.131.623 1.643-.047 3.977.563 5.186 1.356 1.209.792 2.5 1.138 2.869.77.368-.37.67-.146.67.495 0 1.47-2.504 1.504-5.186.069-1.303-.697-1.822-.724-1.418-.07.877 1.418-.288 1.778-4.392 1.36-1.923-.195-3.948-.71-4.5-1.144-.553-.434-1.827-.658-2.832-.496-1.005.162-2.66-.459-3.678-1.379a115.65 115.65 0 0 0-3.422-2.96c-2.48-2.035-2.001-3.907.828-3.94zm97.85 7.355c.765-.06 1.466.259 2.361.987 1.813 1.474 1.797 1.513-.422 1.037-3.267-.702-3.7 1.43-1.26 6.213 1.139 2.231 2.086 5.986 2.104 8.345.018 2.36.903 6.766 1.967 9.791 2.332 6.63 2.69 16 .613 16-.762 0-2.194-1.687-3.182-3.75-.987-2.062-1.863-4.875-1.945-6.25-.23-3.833-1.547-7.246-3.873-10.031-1.162-1.392-2.963-4.417-4.002-6.723-1.04-2.305-2.184-4.01-2.543-3.789-.359.222-.717-.44-.795-1.47-.25-3.328 2.71-1.01 4.967 3.89 1.171 2.542 3.234 5.748 4.586 7.123l2.459 2.5-.537-6.877c-.296-3.782-1.05-7.192-1.678-7.58-.627-.387-1.402-2.312-1.72-4.277-.47-2.893-.205-3.774 1.396-4.631.562-.3 1.044-.472 1.504-.508zm-14.03.81c.355-.01.847.204 1.438.694 1.437 1.193 1.84 3.87.582 3.87-.418 0-1.292-.853-1.941-1.893-.972-1.556-.858-2.65-.079-2.67zm-46.597 2.106c.807.028 1.377.28 1.377.662 0 .511.9.644 2 .295 1.231-.39 2-.18 2 .55 0 .69.831.965 2 .66 2.644-.692 2.536-.072-.25 1.439-1.238.67-4.275 1.316-6.75 1.431-2.475.116-5.972.678-7.77 1.25-2.274.724-3.07.722-2.62-.006.354-.576.026-1.442-.731-1.922-1.082-.685-1.098-.874-.07-.886.719-.008 1.045-.443.722-.965-.522-.844 1.404-1.358 9.219-2.457.31-.044.604-.06.873-.05zm-117.623 1.457c-.55 0-1 .45-1 1s.45 1 1 1 1-.45 1-1-.45-1-1-1zm128.382 2c.825 0 1.778.45 2.118 1s-.058 1-.883 1-1.777-.45-2.117-1 .057-1 .882-1zm63.18.422a.474.474 0 0 1 .164 0c.443.07 1.209.638 2.281 1.871 1.72 1.979 2.576 2.38 3.14 1.469.576-.934 1.156-.746 2.28.742 4.112 5.442-1.435 6.367-5.75.96-2.19-2.747-2.845-4.908-2.115-5.042zm-3.78.584c.692-.059 1.268.594 1.126 1.744-.32 2.582 1.076 5.194 2.486 4.653 1.335-.513 2.832 2.018 4.584 7.757.615 2.014 1.772 3.913 2.57 4.22.799.306 1.452 1.669 1.452 3.029 0 1.36.45 2.751 1 3.091.55.34 1 1.716 1 3.059s-.45 2.441-1 2.441-1-.758-1-1.685-.927-2.672-2.059-3.877c-1.132-1.205-2.69-4.609-3.465-7.565-.803-3.066-2.41-6.232-3.74-7.373-2.644-2.268-5.048-7.188-4.19-8.576.367-.592.822-.883 1.237-.918zM61.956 201.4c-.117.009-.183.08-.183.217 0 2.214 5.652 6.133 9 6.238 1.117.035 1.005-.328-.442-1.422-1.067-.807-2.388-1.467-2.935-1.467-.547 0-2.036-.98-3.309-2.175-.955-.897-1.778-1.418-2.13-1.391zm46.446 2.566c2.424 0 2.376 1.89-.114 4.576-1.384 1.494-2.515 3.101-2.515 3.57 0 1.456-1.754.94-2.383-.7-.683-1.781 3.13-7.446 5.012-7.446zm-42.413 5.492c-.335.007-.951.157-1.902.418-1.916.527-2.715 1.328-2.504 2.506.171.953-.222 2.374-.873 3.159-.845 1.018-.862 1.425-.06 1.425.617 0 1.123-.419 1.123-.93 0-.51.562-1.524 1.25-2.253a52.766 52.766 0 0 0 2.564-3.002c.74-.944.961-1.334.403-1.323zm43.506.508c.948 0 1.271.576.885 1.582-.334.87-.607 1.995-.607 2.5 0 1.015-1.352 1.233-2.225.36-1.041-1.042.449-4.442 1.947-4.442zm106.78 1.471c.514.028 1.444.503 2.605 1.47 1.85 1.541 2.025 2 .766 2.026-.895.018-2.197-.654-2.893-1.492-1.112-1.34-1.14-2.04-.478-2.004zm-1.174 2.936c.33.002.727.224 1.262.668 2.636 2.187 1.425 3.854-1.47 2.021-.757-.48-1.054-1.395-.66-2.033.272-.44.537-.658.868-.656zm-133.115.228a2.025 2.025 0 0 0-.354.008c-.61.063-1.448.366-2.744.86-1.988.757-4.515 1.615-5.615 1.906-1.1.29.137.327 2.75.08 4.01-.38 4.75-.18 4.75 1.281 0 1.382-1.008 1.773-5 1.941-3.814.161-5-.135-5-1.25 0-1.842-.753-1.85-2.575-.029-1.242 1.242-1.134 1.532.82 2.195 1.24.42 2.817.658 3.505.526.687-.132 1.25.228 1.25.803s-.9 1.045-2 1.045-2 .436-2 .968c0 .533.675.71 1.5.393.825-.317 1.495-.19 1.488.281-.017 1.198-6.628 5.358-8.516 5.358-.855 0-2.522.9-3.703 2-2.512 2.34-4.596 2.7-2.75.474.696-.838 1.04-1.748.766-2.023-1.123-1.124-2.58 2.388-3.235 7.799-.5 4.141-.364 5.75.485 5.75.648 0 .92.675.603 1.5s-.149 1.5.373 1.5c.523 0 1.24 1.156 1.596 2.572.46 1.832.955 2.264 1.719 1.5 1.724-1.724 2.861-1.238 2.174.928-.364 1.147-.181 2 .431 2 .587 0 1.069-.45 1.069-1s.459-1 1.02-1c.575 0 .783 1.195.478 2.75-.517 2.633-.49 2.655.634.5 1.455-2.788 3.289-2.966 2.579-.25-.67 2.559.953 2.634 1.763.082.518-1.631 1.08-1.784 3.75-1.018 1.729.496 3.357.687 3.617.426.893-.893 3.138 1.734 2.456 2.873-.375.625.109.494 1.076-.291.967-.785 2.37-2.611 3.119-4.059 1.544-2.986.642-14.027-1.469-17.97-.972-1.818-.866-3.7.541-9.676 1.46-6.203 1.535-7.814.455-9.83-.675-1.262-1.044-1.847-1.806-1.903zm140.298.365c.219.007.53.056.938.135 1.037.201 2.072.928 2.3 1.615.595 1.784-1.259 1.546-2.845-.365-.87-1.048-1.047-1.405-.393-1.385zm5.371 0c.55 0 1.278.45 1.618 1s.167 1-.383 1-1.277-.45-1.617-1-.168-1 .382-1zm-83.447.12c3.029-.08 5.49 1.092 8.297 3.775 5.53 5.284 5.537 10.55.02 13.933-1.789 1.097-4.94 1.989-7.002 1.983-3.87-.012-4.533-.628-2.674-2.486.768-.768.2-1.381-1.979-2.141-3.625-1.264-4.02-.818-4.974 5.615l-.698 4.701-1.212-3.4c-3.147-8.82.43-19.842 6.972-21.492 1.17-.295 2.24-.462 3.25-.489zm162.215 2.279c.319.043.616.222.797.515.322.521.16 1.212-.361 1.534a1.118 1.118 0 0 1-1.534-.364 1.115 1.115 0 0 1 .776-1.683 1.12 1.12 0 0 1 .322-.002zm-76.094 2.086c.245-.037.563.008.944.154.825.317 1.5.978 1.5 1.469 0 1.048-1.379 1.18-2.334.224-.911-.91-.843-1.738-.11-1.847zm9.498.015l.559 3.5c.847 5.301 1.66 6.947 2.125 4.307.212-1.206-.304-3.456-1.148-5l-1.536-2.807zm-17.146.658c.406.014.89.24 1.29.641 1.512 1.511.67 2.356-1.198 1.201-.793-.49-1.111-1.223-.705-1.629.152-.152.369-.22.613-.213zm-144.967 1.842c1.132 0 2.059.45 2.059 1s-.65 1-1.442 1c-.792 0-1.718-.45-2.058-1-.34-.55.309-1 1.441-1zm130.193.614a9.752 9.752 0 0 1 1.604.12l3.762.612-3 1.309c-2.917 1.271-2.875 1.292 1.5.699 5.233-.71 4.625.845-1 2.553-3.07.932-2.77.99 2.453.48 5.375-.525 5.824-.426 4.627 1.016-1.105 1.33-1.097 1.6.047 1.613 1.154.013 1.153.155-.012.892-1.092.692-.88 1.143 1 2.135 3.286 1.735 8.227 6.646 7.215 7.17-.456.236-2.63-.189-4.83-.945-5.157-1.773-6.67-3.243-3.45-3.35 2.249-.075 2.18-.2-.845-1.521-1.813-.792-3.071-1.806-2.795-2.252.276-.447-.042-.839-.705-.871-5.607-.273-13.193-1.424-13.647-2.073-.757-1.081-4.896-1.273-5.525-.255-.278.45.885 1.491 2.584 2.314 1.753.85 2.626 1.78 2.02 2.154-.588.363-2.911-.28-5.165-1.43l-4.097-2.09 3.492-2.368c5.65-3.834 10.838-5.9 14.768-5.912zm-147.5.722a.623.623 0 0 0-.246.002 1.18 1.18 0 0 0-.388.162c-.55.34-1 1.068-1 1.618s.45.722 1 .382c.55-.34 1-1.069 1-1.619 0-.31-.143-.498-.366-.545zm6.78.664c-.586 0-2.123 1.125-3.414 2.5s-2.026 2.5-1.631 2.5c.395 0 1.931-1.125 3.414-2.5s2.217-2.5 1.63-2.5zm156.527 0c.583 0 1.059.45 1.059 1s-.2 1-.442 1-.718-.45-1.058-1c-.34-.55-.141-1 .441-1zm9.549.424c.315-.025.793.134 1.394.506.86.531.963 1.046.291 1.46-.57.354-1.338.155-1.707-.44-.574-.93-.503-1.483.022-1.526zm-156.49.576c1.1 0 2 .45 2 1s-.9 1-2 1-2-.45-2-1 .9-1 2-1zm-.5 3.332c.825 0 1.5.35 1.5.776 0 1.126-1.615 1.944-2.362 1.197-1.091-1.091-.706-1.973.862-1.973zm187.488 2.174c.38-.052.952.714 1.615 2.549 1.446 4.002 1.745 7.945.604 7.945-.436 0-1.344-2.058-2.016-4.572-.93-3.477-.835-5.835-.203-5.922zm-191.29.494c.716 0 1.302.45 1.302 1s-.675 1-1.5 1-1.5.45-1.5 1-.45 1-1 1-1-.36-1-.8c0-1.247 2.258-3.2 3.699-3.2zm112.96 2.399c.143.017.282.065.41.144 1.387.858 1.13 1.457-.627 1.457-.857 0-1.277-.458-.932-1.017.26-.42.72-.636 1.149-.584zm-6.922 1.033c.341 0 .841.427 1.79 1.283 2.227 2.012 6.474 2.808 6.474 1.213 0-.576.48-.75 1.068-.387.588.363.875 1.179.639 1.81-.237.633-.074 2.05.361 3.15.73 1.843.797 1.811.861-.397l.07-2.397 2.694 2.897c1.482 1.593 3.057 2.784 3.5 2.646.443-.137.814.313.822 1 .01.834.338.75.985-.25.828-1.282.97-1.245.984.25.008.963.677 1.75 1.484 1.75.963 0 1.247.578.827 1.674-.487 1.268-.237 1.518 1.03 1.031 1.116-.427 1.675-.132 1.675.885 0 .84.45 1.25 1 .91.55-.34 1 .084 1 .942 0 .857.45 1.558 1 1.558s1.034.788 1.078 1.75c.047 1.046.282 1.247.584.5.277-.687.944-1.25 1.48-1.25.537 0 .72.414.407.92s.56 1.807 1.94 2.893c1.381 1.085 2.519 2.584 2.526 3.33.013 1.124.16 1.128.862.021.633-.999.997-.757 1.445.957.33 1.26.9 1.989 1.27 1.62.974-.975 6.32 5.061 7.046 7.955.34 1.354 1.697 4.698 3.016 7.431 3.125 6.48 3.873 12.419 2.396 19.028-1.243 5.566-2.972 9.85-3.97 9.84-.32-.004-.654-1.903-.744-4.221-.09-2.319-.653-4.38-1.25-4.578-.598-.2-1.086-1-1.086-1.78 0-.779-.392-1.416-.87-1.416s-1.1-1.732-1.384-3.85c-.284-2.116-1.918-5.784-3.631-8.15-1.714-2.365-3.115-5.079-3.115-6.029 0-.95-.682-3.357-1.514-5.35-.832-1.992-1.222-3.62-.865-3.62.356 0-.65-1.013-2.237-2.25-4.181-3.262-20.052-19.316-21.933-22.186-.925-1.412-2.202-2.215-3.022-1.9-.78.299-1.2.9-.931 1.333.268.434-1.198.396-3.256-.082-2.059-.478-4.027-.88-4.375-.892-.88-.033-1.845-4.024-.973-4.024.389 0 1.246.54 1.906 1.2 1.407 1.406 1.57.384.325-2.016-.481-.926-.582-2.488-.225-3.469.312-.856.495-1.283.836-1.283zm25.613 1.63c.283.006.822.151 1.658.405 3.511 1.066 4.851 2.533 2.315 2.533-1.143 0-2.69-.74-3.441-1.644-.764-.92-1.004-1.302-.532-1.293zm-93.318 5.938c-1.34 0-1.784.48-1.393 1.5.37.964-.019 1.5-1.09 1.5-.926 0-1.373.474-1.005 1.069.363.587 1.326.812 2.14.5.815-.313 1.894-.569 2.399-.569.505 0 .918-.9.918-2 0-1.322-.667-2-1.97-2zm-50.115 1.123c.347.015.646.106.812.272.333.332-.258.569-1.312.525-1.165-.048-1.402-.284-.604-.603a2.743 2.743 0 0 1 1.104-.194zm147.851 4.205c.665.003 2.082.63 4.192 2.026 2.2 1.455 4.457 2.646 5.02 2.646.561 0 1.02.373 1.02.83s1.238 1.469 2.75 2.248c1.513.78 2.976 1.66 3.25 1.956.276.294 1.768 1.508 3.317 2.697 4.81 3.691 8.471 9.122 10.733 15.918 2.402 7.218 1.46 10.707-1.237 4.576-.9-2.049-3.251-5.47-5.224-7.602-1.973-2.131-3.588-4.072-3.588-4.314 0-.693-12.098-12.415-17.02-16.492-3.34-2.768-4.32-4.494-3.213-4.489zm-42.455 3.327c1.848.038 1.504 1.17-1.576 2.312-1.78.66-4.018 1.611-4.973 2.115-.955.504-2.333.918-3.062.918-.729 0-2.214.788-3.3 1.75-2.704 2.394-8.192 6.25-8.895 6.25-.317 0-.13-.787.418-1.75 2.688-4.73 9.813-8.98 18.832-11.23 1.082-.27 1.94-.378 2.556-.365zm5.791 8.345c-4.525 0-17.969 4.426-22.316 7.348-11.687 7.854-19.209 10.245-29.086 9.248-6.818-.688-10.934.654-11.531 3.758-.636 3.302.856 6.705 3.357 7.656 1.952.742 2.473 1.647 2.473 4.299 0 1.847.299 3.657.666 4.023.908.908 5.389.719 7.834-.332 1.1-.472 1.606-.89 1.127-.93-.48-.038-.32-.737.355-1.55.892-1.075 1.728-1.211 3.057-.5 3.07 1.643 8.954 1.13 11.687-1.02 1.399-1.1 2.168-2 1.71-2-.46 0-.28-.559.402-1.24.681-.681 3.672-1.244 6.644-1.25 4.307-.009 5.83-.466 7.5-2.26 1.153-1.237 1.798-2.25 1.434-2.25-.364 0-.101-.675.584-1.5.684-.825 2.793-1.5 4.687-1.5 4.142 0 7.313-1.532 7.313-3.535 0-.805.45-1.465 1-1.465s1 1.125 1 2.5c0 1.982.503 2.5 2.431 2.5 3.49 0 4.083-3.075 1.55-8.04-2.414-4.73-2.043-8.086.646-5.854.881.731 2.564 1.343 3.738 1.361 2.635.04 5.604 5.53 5.697 10.533.058 3.103.167 3.245.969 1.25.497-1.237 1.595-2.25 2.437-2.25 2.427 0 1.813-1.951-2.12-6.752-5.295-6.46-10.93-10.248-15.245-10.248zm-3.496 6c2.878 0 3.484.32 3 1.582-.334.87-.607 2.445-.607 3.5 0 2.543-1.18 2.42-3.826-.396-3.142-3.344-2.731-4.686 1.433-4.686zm-13.139 4c2.595 0 3.272 1.907 1.924 5.418-.77 2.006-1.449 1.899-3.72-.58-2.326-2.538-1.471-4.838 1.796-4.838zm-96.691 3c-.598 0-.374.789.498 1.752 1.804 1.994 6.627 12.574 8.746 19.186l1.422 4.435.648-3.166c.357-1.741.337-4.863-.043-6.937-.379-2.074-.73-4.146-.78-4.604-.152-1.356-9.308-10.666-10.491-10.666zm79.035 3.176c.956-.01 1.726 2.026 1.817 5.656.07 2.842-.011 5.168-.182 5.168-.171 0-1.245-1.312-2.387-2.916-1.684-2.366-1.885-3.416-1.062-5.58.6-1.578 1.24-2.322 1.814-2.328zm110.432 1.014c-.375.044.273 2.818 2.326 11.47 1.414 5.962 2.425 12.753 2.244 15.09-.204 2.645.09 4.25.781 4.25.756 0 .998-2.79.76-8.732-.344-8.595-2.338-16.868-5-20.74-.559-.813-.94-1.358-1.111-1.338zm52.629 1.81c-.546 0-.759.375-.475.834.874 1.415-1.725 8.59-3.613 9.973-1.912 1.4-2.543 4.78-.678 3.627.765-.473.867.05.332 1.691-.426 1.307-.857 4.625-.959 7.375-.101 2.75-.7 6.266-1.332 7.815-1.738 4.262-1.3 4.616.852.685 1.271-2.322 1.93-2.89 1.959-1.685.023.998-.441 2.715-1.03 3.814-.778 1.455-.744 2.388.123 3.434.656.79.777 1.437.268 1.437-.747 0-3.156 5.358-5.156 11.471-.185.565.846-.77 2.293-2.97l2.63-4-.65 3.374c-.5 2.597-.357 3.193.625 2.586.922-.57 1.09-.3.604.967-1.567 4.083-1.95 6.865-.85 6.186.733-.453 1.037.342.897 2.347-.117 1.669-.55 3.036-.963 3.037-.413.001-.743.79-.735 1.752.013 1.496.156 1.532.985.25 1.062-1.644 1.144-1.546 1.49 1.75.13 1.238-.152 2.25-.627 2.25s-.863.436-.863.97c0 .532.663.713 1.474.401 1.28-.49 1.266.143-.105 4.782-.87 2.94-1.784 5.685-2.033 6.097-.25.413.023.75.605.75.583 0 1.059-.813 1.059-1.808 0-1.872 2.91-6.468 2.97-4.692.07 2.064-7.432 21.5-8.298 21.5-.498 0-.67-.9-.381-2.002.288-1.1.114-1.75-.385-1.441-.499.308-.938-.253-.975-1.248-.154-4.137-1.005-8.696-1.814-9.717-.822-1.036-1.67-4.72-2.5-10.861-.206-1.523-1.474-4.448-2.817-6.5s-2.733-4.518-3.09-5.48c-1.097-2.962-2.728-1.964-4.908 3-1.147 2.612-2.488 5.01-2.978 5.33-.49.318-.618 1.294-.283 2.167.34.889-.745 4.024-2.465 7.116-1.692 3.04-3.076 6.073-3.076 6.738s-1.125 2.683-2.5 4.486-2.5 3.959-2.5 4.79c0 .83-.788 2.097-1.75 2.816-.963.718-1.795 1.869-1.85 2.556-.055.688-.167 2.15-.25 3.25-.082 1.1-.825 2-1.65 2s-1.5.45-1.5 1-.788 1.035-1.75 1.078c-.963.044-1.216.297-.563.563 1.724.702-1.802 4.15-3.597 3.518-1.02-.36-1.26.086-.862 1.607.36 1.379-.015 2.351-1.09 2.82-2.698 1.178-4.138 1.29-4.138.324 0-.5.675-.91 1.5-.91.933 0 1.5-.944 1.5-2.5 0-1.708.554-2.505 1.75-2.515 1.196-.01 1.368-.26.543-.784-.857-.544-.335-1.699 1.8-3.984 1.654-1.77 3.435-3.217 3.957-3.217.523 0 .95-.87.95-1.933 0-1.063.877-2.21 1.949-2.551 1.072-.34 1.736-1.175 1.475-1.856-.262-.68.886-2.542 2.55-4.136 3.325-3.185 3.918-4.805 1.408-3.842-1.39.534-1.448.31-.421-1.61.656-1.226 1.815-2.983 2.574-3.902 6.783-8.21 9.8-13.352 5.965-10.17-2.063 1.712-2.006 1.543 2.494-7.5 2.63-5.284 3.577-8.136 2.793-8.4-.653-.22-1.349.085-1.547.68-.198.594-3.146 3.937-6.55 7.43-7.562 7.755-9.076 9.662-11.518 14.503a752.078 752.078 0 0 1-3.473 6.787c-2.748 5.281-9.7 21.801-9.7 23.05 0 .662-.602 1.705-1.337 2.316-.736.61-1.397 2.709-1.47 4.664l-.134 3.554 4.221-.666c2.322-.365 5.683-.72 7.47-.79 1.947-.077 3.25-.652 3.25-1.436 0-.72.423-1.048.94-.729.517.32 2.14-.667 3.606-2.191l2.666-2.772-.666 4c-.692 4.167-4.066 14.584-5.809 17.936-.554 1.065-1.866 2.86-2.916 3.986-1.05 1.127-1.45 2.202-.89 2.389.604.201.373 1.323-.57 2.764-.984 1.5-1.165 2.425-.476 2.425.614 0 1.116-.45 1.116-1s.498-1 1.107-1c.616 0 .827.728.477 1.64-.527 1.373-.381 1.435.892.378 1.258-1.044 1.524-.98 1.524.36 0 .892.498 1.622 1.107 1.622s.857.653.55 1.45c-.37.968-.075 1.264.893.892.797-.306 1.45-.958 1.45-1.45 0-.49.459-.892 1.02-.892.587 0 .752 1.059.39 2.5-.761 3.032-.025 3.15 2.857.465 2.004-1.866 2.233-1.892 2.785-.316.423 1.204.822 1.365 1.334.535 1.082-1.75 3.663-1.476 2.975.316-.638 1.662 1.16 2.083 2.139.5.34-.55 1.067-1 1.617-1s.75.408.441.907c-.308.498.39.657 1.553.353 1.878-.49 1.99-.32 1.002 1.527-1.53 2.858-1.395 3.638.33 1.913.848-.849 2.512-1.24 4.035-.95 2.509.48 2.553.405 1.37-2.377-.673-1.58-1.9-3.435-2.727-4.123-.924-.768-1.051-1.25-.33-1.25.812 0 1.08-2.1.87-6.824-.165-3.753.18-8.535.768-10.627.93-3.308 1.08-2.357 1.139 7.299.037 6.106.554 12.126 1.148 13.377 3.003 6.315 3.545 8.755 2.284 10.275-.86 1.036-.9 1.5-.123 1.5.617 0 1.123-.45 1.123-1s.562-1 1.25-1c.788 0 1.228-1.386 1.191-3.75-.06-3.939 1.27-8.064 3.147-9.75.612-.55 2.368-2.7 3.902-4.777 1.534-2.078 2.988-3.579 3.23-3.336.659.658-1.81 4.993-3.367 5.912-2.368 1.399-1.546 4.438 1.485 5.494 2.655.926 2.917.772 4.064-2.4.674-1.865 2.098-3.858 3.162-4.428 2.368-1.267 2.485-3.701.293-6.123-1.531-1.692-1.464-2.213 1-7.703 1.454-3.239 2.643-6.486 2.643-7.215 0-1.024.27-1.055 1.19-.135.92.92.806 1.995-.5 4.735-2.069 4.337-2.073 4.476-.132 4.476.858 0 1.305.413.992.918-.312.506.02 1.518.739 2.25 1.395 1.42 6.142 13.327 6.312 15.832.237 3.491.442 4.091 1.227 3.606.455-.282 1.625 1.295 2.6 3.504 1.565 3.547 5.43 6.557 7.787 6.064.392-.082.47.484.171 1.26-.644 1.68-3.386 2.923-3.386 1.535 0-.533-.563-.988-1.25-1.012-1.464-.05-5.75-6.429-5.75-8.558 0-.804-.788-1.756-1.75-2.115-.963-.36-2.344-1.477-3.069-2.485-1.526-2.122-2.713-1.699-3.482 1.242-.47 1.795-.328 1.898 1.049.766 1.406-1.156 1.52-.96.99 1.693-.33 1.65-.903 3.788-1.275 4.75-.395 1.02-.216 1.75.43 1.75.608 0 1.107-.675 1.107-1.5s.371-1.5.826-1.5c.455 0 .629 1.35.387 3-.244 1.66.015 3 .58 3 .56 0 .786.895.5 1.989-.286 1.093-.928 1.738-1.424 1.431-.497-.307-.643-.978-.326-1.49.316-.512-.113-.93-.953-.93-.948 0-1.308-.57-.952-1.5.317-.825.078-1.5-.53-1.5s-1.108.847-1.108 1.883c0 1.043-.893 2.117-2 2.406-2.757.721-5.602-3.142-6.444-8.754-.37-2.468-1.069-4.735-1.554-5.035-.486-.3-.628 1.033-.315 2.963.545 3.357.38 3.596-3.808 5.516-2.409 1.103-3.48 1.884-2.38 1.734 2.197-.298 6.001 3.67 5.028 5.244-.387.627 4.149.769 12.684.399 7.308-.317 16.777-.64 21.039-.717 4.262-.077 7.733-.364 7.716-.639-.017-.275-.69-1.373-1.498-2.441-2.643-3.495-1.538-4.066 1.297-.67 2.668 3.195 2.987 3.3 9.002 2.96 3.43-.192 6.236-.07 6.235.27-.002.697 5.691.189 7.007-.625.47-.29 1.111-.11 1.426.4.315.51 1.358.777 2.319.593.96-.184 2.646-.386 3.746-.45 1.442-.084.885-.68-2-2.138-2.2-1.112-4.419-2.105-4.93-2.21-1.079-.22-4.105-2.48-6.443-4.812-.895-.892-3.202-2.416-5.127-3.386-9.506-4.792-13.14-9.538-16.451-21.49-.991-3.576-2.419-7.92-3.174-9.653-.756-1.733-1.375-3.646-1.375-4.252 0-.606-.9-2.784-2-4.836-2.24-4.18-2.48-5.845-.975-6.775.564-.349.918-.262.79.191-.13.453.52 2.4 1.444 4.324 2.192 4.566 6.724 18.062 6.733 20.051.004.853.57 2.76 1.258 4.238.971 2.09 1.88 2.642 4.076 2.48 1.554-.114 3.026-.529 3.27-.923.527-.853 5.404 3.828 5.404 5.188 0 1.306 6.708 5.399 11.345 6.921 2.116.695 5.041 1.92 6.5 2.721l2.655 1.46-3.5-.667c-8.753-1.666-22.66-7.897-23.834-10.68-.426-1.007-4.166-1.04-4.166-.037 0 1.294 5.2 5.604 13 10.776 4.125 2.734 7.997 5.608 8.605 6.384.608.777 1.762 1.161 2.563.854.8-.307 2.553.284 3.894 1.314 1.341 1.031 2.944 1.885 3.565 1.897.62.012 1.688.698 2.373 1.523 1.748 2.106 7 1.989 7-.156 0-1.54.126-1.54 1.828 0 1.006.91 2.468 1.643 3.25 1.627.84-.017.117-1.216-1.766-2.93-2.661-2.422-2.953-3.094-1.775-4.072 1.81-1.503 8.265-1.961 11.351-.807 3.332 1.247 3.948.177.74-1.285-4.038-1.84-3.117-3.11 1.006-1.386 3.049 1.273 11.677 3.506 18.551 4.91v-19.498a11.53 11.53 0 0 1-1.877.168c-2.095.038-4.708.435-5.808.882-1.435.584-2.636.233-4.25-1.244-1.238-1.132-2.25-1.774-2.25-1.427 0 .346-1.76.008-3.91-.75-2.15-.76-4.248-1.076-4.66-.706-.414.371-.426.108-.028-.584.438-.76.008-1.523-1.09-1.931-2.54-.945-11.36-7.513-15.062-11.215-1.704-1.703-3.37-3.096-3.703-3.096-.335 0-1.942-1.52-3.573-3.377-1.63-1.857-4.43-3.977-6.22-4.709-1.79-.732-3.85-1.912-4.577-2.623-.726-.71-1.948-1.29-2.714-1.29-1.852 0-8.599-5.972-7.944-7.032.282-.457-.014-1.157-.658-1.555-.731-.452-.903-.289-.457.432.392.635.43 1.154.084 1.154-1.054 0-3.488-2.783-3.488-3.988 0-.622-.403-.88-.895-.576-.492.304-1.153-.12-1.469-.942-.315-.821-1.292-1.494-2.172-1.494-1.199 0-1.423.562-.896 2.25.386 1.238.978 2.475 1.316 2.75.339.275.766 1.4.95 2.5.564 3.38 4.364 11.072 4.843 9.805.25-.657-.072-2.174-.713-3.371-.882-1.648-.881-2-.002-1.457.64.395 1.577 1.81 2.084 3.146.508 1.336 1.651 2.706 2.54 3.047 2.057.79 6.414 5.12 6.414 6.375 0 1.39 1.747 1.17 2.337-.295.278-.687.541-.237.584 1 .044 1.238.454 2.25.91 2.25s1.425 1.109 2.151 2.465c.726 1.356 1.655 2.26 2.064 2.006.41-.253 1.002.213 1.317 1.035.315.822 1.213 1.494 1.994 1.494 2.228 0 12.832 10.78 12.465 12.672-.494 2.544-2.822 2.834-2.822.352 0-1.179-.413-1.888-.916-1.576-.504.31-2.191-.509-3.75-1.82-1.56-1.313-3.173-2.434-3.588-2.495-2.903-.423-7.617-3.323-9.57-5.887-2.17-2.846-5.973-3.823-5.438-1.396.793 3.6 7.163 11.766 11.146 14.293l4.56 2.89-3.638-.267c-2-.147-3.561-.5-3.47-.785.09-.286-.889-1.636-2.174-3-7.163-7.6-22.162-31.76-22.162-35.694 0-.708-.525-1.287-1.166-1.287-.642 0-.914-.254-.606-.562.309-.309-1.249-5.821-3.46-12.25-2.213-6.429-4.042-12.189-4.063-12.801-.022-.612-.922-1.666-2-2.34-1.834-1.145-1.921-1.005-1.36 2.115.33 1.836.845 7.613 1.143 12.838.704 12.351 2.021 20.717 5.648 35.867 2.73 11.401 3.214 16.757.996 11.022-.507-1.314-2.266-5.764-3.906-9.889-1.64-4.125-3.313-9.075-3.719-11-.405-1.925-1.075-3.95-1.486-4.5-.41-.55-1.074-2.35-1.476-4-.403-1.65-.902-3.675-1.11-4.5l-1.383-5.5c-.552-2.2-1.026-6.925-1.052-10.5-.027-3.575-.446-8.3-.93-10.5-.484-2.2-1.174-7.825-1.533-12.5-.36-4.675-.84-9.85-1.072-11.5-.232-1.65-.506-4.687-.608-6.75-.102-2.062-.449-3.752-.771-3.754-.323-.002-.684-3.04-.803-6.75s-.634-7.646-1.147-8.746c-.512-1.1-1.477-4.668-2.144-7.927-.668-3.26-2.032-7.831-3.03-10.159-.997-2.327-1.58-4.464-1.296-4.748.803-.803-.682-4.666-1.793-4.666zm-179.057 4.213c.34-.01.735-.007 1.184.006 3.038.087 3.432.833 2.15 4.08-.655 1.66-.882 1.616-2.93-.564-2.554-2.719-2.788-3.45-.404-3.522zm118.52 9.113c1.145-.02.089 11.648-1.248 12.985-.599.598-1.139.774-1.2.389-.56-3.536 1.01-12.518 2.33-13.334a.232.232 0 0 1 .118-.04zm-15.797.971c-.43.066-.26 1.243.59 3.315.945 2.303 1.272 2.523 1.61 1.09.235-.99-.126-2.462-.8-3.274-.671-.809-1.143-1.17-1.4-1.13zm-1.42 15.703c1.726 0 .844 4.13-1.37 6.412-1.237 1.277-2.742 3.168-3.345 4.204-.942 1.619-7.944 6.348-9.404 6.351-.275 0-1.106-.38-1.846-.85-.984-.623-.597-1.041 1.44-1.552 3.773-.947 8.406-4.363 8.406-6.2 0-1.757 4.833-8.365 6.119-8.365zm29.875 0c-.547 0-.994 1.2-.994 2.666 0 2.936 1.207 2.44 1.685-.691.166-1.086-.145-1.975-.691-1.975zm-179.867 2.5l-.051 2.5c-.068 3.43.973 7 2.04 7 .487 0 .884-.424.884-.941 0-.518-.457-1.223-1.016-1.568-.559-.346-.783-1.006-.498-1.467.285-.461.094-1.894-.422-3.182l-.937-2.342zm179.617 3.994a.277.277 0 0 0-.125.002c-.473.116-.627 1.574-.637 5.053-.027 9.397-4.86 29.451-7.098 29.451-.588 0-.569-.72.051-1.879 1.817-3.393 4.71-18.566 4.028-21.12-.607-2.274-.74-2.139-1.465 1.5-.439 2.2-1.54 6.25-2.45 9-.909 2.75-1.63 5.9-1.601 7 .029 1.1-.271 2.243-.668 2.54-.397.298-.956 3.223-1.242 6.5-.487 5.568-.426 5.795.928 3.46.796-1.376 1.212-3.286.925-4.245-.35-1.168-.082-1.576.809-1.234.793.304 2.092-.907 3.223-3.006 1.041-1.934 2.257-3.516 2.7-3.516.445 0 1.318-.954 1.942-2.12.874-1.634.857-1.95-.072-1.376-1.424.88-.403-5.207 1.209-7.21.534-.664.68-1.677.326-2.25-.355-.575-.26-1.044.209-1.044 1.325 0 .841-13.824-.531-15.197-.176-.176-.33-.283-.461-.309zm-176.65 8.506c-.5 0-.671.9-.383 2 .287 1.1.695 2 .906 2 .21 0 .383-.9.383-2s-.408-2-.907-2zm139.081.586c.393-.034.892.348 1.793 1.12 1.061.907 1.702 2.02 1.422 2.472-.566.916-5.39 1.145-5.39.256 0-.311.46-1.424 1.021-2.473.477-.891.762-1.34 1.154-1.375zm-18.084.414c.466 0 .55.788.19 1.75-.578 1.542-.45 1.584 1.057.358 2.52-2.052 3.141-.652 1.757 3.967-.798 2.663-1.683 3.914-2.539 3.585-.722-.277-1.729-.087-2.238.422-.567.568-1.663.386-2.832-.468-1.65-1.208-1.745-1.753-.693-4.061.767-1.685 1.673-2.402 2.46-1.95.686.395.912.35.504-.1-.8-.884.946-3.503 2.334-3.503zm-52.558 1.29c-.26.006-.572.04-.936.107-2.75.498-7.815 3.603-5.879 3.603.64 0 1.442-.45 1.782-1 .34-.55 1.067-1 1.617-1s.694.495.32 1.1c-.491.795-.107.793 1.387-.006 2.85-1.526 3.532-2.85 1.709-2.805zm44.092 2.058a.22.22 0 0 1 .117.06c.693.694-.715 2.592-1.924 2.592-.663 0-.588-.575.201-1.525.609-.734 1.28-1.192 1.606-1.127zm-110.98.853a.319.319 0 0 0-.278.098c-.727.727 1.838 6.701 2.877 6.701.416 0 .756.675.756 1.5s.45 1.5 1 1.5 1-1.575 1-3.5c0-2.767-.396-3.5-1.893-3.5-1.041 0-2.177-.74-2.523-1.644-.26-.678-.634-1.114-.94-1.154zm103.612 1.82c.867.053 1.994.577 2.743 1.48 1.004 1.21.98 1.483-.127 1.42-.755-.044-1.936-.305-2.623-.583-.688-.277-1.25-.918-1.25-1.422 0-.544.37-.828.904-.886a2.16 2.16 0 0 1 .353-.008zm-10.6.378c.144.017.283.065.411.144 1.387.858 1.13 1.457-.627 1.457-.857 0-1.277-.458-.932-1.017.26-.42.72-.636 1.149-.584zm50.046 2.043c.19-.024.297.095.297.383 0 1.21-2.008 5.246-3.073 6.175-.315.275-.905 1.4-1.31 2.5-.59 1.605-.487 1.753.523.75 1.942-1.928 3.053-1.48 1.86.75-1.289 2.408-2.325 2.518-4.055.434-1.08-1.302-.982-2.103.578-4.75 1.985-3.367 4.359-6.142 5.18-6.242zm-62.645.558c.583 0 .782.45.442 1s-.816 1-1.059 1-.441-.45-.441-1 .476-1 1.058-1zm12.66.465c.497-.012.19 1.073-1.11 2.785-1.29 1.699-2.608 2.309-2.608 1.207 0-.298.9-1.506 2-2.687.834-.896 1.42-1.298 1.718-1.305zm-5.802 1.658c.347.015.646.106.812.272.333.332-.258.569-1.312.525-1.165-.048-1.402-.284-.604-.603a2.743 2.743 0 0 1 1.104-.194zm-6.381 3.274c-.305.072-.69.57-.97 1.31-.544 1.426-.428 1.54.56.559.683-.678.99-1.485.681-1.793a.274.274 0 0 0-.271-.076zm137 11c-.305.072-.69.57-.97 1.31-.544 1.426-.428 1.54.56.559.683-.678.99-1.485.681-1.793a.274.274 0 0 0-.271-.076zm34.031 1.603c-1.15 0-.522 4.85.684 5.27 1.846.644 3.75-.292 3.75-1.842 0-1.196-2.887-3.428-4.434-3.428zm-52.074 6.834c.034-.012.062-.011.084.004.227.159-.188 1.803-1.184 5.287-.404 1.415-.236 1.897.5 1.442 1.614-.997 1.399-.085-1.472 6.244-4.179 9.21-4.717 10.19-5.59 10.19-.457 0-.83.476-.83 1.058s.45.781 1 .441c1.582-.977 1.162 1.12-.5 2.5-.825.685-1.5 1.864-1.5 2.621 0 .803-1.044 1.38-2.5 1.38-1.375 0-2.5-.455-2.5-1.01 0-.556.89-1.774 1.978-2.705 1.43-1.225 1.647-1.9.778-2.438-.87-.538-.61-1.378.945-3.045 1.182-1.266 2.458-3.54 2.834-5.053.375-1.512 1.007-2.75 1.406-2.75s.725-1.614.725-3.587c0-1.974.43-3.886.955-4.25.525-.365 1.98-2.238 3.232-4.163.86-1.32 1.4-2.079 1.639-2.166zm22.082 2.467c.026-.013.047-.013.062.002.242.241.007 1.51-.52 2.818-1.995 4.963-4.208 13.12-3.696 13.631.293.293.806-.318 1.14-1.36s1.007-2.792 1.496-3.892c.679-1.524.759-1.286.334 1-1.09 5.871-1.518 6.34-4.21 4.633-1.05-.665-.669-2.524 1.849-9.053 1.634-4.236 3.161-7.577 3.545-7.779zm6.394 7.7c.728 0 .081 2.794-2.431 10.5-.359 1.1.516-.026 1.945-2.5l2.6-4.5-.6 3.82c-.33 2.101-.84 4.576-1.135 5.5-.448 1.406-.367 1.44.504.209.572-.81 1.268-1.243 1.547-.963.87.87-7.814 17.317-9.398 17.8-1.286.393-1.304.22-.127-1.205.755-.914.955-1.662.445-1.662s-.846-2.137-.746-4.75c.1-2.612-.165-5.2-.59-5.75-.425-.55.37-4.072 1.766-7.828 1.542-4.15 2.83-6.355 3.285-5.619.513.83.962.54 1.426-.922.372-1.173 1.05-2.13 1.51-2.13zm-25.933 4.24c.119.008.231.032.336.072 2.451.94 2.112 4.046-.371 3.396-1.243-.325-2-.03-2 .778 0 .714-.675 1.558-1.5 1.875-.832.319-1.491.033-1.479-.643.041-2.233 3.233-5.597 5.014-5.478zm22.722 1.134c-.15-.075-.403.301-.757 1.125-1.182 2.75-1.182 4.328 0 2.5.533-.825.944-2.175.914-3-.014-.37-.066-.58-.157-.625zm-20.64 4.625c.486 0 .875.563.867 1.25-.021 1.739-1.5 3.9-2.193 3.207-.816-.815.268-4.457 1.326-4.457zm18.5 1c-.211 0-.619.9-.906 2s-.116 2 .382 2 .907-.9.907-2-.172-2-.383-2zm-8.168 1.35a.285.285 0 0 1 .144 0c.14.033.309.152.51.353.791.791.8 1.626.031 2.95-.94 1.618-1.076 1.482-1.103-1.104-.015-1.412.106-2.112.418-2.2zm-2.147 1.008c1.7-.129.147 15.64-2.152 20.892-1.143 2.613-2.37 4.75-2.723 4.75-.353 0-.334-.787.043-1.75.982-2.505 3.526-17.251 3.528-20.441 0-1.48.508-3.005 1.129-3.389a.393.393 0 0 1 .175-.062zm-154.658 1.9c-.13-.055-.484.194-1.12.723-1.736 1.44-1.918 2.02-.632 2.02.491 0 1.177-.74 1.524-1.643.263-.687.358-1.045.228-1.1zm146.356 2.742c.55 0 1 .424 1 .942s-.45 1.218-1 1.558-1-.084-1-.941c0-.858.45-1.559 1-1.559zm27.164.006c.364-.004.152 1.344-.471 2.994-.623 1.65-1.538 3-2.035 3-.497 0-.383.626.254 1.393.883 1.064.846 1.715-.16 2.75-2.307 2.374-6.194 8.248-4.95 7.479 2.327-1.439 1.147.975-2.882 5.896-5.67 6.923-6.92 8.14-6.92 6.736 0-.645 1.237-2.327 2.75-3.738 2.042-1.905 2.422-2.772 1.476-3.365-.971-.61-.793-1.232.75-2.63 1.113-1.006 2.024-2.46 2.024-3.23 0-.768 1.125-3.052 2.5-5.076 1.375-2.023 2.5-4.109 2.5-4.634 0-1.25 4.305-7.566 5.164-7.575zm-168.047 3.994c-.486 0-1.119.9-1.406 2-.618 2.362.8 2.714 1.681.418.806-2.099.77-2.418-.275-2.418zm177.705 1.811c.558.076 1.518 2.468 2.55 6.998 2.112 9.26 3.81 14.47 4.995 15.326.483.35.689 2.262.457 4.25-.308 2.64-.042 3.615.984 3.615.803 0 1.172.608.862 1.416-.3.78.132 1.678.957 1.995.825.316 1.217 1.032.873 1.59-.345.557.077 1.283.937 1.613.86.33 1.566 1.115 1.569 1.744.003.628.59 2.267 1.304 3.642 2.185 4.21 2.672 6 1.633 6-.546 0-1.462-1.236-2.037-2.748-1.271-3.344-3.893-6.378-4.947-5.726-.426.263-.53-.453-.233-1.588.364-1.391-.156-2.55-1.594-3.557-1.173-.822-2.132-2.144-2.132-2.937 0-.794-.45-1.444-1-1.444s-1-1.35-1-3-.388-3-.862-3c-.473 0-.645-1.125-.382-2.5.265-1.389.008-2.5-.579-2.5-1.017 0-1.517-2.59-2.646-13.691-.355-3.494-.231-5.29.185-5.483a.186.186 0 0 1 .106-.015zm94.363.76c-2.682.18-4.894.843-5.877 1.93-2.207 2.44-2.962 10.468-1.095 11.652.947.601.824.82-.471.832-1.363.012-1.55.409-.824 1.765.514.963 1.158 2.48 1.43 3.373.274.904 2.065 1.92 4.036 2.29 1.198.224 2.126.492 2.801.767v-22.61zm-139.4.49c.195-.024.39.397.736 1.244.405.993.305 2.772-.222 3.953-.926 2.074-.978 2.08-1.475.18-.283-1.083-.183-2.862.223-3.953.346-.931.542-1.4.738-1.424zm126.955 1.613c-.218.005-.464.021-.74.045-1.375.12-6.648.318-11.717.438-10.461.247-10.45.195-1.473 7.015 3.13 2.378 5.915 4.596 6.19 4.93.91 1.105 6.485 3.818 7.345 3.574.465-.131 1.016-2.476 1.225-5.209.21-2.732.503-6.317.654-7.967.213-2.322.043-2.858-1.484-2.826zm-254.32 2.162a.201.201 0 0 0-.137.006c-.043.02-.076.062-.098.125-.43 1.262 1.67 5.034 2.803 5.034.505 0 .152-1.341-.785-2.979-.718-1.254-1.417-2.09-1.783-2.185zm131.744.014c1.212.317 1.813 6.321.83 10.68-1.505 6.673-2.537 5.565-2.153-2.313.208-4.245.553-7.905.768-8.134.195-.209.382-.278.555-.233zm-16.506.49a.412.412 0 0 1 .185.063c1.39.859.474 10.136-1.306 13.228-1.3 2.257-1.557 2.404-1.207.694.304-1.49.034-2.019-.854-1.678-1.015.39-1.104-.357-.41-3.447 1.24-5.52 2.637-8.94 3.592-8.86zm9.342 9.66c1.1 0 2 .172 2 .383 0 .211-.9.619-2 .906s-2 .116-2-.382.9-.907 2-.907zm7.136 8c.449 0 .43 1.013-.04 2.25-.971 2.554-1.096 3.15-1.096 5.25 0 .825-.45 1.5-1 1.5s-1-.879-1-1.953c0-2.445 2.048-7.047 3.136-7.047zm105.485 2.131c1.003-.226 3.97 3.214 6.71 7.854 2.129 3.602 1.163 3.826-2.517.586-1.477-1.301-2.415-2.638-2.084-2.97.332-.33-.12-.6-1.004-.6s-1.934-.527-2.332-1.17c-.497-.806-.16-.956 1.082-.48 1.538.59 1.615.465.522-.853-.706-.85-.954-1.874-.551-2.273a.35.35 0 0 1 .174-.094zm-4.68 1.87c.583 0 1.059.45 1.059 1s-.2 1-.442 1-.718-.45-1.058-1c-.34-.55-.141-1 .441-1zm11.559 0c.825 0 1.5.518 1.5 1.154 0 .635 1.044 2.548 2.32 4.25 1.276 1.702 2.653 3.658 3.059 4.345.807 1.368-.29 1.65-1.885.485-1.675-1.224-6.494-8.028-6.494-9.168 0-.587.675-1.067 1.5-1.067zm-222.094 1.378c-.278-.012-.158.729.178 2.117.398 1.65.992 3.225 1.32 3.5.328.275.75 1.384.937 2.463.189 1.08 1.661 4.572 3.272 7.764 2.656 5.262 3.207 5.782 5.908 5.576 3.009-.23 3.815-1.168 1.979-2.303-1.681-1.039-1.112-2.472.75-1.886.962.302.512-.267-1-1.264-2.381-1.57-4.07-5.102-2-4.182 8.278 3.68 13.25 6.509 13.25 7.541 0 .71-.563 1.299-1.25 1.307-.834.01-.75.338.25.984 1.865 1.206 1.748 1.206 4.006 0 1.252-.67 2.077-.67 2.492 0 .805 1.303 4.502 1.305 4.502 0 0-.55-.476-1-1.059-1s-.782-.449-.443-.998c.77-1.247-2.572-7.073-3.67-6.394-.443.274-.572-.111-.287-.854.625-1.63-3.175-5.267-6.291-6.021-2.238-.542-7.228 1.147-7.243 2.451-.012 1.06-5.248-.13-7.757-1.764-1.238-.805-2.25-1.17-2.25-.808 0 .362-.978-.64-2.172-2.227-2.052-2.726-3.065-3.986-3.422-4.002zm226.47.225c.365-.086 1.361.62 3.08 2.092.85.726 1.769 1.24 2.044 1.142.275-.097 1.625.445 3 1.205s2.74 1.318 3.035 1.24c.294-.077.537.727.537 1.788 0 2.512-1.02 2.438-3.533-.26-1.725-1.851-2.04-1.926-2.04-.49 0 2.643-3.452.049-5.415-4.069-.805-1.687-1.072-2.562-.707-2.648zm-24.935 3.396c1.683 0 3.059.443 3.059.985s2.112 1.517 4.695 2.168c3.761.947 4.309 1.335 2.75 1.945-2.767 1.083-3.657 1.054-2.945-.098.876-1.417-.84-1.242-2.448.25-1.098 1.02-1.235.932-.746-.463.47-1.339-.152-1.854-2.863-2.363-4.477-.84-5.458-2.424-1.502-2.424zm-30.748 4.078c.931-.043 2.394.923 3.25 2.145.856 1.222 1.557 1.657 1.557.965 0-.913.507-.987 1.847-.27 1.254.671 2.199.636 2.944-.11.796-.795.932-.465.496 1.204-.431 1.648-.259 2.09.61 1.553 1.307-.808 7.748 3.102 8.56 5.197.508 1.312-1.81 1.067-7.805-.826-2.415-.763-2.928-.6-3.367 1.082-.606 2.315-1.597 2.515-3.156.637-.614-.74-1.401-2.765-1.748-4.5-.347-1.736-1.025-3.155-1.506-3.155-.482 0-.875-.638-.875-1.418 0-.779-.563-1.642-1.25-1.92-.769-.31-.598-.535.443-.584zm45.037.116c.648-.077.51.633.414 2.304-.08 1.375-.37 2.448-.644 2.383-.275-.065-1.85-.416-3.5-.78l-3-.66 3.404-1.72c1.843-.932 2.822-1.468 3.326-1.527zm-12.215 2.806c.569 0 1.445 1.078 1.946 2.395.5 1.317 1.501 2.61 2.224 2.875 1.068.39 1.053.739-.082 1.855-.768.757-1.096.84-.728.186.367-.654.095-1.554-.604-2-1.868-1.193-4.005-5.31-2.756-5.31zm24.649 4.117l2.595 2.598c2.242 2.242 3.669 2.66 10.42 3.059 1.345.08 2.376.166 3.506.252v-1.782c-5.878-.636-7.594-1.018-12.103-2.587l-4.418-1.54zm-10.498.928a6.244 6.244 0 0 0-.647.006c-.955.062-1.52.374-1.52.95 0 .55.568 1 1.26 1 .693 0 1.821.9 2.508 2 1.288 2.062 3.084 2.413 6.983 1.369 3.233-.867 2.803-1.64-2.014-3.62-2.582-1.06-4.952-1.644-6.57-1.705z"/></svg>