<svg xmlns="http://www.w3.org/2000/svg" overflow="visible" viewBox="0 0 619.599 138.825">
  <g fill-rule="evenodd" clip-rule="evenodd">
    <path fill="none" d="M426.52 5.205h7c-.022 2.356 1.723 2.944 1 6-2.802 1.15-5.198 1.15-8 0-1.12-3.15-.09-2.264 0-6zm184 0c2.338.329 4.131 1.202 6 2-.089 3.911-1.224 6.776-6 6-1.7-3.124-2.18-5.281 0-8zm-414 2c4.269 8.499-7.986 11.768-11 5 .24-5.821 5.82-6.808 11-5zm239 22c3.01-6.657 9.689-9.644 10-19-.351-3.316-5.764-1.569-9-2 1.596-3.172 8.958-2.119 12-1-.162 1.163.221 1.779 1 2-2.85 8.487-5.72 16.944-14 20zm112-22c1.025-2.231 6.695-.79 6 2-2.93.261-3.07-2.261-6-2zm-366 0c-1.378 1.289-.99 4.344-1 7-3.562.229-5.229-1.438-5-5 2.09-.576 2.86-2.479 6-2zm137 1c-.937 3.063-5.543 2.457-7 5-3.1-2.899 5.93-6.124 7-5zm223-1c1.109 1.891 2.494 3.505 3 6-1.479 1.158-2.521 1.158-4 0 .027-.973 1.224-.776 2-1-.56-2.08-2.86-3.232-1-5zm3 0c3.726 1.941 9.109 2.224 9 8-3.16-2.503-8.97-2.363-9-8zm44 1c-.127 1.793 1.225 2.109 1 4-3.14 2.64-6.935-.47-9-2-3.682 2.171 2.993 2.225 2 5-4.161 2.986-9.392-1.707-12 0 .817 2.516 5.272 1.395 7 3-2.942 6.143-10.824 3.111-14-1 3.46-7.456 14.03-12.298 25-9zm-553.999 1c1.331 3.002 1.017 7.65 1 12-5.273-.204-1.211-4.54-3-7-.129-4.238-10.514-3.44-10-5 3.46-2.73 7.504.639 12 0zm11 2c9.605-1.993 8.622 11.328 6 19-2.73-5.604-1.335-15.331-6-19zm264.999 5c2.406-2.927 5.777-4.889 10-6-2.41 2.927-5.78 4.889-10 6z"/>
    <path fill="none" d="M435.52 11.205c2.169-3.063 5.629.959 9 0-1.13 4.045-5.83-.076-9 0zm-187 19c3.479-.544 21.415-1.728 12 0-6.262 1.453-8.762 2.406-16 4-1.572-.761-1.494-3.172-4-3 4.109-4.558 11.381-5.952 12-14 .144-3.144-2.564-3.436-5-4 10.97-5.022 9.45 13.606 1 17zm51-19c1.989 1.344 4.761 1.906 7 3-1.62 2.193-6.91-.354-7-3zm-284.999 1c4.756 4.541-.762 12.69-7 9-1.746-4.247.115-10.395 7-9zm71 7c3.124-1.209 4.348-4.318 8-5-.397 5.27-5.662 5.671-10 7 .807-5.193 2.649-9.351 9-9-1.329 3.338-5.85 3.483-7 7zm111.999 1c-3.401-4.49 3.034-3.056 2-7 2.217-.55 1.424 1.91 3 2-.83 2.507-3.5 3.163-5 5zm231-6c2.175.52.449 13.53 1 19-.3 2.714-4.401.617-3 7-4.432-4.442-4.041-20.25-1-26 4.01 2.111-.602 9.952 1 16 1.56-4.435 1.96-10.042 2-16zm3-1c5.359 6.037 3.188 24.225-2 29 1.48-10.711 1.86-16.64 2-29zm123 6c-4.602-.064-6.491-2.842-10-4 1.5-3.625 9.29.527 10 4zm54-5c-1.005 3.995-4.26 5.74-6 9-2.1-3.143 2.41-8.226 6-9zm-193 1h7c-.161 1.172-1.823.843-3 1 .027.973 1.224.776 2 1-3.012 2.655-9.328 2.005-14 3 2.674-1.525 4.967-3.426 8-2-1.2-1.313-.39-1.573 0-3zm103 1c1.496 2.171 5.736 1.597 6 5-2.28-1.381-6.24-1.094-6-5zm-333 1c2.527 1.95-.552 6.714-1 9-2.7-2.124-.1-7.361 1-9zm250 1c.017-1.527 7.41-2.192 6 1-2.46.132-4.82.151-6-1zm149 0c-.535 3.799-3.898 4.769-7 6 2.02-2.313 3.32-5.344 7-6zm-560.999 2c9.605-.93 17.195 8.798 25 13-8.232 1.565-9.218-4.115-15-5 4.006-3.147-6.22-6.295-10-8zm297.999 9c2.343-1.991 1.439-7.228 4-9 6.777-1.11 7.834 3.499 8 9-7.243.261-17.246 2.521-24 0-2.79-11.981 14.94-11.75 12 0zm100-10c1.172.162.844 1.823 1 3h-5c-.318 2.652 5.603-.936 4 3-5.058.942-8.185 3.815-15 3-1.79-6.018 8.81-7.684 15-9z"/>
    <path fill="none" d="M545.52 20.205c2.582-1.864 10.422-.46 9 5-2.52-2.146-6.66-2.675-9-5zm-483.999 6c1.938 1.502-1.749 4.211 2 5 1.615.282 1.722-.945 3-1-.656-5.01-6.121-5.212-9-8 2.344-2.996 10.104 2.592 11 5 4.019 10.798-16.64 8.287-7-1zm127.999-6c5.624 1.257-1.833 9.879 3 11 3.059-2.064-.875-8.9 1-10 2.533 4.849 1.526 18.175-1 24-5.91-4.992-2.46-16.663-3-25zm116 0c2.157 2.4 3.086 7.133 2 10h-10c-.78-6.776.86-11.146 8-10zm-23 32c4.042 2.291 8.471 4.196 14 5-19.729.127-35.388-11.716-52-19-13.326-5.843-27.483-10.017-41-16 12.802-1.639 23.661 6.566 35 11 21.298 8.327 43.274 15.056 64 24-6.12 1.773-12.19-5.133-20-5zm9-31c4.876-.209 4.022 5.312 4 10-2.656-.01-5.711.378-7-1-.73-4.729 1.43-6.574 3-9zm60 0c1.425 4.758-2.805 3.862-4 6-2.72-2.141 1.3-5.966 4-6zm241 0c-.734 2.932-3.033 4.3-5 6-2.19-1.935 2.33-5.613 5-6zm-248 8h-10c-1.97-9.304 11.8-8.802 10 0zm-77-4c-.247 1.258-1.988 1.009-2 0-1.017.65-1.034 2.299-3 2-.282-2.615.365-4.301 3-4 .44.89.88 1.789 2 2zm14-2h2c2.94.727 4.216 3.118 4 7h-7c-.8-3.469 1.49-3.844 1-7zm123 8c-3.305 1.5 2.078 2.445 1 5-1.163-.163-1.779.221-2 1-4.98-2.516-2.234-6.547-8-8 5.792-1.365 3.843-5.156 9-6-.511 2.823-2.42 4.247-3 7 1.248 1.749 4.099-2.561 7 0 .044 1.71-.743 2.59-2 3-1.7.368-1.89-.78-2-2zm89-8c4.184-.301 4.184 9.301 0 9 2.37-2.483.01-5.886 0-9zm92 0c-1.129 1.872-1.183 4.817-5 4 .68-2.324 1.8-4.2 5-4zm-130 8c-5.486 3.106-11.509-.882-17-1 1.817-3.66 3.637-2.114 8-2-.31-1.357-2.504-.83-4-1 .91-5.553 12.26-.116 13 4zm72-7c4.406 8.46 21.976 12.618 17 24-12.03.024-12.035-17.29-26-12 7.403-1.903 12.501 5.804 17 10-6.402 2.051-16.062-1.257-21-4 4.668-6.176-5.061-15.843 3-17-.729 4.729.586 7.414 4 8 5.12-.121 7.91-4.8 6-9zm25 12c6.432-6.225-4.806-7.27-6-12 7.67-1.425 14.02 9.634 6 12zm-443-7c-1.163-.163-1.779.221-2 1-3.135-.691-1.304-2.667-1-5 1.46.87 3.17 1.497 3 4zm-55.999-2c2.555.112 1.985 3.349 2 6-1.182 1.151-3.535 1.132-6 1 1.887-1.779 4.427-2.906 4-7z"/>
    <path fill="none" d="M78.521 28.205c1.378-3.183.99 3.534 1 5-3.135 2.081-10.957.703-8-3 2.118 1.805 7.394 3.551 7-2zm200.999-1c-.138 3.862-3.904 4.096-8 4 1.39-2.613 5.17-2.833 8-4zm-246.999 1c.458 3.125-2.137 3.197-5 3 .914-1.753 1.858-3.474 5-3zm124.999 0c3.386 7.748 1.942 22.058 5 31-6.16-6.026-8.78-21.017-5-31zm236 5c2.995-.658-.956-2.138 0-4 5.557 4.777 9.534 11.133 13 18-8.19-2.81-13.02-8.98-15-18 1.34.658 1.86 2.138 2 4zm-197-3c1.342.202 1.862 4.153 2 0 2.468 3.842.608 11.911-2 14-3.88-1.052 1.54-8.758 0-14zm162 7c-4.169-.502-4.411 2.923-9 2-.86-.807-.594-2.739-2-3-1.62-8.201 13.74-8.228 11 1zm77-7c6.78 1.887 14.139 3.194 16 10-4.938 1.448-11.608-1.804-17-3 2.83-3.698 2.26-1.601 1-7zm-285 5c-.144-3.144 2.564-3.436 5-4-.19 2.813-1.74 4.26-5 4zm119-3c.292 4.959-2.041 7.292-7 7-7.04-3.755.48-11.274 7-7z"/>
    <path fill="none" d="M346.52 31.205c-.839 1.161-1.319 2.681-1 5-21.174 2.41-49 1.326-76 3-.78-9.178 8.66-6.923 16-7 21.09-.221 39.7-.089 61-1zm130 0c8.321 4.346 17.868 7.465 27 11-10.71 2.031-21.49-4.503-27-11zm-454.999 10c.888 2.694 2.792-1.731 2-4 4.105 17.844-19.422 6.326-18-5 1.376 5.099 12.321 14.59 16 5 1.621-.715 1.621 4.715 0 4zm365.999-5c1.5 3.305 2.445-2.078 5-1-.157 6.279-7.88 10.653-10 4 1.406-3.594 3.357-6.642 8-7 .87 3.206-1.54 3.128-3 4zm-312.999 0c-5.13 3.097-11.58-1.062-18 0 2.652-1.883 14.318-2.132 18 0zm78.999 3c-4.182-.484-7.762-1.572-11-3 3.07-3.38 9.8-1.104 11 3zm298-5c2.615-.282 4.302.365 4 3-2.62.282-4.3-.365-4-3z"/>
    <path fill="none" d="M398.52 54.205c-12.006-.661-18.506-6.827-21-17 6.33 6.339 13.61 11.725 21 17zm79-7c2.031.306-.205-2.889-1-3 3.959-2.502 6.352 5.924 3 9-6.114-2.553-8.565-8.768-10-16 3.68 2.318 6.27 5.728 8 10zm-334-3c2.923-.744 1.935-5.398 6-5 .205 9.205-5.396 12.604-10 17-2.849-6.537 2.312-13.672 5-18 4.16 1.194-.77 3.424-1 6zm291-4c4.12-.432 15.339.646 16 7-4.7-2.97-10.89-4.444-16-7zm165-1c-.768 3.233-2.768 5.233-6 6 .75-3.247 1.66-6.341 6-6z"/>
    <path fill="none" d="M396.52 42.205c-1.136 4.169-4.521 7.4-8 4 .05-3.95 2.05-5.95 6-6-.52 3.704-1.7 2.516 2 2zm76 13c-4.832-1.834-6.805-6.528-8-12 2.202.797 3.992 2.007 4 5 3.354-2.36-4.572-5.203-1-8 3.06 3.17 7.17 9.841 5 15zm-237-3c-3.974-2.692-12.948-.385-14-6-.168-2.168 3.547-.453 5-1-.43-1.57-3.146-.854-2-4 5.51 1.821 9.75 4.914 11 11z"/>
    <path d="M294.52 43.205c5.539-3.159 14.795-1.556 25-2 7.799-.694 7.799 1.694 0 1h-14c-2.8 1.197-6.9 1.1-11 1z"/>
    <path fill="none" d="M154.52 42.205c.443 4.403 2.658 14.717-7 14-.21-7.208.44-13.56 7-14zm50 3c-.733-.934-1.818-1.515-3-2 3.418-1.055 10.717 2.593 13 6-3.025.331-12.421-1.558-15-5 2.83-.826 2.59 1.409 5 1zm399-2c-1.955 4.045-4.89 7.11-10 8 .84-4.766 5.31-10.314 10-8zm-418 2c-2.67 2.997-8.177 3.157-10 7-4.581-2.087 7.109-4.441 1-5 1.248-2.418 4.099-3.234 7-4-1.53 3.718-2.45 2.802 2 2zm188 13c.453-5.88.642-12.025 6-13 2.064 3.715-1.434 2.614-1 7 1.772-.895 1.274-4.059 5-3 .44 6.362-6.35 9.968-10 9zm25-13c.319 2.319-.161 3.839-1 5-1.794.127-2.109-1.224-4-1 .19-2.813 1.74-4.26 5-4zm68 14c-6.094.484-8.373-7.247-7-11 1.23.437 2.054 1.28 2 3 3.12-1.506-2.94-4.314 0-6 4.27 2.035 6.98 8.79 5 14zm-452.999-13c-2.269 5.064-4.441 10.226-6 16-2.902-3.366.046-15.155 6-16zm469.999 0c3.744-.078 3.411 3.922 4 7-2.39-1.273-4.07-3.262-4-7zm21 0c12.666-.333 19.576 5.09 29 8-10.27 1.314-20.57-2.718-29-8zm91 13c-2.332-6.02 5.681-10.303 10-13 3.31 7.628-6.9 8.634-10 13zm-246 1c-1.762-5.994 6.907-9.589 12-12 2.11 6.717-6.28 9.945-12 12zm-90-10c4.008-1.314 12.075 1.905 14 6-5.26-1.402-8.82-4.508-14-6zm238-1c4.945 1.388 10.035 2.632 12 7-2.83.472-11.55-1.757-12-7zm-471.999 4c-1.645 2.85-5.426-.48-7-1 1.477-4.448 3.867 1.2 7 1zm289.999-2c-2.216 7.725-.8 20.003 0 28 2.039-.628.28-5.053 4-4-.261 2.928 2.261 3.072 2 6-4.994 1.03-8.579 6.447-15 3 1.702-9.061 1.375-22.878 0-32 1.66-1.674 5.87-.796 9-1zm77 4c-1.569 2.43-4.254 3.746-8 4-1.529-3.181-.351-4.399 0-8 2.72 1.281 4.88 3.124 8 4zm-133-3c5.65 2.35 13.265 2.735 14 10-4.34-3.662-15.37-.63-14-10zm-140 1h3c-.441 2.892-2.108 4.559-5 5 2.22-2.323.88-2.677 2-5z"/>
    <path fill="none" d="M607.52 54.205c-.703 6.963-6.858 8.475-12 11-1.46-4.84 7.77-11.852 12-11zm-451 0c1.975.691 2.666 2.667 3 5-3.93 1.266-2.97-2.359-3-5zm340 0c5.693 1.307 11.116 2.884 13 8-3.52.498-11.06-3.583-13-8zm-380 1c3.419 2.69-5.007 10.128-10 11 .47-6.528 8.35-5.646 10-11zm232 12c.612-8.054 9.146-8.187 14-12 1.24 6.436-7.91 9.702-14 12zm46-11c.31-1.357 2.504-.83 4-1 .282 2.615-.365 4.301-3 4-2.21-1.44 1.26-2.44-1-3zm-173 2c.733-1.781 1.818-.144 3 0-2.954 9.713-7.656 17.678-19 19 4.91-6.1 16.5-10.821 16-19zm172-1v4c-3.85.788-3.85-4.788 0-4z"/>
    <path fill="none" d="M495.52 58.205c6.242 2.091 12.353 4.314 14 11-4.92-3.416-12.73-3.934-14-11zm-221 10c-4.901-2.766-12.584-2.749-15-8 4.82-.908 14.71 1.11 15 8zm-21-7c-4.078 3.256-11.071 3.595-17 5-.409-2.409 1.826-2.174 1-5 5.23-1.852 10.36-.411 16 0zm350 3c1.5 3.305 2.445-2.078 5-1-1.271 3.396-3.604 5.729-7 7 1.402 2.913 3.445-1.773 6-1-.279 2.054-2.671 1.996-4 3 .247 1.258 1.988 1.009 2 0 1.028 3.392-7.083 6.229-11 8 .546-4.121 3.289-6.044 6-8-.789-2.539-3.497 2.812-5 0 .496-7.171 7.443-7.89 11-12 3.07 1.562-1.74 3.481-3 4zm-441 1c-11.479 1.933-17.855-.058-31 1 .566-.934 2.78-1.515 1-2 7.24-4.596 23.65-3.673 30 1zm198-3c2.807 6.826-8.36 8.292-11 13-2.93-6.953 7.11-9.54 11-13z"/>
    <path d="M317.52 63.205c2.118 4.548 9.02 4.314 16 4-3.42 4.025-16.86 2.713-16-4z"/>
    <path fill="none" d="M509.52 73.205c-5.461-2.206-11.364-3.969-15-8 2.88-2.625 12.45 3.795 15 8z"/>
    <path d="M520.52 64.205c3.621-2.308 4.796.341 9 0-1.98 2.871-6.24-.347-9 0z"/>
    <path fill="none" d="M249.52 65.205c3.111 3.961 7.801 13.031 1 16-.64-4.665-2.14-12.77-1-16zm25 9c-3.683-4.317-13.856-2.144-15-9 7.75.247 13.77 2.233 15 9z"/>
    <path d="M576.52 65.205c-.402 2.931-5.867.799-7 3-2.85-2.277 3.93-3.338 7-3z"/>
    <path fill="none" d="M243.52 66.205c1.987 1.666 1.271-.09 4 0-1.348 5.985-.149 14.518-6 16-2.194-4.066-2.781-11.161 0-15 2.208.125.425 4.242 1 6 2.24-.431.41-4.928 1-7zm-210.999 1c2.091.909 3.049 2.951 3 6-2.729.729-2.013-1.987-4-2-.127-1.794 1.224-2.109 1-4zm100.999 3c2.551-3.782 9.6-3.067 16-3-3.3 2.62-11.24 5.084-16 3z"/>
    <path fill="none" d="M159.52 67.205c-10.527 3.473-19.552 8.448-30 12 6.98-7.018 17.85-10.15 30-12zm188 13c3.374-5.626 9.043-8.957 15-12-2.88 6.118-8.72 9.283-15 12zm147-12c4.39 3.944 14.27 2.397 14 11-3.84-4.487-13.28-3.382-14-11z"/>
    <path d="M488.52 70.205c-4.943 2.544-12.769.019-16 0 3.99-2.618 11.49-.19 16 0z"/>
    <path fill="none" d="M260.52 70.205c6.769 1.564 13.218 3.448 15 10-5.081-1.919-8.291-5.709-15-6v-4zm-243.999 6c.85-2.934 2.517 1.301 5 0-.315-2.352-4.74-.594-4-4 3.044-.044 3.889 2.111 6 3 .154 2.487-1.571 3.096-2 5-2.324-.677-2.677-3.323-5-4zm14-4c2.488 1.512 4.572 3.428 5 7-3.736 1.069-2.85-2.483-6-2-.827-2.826 1.409-2.591 1-5zm362.999 1c3.555-1.555.604 3.396 3 3-.577 2.423-3.776 2.224-6 3 1.874-1.904.109-2.513 0-5 1.615-.281 1.722.945 3 1v-2zm114 11c-3.032-5.301-13.876-2.791-14-11 5.24 3.094 14.37 2.3 14 11zm-158 2c-2.814-6.834 7.461-9.19 12-12-.02 7.981-8.78 7.217-12 12zm-44-11c.09 3.736 1.121 2.851 0 6-3.458-.812-4.222 1.867-6 0 1.19-2.808 1.62-6.375 6-6z"/>
    <path d="M332.52 78.205c1.35-2.316 7.521.188 8-3 2.42 2.584-5.21 5.157-8 3z"/>
    <path fill="none" d="M380.52 75.205c4.557.153 3.924.827 8 0 2.37 9.093-9.1 6.19-8 0zm225 0c-.287 2.738-5.229 9.419-10 11-2.49-5.514 7.06-7.587 10-11zm-345 1c7.44-.258 14.682 4.401 14 9-4.42-3.241-13.36-1.976-14-9z"/>
    <path d="M278.52 76.205c.807.86 2.739.594 3 2 13.17-1.087-3.37 4.493-3-2z"/>
    <path fill="none" d="M370.52 76.205c5.143 1.879 2.082.54 8 0-1.061 1.923.871 7.592-3 9-3.93-.738-4.76-4.569-5-9zm106 0c2.562.105 4.768.566 6 2-.233 3.1-3.547 3.12-6 4-1.87-1.778.81-2.542 0-6zm-370 15c-.907-4.117 1.607-1.324 3-2 5.406-2.625 8.412-9.562 15-12-2.42 7.685-12.36 12.832-18 14zm262-14c2.3 2.366.358 8.976 1 13-1.83-3.166-2.74-9.16-1-13zm118 0c2.809 1.915-1.374 5.214-1 8-2.71-2.309-1.58-6.183 1-8zm-402.999 5c-2.837 2.106-9.408 1.265-10-2 1.561-3.059 9.869-2.212 10 2zm408.999-4c5.3 3.034 14.251 2.416 14 11-4.9-3.433-13.13-3.533-14-11zm49 1c4.245-1.22 12.58 2.068 15 6h-9c-1.46-2.542-1.9-6.097-6-6zm-524.999 6c-1.1-3.757 4.337-3.383 0-5 4.394-4.146 5.241 5.744 0 5zm39-3c1.989-4.054 7.056-1.799 11-2-.366 5.617-7.916 4.232-11 2zm102.999-2c1.838 1.511 2.958 6.748 1 9-4.727.394-7.208-1.459-7-6 4.35 2.279 4.82.22 6-3z"/>
    <path d="M279.52 80.205c1.893 1.774 6.604.729 10 1-2 2.412-7.73 2.833-10-1z"/>
    <path fill="none" d="M360.52 80.205c2.242 5.74-9.729 10.724-13 11 1.65-6.353 9.19-6.809 13-11zm-101 1c6.305 2.028 13.714 2.952 16 9-3.94-4.398-14.23-2.434-16-9zm-202.999 4c-3.146.479-3.909-1.424-6-2 .928-2.134 7.271-1.366 6 2zm33-2c-.411 2.713-4.755 4.126-7 2 .411-2.713 4.755-4.126 7-2zm151.999 1c.976 4.027-5.976 4.027-5 0 1.9-1.874 2.51-.109 5 0zm195-1c.316 3.983-4.625 2.708-5 6-2.37-2.117 1.77-6.177 5-6zm45 2c.268 3.601-1.848 4.819-2 8-2.833-.167-4.167-1.833-7-2-.183-4.85 1.992-7.342 6-8-.67 5.737-1.22 2.784 3 2zm28 10c-3.66 1.588-15.842-4.529-18-11 5.7.138 14.03 5.848 18 11zm-456.999-8c-1.481 1.497-5.168.093-5-3 2.863-.197 5.457-.124 5 3zm41-2c-.229 3.831-2.976 4.429-6 3 1.193-1.93 3.423-5.458 6-3zm54.999-1c2.043 1.908 2.007 4.342 1 7-4.081-.586-7.141-2.192-8-6 3.57-.901 5.9 4.453 7-1zm97 0c1.793-.127 2.109 1.225 4 1 .59 4.416-5.4 3.45-4-1z"/>
    <path fill="none" d="M260.52 86.205c6.791 1.209 13.344 2.656 15 9-4.64-3.355-14.13-1.869-15-9zm87 12c1.654-7.346 8.499-9.501 15-12-3.01 5.986-9.52 8.479-15 12zm52-8c-.406-1.927-3.877-.79-3-4 3.291 1.042 5.565 3.101 7 6-1.868.798-3.662 1.671-6 2-.966-2.384-5.298-4.408-3-7 2.36.309 1.86 3.473 5 3zm-349.999-2c-.707 3.595-4.693 1.406-6 0 .42-2.226 5.306-.783 6 0zm47 8c-1.09-4.584.788-4.457-5-5 1.286-1.714 2.068-3.933 5-4 2.639 2.688-.116 4.965 5 3 .81 4.474-1.779 5.554-4.999 6zm33.999-9c1.497 2.836 2.468 6.199 3 10-2.93-1.404-3.08-5.592-3-10zm-87.999 2c1.727 2.273 4.137 3.863 4 8-3.341-.659-4.891-3.109-8-4 .318-2.348 3.095-2.238 4-4zm81.999 0c2.1 8.316-11.469 14.314-17 15 2.15-8.509 10.58-10.745 17-14.995z"/>
    <path fill="none" d="M385.52 92.205c3.869-.869 3.558 2.442 6 3-1.067-.933-.312-3.688-3-3 16.15-5.48-1.54 16.335-3 0zm41 0c.945-3.766 8.557-1.83 8 2-2.44-.89-4.34-2.331-8-2zm83 11.995c-5.834-4.832-12.983-8.35-18-14 7.71 2.961 16.66 4.684 18 14zm-234-4c-4.478-3.521-12.922-3.078-15-9 6.04 1.964 13.03 2.978 15 9zm73 2c2.036-5.468 9.343-10.426 14-10-3.07 4.931-8.33 7.67-14 10zm104-7.995c-.146-2.812 2.449-2.884 5-3 .46 3.124-2.14 3.197-5 3zM96.521 101.2c.027-4.677 5.611-7.876 8-7 .23 5.233-4.36 5.642-7.999 7zm49.999-1.995c-2.323-.677-2.677-3.323-5-4 2.4-2.468 6.98-.893 5 4zm28-2c-4.646.979-6.037-1.296-9-2 .34-3.03 7.86-.339 9 2zm245-1c-.625 2.136-6.155.938-7 0 .78-3.745 4.84-.643 7 0zm25-2c2.598 3.575-4.415 4.454-9 4 .84-3.498 6.31-2.359 9-4zm22 3c-.529.805-1.043 1.623-1 3-3.649.649-5.326-.674-7-2 .122-2.545 1.455-3.878 4-4 .63 4.043.24 1.251 4 3.005zm142-3c2.188 2.905-3.973 5.989-7 7 2.594 2.527 6.616-2.001 8-4-.041 4.889-9.395 12.445-16 11 1.89-7.78 10.86-8.468 15-13.995zm-569.999 1c4.613 1.387 8.617 3.383 8 10-2.124-3.9-11.49-3.53-8-9.995zm122.999 0c4.441-.441 5.443 2.557 5 7-3.431 1.76-6.461-.173-9-2 1.242-3.06 2.908-3.191 5-1-.78-.885-1.08-2.253-1-3.995z"/>
    <path fill="none" d="M274.52 104.2c-4.197-2.136-10.27-2.397-14-5v-3c4.08-.476 12.24 2.904 14 8zm114-4.995c-.937 3.063-5.543 2.457-7 5-2.267-1.066-3.634-3.033-4-6 2.039-2.009 1.961.442 4 1-.776-.89-1.075-2.258-1-4 4.45-.44 5.29 2.714 8 4.005zM24.521 102.2c-1.187-2.48-6.128-1.205-5-6 6.329 3.671 15.601 4.399 15 15-6.24-2.761-11.88-6.12-17-10 1.331-2.532 4.438 1.47 7 1zm336.999-4.995c-.451 7.549-10.218 5.782-12 12-2.57-6.59 6.75-9.901 12-11.995zm-172 2.995c1.906 9.215-4.864 21.572-1 33-2.797-1.203-.816-7.184-3-9-2.513 1.936 1.175 6.092 1 9-7.57-9.99.11-23.11 3-33zm3 0h4c-.616 12.283.792 22.541 1 34-3.565-6.077-1.118-12.665-2-22-2.32 5.014-.344 14.323-1 21-4.054.388-1.102-6.232-2-9-2.27 1.063-.381 6.286-1 9-3.96-7.87.17-23.41 1-33zm244 0c1.584.083 3.814-.48 4 1 1.09 3.52-6.13 2.68-4-1z"/>
    <path fill="none" d="M274.52 109.2c-4.111-2.889-13.055-.945-14-7 3.62-.32 13.54.91 14 7zm-120-7c1.167 1.5 2.888 2.445 3 5-1.554 1.646-3.897-.342-6-1 .3-2.03 2.71-1.96 3-4zm205 1c2.961 4.335-7.137 4.166-7 9-.282 1.615.945 1.722 1 3 6.447 1.168 4.132-4.885 5-7 4.51-.51 4.271 3.729 4 8-3.535 4.672-12.218 3.145-14-2 .84-6.49 6.9-7.76 11-11zm53 5c-3.801 2.065-10.607 3.178-12-2 4.982 1.429 3.179.831 2-3 3.35 1.65 9.08.93 10 5zm51-3c-1.479 7.855-9.429 9.238-18 10 1.896-6.771 8.099-9.234 14-12-.94 6.48-.93 1.81 4 2zm28-1c2.861.806 3.988 3.345 7 4-1.53 1.79-7.4-.54-7-4zm-407.999 8c.346-5.653 7.25-4.75 11-7-2.158 3.85-6.42 5.58-11 7zm-35-5c2.002-2.579 6.241 1.025 8 2-2.25 2.83-5.624-1.64-8-2zm11-1c5.559-.559 9.538.462 10 5-2.97-2.02-9.14-.86-10-5zm11 9c.092-4.241 3.505-5.162 6-7-.691-2.497-2.667 1.855-5 1 .61-3.947 6.875-3.345 10-2-1.725 4.61-6.004 6.67-11 8zm26 0c-.597-6.597 7.232-4.768 9-9 2.73 4.77-5.45 7.19-8.999 9zm297.999-9h4c.79 3.86-4.79 3.86-4 0z"/>
    <path fill="none" d="M274.52 111.2c4.063 15.514-18.273 12.172-12 0 3.453.881.891 7.776 6 7 3.21.877 2.073-2.594 4-3-1.327-4.34-7.841-3.492-11-6 2.61-4.51 9.52 1.04 13 2zm-190.999 5c1.789-4.211 7.295-4.704 10-8 4.887 3.15-8.018 8.53-10 8zm-27-3c-1.384 1.961-6.488-.778-8-2 1.328-4.14 5.658 1.07 8 2zm115.999-4c5.132-.132 8.017 1.983 9 6-2.627 3.455-10.958 2.015-14 0 .529-.805 1.043-1.623 1-3 5.81 1.15 1.98.49 4-3zm31 0c-.086 1.419-.165 2.832 1 3-.85 2.934-2.517-1.301-5 0-.3-2.63 1.38-3.28 4-3zm12 6c-2.121-.804-3.899-4.116-2-6 2.37.56 4.15 3.87 2 6zm-155.999-5c5.086-.086 8.868 1.132 9 6-2.142-2.85-8.258-1.74-9-6zm22 1c.597 6.597-7.232 4.768-9 9-2.604-4.63 5.578-7.06 9-9z"/>
    <path d="M329.52 117.2c-11.247-12.667-31.768 2.492-42-1 7.12.78 33.56-13.09 42 1z"/>
    <path fill="none" d="M382.52 111.2c4.524-.19 5.7 2.967 6 7-2.22-2.1-5.05-3.61-6-7zm-344.999 1c3.726.607 6.549 2.118 9 4-1.3.91-9.823.54-9-4zm68.999 0c-1.967 3.035-6.535 7.671-10 6 2.728-2.6 5.27-5.4 10-6zm400 0c11.128 7.059-3.758 22.315-12 12 2.524-.71 9.703.543 12-3 .11-4.95-.98-4.91 0-9zm-421.999 8c1.302-4.698 6.312-5.688 11-7-1.334 4.67-6.942 5.06-11 7zm137.999-7c3.698 3.121-3.01 4.256-4 6-2.435-1.881 1.959-3.632-3-2 .21-5.69 6.22.37 7-4zm10 0c.282 2.615-.365 4.302-3 4-.529-.805-1.043-1.623-1-3 .89-.77 2.26-1.07 4-1zm-183.999 1c4.433-.1 7.482 1.185 8 5-2.502-1.83-8.23-.43-8-5zm21 7c-3.846-1.82-10.239-1.094-11-6 4.717-1.17 9.95.77 11 6z"/>
    <path d="M306.52 114.2c2.656.011 5.711-.378 7 1-.24 1.45-8.23 2.33-7-1z"/>
    <path fill="none" d="M208.52 118.2c.611 3.944-5.49 1.177-8 2-.309-3.976 1.921-5.412 6-5-.04 1.72.74 2.6 2 3zm238 2c-1.253 2.747-5.409 2.591-9 3v-6c3.164.164 3.342-2.658 7-2-.15 2.49-.19 4.86 2 5zm-374.999 4c.488-5.179 6.355-4.979 9-8 2.499 4.21-5.884 6.09-9 8zm336.999-8c3.164-.164 3.343 2.658 7 2-1.465 2.865-2.649 1.118-7 2v-4zm60 0c2.582 4.085-10.104 9.771-17 11 3.22-6.1 12.67-5.99 17-11zm-430.999 2c2.125-2.701 7.361-.095 9 1 1.955 5.332-.455 9.489-7 9-1.716-1.617-2.484-4.183-2-8 3.973-.973.411 5.589 4 5 1.615.282 1.722-.945 3-1 .48-4.81-3.913-4.75-7-6zm57-1c-.412 5.588-5.555 6.445-11 7 3.39-2.6 5.828-6.17 11-7zm67.999 6c-.367-4.193 3.257-.714 5-1-.658-1.342-2.138-1.862-4-2 .65-1.017 2.299-1.034 2-3 7.024.643 11.103 4.23 15 8-3.75 6.13-13.69.38-18-2zm72-6c-.827 2.507-3.503 3.163-5 5-2.66-2.08 2.83-4.44 5-5zm-185.999 1c3.087 1.246 7.844.823 8 5-3.828-.5-7.76-.9-8-5zm129.999 0c2.09-.424 2.648.686 4 1-.241 1.759-1.721 2.279-4 2v-3zm212 1c-5.665 2.277-7.603 6.749-15 5 8.18-3.28 4.65-3.68 15-5z"/>
    <path fill="none" d="M82.521 121.2c-1.134 3.866-5.681 4.319-8 7 .529.805 1.043 1.623 1 3 6.277.801 1.901-3.849 4-6 6.205 3.488-1.939 11.632-7 7-.803-7.8 3.67-10.32 10-11zm332.999 9c-4.062-2.938-8.868-5.132-15-6 1.182-1.434 5.304-1.895 0-2 6.33-2.64 13.28 2.71 15 8zm-320.999-8c.472 4.806-6.472 2.194-6 7 .162 1.172 1.823.844 3 1 2.652.318-.936-5.602 3-4 .471 5.138-1.862 7.471-7 7-.443-.891-.878-1.788-2-2-.799-6.79 4.656-7.34 9-9zm116.999 0c-1.754 4.975.323.655 3 3-2.004 3.329-7.729 2.938-13 3 1.72-3.61 5.29-5.38 10-6zm-33 9c-2.522 1.805-8.472-1.49-12-2 2.55-4.67 8.78 1.04 12 2zm-128.999-3c3.989.549 3.011.549 7 0 .873 3.206-1.539 3.128-3 4-2.545-.12-3.878-1.45-4-4zm112.999 2h5c.02 2.29-6.07 5.45-5 0z"/>
    <path d="M618.52 1.205c2.762 45.927-.881 90.722 1 134-71.902 2.303-145.47-.925-214 0-136.19 1.837-267.69 4.952-404 3-2.464-44.527-1.539-85.208 0-135 95.208-3.131 198.54-3 298-3h128c66.56.005 137.7-.873 191 1.005zm-416 14c-1.576-.09-.783-2.55-3-2 1.034 3.944-5.401 2.51-2 7 1.5-1.837 4.17-2.493 5-5zm30-4c.61.007 1.184.188 1 1-6.722-2.134-10.845 4.51-18 3 7.286-4.714 17.486-6.514 28-8-16.293-4.623-31.53 7.318-44 13 13.852 3.849 35.484-8.675 50-10 17.159-1.566 30.567 9.088 17 19 8.083-.917 15.969-2.032 14-13-8.2-14.994-39.27-4.898-48-5zm39 20c4.096.096 7.862-.138 8-4-2.83 1.167-6.61 1.387-8 4zm155-20c2.802 1.15 5.198 1.15 8 0 .723-3.056-1.022-3.644-1-6h-7c-.09 3.736-1.12 2.85 0 6zm184 2c4.776.776 5.911-2.089 6-6-1.869-.798-3.662-1.671-6-2-2.18 2.719-1.7 4.876 0 8zm-425-1c3.014 6.768 15.269 3.499 11-5-5.18-1.808-10.76-.821-11 5zm122-1c-3.872.539-4.118-2.549-7-3 .138 3.862 3.904 4.096 8 4 .493-3.14-3.447-2.642-1-5-3.141.505-4.086-2.357-5 1 2.33.334 4.31 1.025 5 3zm135 16c1.496.17 3.69-.357 4 1-4.363-.114-6.183-1.66-8 2 5.491.118 11.514 4.106 17 1-.74-4.116-12.09-9.553-13-4zm10-6c-.577 2.088-3.776-1.442-6-1-.239 1.427-1.646 1.687-2 3 2.641.743 8.276 3.658 11 1-1.875-.239.567-1.646-1-2-2.43 3.066-.62-1.149-2-1zm37-6c-9.998-4.512-28.611-5.936-39-2 19.946 4.171 69.431 6.119 59 29-23.312 11.163-30.582-8.626-43-18-2.14-1.615-6.748-2.557-10-4-5.357-2.378-7.112-5.108-8-1-2.282-1.654 1.441 2.554 4 0 11.794 3.088 16.676 19.518 28 25 10.193 4.935 31.479 3.875 34-5 5.508-19.384-35.856-22.342-49-26 8.6-.589 18.81 2.506 24 2zm44 39c-9.424-2.91-16.334-8.333-29-8 8.43 5.282 18.73 9.314 29 8zm-10-6c-4.268-.179-9.757-7.142-12-3 3.62.376 12.5 5.05 12 3zm-74-39c-.779-.221-1.162-.837-1-2-3.042-1.119-10.404-2.172-12 1 3.236.431 8.649-1.316 9 2-.311 9.356-6.99 12.343-10 19 8.28-3.056 11.15-11.513 14-20zm61 2c2.94 3.382 8.581 1.51 12 0-2.876 4.896 4.05 3.674 8 3 .428 2.762-3.729.938-4 3 2.037 3.414 7.714 2.253 10 3-.314 2.352-4.74.593-4 4 .586 2.081 2.102 3.232 3 5h9c1.69-19.058-20.82-28.644-34-18zm43-2c.695-2.79-4.975-4.231-6-2 2.93-.261 3.07 2.261 6 2zm-427 9c-3.124 2.21-8.079 2.588-9 7 12.521 9.812 35.442 1.311 46-2-25.629 10.038-55.73 15.604-78 29 3.871-.167 9.083-4.2 11-3-5.542 3.458-13.933 4.067-18 9 11.322-2.246 16.913-5.021 22-8-1.273.203-4.898 2.907-5 1 2.214-.871 11.9-4.929 7-1 26.204-8.796 48.579-21.421 75-30-5.327-1.617-8.949 3.66-12 1 2.279.279 3.759-.241 4-2-15.146 3.041-26.914 11.667-44 5 1.827-3.173 6.514-3.486 10-5 1.091-4.474-4.039-7.895-2-10 19.237-1.234 29.331 11.999 48 8-16.83-3.222-45.98-21.77-55 1zm-16 22c1.034-3.097 7.771-4.251 5-8-3.412-.006-8.441 7.667-7 6 2.358-.309 1.86-3.473 5-3 .13 2.221-6.5 2.709-3 5zm52 19c-3.058-8.942-1.614-23.252-5-31-3.78 9.983-1.16 24.974 5 31zm0-31c8.073-1.336 16.329-2.926 19-7-5.94 2.076-18.24 3.081-19 7zm13-19c-.229 3.562 1.438 5.229 5 5 .01-2.656-.378-5.711 1-7-3.14-.479-3.91 1.424-6 2zm136 4c1.457-2.543 6.063-1.937 7-5-1.07-1.124-10.1 2.101-7 5zm231-1c-.776.224-1.973.027-2 1 1.479 1.158 2.521 1.158 4 0-.506-2.495-1.891-4.109-3-6-1.86 1.768.44 2.92 1 5zm11 3c.109-5.776-5.274-6.059-9-8 .03 5.637 5.84 5.497 9 8zm-7 9c1.194 4.73 12.432 5.775 6 12 8.02-2.366 1.67-13.425-6-12zm41 10c-5.801-.119-6.576-1.997-11 1 .767-5.1-6.384-2.283-6-7 4.287 2.167 15.588 6.45 19 3-13.342-1.741-40.014-12.906-20-24-8.52.435-13.935 4.507-14 10-.092 7.723 9.6 7.708 12 14-3.998-.332-5.551 1.783-10 1-.984 3.016-2.376 5.624-6 6-5.349-1.469-6.159-6.415-11-6 1.705 5.962 9.207 6.126 7 16-1.78.553-4.152.514-5 2 5.121 5.224 3.133 11.988 4 22 5.996 1.337 10.146 4.521 16 6 3.1-1.964-3.438-4.998-1-6 4.057 8.276 13.753 10.914 23 14-1.218-3.63 1.999-7.895 0-9-1.984 1.349.314 6.981-3 7-1.818-7.176 5.003-10.964 7-11-2.116 3.117-1.895 7.025-3 13 2.193 1.14 4.086 2.581 8 2 1.179-13.882-.049-29.241-2-48-3.971 2.03-5.552 6.448-8 10 1.975.691 2.666 2.667 3 5-3.208 8.208-11.364 8.058-21 8-4.284-4.229 2.877-9.325 1-11-1.978 1.689-6.241 1.092-9 2 1.329 4.255.655 14.275-2 20-1.429-4.135-1.146-18.41 2-24-6.442.017-4.183-11.191-1-13-1.196 2.803-1.1 6.9-1 11 6.054 1.054 7.688-2.312 12-3 3.416 6.461 15.186-3.028 17-8-3.253-1.65-5.388 1.791-6-2 2.97-.04 8 2.976 9-1zm-10 18c6.536-6.346 19.754-18.726 18-26-7.524 11.142-17.403 19.93-26 30 7.131-2.536 8.912-10.421 15-14-.64 5.024-6.36 4.977-7 10zm-14-35c3.176 4.111 11.058 7.143 14 1-1.728-1.605-6.183-.484-7-3 2.608-1.707 7.839 2.986 12 0 .993-2.775-5.682-2.829-2-5 2.065 1.53 5.86 4.64 9 2 .225-1.891-1.127-2.207-1-4-10.97-3.298-21.54 1.544-25 9zm-548-7c-2.714-4.583-13.923-.754-10 4 .682-5.888 8.254-4.011 10-4zm7-1c-.514 1.56 9.871.762 10 5 1.789 2.46-2.273 6.796 3 7 .017-4.35.331-8.998-1-12-4.496.639-8.54-2.73-12 0zm46 3c.279-2.279-.241-3.759-2-4-.395 1.72 1.484 2.563 0 3 .489-2.032-5.52-4.083-3-2 2.357.309 1.86 3.473 5 3zm293 5c13.734-12.149 34.22 3.674 49-5-22.511 1.521-39.99-9.393-55 3 4.716 3.962 9.472 13.18 14 14-.988-.793-3.811-4.701-2-5 1.703 1.964 2.335 4.998 5 6-.567-6.766-5.826-8.84-9-13-1.002 3.096 5.321 3.884 2 6-.04-3.288-4.27-2.392-4-6zm-291-4c2.506 1.776 6.179-1.964 8-4-2.786 1.214-5.944 2.057-8 4zm252 0c2.503.169 3.131-1.536 4-3-1.956.5-6.381-2.18-4 0 1.71.41-.21 1.29 0 3zm77 6c-5.667-1.615-6.866.994-1 1-26.622 11.711-52.74 23.926-77 38 3.658.658 3.836-2.164 7-2-1.438 1.759-.917 2.279 2 2 32.499-14.834 61.197-33.47 93-49-9 2.337-16.03 6.639-24 10zm-361-5c1.025-2.308 6.695.028 6-4-2.475.259-8.26 2.317-6 4zm13 16c2.622-7.672 3.605-20.993-6-19 4.665 3.669 3.27 13.396 6 19zm8-17c2.798 1.869 4.879 4.454 9 5-1.074-2.927-3.509-8.832-8-7 2.717.616 4.683 1.983 6 4-2.927.514-4.916-4.978-7-2zm250 6c.903-.149 12.828-3.12 10-7-1.52 4.143-8.04 3.297-10 7zm11-9c-4.223 1.111-7.594 3.073-10 6 4.22-1.111 7.59-3.073 10-6zm124 1c-3.371.959-6.831-3.063-9 0 3.17-.076 7.87 4.045 9 0zm-374 8c4.746.413 4.891-3.775 9-4-.868 5.132-8.696 3.304-9 9 3.88-.12 5.053-2.947 7-5 2.091 3.604-4.899 5.396-6 9 4.93-1.07 9.498-2.502 10-8-1.177-.157-2.838.172-3-1 2.873-1.382 1.44-4.618 1-6-1.603 1.73-3.737 2.929-6 4 .169-2.888 7.398-3.858 5-6-1.749 3.585-8.454 2.213-8 8zm22-7c-6.351-.351-8.193 3.807-9 9 4.338-1.329 9.603-1.73 10-7-3.652.682-4.876 3.791-8 5 1.15-3.517 5.671-3.662 7-7zm-10 18c2.316 5.272 13.712 2.799 9-4-2.366-.271-3.154 6.052-6 2 1.185-3.815 6.815-3.185 8-7-2.901-.489-5.752 4.142-7 2 2.305-1.028 3.225-3.442 7-3-1.704-2.432-12.81 2.325-11 10zm165-17c2.436.564 5.144.856 5 4-.619 8.048-7.891 9.442-12 14 2.506-.172 2.428 2.239 4 3 7.238-1.594 9.738-2.547 16-4 9.415-1.728-8.521-.544-12 0 8.45-3.394 9.97-22.022-1-17zm59 1c-2.239-1.094-5.011-1.656-7-3 .09 2.646 5.38 5.193 7 3zm17 5c1.435-4.326 6.839.904 8-1-1.177-3.094-2.511.156-4-2 2.076-.591 3.409-1.924 4-4-2.95-2.174-11.5 2.829-8 7zm291 15c1.396-6.552 3.765-15.451-2-19 .915 6.176 3.759 12.768-3 15-5.354-1.979-10.839-3.828-12-10-.043-5.07 9.548-5.75 8-9-17.23 4.712-6.82 23.873 9 23zm-607-13c6.238 3.69 11.756-4.459 7-9-6.885-1.395-8.746 4.753-7 9zm335-6c-2.793-1.28-8.137 2.159-9 6 2.35.835 9.29-1.005 9-6zm-61-1c2.111.889 2.956 3.044 6 3 .299-1.966-1.351-1.983-2-3 5.06-.636-3.83-1.123-4 0zm145 16c-1.602-6.048 3.01-13.889-1-16-3.041 5.75-3.432 21.558 1 26-1.401-6.383 2.7-4.286 3-7-.551-5.47 1.175-18.48-1-19-.04 5.958-.44 11.565-2 16zm3 12c5.188-4.775 7.359-22.963 2-29-.14 12.36-.52 18.289-2 29zm115-27c3.509 1.158 5.398 3.936 10 4-.71-3.473-8.5-7.625-10-4zm-523 1c-2.996-3.454-.734-.73-1 1-.738 4.809-6.813 19.75-4 23 4.597-5.07 5.382-13.951 5-24zm581 7c1.74-3.26 4.995-5.005 6-9-3.59.774-8.1 5.857-6 9zm-305-1c.148-3.206-1.871-9.385-5-6 1.257.41 2.044 1.29 2 3-2.358-.309-1.86-3.473-5-3 .8 3.863 6.01 3.325 8 6zm118-4c-3.033-1.426-5.326.475-8 2 4.672-.995 10.988-.345 14-3-.776-.224-1.973-.027-2-1 1.177-.157 2.839.172 3-1h-7c-.39 1.427-1.2 1.687 0 3zm-321 5c3.523-1.144 7.135-2.198 9-5-2.555-.773-4.598 3.913-6 1 1.752.209 5.364-4.239 3-2-3.198.801-5.671 2.328-5.999 6zm5 1c-.306-2.306 2.889-1.111 3-3-5.304 1.03-9.053 3.613-8 11 2.092 2.404 12.509 1.031 8-3-.241 1.759-1.721 2.279-4 2-.055-1.278-1.282-1.385-1-3 .797-3.536 5.838-2.828 7-6-3.08-.745-1.92 2.745-4.999 2zm425-3c-.264-3.403-4.504-2.829-6-5-.24 3.906 3.72 3.619 6 5zm-481 2c-2.678-.656-3.802-2.864-6-4 .395 1.72-1.484 2.563 0 3 1.918-2.282 2.185 3.282 6 1zm141 3c.448-2.286 3.527-7.05 1-9-1.1 1.639-3.7 6.876-1 9zm98-6c2.081.586 3.232 2.102 5 3 1.861-4.528-3.595-1.739-4-4 1.177-.157 2.838.172 3-1-1.862.956-3.342-2.995-4 0 1.21.212.62 1.11 0 2zm159-1c1.41-3.192-5.983-2.527-6-1 1.18 1.151 3.54 1.132 6 1zm136 5c3.102-1.231 6.465-2.201 7-6-3.68.656-4.98 3.687-7 6zm-544 4c5.782.885 6.768 6.565 15 5-7.805-4.202-15.395-13.93-25-13 3.78 1.705 14.006 4.853 10 8zm276 1c6.754 2.521 16.757.261 24 0-.166-5.501-1.223-10.11-8-9-2.561 1.772-1.657 7.009-4 9 2.94-11.75-14.79-11.981-12 0zm97-1c6.815.815 9.942-2.058 15-3 1.603-3.936-4.318-.348-4-3h5c-.156-1.177.172-2.838-1-3-6.19 1.316-16.79 2.982-15 9zm148-3c1.422-5.46-6.418-6.864-9-5 2.34 2.325 6.48 2.854 9 5zm-486 2c-.896-2.408-8.656-7.996-11-5 2.879 2.788 8.344 2.99 9 8-1.278.055-1.385 1.282-3 1-3.749-.789-.062-3.498-2-5-9.64 9.287 11.019 11.798 7 1zm124 18c2.526-5.825 3.533-19.151 1-24-1.875 1.1 2.059 7.936-1 10-4.833-1.121 2.624-9.743-3-11 .54 8.337-2.91 20.008 3 25zm105-15h10c1.086-2.867.157-7.6-2-10-7.14-1.146-8.78 3.224-8 10zm-111 14c.113-1.22.299-2.368 2-2-2.523-5.53.826-18.996-1-20-3.33 5.653-6.4 15.806-1 22zm15-11c-.422 3.422 2.995 3.005 4 5-1.89.443-6.027-1.36-5 2 7.127.871 15.125 8.109 22 3-4.123-1.127 4.123-2.873 0-4-4.26 2.801-13.04-5.96-21-6zm-4-12c2.891 13.433 22.388 19.833 37 15-3.933-3.733-15.445.111-19-4 1.772-.228 5.008 1.008 4-2-5.023-2.919-10.898-3.453-15-5-1.763 2.48 5.359 4.603 7 7-7.13-1.205-9.3-7.371-14-11zm105 36c-20.726-8.944-42.702-15.673-64-24-11.339-4.434-22.198-12.639-35-11 13.517 5.983 27.674 10.157 41 16 16.612 7.284 32.271 19.127 52 19-5.529-.804-9.958-2.709-14-5 7.81-.133 13.88 6.773 20 5zm-14-27c1.289 1.378 4.344.99 7 1 .022-4.688.876-10.209-4-10-1.57 2.426-3.73 4.271-3 9zm59-3c1.195-2.138 5.425-1.242 4-6-2.7.034-6.72 3.859-4 6zm171 1c-.582 3.582 2.96 3.041 6 3 .429-1.904 2.154-2.512 2-5-1.726-2.607-3.598-5.069-8-5 .162 4.505 7.309 2.025 7 7-2.22 2.315-3.9-.339-7 0zm69-1c1.967-1.7 4.266-3.068 5-6-2.67.387-7.19 4.065-5 6zm-367-3c3.132-3.444 6.951 4.527 10 1-2.24-1.908-11.37-4.173-10-1zm45-1c-2.635-.301-3.282 1.385-3 4 1.966.299 1.983-1.35 3-2 .012 1.009 1.753 1.258 2 0-1.12-.211-1.56-1.11-2-2zm69 6h10c1.8-8.802-11.97-9.304-10 0zm-54 1h7c.216-3.882-1.06-6.273-4-7h-2c.49 3.156-1.8 3.531-1 7zm126 3c1.257-.41 2.044-1.29 2-3-2.901-2.561-5.752 1.749-7 0 .58-2.753 2.489-4.177 3-7-5.157.844-3.208 4.635-9 6 5.766 1.453 3.02 5.484 8 8 .221-.779.837-1.163 2-1 1.078-2.555-4.305-3.5-1-5 .11 1.22.3 2.368 2 2zm87-1c4.184.301 4.184-9.301 0-9 .01 3.114 2.37 6.517 0 9zm87-5c3.817.817 3.871-2.128 5-4-3.2-.2-4.32 1.676-5 4zm-59 6c-3.414-.586-4.729-3.271-4-8-8.061 1.157 1.668 10.824-3 17 4.938 2.743 14.598 6.051 21 4-4.499-4.196-9.597-11.903-17-10 13.965-5.29 13.97 12.024 26 12 4.976-11.382-12.594-15.54-17-24 1.91 4.2-.88 8.879-6 9zm-416 3c2.954 1.441 6.707-3.588 8-7-3.5-1.992-7.63 2.666-8 7zm1-11c-.304 2.333-2.135 4.309 1 5 .221-.779.837-1.163 2-1 .17-2.503-1.54-3.13-3-4zm402 15c-12.948-4.055-26.826-12.503-39-14 11.48 5.523 25.63 13.701 39 14zm-341-5h7c-.312 1.783-5.289 3.917-2 6 1.402-2.038 3.445.983 6-1-.055 1.278-1.282 1.385-1 3 2.826.826 2.591-1.409 5-1-.619-7.437-1.605-8.748-1-16-6.87.792-13.94 1.397-14 9zm-118-1c2.465.132 4.818.151 6-1-.015-2.651.555-5.888-2-6 .427 4.094-2.113 5.221-4 7zm22-4c-2.957 3.703 4.865 5.081 8 3-.01-1.466.378-8.183-1-5 .394 5.551-4.882 3.805-7 2zm351 6c-4.192.15-2.408-.517-1-2-.776-.224-1.973-.027-2-1 1.571-.095 3.467.134 3-2-3.86-2.01-4.021-.758-1-4-8.765.235-11.666 6.334-17 10 .116 2.551.188 5.145 3 5-1.166-2.324 4.991-13.257 10-12-5.624 1.548-7.801 10.161-7 15 5.38 1.149 9.511.923 12-3-2.443-2.459-4.336.739-8 0-.271-3.937.385-6.948 3-8-1.19 2.973 4.22 4.296 5 2zm-395-5c2.863.197 5.458.125 5-3-3.142-.474-4.086 1.247-5 3zm364-2c1.98 9.02 6.81 15.19 15 18-3.466-6.867-7.443-13.223-13-18-.956 1.862 2.995 3.342 0 4-.14-1.862-.66-3.342-2-4zm110 1c-.482 3.539 6.207 5.049 7 4-.61-.057-1.184-.149-1-1 .775-.224 1.973-.027 2-1-2.717.622-4.684-4.522-6-2 1.332 1.001 3.019 1.648 4 3-3.04.045-3.89-2.111-6-3zm47-1c-4.66 4.119 4.59 11.428 0 0zm-488 27c-14.453-6.88-24.457-18.21-38-26 6.876 9.794 18.833 19.83 28 24-1.901-2.137-8.575-4.707-7-7 5.609 2.403 10.414 10.902 17 9zm99.999-15c.173 7.811 7.471 9.266 12 10-2.707-8.293-5.839-16.161-12-21-.183 9.85 6.228 13.105 9 20-3.69-2.313-4.91-7.09-9-9zm36 3c2.608-2.089 4.468-10.158 2-14-.138 4.153-.658.202-2 0 1.54 5.242-3.88 12.948 0 14zm151-8c1.406.261 1.14 2.193 2 3 4.589.923 4.831-2.502 9-2 2.74-9.228-12.62-9.201-11-1zm87 1c5.392 1.196 12.062 4.448 17 3-1.861-6.806-9.22-8.113-16-10 1.26 5.399 1.83 3.302-1 7zm20 13c5.975-4.359 6.39-14.277 11-20-5.805.861-6.482 5.824-10 4 5.2 3.197-5.19 10.62-1 16zm6-5c1.938-4.728 8.411-4.922 8-12-4 2.017-8.86 8.448-8 12zm-318-9c3.238 1.428 6.818 2.516 11 3-1.2-4.104-7.93-6.38-11-3zm13-5c-2.436.564-5.144.856-5 4 3.26.26 4.81-1.187 5-4zm107 8c4.959.292 7.292-2.041 7-7-6.52-4.274-14.04 3.245-7 7zm23-7c-7.34.077-16.78-2.178-16 7 27-1.674 54.826-.59 76-3-.319-2.319.161-3.839 1-5-21.3.911-39.91.779-61 1zm218 10c-9.132-3.535-18.679-6.654-27-11 5.51 6.497 16.29 13.031 27 11zm-482-5c-3.679 9.59-14.624.099-16-5-1.422 11.326 22.105 22.844 18 5 .792 2.269-1.112 6.694-2 4 1.621.715 1.621-4.715 0-4zm373 3c-3.95.05-5.95 2.05-6 6 3.479 3.4 6.864.169 8-4-3.7.516-2.52 1.704-2-2zm-17-3c2.494 10.173 8.994 16.339 21 17-7.39-5.275-14.67-10.661-21-17zm7 14c-.351 3.601-1.529 4.819 0 8 3.746-.254 6.431-1.57 8-4-3.12-.876-5.28-2.719-8-4zm9 10v-4c-3.85-.788-3.85 4.788 0 4zm0-12c1.891-.224 2.206 1.127 4 1 .839-1.161 1.319-2.681 1-5-3.26-.26-4.81 1.187-5 4zm6-2c2.953.87-2.32 1.497-1 4 3.625 1.542 6.804-5.479 5-3-2.21 3.522-2.5-4.247-4-1zm-9-15c-4.643.358-6.594 3.406-8 7 2.12 6.653 9.843 2.279 10-4-2.555-1.078-3.5 4.305-5 1 1.46-.872 3.87-.794 3-4zm142 43c27.921 1.955 54.229 30.891 79 9 .338-16.337 9.556-49.208-16-51-2.632 4.341.521 3.662-3 6 20.532-5.869 23.912 35.727 10 46 2.555.772 4.598-3.913 6-1-30.217 17.873-63.029-27.417-98-5-1.07 4.858-3.855 12.271 1 15-3.648-8.997 1.363-19.688 10-16-2.114-.242 2.319 14.776-1 19 .029-3.996-2.447-12.497 0-11-.829-3.505-3.986-4.681-7-6-4.772 6.127 1.495 20.931 6 23-4.354-.979-5.816-4.851-10-6 .63 14.415 18.159 31.046 29 32 3.187.28 7.089-2.64 12-3 6.911-.508 14.314 3.08 19 2 4.703-1.084 20.081-14.963 22-19 3.276-6.892-1.079-9.357 2-15-3.675-.325-8.854.854-11-1 .274 5.274-.406 9.594-3 12 .679-3.654 1.396-7.271 1-12-6.736 7.93-10.729 18.604-26 18 6.404.084 2.196.516 0 2 3.078.589 7.078.256 7 4-5.354-5.884-17.851-2.85-23-2 .325-2.342 4.362-.971 5-3-5.475-.914 2.2-.344 2-2-12.958.625-15.537-9.13-20-17 7.665-13.038 28.902 4.508 42-6-12.037 2.006-23.392.888-31-8-6.643 1.024-7.817 7.516-13 10 1.28-5.531 15.34-10.38 9-13.995zm61-30c3.232-.767 5.232-2.767 6-6-4.34-.341-5.25 2.753-6 6zm-102 45c5.017 5.65 12.166 9.168 18 14-1.34-9.316-10.29-11.039-18-13.995zm0-6c2.158 6.471 14.34 12.588 18 11-3.97-5.152-12.3-10.862-18-11zm15 5c.251-8.584-8.7-7.966-14-11 .87 7.467 9.1 7.567 14 11zm59 40.995c-5.164.407-11.177-2.928-17-2-3.633.579-6.014 3.203-9 3-9.52-.647-15.82-10.963-22-14 4.089 4.572 11.642 13.969 21 15 4.082.45 10.216-2.876 16-3 6.165-.132 11.236 2.727 15 2 10.183-1.965 17.081-14.192 20-19-6.05 5.07-12.58 17.1-24 18zm-509-93.995c6.42-1.062 12.87 3.097 18 0-3.682-2.132-15.348-1.883-18 0zm37 9c4.81-.523 8.387-2.28 12-4-2.561-9.723-20.554-7.439-28-5 2.714.619 7.936-1.27 9 1-16.574 4.578-35.239-5.38-47 1 5.603 6.319 12.384 13.63 23 12v-6c-2.201-2.799-9.162-.838-10-5 3.089 1.244 7.109 1.557 11 2 .002 3.998 1.998 6.002 2 10 5.73-.739 3.962-2.21 9 0 1.778-2.888 1.799-7.534 4-10 3.612-.426 8.754-4.528 12-2-4.649 3.351-14.228 1.772-13 11 9.946 3.79 13.32-7.231 21-9-.003 1.003.81 1.19 1 2-2.651.015-5.888-.555-5.999 2zm362-8c.302-2.635-1.385-3.282-4-3-.3 2.635 1.38 3.282 4 3zm12 3c-3.572 2.797 4.354 5.64 1 8-.008-2.993-1.798-4.203-4-5 1.195 5.472 3.168 10.166 8 12 2.17-5.159-1.94-11.83-5-15zm-6 5c-2.94 1.686 3.12 4.494 0 6 .054-1.72-.77-2.563-2-3-1.373 3.753.906 11.484 7 11 1.98-5.21-.73-11.965-5-14zm-6 6c-.395 1.72 1.484 2.563 0 3-7.888-.555-12.152 2.515-18 4-2.232 4.463-4.85 7.796-5 12-.363 10.156 9.499 15.985 12 24 7.739 4.928 17.112 8.221 24 14-7.993 3.007-15.882 6.118-19 14 9.952-1.048 18.216-3.784 21-12-1.193-2.088-3.424 3.164-6 3 1.662-2.005 2.686-4.648 6-5 .097 2.57 3.903 1.43 4 4-1.611-.428-3.355 3.729-1 4 .138-1.862.658-3.342 2-4 8.498 8.551 29.472 12.102 31-5-4.202-8.465-13.006-12.327-21-17 4.387 5.924 26.546 21.612 10 26-15.195 4.029-70.776-31.886-57-55 5.574-2.425 9.263-6.737 18-6 1.484 2.932-1.131 3.714 2 5 2.34-3.065.6-8.734-3-8.995zm-24 38c.375-3.292 5.316-2.017 5-6-3.23-.177-7.37 3.883-5 6zm4 9c4.585.454 11.598-.425 9-4-2.69 1.641-8.16.502-9 4zm7 2.995c1.177.156 2.839-.172 3 1-4.071.929-7.216 2.784-9 6 2.355-.022 2.944 1.723 6 1-1.362 1.273-1.545 4.898 1 5 1.821-1.722 2.999-4.698 0-6 5.239-1.094 10.768-1.899 12-7-6.011.676-3.252-1.573-7-4-2.97.371-4.93 1.738-6 4zm17 2c-5.901 2.766-12.104 5.229-14 12 8.571-.762 16.521-2.145 18-10-4.93-.19-4.94 4.48-4-2zm-8 24c6.896-1.229 19.582-6.915 17-11-4.33 5.01-13.78 4.9-17 11zm1-38.995c4.078.256 4.938 3.728 10 3-1.125 2.582 7.192 4.688 11 10-4.064-.266-3.077-.69-6-3 .022 2.355-1.723 2.944-1 6 6.923-.629 7.833-4.556 13 0 2.645-5.324-5.148-7.933-9-10 6.339-1.035 8.603 6.312 13 4-4.694-2.776 4.772-9.676 0-12-1.923 2.077-1.158 6.842-3 9-7.76-3.242-19.64-7.679-28-6.995zm26-5c-4.008.658-6.183 3.15-6 8 2.833.167 4.167 1.833 7 2 .152-3.181 2.268-4.399 2-8-4.22.784-3.67 3.737-3-2zm-16 5c2.802.532 5.198 1.468 8 2 .155-4.031 7.153-8.971 2-12-1.647 1.686-2.173 4.494-4 6-.855-2.333 3.497-4.309 1-5-3.1 2.23-7.46 3.211-7 9zm-4-10c-.837 2.759-4.623 5.877-2 9 4.882-.145 9.53-5.767 7-10-2.029-.357-3.588 3.045-6 5 .72-.825 3.14-6.468 1-4zm-1 13c-2.551.116-5.146.188-5 3 2.86.197 5.46.124 5-3zm5 3c-2.545.122-3.878 1.455-4 4 1.674 1.326 3.351 2.649 7 2-.043-1.377.471-2.195 1-3-3.76-1.749-3.37 1.043-4-2.995zm7-57c1.435 7.232 3.886 13.447 10 16 3.352-3.076.959-11.502-3-9 .795.111 3.031 3.306 1 3-1.73-4.272-4.32-7.682-8-10zm-330 5c-3.282 5.715-5.562 9.435-8 17 5.24-2.44 7.8-12.852 8-17zm5-4c-2.688 4.328-7.849 11.463-5 18 4.604-4.396 10.205-7.795 10-17-4.065-.398-3.077 4.256-6 5 .23-2.576 5.16-4.806 1-6zm3 18c9.658.717 7.443-9.597 7-14-6.56.44-7.21 6.792-7 14zm97-4v-7c-2.853-1.186-6.064-7.218-9-5 2.249-.398 2.456 4.256 2 5-2.02-2.313-3.323-5.344-7-6-.224.776-.027 1.973-1 2-.239-1.086-1.646-2.401-2-1 5.4 4.267 9.16 10.178 17 12zm-20-11c-1.146 3.146 1.57 2.43 2 4-1.453.547-5.168-1.168-5 1 1.052 5.615 10.026 3.308 14 6-1.25-6.086-5.49-9.179-11-11zm83 2c1.608 3.294-3.479 7.076 1 7 2.062-.272.238-4.428 3-4-.872 3.206 1.539 3.127 3 4-.021-4.351-1.767-5.535 2-7 2.692 1.641 8.165.502 9 4-3.575-.424-5.337-2.664-10-2 5.937 12.024 24.108 2.575 30-3-14.412-5.536-27.473-1.89-42-2-9.555-.072-21.199-3.006-28 5 7.524 2.23 25.851 10.768 31 0-4.856-1.474-8.129 3.804-11 1 4.43-.566 6.76-3.24 12-3zm143 4c-.661-6.354-11.88-7.432-16-7 5.11 2.556 11.3 4.03 16 7zm-424-6c1.261 2.777 5.844 7.438 9 5-5.015.348-4.908-4.426-9-5zm173 3c2.579 3.442 11.975 5.331 15 5-2.283-3.407-9.582-7.055-13-6 1.182.485 2.267 1.066 3 2-2.41.409-2.17-1.826-5-1zm394 7c5.11-.89 8.045-3.955 10-8-4.69-2.314-9.16 3.234-10 8zm-410-8c-2.901.766-5.752 1.582-7 4 6.109.559-5.581 2.913-1 5 1.823-3.843 7.33-4.003 10-7-4.45.802-3.53 1.718-2-2zm-160 3c2.035 4.631 6.897 6.436 12 8v-3c-4.381-.729.806 1.987-2 2-3.783-1.884-4.793-6.541-10-7zm-3 3c2.576 1.09 4.806 2.527 6 5-6.063 2.271-12.601 4.065-17 8 6.854 2.834 12.064-4.587 17-7 4.271.396 4.164 5.169 9 5-1.786-6.227-10.553-10.764-15-11zm-2 3c1.574.52 5.355 3.85 7 1-3.133.2-5.523-5.448-7-1zm13 7c-1.991-.667-4.271-3.449-5 0 2.638-.304 2.579 2.088 3 4-.231 18.061-25.004 37.235-23 56 .616 5.77 5.805 10.635 11 9-16.338-6.542-1.451-29.252 4-38 .003 2.092 5.447 3.759 3 5-.275-.908-3.725-3.358-4-1 5.381 2.619 9.451 6.549 15 9 .728-10.395-10.523-8.811-14-15 3.682-9.667 11.396-17.13 10-28.995zm-7 27c2.333.334 4.309 1.025 5 3-2.532-.273-5.67-4.295-7 0 6.685-.018 7.315 6.018 14 6 .257-6.608-9.54-8.436-9-12 2.738 1.595 4.934 3.732 8 5 .334-6.334-2.95-9.05-8-10-.525 3.143-1.755 5.579-3 8zm351-42c-5.393 6.006-5.674 4.927-8 14 4.28-3.05 5.82-8.85 8-14zm8 5c-3.726-1.059-3.228 2.105-5 3-.434-4.386 3.064-3.285 1-7-5.358.975-5.547 7.12-6 13 3.65.968 10.44-2.638 10-9zm-34 4c4.974-1.693 8.009-5.325 12-8-4.66 2.009-9.63 3.698-12 8zm51 64.995c1.209.211.615 1.109 0 2 8.894-5.262 19.966-13.156 35-9-.32-5.013-1.629-9.038-4-12-.575 1.758 1.209 5.875-1 6 .309-3.643-.159-6.508-1-9-3.941 1.025-6.634 10.68-3 13-25.534-7.674-30.739 25.299-53 14 9.077-28.752 59.381-21.063 56-59-1.78-.553-4.153-.514-5-2 3.865-3.468 6.432-8.234 6-16-1.906 5.452-12.191 15.051-7 18-3.236-.431-8.649 1.316-9-2 1.87-7.797 10.229-9.104 12-17-8.931 3.27-18.119 10.939-15 23 2.182 1.77 6.468-.12 7 1-25.157 8.809-59.423 26.965-55 62 3.904-.096 7.278-.722 8-4-3.558-.845-5.992 2.896-7-1 2.923-37.744 40.574-40.76 62-60 6.837 8.863-8.115 18.453-15 23-17.475 11.54-38.759 14.978-41 36 2.726 3.274 8.314 3.686 13 5 6.2-3.46 10.04-9.29 17-12zm8 2c4.351-.882 5.535.865 7-2-3.657.658-3.836-2.164-7-2v4zm16-23.995c-.88 3.319-7.272 1.12-6 4-3.672-2.299-11.528-.225-14 2 4.64.388 8.777 6.52 14 3-1.496-.17-3.69.357-4-1 2.48.147 4.853.187 5-2-3.249-.084-6.151-.516-8-2 5.152.018 7.856 2.047 11-1-1.188 3.145-3.376 5.291-4 9h4c.72-3.31 4.82-8.456 2-11.995zm-22 6.995c1.179 3.831 2.982 4.429-2 3 1.393 5.178 8.199 4.065 12 2-.92-4.07-6.65-3.35-10-5zm-9 9c-.74 3.406 3.686 1.648 4 4-2.48 1.298-4.853-2.231-5 0 1.086.239 2.401 1.646 1 2-1.427-.239-1.687-1.646-3-2 4.839 6.488 10.479-3.241 14-6-10.68-3.27-3.01 4.74-11 2zm-386-49.995c1.559-5.774 3.731-10.936 6-16-5.954.845-8.902 12.634-6 16zm480-9c-.589-3.078-.256-7.078-4-7-.07 3.738 1.61 5.727 4 7zm108 12c5.142-2.525 11.297-4.037 12-11-4.23-.852-13.46 6.16-12 11zm10-19c-4.319 2.697-12.332 6.98-10 13 3.1-4.366 13.31-5.372 10-13zm-389 12c4.329-1.627-2.38.223-1 0-15.289 2.469-21.685 13.248-35 15-.24-1.427-1.646-1.687-2-3 .039-10.628 6.342-14.992 12-20 2.051 2.144 4.76.521 5-2-10.522-2.48-22.22 12.497-20 28 18.1 2.309 27.34-12.57 41-18zm-56 61.995c8.816-17.234 31.162-26.103 42-38 21.931.763 30.901-9.01 33-24-.144 1.024 1.434.808 1-1-6.19-10.039-23.508-6.196-33-2-3.908.312-4.838-5.661-8-3 3.768 17.184 34.213-6.99 38 12-4.628 11.726-13.516 11.918-27 14-22.144 3.419-48.02 10.407-62 24-4.607 4.479-11.564 11.975-13 17-4.499 15.741 19.998 20.192 22 5-5.928 1.738-9.679 5.654-14 9-5.03-15.706 10.657-33.461 24-40 11.952-5.856 26.888-7.66 37-9-16.199 7.06-42.253 19.607-45 38-.796 5.33 3.687 8.172 1 11 6.02-.09 2.28-7.06 4-13zm2-20.995c-2.092-2.191-3.758-2.06-5 1 2.539 1.827 5.569 3.76 9 2 .443-4.443-.559-7.441-5-7-.08 1.747.22 3.115 1 4.005zm70-15c5.737-.829 7.676-13.569 4-15-.17 1.496.357 3.69-1 4-.17-1.496.357-3.69-1-4-1.15 4.8-6.05 10.874-2 15zm-2-10c-1.444 4.993-4.05 3.816-7 6 1.238 5.568-.233 3.535-2 7 6.829 3.846 19.263 7.394 27 7-3.811-1.727 3.894.077 3-2-9.603-2.397-20.778-3.223-27-9 4.16-.203 7.88-6.069 6-9zm-114-26c-4.688 1.312-9.698 2.302-11 7 4.27-1.733 7.23-4.767 11-7zm4 0c-5.561 3.106-10.962 6.371-14 12 5.28-2.865 15.26-5.87 14-12zm-14 18c4.993-.872 13.419-8.31 10-11-1.65 5.354-9.53 4.472-10 11zm11-8c2.892-.441 4.559-2.108 5-5h-3c-1.12 2.323.22 2.677-2 5zm245-3c-4.854 3.813-13.388 3.946-14 12 6.09-2.298 15.24-5.564 14-12zm-13 20c2.64-4.708 13.807-6.174 11-13-3.89 3.46-13.93 6.047-11 13zm12-27c-5.093 2.411-13.762 6.006-12 12 5.72-2.055 14.11-5.283 12-12zm178 13c-5.215.568-13.008.513-22 0-4.192-1.474-.673-10.661-8-9 .625 9.024.503 19.556 9 23 6.172-3.828 15.766-4.234 26-4-.406-10.217.449-21.552-8-21 2.858 1.18 7.146 6.135 5 9-.747-5.937-8.303-10.341-12-10 3.28 4.05 9.79 4.873 10 12zm-498 23c6.062-6.271 16.747-7.92 21-16-.838 2.162-2.589 3.411-2 7 3.146 1.146 2.43-1.57 4-2-.154 2.487 1.571 3.096 2 5 6.857 1.524 7.71-2.957 13-3-3.389-7.619-2.318-25.005-14-21 .326.07.64 8.583-1 10-2.784.451.784-5.451-2-5-2.569 7.414-26.82 4.474-18-5-2.323-.677-2.677-3.323-5-4-3.156 3.492-4.021 16.525 1 15-.319 2.348-3.095 2.238-4 4 3.614 3.118 5.537-4.506 8-2-3.108.93-8.372 4.911-5 9 .372-6.628 6.564-7.436 11-10-3.463.729-9.151-1.426-7-3 2.149 3.341 12.256 1.242 14 2-5.345 5.321-18.188 3.145-17 15-.095-1.571.134-3.467-2-3-.024 5.703.771 6.044 0 11 5.876-1.457 8.244-6.423 13-9-5.167-.167-4.62 5.38-10 5zm232-28c-1.925-4.095-9.992-7.314-14-6 5.18 1.492 8.74 4.598 14 6zm236 0c-1.965-4.368-7.055-5.612-12-7 .45 5.243 9.17 7.472 12 7zm-258 2c-.96-3.04.144-8.144-4-8 .366 2.648-3.829 8.847 2 8 .856-2.333-3.497-4.309-1-5 2.03.638.66 4.675 3 5zm32 4c-.705-.41-3.637-8.582-9-6-.942 8.476 3.331 15.615 4 24 1.661 20.817-10.57 47.621 12 50 7.876.83 13.869-6.869 23-7 7.602-.108 14.986 7.662 23 6 5.627-1.167 6.476-6.986 11-11-2.244-19.149-.403-41.58-1-64-3.073.26-4.497 2.169-7 3 1.424 9.258-18.479 9.758-22 2 1.651-4.016 7.087-4.247 10-7-4.491.491-7.493-.507-11-1v23c11.026.112 4.414 13.136-2 13 1.496.17 3.69-.357 4 1-1.453.547-5.169-1.169-5 1 17.953-4.701 27.588 15.502 14 22-8.938-4.121-23.895-3.359-34-1-4.395-3.017-5.977-9.036-5-13 2.334-9.471 16.291-4.459 21-11-14.951 1.887-10.489-13.117-4-14-.154-7.179.596-15.262-1-21-3.367.633-9.289-1.289-11 1 4.383.951 8.761 1.906 11 5-3.8 9.827-13.8 9.187-21 5.005zm66 46.995c1.782-6.218 11.549-4.451 12-12-5.25 2.099-14.57 5.41-12 12zm13-16.995c-4.657-.426-11.964 4.532-14 10 5.67-2.33 10.93-5.069 14-9.995zm0-6c-6.501 2.499-13.346 4.654-15 12 5.48-3.521 11.99-6.014 15-12zm-56-34c1.375 9.122 1.702 22.939 0 32 6.421 3.447 10.006-1.97 15-3 .261-2.928-2.261-3.072-2-6-3.72-1.053-1.961 3.372-4 4-.8-7.997-2.216-20.275 0-28-3.13.204-7.34-.674-9 1zm-219 26c-2.27 2.488 9.766 7.407 14 10 6.64-14.086-1.617-24.914 3-36-4.589-.923-4.832 2.502-9 2-.489 3.156 1.802 3.531 1 7-6.005 3.767-14.112 3.002-20 0 1.215 11.452 9.5 15.833 18 20-1.574-1.759-5.355-1.311-6.999-3zm77.999-17c-.169-2.503 1.536-3.13 3-4 .239-2.772-1.99-5.886-1-4 .82 2.517-4.09 5.228-2 8zm94-1c2.416 5.251 10.099 5.234 15 8-.29-6.89-10.18-8.908-15-8zm0 5c1.144 6.856 11.317 4.683 15 9-1.23-6.767-7.25-8.753-15-9zm14-3c-.735-7.265-8.35-7.65-14-10-1.37 9.37 9.66 6.338 14 10zm-32-6c-.054 1.72.77 2.563 2 3-.117-1.023 4.314-2.023 1-3-2.056 2.95-1.93-4.657-6-3-1.55 3.555 3.4.604 3 3zm-82 3c-.334-2.333-1.025-4.309-3-5 .03 2.641-.93 6.266 3 5zm350 3c-1.884-5.116-7.307-6.693-13-8 1.94 4.417 9.48 8.498 13 8zm-114-3c2.635.301 3.282-1.385 3-4-1.496.17-3.69-.357-4 1 2.26.56-1.21 1.56 1 3zm-281 6c.492-1.377 5.514-5.928 3-4-3.664 3.67-10.299 4.367-11 11 5.664-3.283 18.389-9.227 15-15-1.38 3.615-2.75 7.253-7 8zm91 12c11.344-1.322 16.046-9.287 19-19-1.182-.144-2.267-1.781-3 0 .5 8.179-11.09 12.9-16 19zm253-12c4.956.77 11.729-4.395 14 0-6.426.241-13.717-.384-15 5 1.753.276 4.989-2.816 6 0-3.537-.537-5.152.848-6 3 2.078.56 2.119 1.56 1 3 13.064 1.207 19.661-1.001 31-3 .433-7.935-8.877-3.721-12-6 3.601-2.36 9.863-.277 13 1-1.97-11.571-27.51-7.31-32-3zm31-4c-3.848-5.895-18.63-4.703-23 0 6.77-2.163 19.1-.219 23 0zm20 8c-1.647-6.686-7.758-8.909-14-11 1.27 7.066 9.08 7.584 14 11zm-483-1c-1.472-3.702-2.138-1.725 1-4-2.123-1.544-4.456-2.877-7-4 2.839 4.042 2.877 5.17 6 8zm211-7c.826 2.826-1.409 2.591-1 5 5.929-1.405 12.922-1.744 17-5-5.64-.411-10.77-1.852-16 0zm369-1c-3.557 4.11-10.504 4.829-11 12 1.503 2.812 4.211-2.539 5 0-2.711 1.956-5.454 3.879-6 8 3.917-1.771 12.028-4.608 11-8-.012 1.009-1.753 1.258-2 0 1.329-1.004 3.721-.946 4-3-2.555-.773-4.598 3.913-6 1 3.396-1.271 5.729-3.604 7-7-2.555-1.078-3.5 4.305-5 1 1.26-.519 6.07-2.438 3-4zm-11 26c4.771-1.581 9.713-8.262 10-11-2.94 3.413-12.49 5.486-10 11zm-463-22c1.78.485-.434 1.066-1 2 13.145-1.058 19.521.933 31-1-6.35-4.673-22.76-5.596-30-1zm238 0c-.776.224-1.973.027-2 1 4.239.529 11.843-.766 13 0-5.192 1.807-13.12.88-15 6 2.995.658-.956 2.138 0 4 9.924-1.076 21.526-.474 29-4-2.071-.595-6.569 1.236-7-1 3.467-.733 9.485 1.092 10 0-2.49-1.843-6.255-2.412-9-4 4.958-1.292 4.913 2.42 9 2-1.163-8.927-26.829-3.716-29-5 .61.057 1.18.149 1 1zm-264 15c6.05-4.616 14.606-6.728 17-15-4.68 2.126-15.38 6.517-17 15zm118-11c2.356.022 2.944-1.723 6-1 .521-1.479 1.479-2.521 2-4-7.46-.026-4.49 3.878-8 5zm270-3c3.636 4.031 9.539 5.794 15 8-2.55-4.205-12.12-10.625-15-8zm-476 5c2.101 1.232 3.899 2.768 6 4-.409-2.409 1.826-2.174 1-5-3.8-.2-3.795-4.205-8-4-.398 4.065 4.256 3.077 5 6-1.767.223-5.911-3.692-4-1zm232 11c6.801-2.969 2.111-12.039-1-16-1.14 3.23.36 11.335 1 16zm-8-8c-.575-1.758 1.208-5.875-1-6-2.781 3.839-2.194 10.934 0 15 5.851-1.482 4.652-10.015 6-16-2.729-.09-2.013 1.666-4 0-.59 2.072 1.24 6.569-1 7zm-211-2c1.987.013 1.271 2.729 4 2 .049-3.049-.909-5.091-3-6 .224 1.891-1.127 2.206-1 4zm97.999 8c10.448-3.552 19.473-8.527 30-12-12.15 1.85-23.02 4.982-30 12zm20-12c-6.4-.067-13.449-.782-16 3 4.76 2.084 12.7-.38 16-3zm212 7c-4.539 2.81-14.814 5.166-12 12 3.22-4.783 11.98-4.019 12-12zm-14 17c3.271-.276 15.242-5.26 13-11-3.81 4.191-11.35 4.647-13 11zm15-23c-5.957 3.043-11.626 6.374-15 12 6.28-2.717 12.12-5.882 15-12zm131 5c.124 8.209 10.968 5.699 14 11 .37-8.7-8.76-7.906-14-11zm15 6c.27-8.603-9.61-7.056-14-11 .72 7.618 10.16 6.513 14 11zm-363-4c6.347.014 12.686.02 16-3-5.304-.105-1.182-.566 0-2-5.76-1.391-11.65 2.062-16 5zm-39 11c6.748-4.585 15.189-7.478 18-16-6.98 4.83-13.7 7.277-18 16zm154-12c6.709.291 9.919 4.081 15 6-1.782-6.552-8.231-8.436-15-10v4zm-244 6c4.337 1.617-1.1 1.243 0 5 5.241.744 4.394-9.146 0-5zm5 0c.429-1.904 2.154-2.513 2-5-2.111-.889-2.956-3.044-6-3-.74 3.406 3.685 1.648 4 4-2.483 1.301-4.15-2.934-5 0 2.323.677 2.676 3.323 5 4zm8-3c3.15-.483 2.264 3.069 6 2-.428-3.572-2.512-5.488-5-7 .409 2.409-1.827 2.174-1 5zm364-2c-1.278-.055-1.385-1.281-3-1 .109 2.487 1.874 3.096 0 5 2.224-.776 5.423-.577 6-3-2.396.396.555-4.555-3-3v2zm-261 6c4.963 1.979-.893.352-1 3 12.699.326 27.561-1.257 29-9-8.72 2.906-19.298-.367-25 4 2.072.595 6.569-1.236 7 1-2.18 3.718-8.2-2.336-10 1zm167 0c1.778 1.867 2.542-.812 6 0 1.121-3.149.09-2.264 0-6-4.38-.375-4.81 3.192-6 6zm89-6c-4.076.827-3.443.153-8 0-1.1 6.19 10.37 9.093 8 0zm-114 10c.682-4.599-6.56-9.258-14-9 .64 7.024 9.58 5.759 14 9zm101 0c3.871-1.408 1.939-7.077 3-9-5.918.54-2.857 1.879-8 0 .24 4.431 1.07 8.262 5 9zm101-3c2.453-.88 5.767-.9 6-4-1.232-1.434-3.438-1.895-6-2 .81 3.458-1.87 4.222 0 6zm-352-5c-6.588 2.438-9.594 9.375-15 12-1.393.676-3.907-2.117-3 2 5.64-1.168 15.58-6.315 18-14zm-18 20c5.519-.613 18.738-7.16 17-15-4.631 3.381-10.774 10.542-14 12 1.086-.239 2.401-1.646 1-2-.18 2.82-4.75 1.247-4 5zm1 6.995c5.531-.686 19.1-6.684 17-15-6.42 4.255-14.85 6.491-17 15zm262-13.995c-.642-4.024 1.3-10.634-1-13-1.74 3.84-.83 9.834 1 13zm116-5c-.374-2.786 3.809-6.085 1-8-2.58 1.817-3.71 5.691-1 8zm-412-5c.592 3.265 7.163 4.106 10 2-.131-4.212-8.439-5.059-10-2zm474 5h9c-2.42-3.932-10.755-7.22-15-6 4.1-.097 4.54 3.458 6 6zm-497-2c2.091.576 2.854 2.479 6 2 1.271-3.366-5.072-4.134-6-2zm-3 1c-.168 3.093 3.519 4.497 5 3 .457-3.124-2.137-3.197-5-3zm-4 4c1.307 1.406 5.293 3.595 6 0-.694-.783-5.58-2.226-6 0zm23-8c-3.944.201-9.011-2.054-11 2 3.084 2.232 10.634 3.617 11-2zm85.999 3c-.208 4.541 2.273 6.394 7 6 1.958-2.252.838-7.489-1-9-1.18 3.22-1.65 5.279-6 3zm123 7c-2.286-6.048-9.695-6.972-16-9 1.77 6.566 12.06 4.602 16 9zm-193-5c2.245 2.126 6.589.713 7-2-2.245-2.126-6.589-.713-7 2zm371-2c-.224.776-.027 1.973-1 2 .502-3.885-8.082-3.852-10-2 3.24.124 14.46 5.475 11 0zm-217 1c-.976 4.027 5.976 4.027 5 0-2.49-.109-3.1-1.874-5 0zm-149 4c3.024 1.429 5.771.831 6-3-2.577-2.458-4.807 1.07-6 3zm53.999-3c.859 3.808 3.919 5.414 8 6 1.007-2.658 1.043-5.092-1-7-1.1 5.453-3.43.099-7 1zm108 0c-1.891.225-2.207-1.127-4-1-1.4 4.45 4.59 5.416 4 1zm157 3c-1.882-.53-4.629-5.265-6-3-.55.951 4.3 7.619 6 3zm-318 2c-9.705-5.826-37.361-7.146-41 5 7.053-10.222 31.407-6.147 41-5zm48.999-1c.224-.776.027-1.973 1-2-.441 5.08-2.108 1.171-5 1-.674 5.008 2.67 5.997 5 8 .281-3.386 1.591-5.742 1-10-2.06-.877-4.49 2.594-2 3zm123 2c2.078 5.922 10.522 5.479 15 9-1.97-6.022-8.96-7.036-15-8.995zm0 5v3c3.73 2.603 9.803 2.864 14 5-1.76-5.096-9.92-8.476-14-7.995zm15-1c-1.656-6.344-8.209-7.791-15-9 .87 7.131 10.36 5.645 15 9zm119-8c-2.298 2.592 2.034 4.616 3 7 2.338-.329 4.132-1.202 6-2-1.435-2.899-3.709-4.958-7-6-.877 3.21 2.594 2.073 3 4-3.14.473-2.64-2.691-5-3zm-290 7c-2.389-.876-7.973 2.323-8 7 3.64-1.358 8.23-1.767 8-6.995zM98.515 110.2c2.123-2.244 9.396-4.559 7-8-1.813 1.244-6.187 5.069-8 3 2.197-1.842 10.409-2.873 7-7-2.288 3.045-7.455 3.212-8 8 2.716-.71-.715 4.72 2.001 4zm6.999-4c-1.768 4.232-9.597 2.403-9 9 3.55-1.81 11.73-4.23 9-9zm-8.999 12c3.465 1.671 8.033-2.965 10-6-4.73.6-7.272 3.4-9.999 6zm9.999-2c-4.429 1.571-8.682 3.318-10 8 1.286 1.714 2.068 3.933 5 4 3.229-1.104 5.485-3.182 5-8-.76 2.325-8.209 8.62-6 2 1.23 2.88 3.66-2.43 6-6zm-5-25.995c-5.116 1.965-2.361-.312-5-3-2.932.067-3.714 2.286-5 4 5.788.543 3.91.416 5 5 3.221-.446 5.81-1.526 5-6zm32 7c-.532-3.801-1.503-7.164-3-10-.08 4.408.07 8.596 3 10zm74-2c.803 2.537 13.521-4.942 12-8-3.48 3.182-6.49 6.846-12 8zm320-2c4.353 16.919 18.567 16.487 38 15 4.338-4.662 10.052-7.948 11-16-2.905 10.583-17.039 17.274-36 15-4.359-4.308-9.662-7.672-11-15 11.609-1.072 26.677 5.627 37-1-15.65 6.353-31.22-7.3-39 2.005zm67 6.995c6.121-1.562 17.826-7.023 14-12-3.8 4.866-13.72 3.616-14 12zm-556-6.995c3.109.891 4.659 3.341 8 4 .137-4.137-2.273-5.727-4-8-.905 1.762-3.682 1.652-4 4zm173 8.995c7.907-.241 14.624-6.509 14-12-3.265-.265-2.12 3.88-5 4 .586-2.081 2.102-3.232 3-5-5.317 1.683-7.801 6.199-12 9 .003-.556-.81-1.135-1 0 2.8.987-1.45 2.67 1 4zm5 5c7.22.22 10.501-3.499 13-8-1.588 4.745-4.66 8.007-5 14 9.369-2.298 13.981-9.353 17-18-5.009-1.009-3.519 4.48-7 5 .889-2.111 3.044-2.955 3-6-3.044-.044-3.889 2.111-6 3 .558-2.039 3.009-1.961 1-4-3.15 1.121-2.264.09-6 0-1.72 6.283-8.99 7.02-10 14zm25-2c1.799-1.584 6.108-5.826 4-8-1.067.933-.311 3.688-3 3-.146-1.329 3.363-3.721 1-4-2.42 5.246-6.855 8.478-9 14 .314 1.353 1.423 1.91 1 4 6.488-3.188 12.957-11.697 13-18-1.73 2.971-4.15 10.48-7 9zm52 4c9.177-2.649 25.945-3.251 35 0 21.59-24.012-53.46-26.65-35 0zm95-16.995c2.688-.688 1.933 2.067 3 3-2.442-.558-2.131-3.869-6-3 1.46 16.335 19.15-5.48 3 0zm-8 3c-.075 1.742.224 3.11 1 4-2.039-.558-1.961-3.009-4-1 .366 2.967 1.733 4.934 4 6 1.457-2.543 6.063-1.937 7-5-2.71-1.286-3.55-4.44-8-3.995zm43 0c3.493-2.859 8.621 2.22 11 0-2.77-.71-9.24-4.445-11 0zm11-1c.557-3.83-7.055-5.766-8-2 3.66-.331 5.56 1.11 8 2zm-380 8.995c-2.126-1.541-3.724-3.609-6-5 2.71 13.578 10.692 3.701 22 4 7.963.21 12.807 5.611 18 4 4.54-1.409 10.041-10.084 3-12 4.345 18.49-24.968-.358-37 9zm86.999-7.995c2.323.677 2.677 3.323 5 4 1.98-4.893-2.6-6.468-5-4zm24 0c2.963.704 4.354 2.979 9 2-1.14-2.339-8.66-5.03-9-2zm247 1c.845.938 6.375 2.136 7 0-2.16-.643-6.22-3.745-7 0zm181 11.995c6.605 1.445 15.959-6.111 16-11-1.384 1.999-5.406 6.527-8 4 3.027-1.011 9.188-4.095 7-7-4.14 5.532-13.11 6.22-15 14zm-556-7c-1.438 7.105 6.54 4.793 8 9-3.277-.056-3.823-2.844-8-2 .482 4.519 6.598 3.402 9 6-2.086-3.042 1.525-5.981-1-9-2.685-1.31-5.316-2.68-8-4zm9 4c.617-6.617-3.387-8.613-8-10-3.49 6.47 5.876 6.1 8 10zm-29-4c5.12 3.88 10.76 7.239 17 10 .601-10.601-8.671-11.329-15-15-1.128 4.795 3.813 3.52 5 6-2.562.47-5.669-3.532-7-1zm186 2c.253-3.731-4.942-8.743-7-4 10.64 13.329 18.932 38.654 46 29 2.502-3.042-1.949-6.821 2-8-1.252 3.22-1.005.237 1 1 4.254 1.618 11.598 7.587 16 11-3.122-8.545-9.369-13.965-21-14 .132 2.465.151 4.818-1 6-17.294 5.098-29.627-7.177-30-19-.224.776-.027 1.973-1 2-1.339-3.688-3.73-11.566-7-10 1 1.096 4.3 4.91 2 6zm-4 9c2.483-1.301 4.15 2.934 5 0-1.165-.168-1.086-1.581-1-3-2.62-.28-4.3.37-4 3zm7 3c-4.079-.412-6.309 1.024-6 5 2.51-.823 8.611 1.944 8-2-1.26-.4-2.04-1.28-2-3zm-5 13c5.271-.062 10.996.329 13-3-2.677-2.345-4.754 1.975-3-3-4.71.62-8.28 2.39-10 6zm1 6c3.362-1.129 13.229-2.474 9-5 2.787 1.191 6.085 1.145 8-1-6.89-2.03-13.44 1.73-17 6zm-95-26c-.597 7.931 1.152 13.515 6 16 11.176 2.353 17.359-19.005 5-17-2.716 3.01 2.188 4.462 1 9-3.322 2.345-10.248 1.379-8-5 3.605-4.543 14.842-6.29 13-13-6.96 2.04-11.21 6.79-17 10zm79 25c.175-2.908-3.513-7.064-1-9 2.184 1.816.203 7.797 3 9-3.864-11.428 2.906-23.785 1-33-2.89 9.89-10.57 23.01-3 33zm5 0c.619-2.714-1.27-7.937 1-9 .898 2.768-2.054 9.388 2 9 .656-6.677-1.32-15.986 1-21 .882 9.335-1.565 15.923 2 22-.208-11.459-1.616-21.717-1-34h-4c-.83 9.59-4.96 25.13-1 33zm249-32c-.186-1.48-2.416-.917-4-1-2.13 3.68 5.09 4.52 4 1zm-180 1c.945 6.055 9.889 4.111 14 7-.46-6.09-10.38-7.32-14-7zm-109 4c2.103.658 4.446 2.646 6 1-.112-2.555-1.833-3.5-3-5-.29 2.04-2.7 1.97-3 4zm23 1c3.974.941 9.55 2.001 11-2-3.529-.294 3.529-2.706 0-3-3.07 3.15-8.52-1.58-11 5zm174 7c1.782 5.145 10.465 6.672 14 2 .271-4.271.51-8.51-4-8-.868 2.115 1.447 8.168-5 7-.055-1.278-1.282-1.385-1-3-.137-4.834 9.961-4.665 7-9-4.1 3.24-10.16 4.51-11 11zm127-11c-3.008-1.008-1.772 2.228-2 4 1.377.043 2.196-.471 3-1-.075 1.401.223 3.824 1 2-.138-1.862-.658-3.342-2-4 .003.556-.81 1.135-1 0 .61-.05 1.18-.14 1-1zm128 20c4.141.44 7.391-7.131 3-9 .049 3.049-.908 5.092-3 6-2.863.197-5.458.124-5-3 1.951-4.716 9.892-3.441 11-9-3.9.138-7.145 6.138-10 4 3.011-2.989 8.539-3.461 10-8-1.691 2.823-16.675 5.503-18 12-2.376 11.649 18.709 14.077 17 5-.24 1.55-3.72 4.8-5 2zm-583 1c23.734 8.68 9.175-22.2-3-19 2.304 2.029 5.079 3.588 7 6-2.544-1.123-4.877-2.456-7-4 1.262 7.405 11.641 5.692 12 14-2.984 1.194-3.4.275-6-1-1.345 2.822 5.299 2.507 2 4-6.167.859-3.766-10.544-5-9-1.971 2.09-.765 6.65 0 9zm478-16c-3.012-.655-4.139-3.194-7-4-.4 3.46 5.47 5.79 7 4zm-405 0c-2.705 3.296-8.211 3.789-10 8 1.982.53 14.887-4.85 10-8zm2 5c-4.688 1.312-9.698 2.302-11 7 4.058-1.94 9.666-2.33 11-7zm-12 11c5.445-.555 10.588-1.412 11-7-5.172.83-7.61 4.4-11 7zm2 7c1.122.212 1.557 1.109 2 2 5.138.471 7.471-1.862 7-7-3.936-1.602-.348 4.318-3 4-1.177-.156-2.838.172-3-1-.472-4.806 6.472-2.194 6-7-4.344 1.66-9.799 2.21-9 9zm9-26c-3.75 2.25-10.654 1.347-11 7 4.58-1.42 8.842-3.15 11-7zm-38 4c-1.759-.975-5.998-4.579-8-2 2.376.36 5.75 4.83 8 2zm13 2c-.462-4.538-4.441-5.559-10-5 .86 4.14 7.03 2.98 10 5zm12-4c-3.125-1.345-9.39-1.947-10 2 2.333.855 4.309-3.497 5-1-2.495 1.838-5.908 2.759-6 7 4.996-1.33 9.275-3.39 11-8zm-9 13c1.768-4.232 9.597-2.403 9-9-3.422 1.94-11.604 4.37-9 9zm326-14h-4c-.79 3.86 4.79 3.86 4 0zm-244 4v2c1.003-.003 1.19.81 2 1 .157-1.177-.172-2.839 1-3 .294 2.333 2.706 2.333 3 0-1.891.225-2.207-1.127-4-1-.22.78-.84 1.17-2 1zm107-1c3.159 2.508 9.673 1.66 11 6-1.927.406-.79 3.877-4 3-5.109.776-2.547-6.119-6-7-6.273 12.172 16.063 15.514 12 0-3.48-.96-10.39-6.51-13-2zm-45 1c1.003.003 1.19-.81 2-1v4h4c1.7-5.58-8.27-5.21-6-3zm-3-1c-1.899 1.884-.121 5.196 2 6 2.15-2.13.37-5.44-2-6zm2 8c4.959-1.632.565.119 3 2 .99-1.744 7.698-2.879 4-6-.78 4.37-6.79-1.69-7 4zm14 1c-3.541-.541-2.459 3.541-6 3 .492-1.378 5.514-5.929 3-4-2.51 3.034-5.508-.636-7 3 3.4 4.18 7.56 2.03 10-2zm0 4c1.497-1.837 4.173-2.493 5-5-2.17.56-7.66 2.92-5 5zm-181-11c1.512 1.222 6.616 3.961 8 2-2.342-.93-6.672-6.14-8-2zm120 1c.043 1.377-.471 2.195-1 3 3.042 2.015 11.373 3.455 14 0-.983-4.017-3.868-6.132-9-6-2.02 3.49 1.81 4.15-4 3zm-99.999 4c-.132-4.868-3.914-6.086-9-6 .742 4.26 6.858 3.15 9 6zm78.999-6c-.521 1.479-1.479 2.521-2 4 2.223.777 3.899 2.101 7 2-.827-3.049-.118-5.092-1-6-.66 3-2.14-.95-4 0zm281 20c-.839-.638-3.131-4.675-1-5 1.75 1.917 1.176 6.157 5 6-.133-3.565-5.148-11.683 0-14 .697 4.969-.254 11.588 3 14 1.287-5.38.101-13.232 2-18 .113 1.22.299 2.367 2 2 .314-1.353 1.424-1.91 1-4-11.387 1.403-17.943-.35-28 4 1.858 1.947 4.04.687 5-1-1.349 8.696 1.359 18.621 8 16-2.664-2.363-3.864-11.433-3-14 1.3 4.72 2.33 14.98 6 14zm68-19c-.057.61-.149 1.184-1 1-.224-.776-.027-1.973-1-2-.997 1.336-2.703 1.964-3 4 2.729.729 2.013-1.987 4-2-.53 2.9 3.9-1.53 1-1zm-108 7c-.3-4.033-1.476-7.19-6-7 .95 3.39 3.78 4.9 6 7zm-342-2c-2.451-1.882-5.274-3.393-9-4-.823 4.54 7.7 4.91 9 4zm460 5c-2.297 3.543-9.476 2.29-12 3 8.242 10.315 23.128-4.941 12-12-.98 4.09.11 4.05 0 9zm-278-7c-.043 1.377.471 2.195 1 3 2.635.302 3.282-1.385 3-4-1.74-.07-3.11.23-4 1zm-172 5c-.518-3.815-3.567-5.1-8-5-.23 4.57 5.498 3.17 8 5zm2-4c.761 4.906 7.154 4.18 11 6-1.05-5.23-6.283-7.17-11-6zm379 10c2.191.382 9.803 4.067 8 2-1.182-.485-2.268-1.066-3-2 2.48-1.298 4.853 2.231 5 0-3.092-.097 3.092-3.903 0-4-1.64 3.03-7.74 1.6-10 4zm7-10c-3.658-.658-3.836 2.164-7 2v6c3.591-.409 7.747-.253 9-3-2.19-.14-2.15-2.51-2-5zm-372 17c5.061 4.632 13.205-3.512 7-7-2.099 2.151 2.277 6.801-4 6 .043-1.377-.471-2.195-1-3 2.319-2.681 6.866-3.134 8-7-6.33.68-10.803 3.2-10 11zm8-16c-2.645 3.021-8.512 2.821-9 8 3.116-1.91 11.499-3.79 9-8zm-36 8c-1.278.055-1.385 1.282-3 1-3.589.589-.027-5.973-4-5-.484 3.817.284 6.383 2 8 6.545.489 8.955-3.668 7-9-1.639-1.095-6.875-3.701-9-1 3.087 1.25 7.48 1.19 7 6zm136 1c-3.897-3.77-7.976-7.357-15-8 .299 1.966-1.35 1.983-2 3 1.862.138 3.342.658 4 2-1.743.286-5.367-3.193-5 1 4.31 2.38 14.25 8.13 18 2zm-14 4c3.528.51 9.478 3.805 12 2-3.22-.96-9.45-6.67-12-2zm-110-6c-.156-4.177-4.913-3.754-8-5 .24 4.1 4.172 4.5 8 5zm122-2c2.279.279 3.759-.241 4-2-1.352-.314-1.91-1.424-4-1v3zm197 3c7.397 1.749 9.335-2.723 15-5-10.35 1.32-6.82 1.72-15 5zm-312 8c.598-1.78-2.931-4.153 0-5 2.674-.296-2.658 3.88 2 3 2.498-1.292-1.058-4.848-4-4-.239 1.427-1.647 1.687-2 3 1.813 2.187 3.362 4.638 8 4 4.966-6.024-.169-13.742-8-13 .416 5.32 16.415 8.72 4 12zm249-7c-11.132.694-22.083 15.256-30 3-5.069-3.828-.238 2.205 1 3 12.627 8.105 19.102-5.4 32-5 6.582.204 12.705 7.048 17 7 7.854-.088 14.316-9.583 15-13-4.66 18.98-22.38 4.22-35 5zm88-3c5.304.105 1.182.566 0 2 6.132.868 10.938 3.062 15 6-1.72-5.29-8.67-10.64-15-8zm-347 10c1.461-.872 3.873-.794 3-4-3.989.549-3.011.549-7 0 .122 2.55 1.455 3.88 4 4zm114-2h-5c-1.07 5.45 5.02 2.29 5 0z"/>
    <path fill="none" d="M280.52 16.205c1.969 10.968-5.917 12.083-14 13 13.567-9.912.159-20.566-17-19-14.516 1.325-36.148 13.849-50 10 12.47-5.682 27.707-17.623 44-13-10.514 1.486-20.714 3.286-28 8 7.155 1.51 11.278-5.134 18-3 .184-.812-.39-.993-1-1 8.73.102 39.8-9.994 48 5zm22-8c.914-3.357 1.859-.495 5-1-2.447 2.358 1.493 1.86 1 5-4.096.096-7.862-.138-8-4 2.882.451 3.128 3.539 7 3-.69-1.975-2.67-2.666-5-3zm152 14c1.567.354-.875 1.761 1 2-2.724 2.658-8.359-.257-11-1 .354-1.313 1.761-1.573 2-3 2.224-.442 5.423 3.088 6 1 1.38-.149-.43 4.066 2 1z"/>
    <path fill="none" d="M465.52 13.205c13.144 3.658 54.508 6.616 49 26-2.521 8.875-23.807 9.935-34 5-11.324-5.482-16.206-21.912-28-25-2.559 2.554-6.282-1.654-4 0 .888-4.108 2.643-1.378 8 1 3.252 1.443 7.86 2.385 10 4 12.418 9.374 19.688 29.163 43 18 10.431-22.881-39.054-24.829-59-29 10.389-3.936 29.002-2.512 39 2-5.19.506-15.4-2.589-24-2z"/>
    <path fill="none" d="M511.52 45.205c2.243-4.142 7.732 2.821 12 3 .5 2.05-8.38-2.624-12-3zm-330-28c-18.669 3.999-28.763-9.234-48-8-2.039 2.105 3.091 5.526 2 10-3.486 1.514-8.173 1.827-10 5 17.086 6.667 28.854-1.959 44-5-.241 1.759-1.721 2.279-4 2 3.051 2.66 6.673-2.617 12-1-26.421 8.579-48.796 21.204-75 30 4.9-3.929-4.786.129-7 1 .102 1.907 3.727-.797 5-1-5.087 2.979-10.678 5.754-22 8 4.067-4.933 12.458-5.542 18-9-1.917-1.2-7.129 2.833-11 3 22.27-13.396 52.371-18.962 78-29-10.558 3.311-33.479 11.812-46 2 .921-4.412 5.876-4.79 9-7 9.02-22.77 38.17-4.222 55-1z"/>
    <path fill="none" d="M113.52 35.205c-3.14-.473-2.642 2.691-5 3-1.441 1.667 3.588-6.006 7-6 2.771 3.749-3.966 4.903-5 8-3.5-2.291 3.13-2.779 3-5zm68-14c-2.671 4.074-10.927 5.664-19 7 .76-3.919 13.06-4.924 19-7zm403 21c-6.088 3.579-7.869 11.464-15 14 8.597-10.07 18.476-18.858 26-30 1.754 7.274-11.464 19.654-18 26 .64-5.023 6.36-4.976 7-10z"/>
    <path fill="none" d="M578.52 35.205c.612 3.791 2.747.35 6 2-1.814 4.972-13.584 14.461-17 8-4.312.688-5.946 4.054-12 3-.1-4.1-.196-8.197 1-11-3.183 1.809-5.442 13.017 1 13-3.146 5.59-3.429 19.865-2 24 2.655-5.725 3.329-15.745 2-20 2.759-.908 7.022-.311 9-2 1.877 1.675-5.284 6.771-1 11 9.636.058 17.792.208 21-8-.334-2.333-1.025-4.309-3-5 2.448-3.552 4.029-7.97 8-10 1.951 18.759 3.179 34.118 2 48-3.914.581-5.807-.86-8-2 1.105-5.975.884-9.883 3-13-1.997.036-8.818 3.824-7 11 3.314-.019 1.016-5.651 3-7 1.999 1.105-1.218 5.37 0 9-9.247-3.086-18.943-5.724-23-14-2.438 1.002 4.1 4.036 1 6-5.854-1.479-10.004-4.663-16-6-.867-10.012 1.121-16.776-4-22 .848-1.486 3.22-1.447 5-2 2.207-9.874-5.295-10.038-7-16 4.841-.415 5.651 4.531 11 6 3.624-.376 5.016-2.984 6-6 4.449.783 6.002-1.332 10-1-2.4-6.292-12.092-6.277-12-14 .065-5.493 5.48-9.565 14-10-20.014 11.094 6.658 22.259 20 24-3.412 3.45-14.713-.833-19-3-.384 4.717 6.767 1.9 6 7 4.424-2.997 5.199-1.119 11-1-1 3.976-6.03.96-9 1zm-9 33c1.133-2.201 6.598-.069 7-3-3.07-.338-9.85.723-7 3zm12 8c1.138-2.572 7.885-4.724 6-7-.3 3.407-8.64 3.972-6 7zm-575.999-62c-3.923-4.754 7.286-8.583 10-4-1.746-.011-9.318-1.888-10 4zm58-5c-2.52-2.083 3.489-.032 3 2 1.484-.437-.395-1.28 0-3 1.759.241 2.279 1.721 2 4-3.14.473-2.643-2.691-5-3zm301.999 14c3.321-2.116-3.002-2.904-2-6 3.174 4.16 8.433 6.234 9 13-2.665-1.002-3.297-4.036-5-6-1.811.299 1.012 4.207 2 5-4.528-.82-9.284-10.038-14-14 15.01-12.393 32.489-1.479 55-3-14.78 8.674-35.266-7.149-49 5-.27 3.608 3.96 2.712 4 6zm-286.999-14c-1.821 2.036-5.494 5.776-8 4 2.056-1.943 5.214-2.786 8-4zm243.999 1c-2.381-2.18 2.044.5 4 0-.869 1.464-1.497 3.169-4 3-.21-1.71 1.71-2.59 0-3z"/>
    <path fill="none" d="M423.52 9.205c-31.803 15.53-60.501 34.166-93 49-2.917.279-3.438-.241-2-2-3.164-.164-3.342 2.658-7 2 24.26-14.074 50.378-26.289 77-38-5.866-.006-4.667-2.615 1-1 7.97-3.361 15-7.663 24-10zm-92 45c2.084-.65 8.963-1.614 6-4-1.2 1.373-8.84 5.025-6 4zm-286.999-44c.695 4.028-4.975 1.692-6 4-2.26-1.683 3.525-3.741 6-4zm22 5c-1.317-2.017-3.283-3.384-6-4 4.491-1.832 6.926 4.073 8 7-4.121-.546-6.202-3.131-9-5 2.084-2.978 4.073 2.514 7 2zm252.999-3c2.828 3.88-9.097 6.851-10 7 1.96-3.703 8.48-2.857 10-7zm-240.999-1c2.398 2.142-4.831 3.112-5 6 2.263-1.071 4.397-2.27 6-4 .44 1.382 1.873 4.618-1 6 .162 1.172 1.823.843 3 1-.502 5.498-5.07 6.93-10 8 1.101-3.604 8.091-5.396 6-9-1.947 2.053-3.12 4.88-7 5 .304-5.696 8.132-3.868 9-9-4.109.225-4.254 4.413-9 4-.454-5.787 6.251-4.415 8-8zm15 9c-3.775-.442-4.695 1.972-7 3 1.248 2.142 4.099-2.489 7-2-1.185 3.815-6.815 3.185-8 7 2.846 4.052 3.634-2.271 6-2 4.712 6.799-6.684 9.272-9 4-1.81-7.675 9.296-12.432 11-10zm237.999-8c-.591 2.076-1.924 3.409-4 4 1.489 2.156 2.823-1.094 4 2-1.161 1.904-6.565-3.326-8 1-3.5-4.171 5.05-9.174 8-7zm274-1c1.548 3.25-8.043 3.93-8 9 1.161 6.172 6.646 8.021 12 10 6.759-2.232 3.915-8.824 3-15 5.765 3.549 3.396 12.448 2 19-15.82.873-26.23-18.288-9-23zm-272 10c.863-3.841 6.207-7.28 9-6 .29 4.995-6.65 6.835-9 6zm-48-7c.649 1.017 2.299 1.034 2 3-3.044.044-3.889-2.111-6-3 .17-1.123 9.06-.636 4 0zm-268.999 26c-2.813-3.25 3.262-18.191 4-23 .266-1.73-1.996-4.454 1-1 .382 10.049-.403 18.93-5 24zm272.999-24c3.14-.473 2.642 2.691 5 3 .044-1.71-.743-2.59-2-3 3.129-3.385 5.148 2.794 5 6-1.99-2.675-7.2-2.137-8-6zm-189 1c2.364-2.239-1.248 2.209-3 2 1.402 2.913 3.445-1.773 6-1-1.865 2.802-5.477 3.856-9 5 .329-3.672 2.802-5.199 6-6zm4 5c-1.162 3.172-6.203 2.464-7 6-.282 1.615.945 1.722 1 3 2.279.279 3.759-.241 4-2 4.509 4.031-5.908 5.404-8 3-1.053-7.387 2.696-9.97 8-11-.111 1.889-3.306.694-3 3 3.08.745 1.92-2.745 5-2zm-66.999 0c-1.484-.437.395-1.28 0-3 2.198 1.136 3.322 3.344 6 4-3.815 2.282-4.082-3.282-6-1zm244.999-4c.658-2.995 2.138.956 4 0-.162 1.172-1.823.843-3 1 .405 2.261 5.861-.528 4 4-1.768-.898-2.919-2.414-5-3 .62-.89 1.21-1.788 0-2zm-95 4c1.826 1.004-1.523 14.47 1 20-1.701-.368-1.887.78-2 2-5.4-6.194-2.33-16.347 1-22zm35 17c4.123 1.127-4.123 2.873 0 4-6.875 5.109-14.873-2.129-22-3-1.027-3.36 3.11-1.557 5-2-1.005-1.995-4.422-1.578-4-5 7.96.04 16.74 8.801 21 6zm303-11c.309-4.975-6.838-2.495-7-7 4.402-.069 6.274 2.393 8 5 .154 2.488-1.571 3.096-2 5-3.04.041-6.582.582-6-3 3.1-.339 4.78 2.315 7 0zm-295-3c-3.049 3.527-6.868-4.444-10-1-1.37-3.173 7.76-.908 10 1zm239 1c12.174 1.497 26.052 9.945 39 14-13.37-.299-27.52-8.477-39-14zm-52 8c-2.615 1.052-3.271 4.063-3 8 3.664.739 5.557-2.459 8 0-2.489 3.923-6.62 4.149-12 3-.801-4.839 1.376-13.452 7-15-5.009-1.257-11.166 9.676-10 12-2.812.145-2.884-2.449-3-5 5.334-3.666 8.235-9.765 17-10-3.021 3.242-2.86 1.99 1 4 .467 2.134-1.429 1.905-3 2 .027.973 1.224.776 2 1-1.408 1.483-3.192 2.15 1 2-.78 2.296-6.19.973-5-2zm90-1c-.981-1.352-2.668-1.999-4-3 1.316-2.522 3.283 2.622 6 2-.03.973-1.22.776-2 1-.184.851.39.943 1 1-.793 1.049-7.482-.461-7-4 2.11.889 2.96 3.045 6 3zm41-4c4.59 11.428-4.66 4.119 0 0zm-504.999 18c-1.575 2.293 5.099 4.863 7 7-9.167-4.17-21.124-14.206-28-24 13.543 7.79 23.547 19.12 38 26-6.586 1.902-11.391-6.597-17-9zm125.999 3c-2.772-6.895-9.183-10.15-9-20 6.161 4.839 9.293 12.707 12 21-4.529-.734-11.827-2.189-12-10 4.09 1.91 5.31 6.687 9 9zm286-16c3.518 1.824 4.195-3.139 10-4-4.61 5.723-5.025 15.641-11 20-4.19-5.38 6.2-12.803 1-16zm13-1c.411 7.078-6.062 7.272-8 12-.86-3.552 4-9.983 8-12zm-355-4c-1.293 3.412-5.046 8.441-8 7 .37-4.334 4.5-8.992 8-7zm290 19c1.804-2.479-1.375 4.542-5 3-1.32-2.503 3.953-3.13 1-4 1.5-3.247 1.79 4.522 4 1zm186 63.995c-2.919 4.808-9.817 17.035-20 19-3.764.727-8.835-2.132-15-2-5.784.124-11.918 3.45-16 3-9.358-1.031-16.911-10.428-21-15 6.18 3.037 12.48 13.353 22 14 2.986.203 5.367-2.421 9-3 5.823-.928 11.836 2.407 17 2 11.42-.9 17.95-12.93 24-18z"/>
    <path fill="none" d="M99.521 43.205c-.19-.81-1.003-.997-1-2-7.68 1.769-11.054 12.79-21 9-1.228-9.228 8.351-7.649 13-11-3.246-2.528-8.388 1.574-12 2-2.201 2.466-2.222 7.112-4 10-5.038-2.21-3.27-.739-9 0-.002-3.998-1.998-6.002-2-10-3.891-.443-7.911-.756-11-2 .838 4.162 7.799 2.201 10 5v6c-10.616 1.63-17.397-5.681-23-12 11.761-6.38 30.426 3.578 47-1-1.064-2.27-6.286-.381-9-1 7.446-2.439 25.439-4.723 28 5-3.613 1.72-7.19 3.477-12 4 .112-2.555 3.349-1.985 6.001-2zm358.999 17c-3.131-1.286-.516-2.068-2-5-8.737-.737-12.426 3.575-18 6-13.776 23.114 41.805 59.029 57 55 16.546-4.388-5.613-20.076-10-26 7.994 4.673 16.798 8.535 21 17-1.528 17.102-22.502 13.551-31 5-1.342.658-1.862 2.138-2 4-2.355-.271-.611-4.428 1-4-.097-2.57-3.903-1.43-4-4-3.314.352-4.338 2.995-6 5 2.576.164 4.807-5.088 6-3-2.784 8.216-11.048 10.952-21 12 3.118-7.882 11.007-10.993 19-14-6.888-5.779-16.261-9.072-24-14-2.501-8.015-12.363-13.844-12-24 .15-4.204 2.768-7.537 5-12 5.848-1.485 10.112-4.555 18-4 1.484-.437-.395-1.28 0-3 3.6.266 5.34 5.935 3 9.005z"/>
    <path fill="none" d="M480.52 95.205c1.842-2.158 1.077-6.923 3-9 4.772 2.324-4.694 9.224 0 12-4.397 2.312-6.661-5.035-13-4 3.852 2.067 11.645 4.676 9 10-5.167-4.556-6.077-.629-13 0-.723-3.056 1.022-3.645 1-6 2.923 2.31 1.936 2.734 6 3-3.808-5.312-12.125-7.418-11-10-5.062.728-5.922-2.744-10-3 8.36-.679 20.24 3.758 28 7.005z"/>
    <path fill="none" d="M469.52 79.205c2.497.691-1.855 2.667-1 5 1.827-1.506 2.353-4.314 4-6 5.153 3.029-1.845 7.969-2 12-2.802-.532-5.198-1.468-8-2-.46-5.789 3.9-6.77 7-9z"/>
    <path fill="none" d="M457.52 82.205c2.412-1.955 3.971-5.357 6-5 2.53 4.233-2.118 9.855-7 10-2.623-3.123 1.163-6.241 2-9 2.14-2.468-.28 3.175-1 4zm-326-23c2.438-7.565 4.718-11.285 8-17-.2 4.148-2.76 14.56-8 17zm96-19c.354-1.401 1.761-.086 2 1 .973-.027.776-1.224 1-2 3.677.656 4.98 3.687 7 6 .456-.744.249-5.398-2-5 2.936-2.218 6.147 3.814 9 5v7c-7.84-1.822-11.6-7.733-17-12zm68 6c2.871 2.804 6.144-2.474 11-1-5.149 10.768-23.476 2.23-31 0 6.801-8.006 18.445-5.072 28-5 14.527.11 27.588-3.536 42 2-5.892 5.575-24.063 15.024-30 3 4.663-.664 6.425 1.576 10 2-.835-3.498-6.308-2.359-9-4-3.767 1.465-2.021 2.649-2 7-1.461-.873-3.872-.794-3-4-2.762-.428-.938 3.728-3 4-4.479.076.608-3.706-1-7-5.24-.24-7.57 2.434-12 3zm10-4h14c7.799.694 7.799-1.694 0-1-10.205.444-19.461-1.159-25 2 4.1.1 8.2.197 11-1zm-269.999 4c-3.156 2.438-7.739-2.223-9-5 4.092.574 3.985 5.348 9 5zm0 14c-4.836.169-4.729-4.604-9-5-4.936 2.413-10.146 9.834-17 7 4.399-3.935 10.937-5.729 17-8-1.194-2.473-3.424-3.91-6-5 4.447.236 13.214 4.773 15 11z"/>
    <path fill="none" d="M21.521 88.205c3.477 6.189 14.728 4.605 14 15-5.549-2.451-9.619-6.381-15-9 .275-2.358 3.725.092 4 1 2.447-1.241-2.997-2.908-3-5-5.451 8.748-20.338 31.458-4 38-5.195 1.635-10.384-3.23-11-9-2.004-18.765 22.769-37.939 23-56-.421-1.912-.362-4.304-3-4 .729-3.449 3.009-.667 5 0 1.396 11.87-6.318 19.333-10 29.005z"/>
    <path fill="none" d="M27.521 78.205c5.05.95 8.334 3.666 8 10-3.066-1.268-5.262-3.405-8-5-.54 3.564 9.257 5.392 9 12-6.685.018-7.315-6.018-14-6 1.33-4.295 4.468-.273 7 0-.691-1.975-2.667-2.666-5-3 1.245-2.421 2.475-4.857 3-8zm6-25c2.806-.013-2.381-2.729 2-2v3c-5.103-1.564-9.965-3.369-12-8 5.207.459 6.217 5.116 10 7zm333.999 5c2.326-9.073 2.607-7.994 8-14-2.18 5.15-3.72 10.95-8 14zm-6-13c-3.991 2.675-7.026 6.307-12 8 2.37-4.302 7.34-5.991 12-8zm61 62.995h-4c.624-3.709 2.812-5.855 4-9-3.144 3.047-5.848 1.018-11 1 1.849 1.484 4.751 1.916 8 2-.147 2.187-2.52 2.147-5 2 .31 1.357 2.504.83 4 1-5.223 3.52-9.36-2.612-14-3 2.472-2.225 10.328-4.299 14-2-1.272-2.88 5.12-.681 6-4 2.82 3.544-1.28 8.69-2 12zm-18 2c-3.521 2.759-9.161 12.488-14 6 1.313.354 1.573 1.761 3 2 1.401-.354.086-1.761-1-2 .147-2.231 2.52 1.298 5 0-.314-2.352-4.74-.594-4-4 7.99 2.74.32-5.27 11-2z"/>
    <path fill="none" d="M383.52 130.2c-4.686-1.314-10.274-1.726-13-5 2.241-21.022 23.525-24.46 41-36 6.885-4.547 21.837-14.137 15-23-21.426 19.24-59.077 22.256-62 60 1.008 3.896 3.442.155 7 1-.722 3.278-4.096 3.904-8 4-4.423-35.035 29.843-53.191 55-62-.532-1.12-4.818.77-7-1-3.119-12.061 6.069-19.73 15-23-1.771 7.896-10.13 9.203-12 17 .351 3.316 5.764 1.569 9 2-5.191-2.949 5.094-12.548 7-18 .432 7.766-2.135 12.532-6 16 .847 1.486 3.22 1.447 5 2 3.381 37.937-46.923 30.248-56 59 22.261 11.299 27.466-21.674 53-14-3.634-2.32-.941-11.975 3-13 .841 2.492 1.309 5.357 1 9 2.209-.125.425-4.242 1-6 2.371 2.962 3.68 6.987 4 12-15.034-4.156-26.106 3.738-35 9 .615-.891 1.209-1.789 0-2-6.96 2.71-10.8 8.54-17 12zm-208-53.995c-2.22-15.503 9.478-30.48 20-28-.24 2.521-2.949 4.144-5 2-5.658 5.008-11.961 9.372-12 20 .354 1.313 1.76 1.573 2 3 13.315-1.752 19.711-12.531 35-15-1.38.223 5.329-1.627 1 0-13.66 5.43-22.9 20.309-41 18z"/>
    <path fill="none" d="M156.52 133.2c2.687-2.828-1.796-5.67-1-11 2.747-18.393 28.801-30.94 45-38-10.112 1.34-25.048 3.144-37 9-13.343 6.539-29.03 24.294-24 40 4.321-3.346 8.072-7.262 14-9-2.002 15.192-26.499 10.741-22-5 1.436-5.025 8.393-12.521 13-17 13.98-13.593 39.856-20.581 62-24 13.484-2.082 22.372-2.274 27-14-3.787-18.99-34.232 5.184-38-12 3.162-2.661 4.092 3.312 8 3 9.492-4.196 26.81-8.039 33 2 .434 1.808-1.144 2.024-1 1-2.099 14.99-11.069 24.763-33 24-10.838 11.897-33.184 20.766-42 38-1.72 5.94 2.02 12.91-4 13z"/>
    <path fill="none" d="M224.52 83.205c6.222 5.777 17.397 6.603 27 9 .894 2.077-6.811.273-3 2-7.737.394-20.171-3.154-27-7 1.767-3.465 3.238-1.432 2-7 2.95-2.184 5.556-1.007 7-6 1.88 2.931-1.84 8.797-6 9zm-119-28c1.302-4.698 6.312-5.688 11-7-3.77 2.233-6.73 5.267-11 7zm1 5c3.038-5.629 8.439-8.894 14-12 1.26 6.13-8.72 9.135-14 12zm423-11c3.697-.341 11.253 4.063 12 10 2.146-2.865-2.142-7.82-5-9 8.449-.552 7.594 10.783 8 21-10.234-.234-19.828.172-26 4-8.497-3.444-8.375-13.976-9-23 7.327-1.661 3.808 7.526 8 9 8.992.513 16.785.568 22 0-.21-7.127-6.72-7.95-10-12zm0 15c-4.204.341-5.379-2.308-9 0 2.76-.347 7.02 2.871 9 0zm-477.999 15c-4.756 2.577-7.124 7.543-13 9 .771-4.956-.024-5.297 0-11 2.134-.467 1.905 1.429 2 3-1.188-11.855 11.655-9.679 17-15-1.744-.758-11.851 1.341-14-2-2.151 1.574 3.537 3.729 7 3-4.436 2.564-10.628 3.372-11 10-3.372-4.089 1.892-8.07 5-9-2.463-2.506-4.386 5.118-8 2 .905-1.762 3.681-1.652 4-4-5.021 1.525-4.156-11.508-1-15 2.323.677 2.677 3.323 5 4-8.82 9.474 15.431 12.414 18 5 2.784-.451-.784 5.451 2 5 1.64-1.417 1.326-9.93 1-10 11.682-4.005 10.611 13.381 14 21-5.29.043-6.143 4.524-13 3-.429-1.904-2.154-2.513-2-5-1.57.43-.854 3.146-4 2-.589-3.589 1.162-4.838 2-7-4.253 8.08-14.938 9.729-21 16 5.38.38 4.833-5.167 10-5zm196.999-26c-2.497.691 1.856 2.667 1 5-5.829.847-1.634-5.352-2-8 4.144-.144 3.04 4.96 4 8-2.34-.325-.97-4.362-3-5z"/>
    <path d="M337.52 50.205c2.963 2.386-3.916 3.35-6 4-2.84 1.025 4.8-2.627 6-4z"/>
    <path fill="none" d="M304.52 57.205c-2.239-3.094-6.617-4.049-11-5 1.711-2.289 7.633-.367 11-1 1.596 5.738.846 13.821 1 21-6.489.883-10.951 15.887 4 14-4.709 6.541-18.666 1.529-21 11-.977 3.964.605 9.983 5 13 10.105-2.359 25.062-3.121 34 1 13.588-6.498 3.953-26.701-14-22-.169-2.169 3.547-.453 5-1-.31-1.357-2.504-.83-4-1 6.414.136 13.026-12.888 2-13v-23c3.507.493 6.509 1.491 11 1-2.913 2.753-8.349 2.984-10 7 3.521 7.758 23.424 7.258 22-2 2.503-.831 3.927-2.74 7-3 .597 22.42-1.244 44.851 1 64-4.524 4.014-5.373 9.833-11 11-8.014 1.662-15.398-6.108-23-6-9.131.131-15.124 7.83-23 7-22.57-2.379-10.339-29.183-12-50-.669-8.385-4.942-15.524-4-24 5.363-2.582 8.295 5.59 9 6 7.2 4.187 17.2 4.827 21-4.995zm-8 10c-2.714.619-7.936-1.27-9 1h11c1.065-1.347 7.052-2.841 4-5-.55 2.78-3.87 2.8-6 4zm37 0c-6.98.314-13.882.548-16-4-.86 6.713 12.58 8.025 16 4zm7 8c-.479 3.188-6.65.684-8 3 2.79 2.157 10.42-.416 8-3zm-59 3c-.261-1.406-2.193-1.14-3-2-.37 6.493 16.17.913 3 2zm8 3c-3.396-.271-8.107.774-10-1 2.27 3.833 8 3.412 10 1zm-2 34.995c10.232 3.492 30.753-11.667 42 1-8.44-14.09-34.88-.22-42-1zm26-1c-1.289-1.378-4.344-.989-7-1-1.23 3.33 6.76 2.45 7 1zM94.521 81.205c-8.5-4.167-16.785-8.548-18-20 5.888 3.002 13.995 3.767 20 0 .802-3.469-1.489-3.844-1-7 4.168.502 4.411-2.923 9-2-4.617 11.086 3.64 21.914-3 36-4.234-2.593-16.27-7.512-14-10 1.645 1.689 5.426 1.241 7.001 3zm-15-17c4.615 7.052 21.046 2.288 17 18 6.032-7.212-3.329-15.872-11-16 4.165.126 12.754-.527 10-4-3.681 3.353-10.373 3.07-16 2z"/>
    <path d="M95.521 62.205c2.754 3.473-5.835 4.126-10 4 7.671.128 17.032 8.788 11 16 4.046-15.712-12.385-10.948-17-18 5.627 1.07 12.319 1.353 16-2z"/>
    <path fill="none" d="M167.52 53.205c-.99-1.886 1.239 1.228 1 4-1.464.87-3.169 1.497-3 4-2.09-2.772 2.82-5.483 2-8zm71 0c4.07-1.657 3.944 5.95 6 3 3.314.977-1.117 1.977-1 3-1.23-.437-2.054-1.28-2-3 .4-2.396-4.55.555-3-3zm-117 4c3.389 5.773-9.336 11.717-15 15 .701-6.633 7.336-7.33 11-11 2.514-1.928-2.508 2.623-3 4 4.25-.747 5.62-4.385 7-8zm369 11c-3.137-1.277-9.399-3.36-13-1 3.123 2.279 12.433-1.935 12 6-11.339 1.999-17.936 4.207-31 3 1.119-1.44 1.078-2.44-1-3 .848-2.152 2.463-3.537 6-3-1.011-2.816-4.247.276-6 0 1.283-5.384 8.574-4.759 15-5-2.271-4.395-9.044.77-14 0 4.49-4.31 30.03-8.571 32 3zm-18 2c3.231.019 11.057 2.544 16 0-4.51-.19-12.01-2.618-16 0z"/>
    <path fill="none" d="M466.52 61.205c4.37-4.703 19.152-5.895 23 0-3.9-.219-16.23-2.163-23 0zm-445.999-1c2.544 1.123 4.877 2.456 7 4-3.138 2.275-2.472.298-1 4-3.123-2.83-3.161-3.958-6-8zm348.999 3c2.171 1.284 27.837-3.927 29 5-4.087.42-4.042-3.292-9-2 2.745 1.588 6.51 2.157 9 4-.515 1.092-6.533-.733-10 0 .431 2.236 4.929.405 7 1-7.474 3.526-19.076 2.924-29 4-.956-1.862 2.995-3.342 0-4 1.88-5.12 9.808-4.193 15-6-1.157-.766-8.761.529-13 0 .027-.973 1.224-.776 2-1 .18-.851-.39-.943-1-1zm0 9c3.18-1.487 8.946-.387 11-3-3.66.376-11.98 1.306-11 3zm-246-8c-2.394 8.272-10.95 10.384-17 15 1.62-8.483 12.32-12.874 17-15zm109-1c-.521 1.479-1.479 2.521-2 4-3.056-.723-3.644 1.022-6 1 3.51-1.122.54-5.026 8-5z"/>
    <path d="M302.52 63.205c3.052 2.159-2.935 3.653-4 5h-11c1.064-2.27 6.286-.381 9-1 2.13-1.2 5.45-1.22 6-4z"/>
    <path fill="none" d="M22.521 71.205c-.744-2.923-5.398-1.935-5-6 4.205-.205 4.2 3.8 8 4 .826 2.826-1.409 2.591-1 5-2.101-1.232-3.899-2.768-6-4-1.911-2.692 2.233 1.223 4 1z"/>
    <path d="M380.52 69.205c-2.054 2.613-7.82 1.513-11 3-.98-1.694 7.34-2.624 11-3zm207 0c1.885 2.276-4.862 4.428-6 7-2.64-3.028 5.7-3.593 6-7z"/>
    <path fill="none" d="M124.52 70.205c-2.811 8.522-11.252 11.415-18 16 4.3-8.723 11.02-11.17 18-16zm18 10c-.431-2.236-4.928-.405-7-1 5.702-4.367 16.28-1.094 25-4-1.439 7.743-16.301 9.326-29 9 .107-2.648 5.963-1.021 1-3 1.8-3.336 7.82 2.718 10-1zm381 9c5.183-2.484 6.357-8.976 13-10 7.608 8.888 18.963 10.006 31 8-13.098 10.508-34.335-7.038-42 6 4.463 7.87 7.042 17.625 20 17 .2 1.656-7.475 1.086-2 2-.638 2.029-4.675.658-5 3 5.149-.85 17.646-3.884 23 2 .078-3.744-3.922-3.411-7-4 2.196-1.484 6.404-1.916 0-2 15.271.604 19.264-10.07 26-18 .396 4.729-.321 8.346-1 12 2.594-2.406 3.274-6.726 3-12 2.146 1.854 7.325.675 11 1-3.079 5.643 1.276 8.108-2 15-1.919 4.037-17.297 17.916-22 19-4.686 1.08-12.089-2.508-19-2-4.911.36-8.813 3.28-12 3-10.841-.954-28.37-17.585-29-32 4.184 1.149 5.646 5.021 10 6-4.505-2.069-10.772-16.873-6-23 3.014 1.319 6.171 2.495 7 6-2.447-1.497.029 7.004 0 11 3.319-4.224-1.114-19.242 1-19-8.637-3.688-13.648 7.003-10 16-4.855-2.729-2.07-10.142-1-15 34.971-22.417 67.783 22.873 98 5-1.402-2.913-3.445 1.772-6 1 13.912-10.273 10.532-51.869-10-46 3.521-2.338.368-1.659 3-6 25.556 1.792 16.338 34.663 16 51-24.771 21.891-51.079-7.045-79-9 6.34 3.62-7.72 8.469-9 14.005zm-413 3c1.401.354.086 1.761-1 2 3.226-1.458 9.369-8.619 14-12 1.738 7.84-11.481 14.387-17 15-.75-3.753 3.82-2.18 4-5zm332-9c1.918-1.852 10.502-1.885 10 2 .973-.027.776-1.224 1-2 3.46 5.475-7.76.124-11 0zm-42 2c1.371-2.265 4.118 2.47 6 3-1.7 4.619-6.55-2.049-6-3zm-352.999 10c3.639-12.146 31.295-10.826 41-5-9.593-1.147-33.947-5.222-41 5zm91.999-9c.591 4.258-.719 6.614-1 10-2.33-2.003-5.674-2.992-5-8 2.892.171 4.559 4.08 5-1-.973.027-.776 1.224-1 2-2.49-.406-.06-3.877 2-3zM96.521 106.2c.545-4.788 5.712-4.955 8-8 3.409 4.127-4.803 5.158-7 7 1.813 2.069 6.187-1.756 8-3 2.396 3.441-4.877 5.756-7 8-2.715.72.716-4.71-1.999-4zM219.52 87.205c1.521 3.058-11.197 10.537-12 8 5.51-1.154 8.52-4.818 12-8z"/>
    <path fill="none" d="M566.52 91.205c-10.323 6.627-25.391-.072-37 1 1.338 7.328 6.641 10.692 11 15 18.961 2.274 33.095-4.417 36-15-.948 8.052-6.662 11.338-11 16-19.433 1.487-33.647 1.919-38-15 7.78-9.3 23.35 4.353 39-1.995zm42-3c3.826 4.977-7.879 10.438-14 12 .28-8.384 10.2-7.134 14-11.995zm-7 6c3.438.056 8.441-3.492 7-5-1.64 2.36-5.15 2.849-7 5zm-391 4c.19-1.135 1.003-.556 1 0 4.199-2.801 6.683-7.317 12-9-.898 1.768-2.414 2.919-3 5 2.88-.12 1.735-4.265 5-4 .624 5.491-6.093 11.759-14 12-2.45-1.33 1.8-3.013-1-3.995zm38-2c-.043 6.303-6.512 14.812-13 18 .423-2.09-.686-2.647-1-4 2.145-5.522 6.58-8.754 9-14 2.363.279-1.146 2.671-1 4 2.689.688 1.933-2.067 3-3 2.108 2.174-2.201 6.416-4 8 2.85 1.48 5.27-6.029 7-8.995z"/>
    <path d="M608.52 89.205c1.441 1.508-3.562 5.056-7 5 1.85-2.151 5.36-2.64 7-5z"/>
    <path fill="none" d="M328.52 109.2c-9.055-3.251-25.823-2.649-35 0-18.46-26.65 56.59-24.012 35 0zm-35-2c7.965-4.854 25.46-3.379 35-1 14.23-17.373-49.19-21.055-35 1zm141-11.995c-2.379 2.22-7.507-2.859-11 0 1.76-4.445 8.23-.71 11 0zm-342.999-1c7.041 1.916 1.54 10.591-3 12-5.193 1.611-10.037-3.79-18-4-11.308-.299-19.29 9.578-22-4 2.276 1.391 3.874 3.459 6 5 12.032-9.358 41.345 9.49 37-8.995zm-46 10.995c2.525 3.019-1.086 5.958 1 9-2.402-2.598-8.518-1.481-9-6 4.177-.844 4.723 1.944 8 2-1.46-4.207-9.438-1.895-8-9 2.684 1.32 5.315 2.69 8 4zm155.999-7.995c3.27-1.566 5.661 6.312 7 10 .973-.027.776-1.224 1-2 .373 11.823 12.706 24.098 30 19 1.151-1.182 1.132-3.535 1-6 11.631.035 17.878 5.455 21 14-4.402-3.413-11.746-9.382-16-11-2.005-.763-2.252 2.22-1-1-3.949 1.179.502 4.958-2 8-27.068 9.654-35.36-15.671-46-29 2.058-4.743 7.253.269 7 4 2.3-1.09-1-4.904-2-5.995zm-16 4.995c3.529.294-3.529 2.706 0 3-1.45 4.001-7.026 2.941-11 2 2.48-6.58 7.93-1.85 11-5zm263-4.995c3.748 2.427.989 4.676 7 4-1.232 5.101-6.761 5.906-12 7 2.999 1.302 1.821 4.278 0 6-2.545-.102-2.362-3.727-1-5-3.056.723-3.645-1.022-6-1 1.784-3.216 4.929-5.071 9-6-.161-1.172-1.823-.844-3-1 1.07-2.262 3.03-3.629 6-3.995z"/>
    <path d="M328.52 106.2c-9.54-2.379-27.035-3.854-35 1-14.19-22.055 49.23-18.373 35-1z"/>
    <path fill="none" d="M474.52 104.2c.19 1.135 1.003.556 1 0 1.342.658 1.862 2.138 2 4-.777 1.824-1.075-.599-1-2-.804.529-1.623 1.043-3 1 .228-1.772-1.008-5.008 2-4 .18.86-.39.95-1 1zm134 17c1.709 9.077-19.376 6.649-17-5 1.325-6.497 16.309-9.177 18-12-1.461 4.539-6.989 5.011-10 8 2.855 2.138 6.1-3.862 10-4-1.108 5.559-9.049 4.284-11 9-.458 3.124 2.137 3.197 5 3 2.092-.908 3.049-2.951 3-6 4.391 1.869 1.141 9.44-3 9 1.28 2.8 4.76-.45 5-2zm-587.999-6c1.234-1.544-1.167 9.859 5 9 3.299-1.493-3.345-1.178-2-4 2.6 1.275 3.016 2.194 6 1-.359-8.308-10.738-6.595-12-14 2.123 1.544 4.456 2.877 7 4-1.921-2.412-4.696-3.971-7-6 12.175-3.2 26.734 27.68 3 19-.765-2.35-1.971-6.91 0-9zm135.999-6c1.793-.127 2.109 1.225 4 1-.294 2.333-2.706 2.333-3 0-1.172.161-.843 1.823-1 3-.81-.19-.997-1.003-2-1v-2c1.16.17 1.78-.22 2-1zm66 4h-4v-4c-.81.19-.997 1.003-2 1-2.27-2.21 7.7-2.58 6 3zm-3 7c1.492-3.636 4.49.034 7-3 2.514-1.929-2.508 2.622-3 4 3.541.541 2.459-3.541 6-3-2.44 4.03-6.6 6.18-10 2zm-68-10c.882.908.173 2.951 1 6-3.101.101-4.777-1.223-7-2 .521-1.479 1.479-2.521 2-4 1.86-.95 3.34 3 4 0zm271 6c-.864 2.567.336 11.637 3 14-6.641 2.621-9.349-7.304-8-16-.96 1.687-3.142 2.947-5 1 10.057-4.35 16.613-2.597 28-4 .424 2.09-.686 2.647-1 4-1.701.367-1.887-.78-2-2-1.899 4.768-.713 12.62-2 18-3.254-2.412-2.303-9.031-3-14-5.148 2.317-.133 10.435 0 14-3.824.157-3.25-4.083-5-6-2.131.325.161 4.362 1 5-3.67.98-4.7-9.28-6-14zm73-4c-1.987.013-1.271 2.729-4 2 .297-2.036 2.003-2.664 3-4 .97.03.78 1.23 1 2 .851.184.943-.39 1-1 2.9-.53-1.53 3.9-1 1zm-371-13.995c1.842 6.71-9.395 8.457-13 13-2.248 6.379 4.678 7.345 8 5 1.188-4.538-3.716-5.99-1-9 12.359-2.005 6.176 19.353-5 17-4.848-2.485-6.597-8.069-6-16 5.79-3.21 10.04-7.96 17-9.995zm323 22.995c3.092.097-3.092 3.903 0 4-.147 2.231-2.52-1.298-5 0 .732.934 1.818 1.515 3 2 1.803 2.067-5.809-1.618-8-2 2.26-2.4 8.36-.97 10-4zm-347 1c-2.209 6.62 5.24.325 6-2 .485 4.818-1.771 6.896-5 8-2.932-.067-3.714-2.286-5-4 1.318-4.682 5.571-6.429 10-8-2.34 3.57-4.77 8.88-6 6zm-40.999-2c7.831-.742 12.966 6.976 8 13-4.638.638-6.187-1.813-8-4 .353-1.313 1.761-1.573 2-3 2.942-.848 6.498 2.708 4 4-4.658.88.674-3.296-2-3-2.931.847.598 3.22 0 5 12.415-3.28-3.584-6.68-4-12zm287.999 0c-.684 3.417-7.146 12.912-15 13-4.295.048-10.418-6.796-17-7-12.898-.4-19.373 13.105-32 5-1.238-.795-6.069-6.828-1-3 7.917 12.256 18.868-2.306 30-3 12.62-.78 30.34 13.98 35-5zm197-90.995h-9c-.898-1.768-2.414-2.919-3-5-.74-3.407 3.686-1.648 4-4-2.286-.747-7.963.414-10-3 .271-2.062 4.428-.238 4-3-3.95.674-10.876 1.896-8-3-3.419 1.51-9.06 3.382-12 0 13.18-10.644 35.69-1.058 34 18zm-333 3c-1.641-2.397-8.763-4.52-7-7 4.102 1.547 9.977 2.081 15 5 1.008 3.008-2.228 1.772-4 2 3.555 4.111 15.067.267 19 4-14.612 4.833-34.109-1.567-37-15 4.7 3.629 6.87 9.795 14 11zm-30-6c-.605 7.252.381 8.563 1 16-2.409-.409-2.174 1.826-5 1-.282-1.615.945-1.722 1-3-2.555 1.983-4.598-1.038-6 1-3.289-2.083 1.688-4.217 2-6h-7c.06-7.603 7.13-8.208 14-9zm-20 44c-1.182 1.434-5.304 1.895 0 2-3.314 3.02-9.653 3.014-16 3 4.35-2.938 10.24-6.391 16-5zm73-1c1.357.31.83 2.504 1 4 1.357-.31.83-2.504 1-4 3.676 1.431 1.737 14.171-4 15-4.05-4.126.85-10.2 2-15z"/>
    <path fill="none" d="M226.52 93.205c3.736.09 2.85 1.121 6 0 2.009 2.039-.442 1.961-1 4 2.111-.889 2.956-3.044 6-3 .044 3.045-2.111 3.889-3 6 3.481-.52 1.991-6.009 7-5-3.019 8.647-7.631 15.702-17 18 .34-5.993 3.412-9.255 5-14-2.499 4.501-5.78 8.22-13 8 1.01-6.98 8.28-7.717 10-13.995zm-7 34.995c-1.915 2.145-5.213 2.191-8 1 4.229 2.526-5.638 3.871-9 5 3.56-4.27 10.11-8.03 17-6z"/>
  </g>
</svg>