<svg xmlns="http://www.w3.org/2000/svg" width="798" height="600">
  <path fill="#FFF" fill-rule="evenodd" d="M-1 80h800v514.3c-1.979-.251-3.19-1.51-5.5-1-2.073.458-4.398 3.336-8 2-1.363-.506-.945-1.542-3-2-4.889 6.421-17.787 5.443-26.5 3.5-5.321-1.187-7.796 2.695-12 1.5-2.144-.609-2.77-3.334-5-2.5-2.848.736-2.954 2.354-7 2.5-.38-.469-4.143-3.869-4.5-4-2.584-.948-6.562.988-8.5-.5-.765-.587-1.982-3.179-2.5-4-3.338 1.996-12.865 4.709-19 3-2.279-.635-3.527-4.016-7-3l-1.5 1.5h-11c-2.354.689-6.891 2.412-9 3-2.5-.333-5-.667-7.5-1-4.039 1.34-3.785 4.881-11 5-2.197-3.009-4.073-1.426-8.5-2.5-.238-.058-.982-1.084-1.5-1-1.27.206-2.033 2.104-4.5 1.5-2.456-.601-4.021-3.434-6-4-2.458-.703-5.953 1.17-8.5-.5-1.283-.842-2.55-3.348-4-4-1.666-.167-3.334-.333-5-.5-.666-.667-1.334-1.333-2-2-2.108-.574-2.424 1.148-3.5 1.5h-7.5c-1.213.372-2.324 1.938-4.5 1.5-2.477-.498-3.352-2.81-5-3.5-2.5.167-5 .333-7.5.5-.653-.161-2.545-1.396-3-1.5-2.496-.57-6.471 1.454-8 2h-7c-3.384 1.001-8.081 1.086-11.5 2-3 .167-6 .333-9 .5-2.076.81-5.334 2.928-7.5 3.5-4.587 1.211-14.058-4.523-17.5-4-8.551 1.3-15.195 5.692-23 7-4.572.766-8.705-2.709-14-1-2.795.902-3.689 2.417-8 2.5-.082-.11-14.328-8.949-14.5-9-2.576-.767-9.65 1.133-13.5.5-1.744-.287-1.166-2.031-3.5-1.5l-1.5 1.5h-12c-.5.667-1 1.333-1.5 2-2.643 1.622-6.873.754-9.5 0h-8c-2.848-.902-13.672-4.712-16-1-1.175 1.527-.919 3.418-1.5 4.5-.59.401-.841.387-2 .5-2.2-2.122-7.899 1.788-10 1-1.471-.552-1.547-1.891-4.5-2v1c.376.536.301.473.5 1.5-1.024.356-2.337.497-4 .5-.573-.728-1.001-1.1-1.5-2-3.663 2.891-16.4 7.378-24 5-1.621-.507-1.684-2.654-4.5-2l-1 1c-4.166-.167-8.334-.333-12.5-.5-1.505.609-5.567 3.475-9 2.5l-1.5-1.5c-2.5-.167-5-.333-7.5-.5l-1.5-1.5c-2.686-1.046-5.182-.016-7.5-1-1.642-.697-2.621-2.479-4.5-3-4.166-.167-8.334-.333-12.5-.5-.951-.283-1.863-1.735-2.5-2H274c-1.544 1.963-6.576 5.229-9 6-5-.167-10-.333-15-.5-.333.5-.667 1-1 1.5-5.854 2.65-14.461-3.294-18-5-2.541-1.225-3.66 1.546-6 1-3.339-.778-7.41-3.668-11.5-4-3.641 5.078-8.567.247-13.5-.5-4.897-.742-8.296 4.77-14 2.5-2.632-1.048-6.404-4.41-11.5-3-3.154.873-6.272 4.116-9.5 5-2.915.798-5.877-1.014-8-1.5-5.647-1.293-8.433 2.647-13 1.5-2.042-.513-3.28-2.318-5-3-2.586-1.025-4.607-.723-7-2l-2-2h-12c-.788-.266-1.711-1.735-2.5-2-2.288-.769-15.792-.718-17.5 0-1.283.539-3.721 2.519-5.5 3-2.606.705-3.513-.84-6-1-.985 1.586-2.277 2.684-3.5 4-5.542.053-10.706-.618-15-1-1.055 1.718-1.689 2.406-4.5 2.5-1.013-1.06-1.471-1.325-3.5-1.5-.986 1.424-1.506 1.507-4 1.5-1.993-1.967-3.643-.51-7-1.5-1.853-.546-7.212-4.996-10-4-.654.233-2.018 1.861-3 2-2.529.358-3.821-3.567-7-2-3.888 1.916-6.714 5.653-12 6-6.722-5.98-12.787 1.042-18 2V80z" clip-rule="evenodd"/>
</svg>
