<svg xmlns="http://www.w3.org/2000/svg" viewBox="0 0 479.66541 489.59057">
  <path fill="#dcc9a2" fill-rule="evenodd" d="M107.49676 341.70917l-28.2576-17.8965 15.07072-50.8636 14.1288-25.4319 19.780311-26.3737-26.373751-58.399 5.65152-43.32835 20.722231-40.50255 35.792951-35.79295 15.070716-11.30304v-4.7096l10.361117-14.1288 13.1868769-6.59344 16.9545557 7.53536L249.72664 5.44382l37.67679-3.76767 32.96719 20.72223 45.21215 48.03791 40.50255-11.30304 32.02527-1.88384 24.48992 6.59344 14.12879 16.01264-7.53536 32.02527-22.60607-23.548-47.09599-3.76768-42.38639 10.36112-52.747504 21.66416-34.851031 15.07071-47.095988 32.0253-24.489914 18.8384-38.61871 36.7348-45.212149 59.341z"/>
  <path fill="#b71620" fill-rule="evenodd" stroke="#000" d="M116.778607 183.73317l56.450594-55.05673 115.688873-70.38902 52.965986-18.11994 22.99839 29.9676-54.35983 18.81686-48.784462 26.483-19.513786 13.93842-113.59811 89.20591z"/>
  <path fill="#efe0b9" fill-rule="evenodd" d="M3.88558 488.64867l421.98006.9419-7.53536-12.2449-15.07072-19.7804-8.47728-25.4318-19.78031-15.0707-38.61871-15.0707-65.934385-23.548-57.4571057-14.1288-49.9217473-2.8258-45.212149 21.6642-26.373753 44.2702z"/>
  <path fill="#edc9aa" fill-rule="evenodd" d="M176.459561 362.38557l38.6795316 4.4206 77.9116274 18.7872 21.55002-34.259 15.47182 2.2102 29.28593 2.2103 20.99746-6.6308 27.07567-106.645 1.10513-22.1026-8.84104-18.2346 2.76283-37.0219-8.28847-21.54999-107.750127-17.68207-53.046214 43.10006 3.315388 50.8359-28.1808012 8.2885-18.7872008 27.0757 49.178261 46.4154 3.315389 7.1834-19.339766 14.9192-13.8141185 20.4449-34.2590135 10.4987z"/>
  <path fill="#a00" fill-rule="evenodd" d="M341.20951 285.45957l17.8403-10.8514.55177-2.4829 32.73788 9.196-7.81663 28.2319-33.84141-2.5749z"/>
  <path fill="#fff" fill-rule="evenodd" d="M343.06295 284.72467l42.2098-6.1396-4.34889 14.0699-19.05836 4.221-6.26752-4.093-10.61641 1.5349zm-35.418971-82.7651l4.046251 18.2081 9.01212 2.0231 23.17401-13.9779-12.69053-8.8282zm69.338101 10.1156l13.05837-6.0694 6.25331-7.7247-2.39097-11.0352-20.4152 7.9086z"/>
  <path fill="#24676f" fill-rule="evenodd" d="M139.540462 361.41877l75.7753275-18.3921 9.5638765-20.5991 23.541849-17.6564 12.506607-25.0132-2.207048-14.7136-56.6475742-30.163 52.9691602-24.2776 1.471366-27.2202 24.277532-20.5991 36.784142-8.0926 77.24669-14.71361 12.50661 34.57711 38.2555-28.69165 16.18502-35.31278-13.24229-20.59911-58.11894-3.67842-76.51101 26.48458-55.176206 25.01322-53.7048435 38.25546-44.1409675 38.9912-50.026429 67.6828z"/>
  <path d="M275.767572 0v.002c-3.2717.46774-5.233254.83091-14.234374 1.31445-11.995301.64461-20.618122 2.41257-34.794922 7.13477l-8.1230472 2.70507-5.4746094-2.58984c-7.4261-3.5131-12.0183721-3.34356-18.3886714.68164-6.1135 3.8629-11.392579 8.25928-11.392579 9.48828 0 .4897-1.125 1.94854-2.5 3.24024s-2.5 2.97082-2.5 3.73242c0 .7615-.498521 1.07744-1.107421.70117-.721601-.44602-.904238-.0308-.523438 1.19141.8087 2.5952-.0429 3.5382-6.486328 7.1875-6.1984 3.5105-10.803091 7.25428-21.587891 17.55468-4.607 4.4002-7.743189 6.6754-8.699219 6.3086-1.013769-.3893-1.314779-.1083-.9375.875.348511.9081-.06731 1.44922-1.111328 1.44922-.9163 0-1.404937.4213-1.085937.9375.319.5162.01 1.3037-.689453 1.75-.699.4463-1.721485 1.53191-2.271485 2.41211-.55.8802-2.19505 3.3552-3.65625 5.5h-.0039c-4.2244 6.2003-8.789315 10.73055-9.291015 9.21875-.0326-.0982-.0632-.20379-.0957-.30274l-8.904296 16.43164c-.332081 1.3445-1.282152 3.41429-2.505858 5.33789-1.6742 2.6316-3.04297 5.38836-3.04297 6.12696 0 .7385-.57514 1.81954-1.27734 2.40234-.7022.5827-1.37309 2.23708-1.49219 3.67578-.119 1.4388-.66093 3.44393-1.20313 4.45703-.5421 1.013-1.28098 4.47697-1.64258 7.69727-.36159 3.2204-1.05566 6.36317-1.54296 6.98437-.7949 1.0132-1.04491 9.12106-.91211 29.69916.0321 4.9698.54979 7.5551 1.90039 9.5 1.0206 1.4697 2.47151 4.1017 3.22461 5.8496.7531 1.7478 1.6124 3.0314 1.9082 2.8516.2958-.1797.61594 1.164.71094 2.9883.0953 1.8243.93278 4.4802 1.86328 5.9004.9305 1.4201 1.42476 2.582 1.09765 2.582-.3271 0 .26913 1.4625 1.324224 3.25 1.0551 1.7875 3.764131 7.075 6.019531 11.75 2.2555 4.675 4.532347 9.2813 5.060547 10.2363 1.7224 3.1138 1.028937 5.3024-3.289063 10.3789-2.3375 2.748-5.6 6.7441-7.25 8.8789-1.649999 2.1347-4.349999 5.4841-5.999999 7.4434-4.1342 4.9091-7.5 9.7995-7.5 10.8984 0 .5049-.64053 1.4515-1.42383 2.1016-.7833.6501-2.80308 4.041-4.48828 7.5352-1.6853 3.4943-3.50592 6.5039-4.04492 6.6894-.5389.1854-1.08344 1.9129-1.21094 3.8379-.2421 3.6542-3.50618 11.6997-5.92578 14.6074-1.7808 2.1401-4.88552 13.2838-4.19922 15.0723.284.74.0366 1.925-.55078 2.6328-1.6689 2.0109-.86689 12.2434 1.13281 14.4531.9437 1.0428 1.41478 2.1966 1.04688 2.5645-.3679.3677.0284.6699.88086.6699.8525 0 1.79741.9443 2.09961 2.0996.3244 1.2407 1.01369 1.8144 1.68359 1.4004.6651-.4111 1.00467-.1418.82226.6523-.3759 1.6368 4.62504 6.8497 8.42774 8.7852 1.5125.7698 2.75 1.7032 2.75 2.0742 0 .371 2.24448 2.2057 4.98828 4.0781 3.6528 2.4926 4.84079 3.8752 4.43359 5.1582-.6275 1.9769 1.13257 2.4376 1.91797.502.6814-1.6792 2.5058.7918 3.3086 4.4824.327 1.5035.93887 2.5216 1.359372 2.2617.4205-.2599 1.013559.4813 1.318359 1.6465.3695 1.4133 1.072881 1.9188 2.113281 1.5196.94229-.3616 1.560547-.059 1.560547.7636 0 1.654 2.176532 2.5762 6.082032 2.5762 1.605 0 2.917968.45 2.917968 1s1.0125 1.0059 2.25 1.0059c2.06.01 2.00696.1324-.61914 1.5019-1.5775.8228-4.2775 1.8704-6 2.3281-1.9336.5138-3.03546 1.3968-2.88086 2.3086.1378.8122-.552856 2.3495-1.535156 3.416-.9824 1.0664-2.733125 3.9645-3.890625 6.4395-1.1575 2.475-3.044008 5.3468-4.191408 6.3828-1.1474 1.0361-1.87709 2.2226-1.62109 2.6367.2559.4142-.20454 1.3087-1.02344 1.9883-.819.6797-1.48828 1.7528-1.48828 2.3828 0 .63-1.125 2.8007-2.5 4.8242-1.375 2.0235-2.5 4.3784-2.5 5.2325 0 .8542-.45 1.5527-1 1.5527s-1 .9-1 2-.34167 2-.75977 2c-.4181 0-1.91462 1.0698-3.32421 2.377-1.4096 1.307-3.65554 2.719-4.99024 3.1386-2.8387.8923-8.51028 6.5999-9.42578 9.4844-.3492 1.1002-1.05546 2-1.56836 2-.5129 0-.93164.5943-.93164 1.3203 0 2.7431-7.37262 9.7647-15.04102 14.3262-4.378 2.6042-7.95898 5.1095-7.95898 5.5683 0 .4587-1.0125 1.2797-2.25 1.8243-4.9985 2.1996-15.32207 9.5054-19.85547 14.0507-1.983 1.9882-4.99732 4.2311-6.69922 4.9844-1.7019.7533-3.64395 2.3935-4.31445 3.6465-.6706 1.2529-1.81868 2.2793-2.55078 2.2793-.732 0-1.33008.3401-1.33008.7559 0 .4157-1.28999 1.3272-2.86719 2.0253-1.5772.6981-5.0647 3.3956-7.75 5.9942L0 489.33987h112.085942c.03639-.016.0438-.03.08594-.047.36095-.1444.756116-.2077 1.103516-.1934.31929.013.585862.099.757813.2403h11.599609c-.42558-.545.193566-1.4766 1.816406-2.9453 1.0256-.9275 1.55431-1.3914 2-1.3868.44568 0 .80835.476 1.5 1.4219.7753 1.0603 1.410156 2.2935 1.410156 2.7383 0 .059-.03289.1161-.08594.1719h14.853516c-.594021-.1702-.942483-.3753-1.039063-.627-.8917-2.3238.340159-11.0457 1.943359-13.7597 1.3486-2.2829 1.417232-3.648.457032-9.1622-1.4063-8.0751-1.453716-15.4955-.103516-16.33.5641-.3486 3.479416-.8878 6.478516-1.1973.90752-.094 1.70834-.152 2.40625-.168 4.88536-.112 4.697221 1.8719.300781 8.6739-2.1485 3.3243-4.462931 8.0362-5.144531 10.4707-1.2822 4.5795-1.140907 18.4278.183593 17.9863.4125-.1375.708234-.3625.658203-.5-.8378-2.2781 12.326879-22.7961 13.455079-20.9707.2557.4139.0962 2.7702-.355469 5.2363-1.0399 5.6781-.526956 15.31.839844 15.7656.5716.1906.791281.9937.488281 1.7832-.3029.7896-.0903 1.4356.472656 1.4356.563 0 1.251897-.5625 1.529297-1.25.2774-.6875.539031-.2375.582031 1 .02724.7763.0082 1.2802-.517578 1.6133h22.78125c-6.39364-1.1684-5.452618-4.2625-6.361328-12.2266-1.5583-13.6575-1.106366-17.2978 3.302734-26.6777 2.3089-4.9121 4.615775-5.7049 6.734375-2.3125 1.0916 1.748 1.516604 1.8874 2.283204.75.7804-1.1579.89139-1.1357.65039.1289-.5258 2.7588 6.214497 9.7043 8.216797 8.4668.7586-.4688.5937438-1.449-.5351562-3.1719-.8988-1.3718-1.3931463-2.7358-1.0976563-3.0312.29529-.2954-.3435219-2.2631-1.4199219-4.3731-1.7775-3.484-2.5560594-6.916-1.5683594-6.916 1.1466001 0 18.2066278-3.3733 25.1113278-4.9648 4.4-1.0141 9.6875-2.1315 11.75-2.4844s3.75-1.0706 3.75-1.5957c0-1.2897-3.656621-1.2104-6.169921.1347-1.1208.5998-4.577994 1.2533-7.683594 1.4512-3.1056.1979-10.9483346 1.3243-17.4277346 2.5039-6.4795 1.1797-12.4336214 1.8945-13.2324214 1.5879-2.081-.7985-.712753-3.5383 2.1230464-4.25 1.3143-.3299 2.390625-.9641 2.390625-1.4101 0-.446-1.6768627-.3491-3.7265624.2167-3.5392.9774-3.868769.8605-6.542969-2.33-4.2895-5.1178-7.95835-11.8243-7.34375-13.4258.3251-.8473 1.911159-1.4336 3.88086-1.4336 1.8323 0 3.758749-.4144 4.28125-.9199.5225-.5055 3.426172-1.4029 6.4511714-1.9942 15.3833-3.0068 20.1319126-4.0508 21.0703126-4.6308 1.18944-.7352 11.167887-1.0971 22.054687-1.0157 6.53208.049 13.39141.2582 18.875.6426 16.621 1.165 28.45 3.0345 42 6.6387 5.225 1.3899 16.475001 4.2981 25.000001 6.4629 8.525 2.1647 16.91729 4.583 18.65039 5.375 1.7332.7921 4.0957 1.4414 5.25 1.4414 2.2139 0 2.99431 1.9286.84961 2.0996-.6875.055-.13584.4096 1.22656.7891 2.1267.5924 1.41106 1.0691-5.05664 3.3652-11.1084 3.9435-35.91992 17.7437-35.91992 19.9785 0 1.4422-11.089873 11.7676-12.638672 11.7676-.702201 0-2.53236 1.604-4.06836 3.5644-6.0563 7.7303-28.035528 22.2394-31.611328 20.8672-.8134-.3122-1.766134-.1058-2.115234.459-.111.1796-1.193642.3363-3.082032.4727h25.28711c-.5998-.3422-.587336-.8511-.503906-1.6465.254199-2.4236 10.413206-12.7009 12.566406-12.7129.7334 0 1.149581-.5553.925781-1.2266-.2238-.6714 1.153347-2.0578 3.060547-3.08 1.9072-1.0222 4.641019-2.9204 6.074219-4.2188 9.307899-8.433 13.951229-13.3121 13.326169-14.0039-.39629-.4386-.19734-.4976.44336-.1309.6408.3668 3.1158-.7988 5.5-2.5898 8.8395-6.6402 13.49844-9.3091 19.83594-11.3652 3.575-1.1599 6.5-2.5842 6.5-3.166 0-.5818.40946-1.4342.91016-1.8926.5289-.4841.6093-.3083.1914.4179-.9626 1.6727-.51177 1.6138 9.89063-1.2636 4.9461-1.3682 10.84071-2.4864 13.09961-2.4864 3.6298 0 4.70631.6067 9.25781 5.2305 2.8325 2.8768 5.15039 5.7811 5.15039 6.4512 0 .67 1.29215 3.1525 2.87305 5.5176 1.5809 2.365 3.18716 5.3132 3.56836 6.5507.3812 1.2375 1.1121 2.25 1.625 2.25.5129 0 .93359.675.93359 1.5s.43605 1.5.96875 1.5c.5328 0 .7017.6955.375 1.5469-.3407.8878.17544 2.1121 1.21094 2.8692 1.7175 1.2559 1.69988 1.3775-.35743 2.4785-1.68029.8993-3.63038.8163-8.74218-.3692-3.6187-.8393-10.23297-1.5254-14.69727-1.5254-7.3721 0-9.9129.6073-27.6875 6.629-16.8843 5.72-20.02708 7.1144-22.89258 10.1484-2.5852 2.7372-3.0285 3.7222-2 4.4492.8778.6204.31517.7303-1.67773.3242-2.211-.4505-2.6055-.3457-1.5.4024 2.2591 1.5288 18.863 1.188 23.5-.4825 2.2-.7926 5.8-1.4411 8-1.4511 2.2-.01 6.025-.6592 8.5-1.4532 2.475-.7938 7.2-1.9534 10.5-2.5761 3.3-.6228 8.475-1.7553 11.5-2.5156 3.025-.7603 8.65-1.6243 12.5-1.9219 3.85-.2976 7.675-.6563 8.5-.7969.825-.1406 1.66157.1769 1.85937.707.1979.53-5.2021 3.8719-12 7.4258l-12.35937 6.461-1.24219.014h6.12891c.00048-.1129.0341-.2352.11328-.3633.3399-.55 1.04109-1 1.55859-1 .5176 0 .94141.45.94141 1 0 .1283-.0419.2503-.11133.3633h9.20313l2.12109-1.7695 2.28711-1.9043-2.25195.5625c-1.2382.3089-2.03253.2073-1.76563-.2246.8988-1.4542 7.5297-4.1373 8.5957-3.4785.5809.3591 1.30337-.2938 1.60547-1.4492.37082-1.418.9838-2.0737 1.76367-1.9942 1.00271.1014 2.28031 1.4186 3.67188 3.8945 1.2364 2.2 2.84075 4 3.56445 4 2.8948 0 1.09581 2.0098-1.93359 2.1602-1.40442.07-4.65896.1465-7.92188.2031 2.84233.051 8.59563.069 15.04883.066v-.7461l-1.78711-3.5039c-1.0717-2.1007-3.53239-5.714-5.46679-8.0293-5.6008-6.7038-10.20159-15.079-12.58399-22.9023-1.2143-3.9875-2.69707-7.25-3.29297-7.25-.5959 0-.79987-.2823-.45507-.627.34469-.3447-.091-2.0135-.9668-3.707-1.0638-2.0572-1.22915-3.1997-.49805-3.4434.6018-.2006-.23799-1.6652-1.86719-3.2578-1.6291-1.5926-2.96289-3.2792-2.96289-3.7441 0-.9445-12.44489-11.492-14.30859-12.127-.6546-.223-2.58687-1.4613-4.29297-2.7539-2.9699-2.2501-25.28867-12.3398-27.29687-12.3398-2.7987 0-20.90359-6.524-22.73829-8.1934-1.1759-1.07-6.27096-3.0745-11.32226-4.455-5.0514-1.3806-10.671382-3.4877-12.488282-4.6817-1.817-1.1938-4.079144-2.6257-5.027344-3.1836-1.537-.9043-1.277222-1.501 2.392578-5.5 2.264-2.4671 4.66855-5.7238 5.34375-7.2363.6753-1.5125 1.578159-2.75 2.005859-2.75.4277 0 2.475539-3.4875 4.552739-7.75l3.77734-7.75 4.45117.1484c2.4483.082 9.85117.7761 16.45117 1.543 17.0374 1.9796 26.54075 1.3189 34.34375-2.3926 3.1415-1.4943 3.9711-2.3025 3-2.9179-1.0448-.6622-.96854-.8533.34766-.8653.93-.01 1.9719.436 2.31445.9903.9477 1.5333 3.42901-1.4246 4.12891-4.9239.3339-1.6696 1.22763-3.5539 1.98633-4.1836.7587-.6297 1.3789-2.6377 1.3789-4.4629 0-1.8252.45191-3.5963 1.00391-3.9375.552-.3411.72918-1.7192.39258-3.0605-.387-1.5418-.18342-2.4375.55468-2.4375.6421 0 .9082-.4196.5918-.9317-.3164-.5116-.11759-1.2131.44141-1.5585.559-.3455 1.01562-1.9247 1.01562-3.5098 0-1.5851.39204-3.1232.86914-3.418.7509-.4641 1.701-5.1178 2.4668-12.082.1209-1.1.71035-2.9 1.31055-4 .6002-1.1 1.39528-3.6875 1.76758-5.75.3723-2.0625 1.15553-3.75 1.74023-3.75.6346 0 .81005-1.0076.43555-2.5-.3619-1.4416-.19503-2.5.39258-2.5.56049 0 .94642-.3375.85742-.75-.0888-.4125.40029-2.1 1.08789-3.75.6877-1.65 1.39496-3.675 1.57226-4.5.1773-.825.88301-2.85 1.56641-4.5 1.4864-3.589 2.02471-5.4884 2.12891-7.5.0427-.825.40478-1.95.80468-2.5.4-.55.63925-2.0125.53125-3.25-.108-1.2375.17862-2.25.63672-2.25.4581 0 .83203-.6388.83203-1.418 0-.7791.5625-1.6425 1.25-1.9199 1-.4035 1-.521 0-.584-1.3124-.083-1.799-3.0788-.5-3.0781.4125.0002.69591-3.0373.62891-6.75-.0671-3.7127.13417-7.1891.44726-7.7246.90781-1.5527.33118-11.4973-1.01562-17.5098-.6797-3.0342-1.25344-5.9519-1.27344-6.4844-.0202-.5326-1.09356-2.1076-2.38476-3.5-3.2375-3.4914-4.52786-6.0312-3.06446-6.0312.8534 0 .84027-.3833-.0508-1.457-1.64747-1.9851-.69174-3.1632 3.19336-3.9375 1.7989-.3586 6.38215-2.7188 10.18555-5.2461 5.9468-3.9516 6.66526-4.7351 5.13086-5.5938-1.1438-.6399-2.01154-.6498-2.41602-.029-.8266 1.2673-6.13086 2.2424-6.13086 1.127 0-.4737.45-.8614 1-.8614s1-.45 1-1-.72879-1-1.62109-1c-1.3288 0-1.39851-.2715-.37891-1.5.9973-1.2014.98959-1.5-.043-1.5-2.1149 0-.3266-1.1553 5.375-3.4726 5.2715-2.1425 16.84978-10.2912 18.38868-12.9414.7973-1.3732 10.37419-12.5498 13.52929-15.78904.9625-.9882 1.75-2.24688 1.75-2.79688 0-.55.45-1 1-1s1-.675 1-1.5.45-1.5 1-1.5 1.00166-.5625 1.00196-1.25c.0004-.6875 2.01561-3.81777 4.47851-6.95507 2.5437-3.2402 4.04291-5.97248 3.4707-6.32618-.58389-.3608.51107-2.69377 2.60547-5.54687 1.9877-2.7078 3.2386-4.93808 2.7793-4.95508-.4594-.0175-.14192-.58.70508-1.25 1.5595-1.2338 6.95898-11.9252 6.95898-13.7793 0-.5543.72583-2.11344 1.61133-3.46484.8854-1.3514 1.35884-3.1104 1.05274-3.9082-.3061-.7977-.17519-2.78045.29101-4.40625.5488-1.9134.4588-3.34394-.25391-4.05664-.79779-.7964-.7994-1.40522-.01-2.19532.7902-.7902.70973-1.8283-.29297-3.75-.7626-1.4616-1.39258-3.44375-1.39258-4.40625-.006-1.6941-1.10104-3.14884-6.80664-9.03515-7.864-8.1131-23.12942-12.31601-43.69922-12.03321-13.8926.1909-22.1043 1.38624-43.5 6.33204-19.7237 4.5594-20.65467 4.64991-21.46289 2.10351-.36959-1.1647-1.09964-2.11719-1.62304-2.11719-.5235 0-.67942-1.08817-.34571-2.41796.46779-1.8638.0716-2.70976-1.73047-3.68946l-2.33789-1.27148 2.5-.71094 2.5-.71094-2.75-.0996c-2.8301-.1026-3.7166-1.5431-1.5-2.4375.7252-.2926.49091-.53798-.55859-.58398-.995-.0434-1.53131-.52813-1.19141-1.07813.3399-.55-.28281-1-1.38281-1s-2.27729-.45-2.61719-1c-.3399-.55-.0873-1 .5625-1 .8918 0 .88257-.36055-.0371-1.46875-.6701-.8074-1.51139-1.42886-1.87109-1.38086-2.1852.2888-3.25942-.36829-3.10352-1.90039.3344-3.2876-.0507-4.18898-1.55078-3.61328-.9225.354-1.5-.001-1.5-.92383 0-1.5786-2.62964-3.06152-3.96484-2.23632-.4308.2662-4.55306-3.00343-9.16016-7.26563-9.555-8.84-16.67289-13.93582-27.874997-19.95312-1.925-1.034-4.4-2.3821-5.5-2.9961-1.33088-.74298-2.711834-1.37641-4.052734-1.88476l-9.63086-1.87305c-.33854.29962-.791049.15984-1.162109-.22656zm-4.916015 5.89454c6.56946.0783 12.863669.93679 17.630859 2.49804 12.3065 4.0304 25.974154 13.2555 39.626954 26.7461 4.7852 4.7285 5.05058 5.44834 2.33398 6.31054-2.516.7986-7.23925-.41345-6.46875-1.66015.3312-.5359 1.67914-.705 2.99414-.375 2.4799.6224 3.39048-.84052 1.07618-1.72852-2.0864-.8006-6.73394.40269-6.01953 1.5586.37479.60649.15691.74147-.52149.32226-1.679-1.03768-5.14453.29376-5.14453 1.97656 0 .8512-.98877 1.4336-2.43555 1.4336-1.33921 0-3.70173.52135-5.249998 1.16015-1.54832.6388-3.208053 1.07069-3.689453.95899-.4813-.1118-1.6063.4231-2.5 1.1875-2.0897 1.7868-5.125 2.86636-5.125 1.82226 0-1.3621-5.116081-3.22765-7.113281-2.59375-1.9585.6216-3.522203 4.62673-2.470703 6.32813.5116.8277-3.419616 3.48525-13.916016 9.40625-7.8395 4.4223-12.6014 7.2378-16.5 9.7539-2.475 1.5973-5.762087 3.61964-7.304687 4.49415-1.5425.87459-7.471881 4.60225-13.175781 8.28515-5.7039 3.6828-14.965078 9.62227-20.5800785 13.19727-14.98701 9.5422-21.9503715 13.19011-22.3886715 11.72851-.2026-.6754-.901335-4.82851-1.552735-9.22851-.6513-4.4-1.545781-10.2199-1.988281-12.9336-1.0493-6.4346-.594491-31.2572.724609-39.5664 1.0395-6.548 3.941472-14 5.451172-14 1.0854 0 1.064138.2533-.789062 9.5-2.0611 10.2839-2.087671 35.48559-.05078 48.71679 1.611111 10.4649 2.068032 11.78321 4.082032 11.78321 1.0771996 0 1.0726221-1.01908-.02344-5.73438-2.0836-8.9633-2.702884-26.48882-1.458984-41.26562 2.0813997-24.7266 2.8866717-31.06685 4.1386718-32.58985.4928999-.5996 4.1631499-2.13154 8.15624995-3.40234 3.99299995-1.2707 8.15976565-2.65763 9.25976565-3.08203 1.1000006-.4244 4.2499996-1.52918 6.9999996-2.45508 2.75-.9259 5.9-2.0634 7-2.5293 11.48762-2.52148 15.947892-3.97979 25.138672-5.30664 3.86955-.53037 7.911836-.7638 11.853516-.71679zm-64.185547 4.76367c.62229-.003 1.2153081.0342 1.7675781.11523 4.3761.6423 3.5699813 2.02798-2.8242187 4.85547-11.3634994 5.02491-18.7589004 8.61189-19.2500004 9.33789-.6331.9359-5 2.33136-5 1.59766 0-.5816 6.284129-6.48759 11.861329-11.14649 3.297699-2.75468 9.089292-4.74053 13.445312-4.75976zm-8.367188 14.33008c.22548-.0264.444326.04.634766.23046.3346.3345.18065 1.37365-.34375 2.31055-.6996 1.2502-1.153678 1.38038-1.705078.48828-.6543-1.05877.436872-2.91495 1.414062-3.02929zm-7.039062 3.98828c1.438 0 1.432352.0475-.898438 7.28906-3.439509 10.6859-4.95634 23.92904-4.43164 38.71094.4806 13.5371 2.863044 32.04032 4.527344 35.16992.6873 1.2924.0388 2.32554-2.855469 4.55664-3.6733 2.8316-11.198628 7.79066-18.361328 12.09766-5.7803 3.4757-8.520516 2.94888-10.791016-2.07422-1.0566-2.3375-2.397815-5.825-2.978515-7.75-.5806-1.925-2.004716-6.54076-3.166016-10.25586-1.1613-3.715-2.416009-9.79-2.78711-13.5-.67869-6.7885.238272-20.17424 1.763672-25.74414.9481-3.4622 1.147772-3.04327 3.451172 7.30273 2.205 9.904 4.94591 15.55503 10.34961 21.33203 4.9465 5.2882 7.610215 6.30504 6.853515 2.61524-.9972-4.8622-1.589184-9.72618-2.583984-21.20508-.9885-11.407-2.917828-20.50284-4.861328-22.92383-.4951-.61681-1.195088-2.50085-1.554688-4.18555-.5817-2.7249-.235534-3.36127 3.134766-5.76367l3.789062-2.69922.59375 10.76367c.6237 11.29571 1.011332 13.2346 3.957032 19.8086 1.8619 4.1554 6.458161 9.45508 8.201171 9.45508.56459 0 .697-1.1662.3125-2.75-.367309-1.5125-1.279043-10.175-2.027343-19.25-.7483-9.075-1.850619-17.76814-2.449219-19.31641-.5986-1.54832-1.087891-2.94863-1.087891-3.11133 0-.6375 12.866791-8.57226 13.900391-8.57226zm106.986328 3.6582c-.98142-.0648-1.922441.37752-2.863281 1.31836-2.2375 2.2375-2.731138 7.57183-.773438 8.36133.6875.2769 1.849532.31349 2.582032.082.7325-.2315 1.734262-.41992 2.226562-.41992.4924 0 1.634449-1.12816 2.537109-2.50586 1.351511-2.0625 1.414369-2.77879.355469-4.05469-1.47442-1.7766-2.802623-2.69786-4.064453-2.78125zm-18.023437 8.01367c-1.34954.0737-2.642835.60229-3.390625 1.66992-1.5578 2.2242-1.916241 4.88074-.806641 5.99024 2.1857 2.1858 9.589884-1.54062 9.146484-4.60352-.29469-2.0355-2.699978-3.17942-4.949218-3.05664zm1.078125 2.32813c.5824 0 1.058593.45 1.058593 1s-.198806 1-.441406 1c-.2425 0-.718694-.45-1.058594-1s-.141093-1 .441407-1zm9.9375 3.5039c.18345.002.392673.0471.621093.13477.825.3166 1.5.97755 1.5 1.46875 0 .4911-.675.89258-1.5.89258s-1.5-.66105-1.5-1.46875c0-.66975.328537-1.03481.878907-1.02735zm46.746094.0137c.97945-.0134 1.375.33287 1.375 1.07031 0 1.6131-2.5706 1.91601-3.5.41211-.34-.55-.47859-1.03418-.30859-1.07618 1.04805-.2595 1.84592-.39824 2.43359-.40624zm-8.625 4.48242c.55 0 1 .45 1 1s-.45 1-1 1-1-.45-1-1 .45-1 1-1zm-13.81641 1.31445c.14368.005.26316.0263.35743.0625 2.81919 1.0819 1.56798 2.80585-1.54102 2.12305-2.3293-.5116-3-.31247-3 .89453 0 .8592-1.900801 2.41903-4.250001 3.48633-2.3375 1.0619-6.5 2.17832-9.25 2.48242-2.75.3043-4.118115.29716-3.041015-.0176 1.0771-.3147 2.9896-1.24832 4.25-2.07422 1.2604-.8255 2.291015-1.15592 2.291015-.73242 0 .4235.7875.12002 1.75-.67578 2.88694-2.38687 10.278331-5.62982 12.433591-5.54883zm3.75782.68555c.5175 0 1.21869.45 1.55859 1 .3399.55-.0839 1-.94141 1-.8574 0-1.55859-.45-1.55859-1s.42381-1 .94141-1zm11.1582 1.71289c.33198-.12486 1.72507 1.57094 3.37109 4.15429 1.88122 2.9525 4.36132 6.02829 5.51172 6.83399 1.1503.8058 3.15332 2.52441 4.44922 3.82031l2.35547 2.35742-2.99219 1.04297c-2.6179.9127-3.05616.79495-3.50976-.93945-.2851-1.0902-.91655-1.98242-1.40235-1.98242-.4859 0-.88281-.89935-.88281-1.99805s-1.575-4.18974-3.5-6.86914c-1.925-2.6795-3.48861-5.49265-3.47461-6.25195.002-.0949.0268-.15013.0742-.16797zm16.59375 6.40039c.49731 0 1.43039.29532 2.80664.88672 1.9282.8286 1.92099.86168-.19141.92968-1.205.0387-2.46869-.37968-2.80859-.92968-.3655-.5914-.30395-.88672.19336-.88672zm83.08008.17773c1.86067-.0671 7.17218 2.05784 9.49023 3.95117 2.4991 2.0412 2.76811 2.88212 2.78711 8.75782.0115 3.575-.0704 7.2875-.18164 8.25-.1281 1.1089-1.05666 1.75-2.53516 1.75-2.3607 0-2.70279-.68367-2.37109-4.76368.2923-3.5958-1.92808-9.41427-5.17187-13.55273-1.6452-2.0989-2.80954-3.99896-2.58594-4.22266.10611-.10611.30255-.16034.56836-.16992zm13.36132.99024c2.17016.0487 7.14653 1.36813 12.23243 3.36133 13.2576 5.1956 16.13281 9.42803 16.13281 23.74023 0 6.2919-.37246 9.07159-1.25586 9.36719-.6909.2312-.98645.85838-.65625 1.39258.33.5343.32359 2.07036-.0137 3.41406-.6086 2.425-3.91317 3.58866-3.38867 1.19336.1506-.6875-.84564-2.375-2.21485-3.75-1.36928-1.375-3.41226-3.68978-4.53906-5.14258-1.1269-1.4528-4.38493-4.07904-7.24023-5.83594-5.1873-3.1918-6.12013-4.69433-4.14063-6.67383.5783-.5783 1.06603-3.85828 1.08203-7.28906.0283-5.91202-.15658-6.40413-3.55078-9.42383-1.9697-1.7524-3.58203-3.53168-3.58203-3.95508 0-.2884.41138-.41466 1.13476-.39843zm-22.30664.21484c1.99732-.0376 3.38957.0855 3.97071.39649 4.1281 2.2092 5.31298 4.87272 6.83398 15.35742.6247 4.3062 1.45441 4.07758-13.65039 3.77148-12.6708-.2568-27.72182 1.65877-43.98242 5.59961-13.4191 3.2521-33.8065 9.29208-38.5 11.40625-1.1.4955-4.7 1.83938-8 2.98438-3.3 1.145-6.7875 2.33689-7.75 2.65039-2.9359.9565-2.27263-1.91157 3.29297-14.22657 1.3431-2.9719 2.72597-4.36027 5.14648-5.16796 1.82038-.6075 6.46055-2.28863 10.31055-3.73633 7.1778-2.6991 23.2577-7.86171 29.5-9.47071 1.925-.4961 6.2-1.60052 9.5-2.45312 14.65311-3.78592 34.67305-6.94829 43.32812-7.11133zm-98.82031.68359c.67493.0603.67758.4744.32227 1.4004-.5397 1.40629-.2528 1.63212 1.5 1.17382 2.7621-.7223 2.72766.1842-.10938 2.8711-1.2341 1.1688-3.45248 2.125-4.92968 2.125-1.97561 0-2.76679-.5619-2.99219-2.125-.2214-1.5357-.92904-2.05882-2.55274-1.88672-3.3566.3559-2.71209-1.49076.75391-2.16016 1.65-.3187 4.34865-.8397 5.99805-1.1582.9576-.18498 1.60481-.27642 2.00976-.24024zm31.08399.004c.40509.0589.91848.42012 1.67578 1.10547 1.0394.9406 2.95752 1.71094 4.26172 1.71094 1.4023 0 1.98172.35438 1.41992.86718-.5225.4769-3.06098 1.56583-5.64258 2.41993-3.9735 1.3148-4.86891 1.34088-5.83594.17578-.62828-.757-.82249-1.89565-.42968-2.53125.39279-.6356.0939-1.58488-.66407-2.10938-.96002-.6644-.65635-.74975.99805-.28125 1.5153.4291 2.67002.19587 3.18945-.64453.32623-.52785.62226-.77181 1.02735-.71289zm-60.060551.81641c1.0827 0 1.96875.58383 1.96875 1.29882 0 1.97401-2.14335 3.70118-4.59375 3.70118-1.2062 0-2.463068.7026-2.792968 1.5625-.33.86-1.094872 1.25761-1.701172.88281-.6063-.3747-2.213966-.0863-3.572266.64062-2.0865 1.1167-2.613725 1.09539-3.390625-.13281-.7273-1.1498-.921594-1.00751-.933594.67969-.009 1.3116-.817503 2.34353-2.095703 2.67773-1.561.4083-1.9348.16826-1.5-.96484.3185-.8298.580078-2.1387.580078-2.9082 0-.7696 1.2375-1.70297 2.75-2.07227 1.5125-.3694 3.823066-1.50148 5.134766-2.51758 2.8926-2.2408 3.811278-2.29624 5.767578-.33984 1.7322 1.7321 3.746766.97412 2.947266-1.10938-.3479-.9065.15584-1.39843 1.43164-1.39843zm61.435551 2.11328c-.50986 0-1.59225.29607-2.9668.88672-1.3187.5667-1.4891.87806-.5.91406.825.0302 2.175-.38086 3-.91406.914-.59065.97666-.88672.4668-.88672zm-32.99805.88672c-.8077 0-1.46875.675-1.46875 1.5s.40148 1.5.89258 1.5c.4912 0 1.15215-.675 1.46875-1.5.3507-.9137.002-1.5-.89258-1.5zm17.47266 0c-.5825 0-.78131.45-.44141 1 .3399.55.81609 1 1.05859 1 .2426 0 .44141-.45.44141-1s-.47619-1-1.05859-1zm-54.441411.84961c-.5225 0-1.111593.48302-1.308593 1.07421-.1971.59131.391893 1.07618 1.308593 1.07618.9167 0 1.505694-.48487 1.308594-1.07618-.197-.59119-.786094-1.07421-1.308594-1.07421zm28.074221.24218c.80034-.0277 1.42578.24943 1.42578.94532 0 .647-.675.91816-1.5.60156-.9137-.3507-1.5-.002-1.5.89258 0 .8077-.48392 1.46875-1.07422 1.46875-.590401 0-.921781-.7875-.738281-1.75.23219-1.21831 2.052821-2.11211 3.386721-2.15821zm28.98437 1.90821c-.8574 0-1.55859.45-1.55859 1s.42381 1 .94141 1c.5175 0 1.21869-.45 1.55859-1 .3399-.55-.0839-1-.94141-1zm-34.644528.57226c.68858.061 1.090889.60951.542969 1.4961-.3164.512-1.278772.93164-2.138672.93164-1.2712 0-1.332925-.27954-.328125-1.49024.48416-.58339 1.094281-.87778 1.613281-.93359.10812-.0116.212187-.0124.310547-.004zm-33.714844 1.42774c.8868 0 .907355.29186.07813 1.12109-.6124.61698-.895794 1.70803-.621094 2.42383.2747.7158-.332356 1.74576-1.347656 2.28906-2.8057 1.5018-9.011434 2.45727-9.615234 1.48047-.2941-.476 1.903612-1.97894 4.882812-3.33984 2.9792-1.361 5.419922-2.81211 5.419922-3.22461.002-.4125.543125-.75 1.203125-.75zm57.917972 3c1.1 0 1.72271.45 1.38281 1-.3399.55-1.51914 1-2.61914 1-1.1 0-1.72076-.45-1.38086-1 .3399-.55 1.51719-1 2.61719-1zm-31.117191.0371c.825-.0141.210166.64705-1.365234 1.46875-3.6471 1.9024-4.572172 1.91327-2.076172.0254 1.0676-.8075 2.616406-1.48012 3.441406-1.49414zm15.277341 1.01367c.47797 0 .61376.31642.22266.94922-.3399.55-1.37859.99437-2.30859.98437-1.4573-.0132-1.48411-.14897-.19141-.98437.9792-.6328 1.79936-.94922 2.27734-.94922zm-21.437497 1.91992c.30361.0179.04209.41349-.712891 1.3418-1.50063 1.8447-4.126953 2.2824-4.126953.6875 0-.55.412969-1 .917969-1 .505 0 1.7425-.3096 2.75-.6875.60469-.22687.989705-.35254 1.171875-.3418zm16.718747 1.0293c.858 0 1.28131.45.94141 1s-1.04109 1-1.55859 1c-.517606 0-.941411-.45-.941411-1s.701192-1 1.558591-1zm-49.25195 1.19326c.15131.01.274345.0536.359375.13867 1.0912 1.0913-1.834716 3.66797-4.166016 3.66797-1.2403 0-2.786093.63777-3.433593 1.41797-.6476.7802-4.301294 2.88553-8.121094 4.67773-3.8198 1.7922-6.945313 3.62748-6.945313 4.08008 0 .4526-.701193.82422-1.558593.82422-.8806 0-1.26256-.4798-.88086-1.09766 1.1214-1.81439 9.697466-6.90234 11.634766-6.90234.9923 0 1.804687-.36763 1.804687-.81641 0-.44872 1.8-1.82805 4-3.06445 2.2-1.2365 4-1.93822 4-1.56055 0 .3775.685138.11572 1.523438-.58008.62872-.5217 1.329273-.81415 1.783203-.78515zm43.763672 1.07812c.33934-.0106.559421.11958.65039.39258.20791.6234 1.352772.87184 2.576172.55664 1.980406-.5101 2.061176-.39541.792969 1.15039-.7756.94538-2.037234 1.47925-2.802734 1.18555-.7657-.2938-1.126988-.10744-.804688.41406.696 1.1263-8.134744 5.36312-9.464843 4.54102-.505-.3121-1.428135.38748-2.052735 1.55468-.751 1.4032-1.786034 1.9523-3.052734 1.6211-1.0537-.2755-1.663669-.0924-1.355469.40625.3083.4987-.166741.90625-1.056641.90625-.8899 0-1.3399.45-1 1 .3399.55-.161681 1-1.113281 1-.9517 0-2.629486.7875-3.728516 1.75-1.840279 1.6117-1.948606 1.61554-1.378906.0508.4232-1.1624.194997-1.53695-.720703-1.18555-.8012.3075-1.118615 1.35442-.791015 2.60742.4578 1.7504.194071 2.0014-1.611329 1.5293-1.1877-.3106-1.963409-.24968-1.724609.13672.6345 1.0266-11.537141 7.142-14.181641 7.125-1.2375-.008-2.25.55139-2.25 1.24219 0 1.7627-5.546715 4.0218-7.978515 3.25-2.1548-.684-2.881485 1.00682-.771485 1.79492.7819.2921.5011.72495-.75 1.15625-1.1.3792-2.822525 1.13243-3.828125 1.67383-1.2311.6624-2.254112.62957-3.132812-.0996-.9623-.7987-1.450975-.70473-1.859375.35937-.308.8028.168872 1.72026 1.076172 2.06836 1.3033.5002.985962 1.01989-1.585938 2.58399-1.7699 1.0764-4.134706 1.95703-5.253906 1.95703-1.1192 0-1.784769.40213-1.480469.89453.6713 1.0861-2.240281 2.3432-3.550781 1.5332-.514-.3177-.811256-.0401-.660156.61524.1512.6554-1.63711 2.27691-3.97461 3.60351-3.3314 1.8907-4.25 2.09134-4.25.93164 0-.8137.616241-1.8395 1.369141-2.2793 2.1821-1.27459 2.940056-4.96543 1.160156-5.64843-.9346-.3586-1.529297-.0301-1.529297.8457 0 1.54678-3.374834 3.79714-4.302734 2.86914-.3105-.3105-.036798-1.72272.6074219-3.13672.9063001-1.9882.8968641-2.66201-.041016-2.97461-2.4235-.8079 2.9370251-6.12497 8.0156251-7.95117 2.7331-.9828 5.185772-2.35312 5.451172-3.04492.2655-.6917.871803-1.25781 1.345703-1.25781.4739 0 .558253.78704.189453 1.74804-.637 1.6598-.53819 1.66012 1.97461.0137 2.3941-1.5686 2.793725-1.58529 4.203125-.17579.8564.8564 1.55664 2.19868 1.55664 2.98438 0 .7857.479307 1.42969 1.066407 1.42969.5872 0 .800709-.84144.474609-1.86914-.489-1.5406.07-1.97291 3.183594-2.47071 2.0765-.3318 4.90039-.35216 6.27539-.0449 1.9635.4387 2.1781.32783 1-.51367-1.2019-.8585-.9038-1.07756 1.5-1.10156 2.3074-.0236 2.6537-.2544 1.5-1-1.144-.7393-.754421-.97238 1.642579-.98438 1.8601-.009 3.378149-.62792 3.71875-1.51562.3166-.825 1.377721-1.49438 2.357421-1.48438 1.3809.0119 1.475528.2086.423829.875-.824101.5222-.966682 1.09966-.363282 1.47266 1.3733.8487 3.561603-2.00325 2.658203-3.46485-.5339-.864.01129-1.002 1.996094-.5039 1.5373.3859 2.492641.29431 2.181641-.20899-.7668-1.2406 3.064047-4.42128 8.123047-6.74218 2.3312-1.0695 4.24-2.28086 4.25-2.69336.006-.4125.630962-.75 1.388671-.75.75759 0 1.933582-.66928 2.613282-1.48828.6796-.8189 1.635347-1.24281 2.123047-.94141s.886718.0708.886718-.51172c0-.58241 1.076478-1.05859 2.392579-1.05859 1.316199 0 2.658654-.69427 2.984374-1.54297.441681-1.1511 1.05551-1.29641 2.41211-.57031 1.0008.5356 2.422156.60063 3.160156.14453 1.0311-.6373.902213-.91835-.554687-1.21485-1.6451-.3349-1.508704-.64228 1.029297-2.33008 1.184939-.788 2.080934-1.19713 2.646484-1.21484zm-20.404297 1.72852c2.1936 0 3.210516.38956 2.791016 1.06836-.3631.5871-1.337969.80678-2.167969.48828-.8911-.342-2.732794.61584-4.496094 2.33984-2.8062 2.7436-7.459928 4.98977-6.236328 3.00977.9146-1.4798-1.289862-1.03045-2.914062.59375-1.7016 1.7016-3.642579 1.98139-3.642579.52539 0-1.7198 5.866735-4.09025 8.740235-3.53125 2.0623.4011 2.271772.32346.826172-.30664-1.336-.5824-1.5678-1.06882-.75-1.57422.651-.4024 1.635553-.45178 2.189453-.10938.5538.3423 1.277422-.0816 1.607422-.9414.3837-1.0001 1.844534-1.5625 4.052734-1.5625zm-157.517578 3.81054c.2869-.0404.491392.16613.570312.68946 1.2687 8.4131 2.947985 13.8924 5.958985 19.4414 4.1843 7.7113 11.5985 16.63289 15.5 18.65039 4.0954 2.1178 3.497565 3.04543-2.427735 3.76563-2.8875.351-7.339731.91681-9.894531 1.25781-4.2658.5694-4.705416.42685-5.384766-1.74805-.40679-1.3025-1.021634-2.59218-1.365234-2.86718-2.2272-1.7829-8.492187-22.4329-8.492187-28-.001-3.55708 3.985886-10.97127 5.535156-11.18946zm190.128903 3.50586c.22455-.0161.38316.0101.45899.0859.3033.30332-.1874 2.48932-1.0918 4.85742-.9044 2.3682-1.65016 5.64184-1.66016 7.27344-.0194 3.7639-.73224 4.80087-4.68554 6.82617-4.743805 2.4302-5.645921 2.14143-5.011721-1.60937 1.0849-6.4162 5.486091-14.58231 8.775391-16.28321 1.28865-.66638 2.54118-1.10204 3.21484-1.15039zm-52.851559.6836c1.5006 0 3.196215 3.71198 2.166015 4.74218-.3252.3252-.591797.0654-.591797-.57617 0-.6417-.926193-1.16601-2.058593-1.16601-1.1994 0-1.785044.4433-1.402344 1.0625.7937 1.2842-2.310713 4.9375-4.195313 4.9375-.7397 0-2.24375.9-3.34375 2-2.0061 2.0061-5.63829 2.83986-4.52539 1.03906.3263-.528-.884966-.43066-2.691407.21484l-3.283203 1.17383 3 .66797c1.65.3674 2.215613.72016 1.257813.78516-.9579.0651-2.303235 1.01914-2.990234 2.11914-1.732301 2.7738-4.792954 2.50413-4.751954-.41797.008-.5958.451175-.40703.984375.41797.8284 1.2819.971375 1.2455.984375-.25.008-.9625-.434375-1.75-.984375-1.75-2.1456 0-.818987-1.73391 2.945313-3.84961 2.6565-1.4925 4.773775-2.00938 6.484375-1.58008 2.1024.5277 2.709697.189 3.529297-1.9668.5447-1.4325 1.596537-2.60351 2.335937-2.60351.7394 0 2.321978-1.125 3.517578-2.5 1.1955-1.375 2.821682-2.5 3.613282-2.5zm174.099609 1.35351c.37826-.0558.47461.41513.47461 1.52344 0 1.2199-.6378 2.12305-1.5 2.12305-.825 0-1.5-.39623-1.5-.87891 0-.48262.675-1.43639 1.5-2.12109.46995-.39004.79844-.61303 1.02539-.64649zm-41.33789 1.66602c2.98771.0992 4.8356 1.57153 6.09766 4.7207.8285 2.0673 1.30098 4.09727 1.05078 4.50977-.7723 1.2732-1.69514.84038-5.83594-2.72852-2.2-1.8962-4.60069-3.46337-5.33398-3.48437-2.19621-.0618-.69133-2.5116 1.76367-2.8711.81759-.11972 1.56834-.16936 2.25781-.14648zm-18.28906.92383c.20855-.0216.45094.072.70508.32617v-.004c.3323.3323.41509 1.17249.18359 1.86719-.3388 1.0202-.57498 1.0194-1.20508 0-.6255-1.01212-.30925-2.1246.31641-2.18945zm64.71289.40039c.11953.0201.25117.0713.38867.15625.55.3399 1 .81609 1 1.05859 0 .2426-.45.44141-1 .44141s-1-.4762-1-1.0586c0-.43688.25274-.65794.61133-.59765zm-211.353518 1.86914c.1937.008.34291.0519.43164.14062.22618.2263-1.904774 1.83703-4.734374 3.57813-2.8296 1.7411-5.665282 3.59253-6.300782 4.11523-3.1949999 2.6282-11.65429662 7.71356-11.65429662 7.00586 0-.4459 2.58750002-2.55216 5.75000002-4.68164 3.1625-2.12951 5.9006846-4.20859 6.0839846-4.62109.1834-.4125.915153-.75 1.626953-.75.7118 0 1.8927-.72317 2.625-1.60547 1.21844-1.46816 4.816005-3.23751 6.171875-3.18164zm70.449219.21679c.0426.005.0726.0179.0918.0371.2668.2667.0381 1.05702-.509766 1.75782-1.6859 2.1566-3.021075 9.26484-2.171875 11.56054.6865 1.8558.18505 2.53452-3.40625 4.60743-3.6042 2.08029-7.122438 3.7618-14.710938 7.0371-.825.3561-2.4 1.19363-3.5 1.86133s-7.175 4.07015-13.5 7.56055c-10.9865 6.0629-22.2707 13.34041-32 20.63865-2.475 1.8566-4.863893 3.4063-5.308593 3.4434-.7316.06-8.4836066 5.7656-9.6914066 7.1328-.485.549-7.91909376 5.8903-12.4335938 8.9336-4.823 3.2512-37.2212066 31.6185-43.5664066 38.1465-1.925 1.9805-7.94154 8.1574-13.36914 13.7265-5.4276 5.5691-10.215225 10.127-10.640625 10.127-.4248 0-.632585-3.5986-.458985-7.9961.3507-8.8876 1.106657-10.3542 8.535157-16.5605 5.2811-4.4122 13.757987-12.448 19.304687-18.2989 2.2704-2.3948 8.628906-8.2176 14.128906-12.9414 5.5-4.7238 10.454266-9.0651 11.009766-9.6465.5555-.5815 2.8055-2.4435 5-4.1386 2.1945-1.6951 6.8477969-5.2951 10.3417969-8 3.49389998-2.7049 7.4203094-5.59301 8.7246093-6.41801 2.3035-1.4571 9.9514998-6.73854 23.5624998-16.27344 13.52669-9.47589 61.88659-36.62463 64.56836-36.29688zm138.351559 1.57032c.5176 0 .94141.45.94141 1s-.70119 1-1.55859 1c-.858 0-1.28131-.45-.94141-1s1.04109-1 1.55859-1zm-71.57226 4.25195c1.41732-.0196 2.51367.62245 2.51367 1.6543 0 .4339-1.35.828-3 .875-3.3931.0965-4.02217-1.3232-1.00977-2.2793.51522-.16352 1.02366-.24348 1.4961-.25zm-130.423831 1.91797c.52718-.0623.657068.39392.330079 1.24609-.3342.871-1.046985 1.58399-1.583985 1.58399-1.3144 0-.490994-2.27319 1.003906-2.77149.0913-.0304.17469-.0497.25-.0586zm209.585941 3.98633c.38533.009.35156.34282.35156.86328 0 .5618-1.2375 1.56521-2.75 2.22851-1.5125.6632-5.09203 2.67852-7.95313 4.47852-4.7528 2.9902-8.29687 4.14407-8.29687 2.70117 0-.728 2.68004-3.42773 3.40234-3.42773.2998 0 3.78083-1.575 7.73633-3.5 5.06163-2.46337 6.86756-3.35812 7.50977-3.34375zm-101.20899.0293c1.09571-.0327 1.56055.21014 1.56055.74414 0 .6528-.47082.89777-1.04492.54297s-1.5866-.21766-2.25.30664c-.6634.5242-4.08111 1.20101-7.59571 1.50391-3.5147.303-6.6647.92511-7 1.38281-.3354.4576-1.14091.93555-1.79101 1.06055-6.8334 1.3142-9.31836 1.4135-9.31836.375 0-.634 1.2375-1.60064 2.75-2.14844 1.5125-.5477 3.65-1.42786 4.75-1.95703 1.1-.52911 4.475-.89551 7.5-.8125 3.025.0829 7.4125-.20683 9.75-.64453 1.14739-.2148 2.03199-.33392 2.68945-.35352zm-140.6738256 3.42774c.72334-.042 1.330115.17585 1.515625.73242.4702 1.4107-3.9273875 4.9908-5.1796875 4.2168-.5045-.3118-1.9715657-.10371-3.2597657.46289-2.2964002 1.0101-2.2979962 1.02187-.091797.5957 2.5982006-.50181 3.1568697 1.81638.6679697 2.77149-2.2740997.8727-4.2134407.7485-4.8691407-.3125-.677301-1.09591 4.120387-5.08008 6.1171876-5.08008.7681 0 1.6377937-.63155 1.9335938-1.40235.4320599-1.12594 1.9604354-1.9144 3.1660156-1.98437zm29.7929686 1.38672c-1.5323 0-2.558594.56415-2.558594 1.40625 0 .9173.700425 1.2228 2.015625.8789 3.0738-.8038 3.425669-2.28515.542969-2.28515zm-11.169922 4.38281c-.11953-.005-.251172.0322-.388672.11719-.55.3399-1 1.04105-1 1.55859 0 .5176.45.94141 1 .94141s1-.7012 1-1.5586c0-.6435-.252728-1.04282-.611328-1.05859zm28.111328.61719c.825 0 1.5.17648 1.5.39258 0 .21619-.675.65214-1.5.96874s-1.5.13827-1.5-.39453c0-.5327.675-.96679 1.5-.96679zm-37.2578121 1.53319c.42716.0525.6281087.58644.9804687 1.53906.495 1.338.3669219 2.71674-.3300781 3.55664-.8333 1.0046-.838195 1.3711-.015625 1.3711 2.0366 0 1.1709938 1.54019-1.8789063 3.34179-1.6511.9754-3.4456812 1.49937-3.9882812 1.16407-.5871-.3629-.72544375.1189-.33984375 1.1914.35649995.991.31953875 1.50814-.0820313 1.14844-.4015-.3597-1.87870305-.0587-3.28320305.66992-1.4046.7291-3.1731875 1.08718-3.9296875.79688-.8079-.31-1.375.12182-1.375 1.04492 0 .8645-.8717569 2.03817-1.9355469 2.60742-2.5741195 1.37762-3.0644535 1.30861-3.0644535-.42969 0-.8057.911944-1.95378 2.027344-2.55078 1.1153998-.5969 1.783775-1.4824 1.484375-1.96679-.2994-.48441-.088297-1.16242.4707031-1.50782.559-.3455 1.0346407-.0384 1.0566407.68164.0216.7199.6497844-.095 1.3964843-1.81054 1.0553-2.4247 2.2158376-3.29627 5.2109376-3.91407 2.3527-.4854 3.1571062-.95683 2.06640625-1.21093-1.4551-.339-1.09236874-.96918 1.95703115-3.39258 2.09903-1.66809 3.0230557-2.3976 3.5722657-2.33008zm-22.9492189 1.04297c.55751-.007.994625.28374 1.578125.86719 1.167 1.167 1.091753 1.66072-.498047 3.26562-2.3241 2.3464-7.531547 5.72867-8.873047 5.76367-.55.0143-1 .50836-1 1.09766s-.756487 1.8268-1.679687 2.75c-1.6737 1.6737-9.758997 2.40702-11.154297 1.01172-1.2418-1.2418-.675373-2.33203 1.210937-2.33203 1.032601 0 2.430269-.66687 3.105469-1.48047 1.9725-2.3768 6.784041-4.38402 9.244141-3.85742 2.1905.4689 2.2047.43056.375-1.05664-1.8434-1.4982-1.829-1.57369.5-2.61719 1.3189-.591 3.522384-1.71545 4.896484-2.49805 1.05995-.60385 1.737412-.90716 2.294922-.91406zm246.156252 3.43945c1.4358-.0258-.42397 1.50297-4.73047 3.88867-2.0792 1.1518-4.3292 2.08813-5 2.07813-1.3868-.0193 8.26937-5.9408 9.73047-5.9668zm-13.40625 2.22266c.1093.002.20227.0144.27539.0391.6502.2197-.25943 1.14685-2.01953 2.06055-3.1516 1.6359-5.29883 2.1176-5.29883 1.1875 0-.85753 5.4035-3.30982 7.04297-3.28711zm-135.845705 1.16406v.002c.9588-.0651 1.180038.61881-.01367 1.8125-.6508.6508-1.177969 1.65493-1.167969 2.23243.008.5775.451175.37578.984375-.44922.7929-1.2269.971375-1.11325.984375.62695.008 1.1701.64381 2.64961 1.41211 3.28711.8012.6649 1.159643 2.06832.839844 3.29102-.451701 1.72749-.22301 2.00227 1.21289 1.45117 1.306-.5011 1.623025-.28972 1.203125.80468-.3134.8167-.0259 1.83462.638672 2.26172.6647.427 1.854931 1.59912 2.644531 2.60352 1.2476 1.587 1.2476 1.94497 0 2.73437-1.1688.7396-1.099653.91083.373047.92383.995.008 1.555894.4265 1.246094.92768-.887 1.4353 2.788594 7.1483 4.246094 6.5996.7162-.2695 1.054853-.088.751953.4024-.3029.4902.797865 1.3605 2.447265 1.9355 2.432399.8479 2.999999.7722 2.999999-.4023 0-2.0375 1.75925-1.8069 2.31055.3027.4052 1.5502.46946 1.5593.57226.076.0916-1.3219 1.04143-1.6384 4.51563-1.5039 2.9733.115 5.02388-.3961 6.33008-1.5782 1.06279-.9618 2.18507-1.4986 2.49218-1.1914.30723.3072 2.88547-.2022 5.73047-1.1328 4.4108-1.4427 5.54007-1.4944 7.66797-.3555 1.3726.7346 4.05895 1.334 5.96875 1.334 2.4382 0 3.32296.388 2.97266 1.3008-.3592.9361.64589 1.3008 3.59179 1.3008 3.7139 0 3.96475-.1559 2.71875-1.6875-1.2225-1.503-1.15259-1.5956.62891-.8477 1.1.4617 3.4625 1.0455 5.25 1.2969 2.5097.3529 3.25.091 3.25-1.1523 0-.8852.70431-1.6094 1.56641-1.6094 1.0857 0 1.38324.5843.96484 1.9023-.5412 1.7054-.26366 1.8203 2.68164 1.1016 1.8076-.4411 5.61298-1.3671 8.45508-2.0566 3.4887-.8464 6.54666-2.5156 9.41406-5.13671 4.6801-4.278 5.6234-4.05384 6.9082 1.64251l.83399 3.7012-6.97266 4.6719c-3.8342 2.5701-8.26269 5.3488-9.8418 6.1738-3.2357 1.6905-7.9671 10.4613-6.4414 11.9414.5116.4963 2.61457 1.2118 4.67187 1.5898 3.3584.6171 4.0735.3445 7-2.6718 1.7927-1.8477 4.36921-4.8613 5.72461-6.6953 1.3554-1.834 3.78871-4.2765 5.40821-5.4297l2.94531-2.0977-.66797 5.6817c-.3949 3.3597-.28356 5.6816.27344 5.6816.518 0 .90151 1.3949.85351 3.1016l-.0879 3.1035-7.46289-.6992c-5.3154-.4981-7.26974-.3845-6.78711.3964.3727.603 1.46534 1.0977 2.42774 1.0977.9624 0 2.61908.6346 3.67968 1.4102 1.8103 1.3236 1.698 1.4527-1.8125 2.1113-2.057.3859-5.76272 2.246-8.23632 4.1347-3.2426 2.4759-4.49805 3.0032-4.49805 1.8887 0-.8502.9281-2.473 2.0625-3.6074 1.1344-1.1344 1.88773-2.5886 1.67383-3.2305-.214-.6419-1.19414.061-2.17774 1.5625-.9837 1.5013-2.59232 2.7305-3.57422 2.7305-4.3187 0-4.8279 15.0392-.91211 26.9531.9859 2.9996 1.57139 5.8121 1.30079 6.25-.2705.4378-.12057.7969.33203.7969s1.93522 1.8 3.29492 4 2.84232 4 3.29492 4c.4526 0 .57381.4021.26953.8945-.30431.4924.14721 1.1634 1.00391 1.4922.8563.3287 1.27785 1.0517.93555 1.6055-.3424.5539.0302 1.0078.82812 1.0078 1.7401 0 3.12293 4.714 1.86133 6.3457-.4908.6348-2.94091 3.7059-5.44531 6.8242-5.4339 6.7659-6.82325 11.2991-4.09375 13.3672 2.5946 1.9658 2.83112 1.8402 2.95312-1.5762.0613-1.7177.929-3.6392 2-4.4297 1.6954-1.2515 1.9284-1.1708 2.23828.7852.19021 1.2004.70107 2.6336 1.13477 3.1836.4338.55 1.09304 2.4222 1.46484 4.1621.5568 2.6063.32853 3.2745-1.29297 3.7891-1.0824.3435-2.2091 1.2532-2.5039 2.0215-.4077 1.0625-1.3269 1.1875-3.8418.5253-5.5288-1.4558-9.29273-1.59-9.30273-.332-.003.6416-.41337 1.5416-.91407 2-.5289.4841-.6093.3102-.1914-.416.5172-.8987-.26329-1.25-2.77539-1.25-4.4497 0-8.93691 1.6823-8.09961 3.0371.415.6715-.23613.8204-1.83203.4199-1.8485-.4639-3.89849.3226-8.08399 3.1016-3.084 2.0477-5.60742 4.038-5.60742 4.4219 0 1.1689-4.88032 3.0009-6.41992 2.4101-.9257-.3552-2.03394.5866-3.08594 2.6211-.9028 1.7457-1.49646 3.3104-1.31836 3.4766 1.3193 1.228 7.78247 2.1511 8.69727 1.2363.7477-.7476 1.19557-.6415 1.51757.3575 2.2062 6.8458 2.71767 9.1914 2.25977 10.3848-.8681 2.2621 1.60651 7.5332 3.53711 7.5332 1.0329 0 1.54339.5376 1.24609 1.3125-.2797.7286.65211 1.9305 2.09571 2.7031 2.2395 1.1989 2.72743 1.1892 3.51953-.062.778-1.2298.92254-1.202.93554.1797.0147 1.5721 2.88733 2.9013 6.01563 2.7832.9903-.037.8204-.3486-.5-.916-1.6304-.7006-1.68709-.8727-.30859-.9297.93-.039 2.01094.4468 2.40234 1.0801.4911.7945 1.14076.5644 2.09766-.7442 1.0322-1.4116 1.58294-1.5787 2.15429-.6542 1.029 1.6648 7.45837 2.3517 8.38867.8964.4482-.7013.74-.3456.75.9121.008 1.1338 1.01789 3.1371 2.24219 4.4512 1.7299 1.8568 2.19388 3.4835 2.08789 7.2988-.0749 2.7004-.62531 5.4007-1.22461 6-.5993.5993-1.08984 1.7189-1.08984 2.4883 0 3.3059-3.35313 8.1427-6.82813 9.8516-2.9589 1.4552-6.42519 1.8357-17.83789 1.9609-7.7912.085-14.5412-.1742-15-.5761-.8306-.7274-12.21608-3.3539-19.83398-4.5762-5.6381-.9046-17.640599-4.6259-20.499999-6.3555-.825-.4991-4.65-2.1422-8.5-3.6523-17.1779-6.7377-20.5687-8.421-31.5-15.625-9.7742-6.4415-13.273637-11.0181-9.523437-12.4571 3.8973-1.4956 12.340153-16.4254 13.126953-23.2129l.539063-4.6582-2.070313 2.5c-1.1393 1.375-2.522166 3.0428-3.072266 3.7071-.5502.6643-1 1.7197-1 2.3437 0 .6239-.9 2.2774-2 3.6758-1.1 1.3985-2 3.3045-2 4.2344 0 2.1341-4.083153 6.039-6.314453 6.039-2.5742 0-2.106175-.9724 3.828125-7.9531 3.0173-3.5494 5.486328-7.1728 5.486328-8.0508 0-.8781.49421-2.0918 1.09961-2.6972.6055-.6055 1.918515-4.1401 2.916015-7.8555 1.79-6.6673 1.78705-6.791-.21875-9.5039-1.1177-1.5118-1.735646-3.2296-1.373046-3.8164.3626-.5867.008-2.0925-.78711-3.3457-.795-1.253-1.768262-4.2845-2.164062-6.7383-1.1854-7.3477-4.472657-10.981-4.472657-4.9434 0 3.1001-3.308872 8.9043-5.076171 8.9043-1.1491 0-.978382-9.0737.199218-10.5839.4772-.6119.308428-2.2567-.388672-3.7793-.9587-2.0943-1.736875-2.575-3.484375-2.1485-1.5869.3873-2.25.1026-2.25-.9687 0-2.4102-.98435-1.8486-6.09375 3.4804-2.6367 2.75-5.079434 5-5.427734 5-.3484 0-1.946834-1.314-3.552734-2.9199s-4.3845585-3.214-6.1738285-3.5742c-6.8593-1.3807-6.8691719-1.3886-4.7011719-3.5566 2.0261-2.0261 4.5388344-2.5676 5.1152344-1.1016.1833.4664 1.683984.019 3.333984-.9941 1.65-1.0134 2.325-1.8523 1.5-1.8633-1.1762-.016-1.219465-.1993-.197265-.8477.7171-.455 3.583994-.4663 6.371094-.025 4.266099.6744 6.029231.4106 11.144531-1.6679 3.3419-1.3579 6.324906-2.802 6.628906-3.209.304-.4069 1.452734-1.2284 2.552734-1.8242 1.1-.5958 3.459741-3.2873 5.244141-5.9805 3.1542-4.7607 3.186328-4.9176 1.173828-5.6621-1.8842-.697-1.928341-.9076-.49414-2.3418 1.735599-1.7356 2.163671-3.9128.576171-2.9317-.55.3399-1 .1897-1-.3339s.675-1.2108 1.5-1.5274c2.2434-.8609 1.81-2.5338-.5-1.9297-2.6381.6898-2.523362-.043.523438-3.33 1.3883-1.4981 2.807897-3.8829 3.154297-5.3008.3464-1.4178.898762-2.8032 1.226562-3.0782 1.6617-1.394 2.978022-4.9546 2.044922-5.5312-.9258-.5722-.0352-1.8518 5.097656-7.3203.8511-.9067 3.360772-3.2235 5.576172-5.1485 2.2153-1.925 4.857947-4.7765 5.873047-6.3359 1.5644-2.4035 1.628328-2.9797.423828-3.7793-.7815-.5184-2.678144-.7792-4.214843-.5801-1.5367.1991-3.025394-.014-3.308594-.4726-.8492-1.374-2.89581-.9481-5.03711 1.0469-1.1094 1.0335-3.7807 3.0009-5.9375 4.371-2.1568 1.3701-4.780325 3.4479-5.828125 4.6192-2.5907 2.8963-4.929784 2.8285-4.083984-.1192.8319-2.8991 5.539413-7.2475 14.570313-13.4609 5.398-3.7139 7.376031-5.8897 6.082031-6.6895-.5144-.3179-1.492275.0914-2.171875.9102-1.3506 1.6274-2.990235 1.9819-2.990235.6465 0-.4634 1.575-1.69002 3.5-2.72662 4.2919-2.3114 4.407016-3.29828.478516-4.08398-3.718-.7436-4.648838-1.999-2.085937-2.8125 2.1467-.6813 3.683896-3.53321 1.904296-3.53321-.627 0-1.96295.74402-2.96875 1.6543-1.5948 1.44331-1.828125 1.45839-1.828125.11719 0-1.5171 7.427622-5.56158 15.482422-8.42969 2.191-.7802 5.043691-2.11294 6.337891-2.96094.96105-.6297 1.801673-.93745 2.376953-.97656zm137.419925 2.7207c.33316.0301.18938.3802-.18164.98047-.3753.6073-2.53893 1.94782-4.8086 2.97852-2.2696 1.0306-5.02695 1.86523-6.12695 1.86523-1.1-.004.83995-1.34296 4.31055-2.97656 4.37062-2.05737 6.25138-2.89784 6.80664-2.84766zm-209.201175 2.33008c.23178.047.2732419.23971.076172.5586-.336.5437-1.0332813.98828-1.5507813.98828-1.4384 0-1.123025-.71802.609375-1.38282.2225-.0854.4149557-.13867.5722656-.1621.11798-.0176.2157088-.0176.2929688-.002zm48.75 1.54688c1.1916 0 1.9791.1275 1.75.2832-.2292.1556-1.203516.88439-2.166016 1.62109-1.498 1.1466-1.75 1.10557-1.75-.2832 0-.9973.834016-1.62109 2.166016-1.62109zm136.216795.30859c.19862-.01.39514-.009.58594.004.50881.0342.97598.15419 1.33008.37304.5027.3106.30479.95103-.44141 1.42383-1.9875 1.2593-5.0866 1.07812-4.63672-.27148.28319-.84964 1.77181-1.45901 3.16211-1.5293zm-85.38281.69141c.55 0 1 .45 1 1s-.45 1-1 1-1-.45-1-1 .45-1 1-1zm-123.533204 1.07617c.84458-.05 1.257583.91183 1.314453 2.92383.0654 2.2978-.353815 3-1.791015 3-1.032 0-2.464894.7872-3.183594 1.75-.7187.9628-3.045622 3.1003-5.169922 4.75-6.0977 4.7354-6.929287 5.108-10.554687 4.7168l-3.419922-.3691 3.419922-2.9219c1.8802-1.60693 4.009322-2.92385 4.732421-2.92385.723-.001 2.449491-1.35195 3.837891-3.00195 1.3883-1.65 2.954216-3 3.478516-3 .8989 0 2.064931-.8201 5.332031-3.75.83486-.74869 1.497156-1.14382 2.003906-1.17383zm67.091797 2.92383c.2426 0 .441406.45.441406 1s-.476193 1-1.058593 1c-.5825 0-.781307-.45-.441407-1s.816094-1 1.058594-1zm171.824217 0c.55 0 .1263.65929-.9414 1.46679-1.0676.8075-2.39141 1.46875-2.94141 1.46875-.55 0-.12619-.66125.94141-1.46875 1.0677-.8075 2.3914-1.46679 2.9414-1.46679zm-30.69922.13672c.57915.003 1.21964.0278 1.92578.0762l4.89063.33593-4.5 2.20313c-3.4455 1.687-3.95931 2.20956-2.19141 2.22656 1.2806.0122 2.03421.46689 1.69141 1.02149-.3399.55-1.70892 1-3.04102 1-1.7677 0-2.595-.69602-3.0664-2.57422-.791-3.15157.23695-4.30819 4.29101-4.28906zm23.375 2.86328c.5825 0 .78131.45.44141 1-.3399.55-.81609 1-1.05859 1-.2426 0-.44141-.45-.44141-1s.47619-1 1.05859-1zm-256.796872 3.25781c.46339.0136.738281.11886.738281.33789 0 .2589-1.366156 1.806-3.035156 3.4375-1.6689 1.6315-3.3564 2.9127-3.75 2.8477-.3935-.065-2.062684-.4057-3.708984-.7579l-2.992188-.6406 2.992188-2.09568c2.18782-1.53107 7.747839-3.18799 9.755859-3.12891zm249.296872.74219c.2426 0 .44141.45.44141 1s-.47619 1-1.05859 1c-.5825 0-.78131-.45-.44141-1 .3399-.55.81609-1 1.05859-1zm-4.09179 2.46484c.54008.0747-.59946.77359-3.4668 2.13476-8.1206 3.8552-9.86502 4.4263-10.47852 3.4336-.3025-.4894.46739-1.1827 1.71289-1.541 1.2455-.3583 3.61563-1.2553 5.26563-1.9942 1.65-.7389 4.35-1.60709 6-1.92769.25535-.0496.46644-.0828.63281-.0996.14558-.0147.25683-.0162.33399-.006zm-30.88282.96484c.48094.0131.0787.34241-1.04492 1.16402-2.1976 1.6069-3.53906 1.8043-3.53906.5215 0-.4859 1.22837-1.1171 2.73047-1.40427.95794-.18311 1.56494-.28908 1.85351-.28125zm-8.13867 1.63672c.37092.017.55469.2752.55469.7734 0 .4617-1.14598 1.3617-2.54688 2-3.7364 1.7024-4.29232 1.3811-1.45312-.8398 1.68744-1.3199 2.82713-1.9618 3.44531-1.9336zm-268.58594.086c.0698.001.14095.014.21485.039.5913.197 1.07617.7861 1.07617 1.3086s-.48487 1.1116-1.07617 1.3086c-.5912.1971-1.07422-.3919-1.07422-1.3086 0-.8021.37071-1.3545.85937-1.3477zm59.056645 11.9707c.3474.014.64635.1054.8125.2715.3323.3323-.2584.5684-1.3125.5254-1.165-.048-1.401216-.2843-.603516-.6035.36095-.1444.756116-.2077 1.103516-.1934zm-5.439453.877c2.3467 0 2.944475 2.2172.984375 3.6504-1.8669 1.3651-4.460938 1.8208-4.460938.7832 0-1.5735 2.242963-4.4336 3.476563-4.4336zm.464844 1c-.5825 0-.781307.45-.441407 1s.816094 1 1.058594 1c.2426 0 .441406-.45.441406-1s-.476193-1-1.058593-1zm-42.691407.016c2.1715.027 4.094422 1.6535 2.857422 2.418-.6088.3762-1.107422 2.0075-1.107422 3.625 0 3.1568-1.397978 3.9513-2.392578 1.3594-1.0681-2.7833-.665822-7.4184.642578-7.4024zm33.265625.2813c1.9525-.055 3.224085.3157 2.896485.8457-.3211.5197-.0652 1.5701.570312 2.3359 1.263 1.5218-.198078 5.5215-2.017578 5.5215-.5306 0-.964844.6503-.964844 1.4453s-1.2375 2.0622-2.75 2.8164-2.653856 1.8568-2.535156 2.4512c.1227.6147-.637772.8589-1.763672.5644-1.4636-.3827-1.830697-.1267-1.404297.9844.4301 1.121-.29934 1.6063-2.86914 1.9063-3.3891.3957-3.448.3397-3.5-3.4024-.0293-2.1261.360965-3.5502.884765-3.2265.5157.3187.9375-.6228.9375-2.0899 0-2.3981.2777-2.6016 2.75-2.0273 2.0403.4739 2.3629.3761 1.25-.377-.825-.5583-2.2875-1.0193-3.25-1.0293-1.0782-.01-1.75-.7833-1.75-2.0156 0-1.6667.6667-2 4-2 2.4912 0 4.029125.4715 4.078125 1.25.0435.6875.501468.1011 1.017578-1.3027.74811-2.0346 1.645522-2.5714 4.419922-2.6504zm74.232422.4121c.44559-.025.88166.062 1.25586.293.7906.4886 1.225947 1.0817.966796 1.3183-1.15408 1.0539-4.970703 1.7215-4.970703.8691 0-1.3069 1.411267-2.4038 2.748047-2.4804zm-74.189453 1.291c-.8574 0-1.558594.45-1.558594 1s.423807 1 .941407 1c.5175 0 1.218693-.45 1.558593-1 .3399-.55-.08391-1-.941406-1zm68.5 0c.5825 0 .781306.45.441406 1-.3399.55-.8160934 1-1.0585934 1-.2426 0-.4414062-.45-.4414062-1s.4761935-1 1.0585936-1zm-7.0078124 2.5039c.47181-.027.5691856.3219.2910156 1.0469-.6446 1.6798-1.0109837 1.7928-1.7773437.5527-.30431-.4924.096805-1.1446.890625-1.4492.24058-.092.4384331-.1415.5957031-.1504zm96.8593794.4668c-6.684706-.035-14.506812.3206-16.679692.9512-1.7977.5217-3.521278.9388-3.830078.9258-1.51-.063-7.467975 6.5277-8.921875 9.8691-4.5903 10.55-4.438194 9.8938-2.683594 11.6484 2.4485 2.4484 3.088988 2.0726 5.304688-3.1152 2.2437-5.2533 5.771456-9.3815 10.535156-12.3301 3.4688-2.147 14.585329-2.8727 17.957035-1.1719 9.0372 4.5585 27.78277 7.9134 31.01367 5.5508.9775-.7148 2.57528-1.2988 3.55078-1.2988 2.1042 0 4.07432-3.234 3.26172-5.3516-.8652-2.2547-3.06847-2.8085-12.91797-3.25-4.95-.2219-10.2375-.6266-11.75-.9004-1.5125-.2737-3.9875-.7334-5.5-1.0195-1.72751-.3267-5.32902-.487-9.33984-.5078zm-92.9687544.029c.5824 0 1.0585938.45 1.0585938 1s-.1988063 1-.4414063 1c-.2425 0-.7186937-.45-1.0585937-1-.3399-.55-.1410938-1 .4414062-1zm-64.0253906.123c-.3474-.014-.742566.049-1.103516.1934-.7977.3192-.561484.5555.603516.6035 1.0541.043 1.6448-.1931 1.3125-.5254-.16615-.1662-.4651-.2572-.8125-.2715zm-5 1c-.3474-.014-.742566.049-1.103516.1934-.7977.3192-.561484.5555.603516.6035 1.0541.043 1.6448-.1931 1.3125-.5254-.16615-.1662-.4651-.2572-.8125-.2715zm1.583984 1.877c-.825 0-1.5.45-1.5 1s.675 1 1.5 1 1.5-.45 1.5-1-.675-1-1.5-1zm89.558594 10c.5825 0 .781306.45.441406 1-.3399.55-.816093 1-1.058593 1-.2426 0-.441407-.45-.441407-1s.476194-1 1.058594-1zm-81.099609 2.2012c.0267.01.04102.019.04102.041 0 .1721-.9 1.0835-2 2.0254-1.1.9418-2 1.2831-2 .7578 0-.5253.9-1.4367 2-2.0254.9625-.5151 1.771675-.8408 1.958985-.7988zm-6.638672 4.7988c1.7105 0-4.850506 6.8567-6.628906 6.9277-.995.04-1.575163.4513-1.289063.9141.286.4629-1.037806 2.3503-2.941406 4.1953-2.1987 2.131-3.460938 2.8172-3.460938 1.8809 0-.8107.7875-2.206 1.75-3.0996.9625-.8936 2.898735-2.931 4.302735-4.5274 2.7927-3.1755 6.887678-6.291 8.267578-6.291zm182.281248.3144c-.16405 0-.28897.039-.36523.1153-.3132.3131-.38145.6828-.15235.8203.2292.1375 1.76602 1.0248 3.41602 1.9727 3.5317 2.0288 5.21077 2.2988 3.2832.5273-1.95263-1.7945-5.03323-3.4568-6.18164-3.4356zm-12.22461.8458c-.40726.01-1.31067.1136-2.75195.2871-2.1307.2565-4.7331 1.245-5.7832 2.1953-1.3146 1.1897-3.292266 1.6563-6.351566 1.498-6.2711-.3246-12.59825 1.5551-13.21875 3.9278-.357 1.3654-1.382194 1.9316-3.496094 1.9316-2.3825 0-2.860209.3392-2.349609 1.6699.3525.9185.0827 2.0166-.601563 2.4395-.9518.5883-.843656 1.2123.464844 2.6582.9406 1.0394 1.710937 2.6049 1.710937 3.4804 0 .9617 1.208235 1.8586 3.052735 2.2637 2.9962.6581 3.646681 2.9442.863281 3.0332-2.7195.087.0345 5.4551 2.798828 5.4551.8084 0 2.548488-.8494 3.867188-1.8867l2.398437-1.8848-2.240234-.6699c-1.8743-.5604-1.424235-.8986 2.759765-2.0703 2.75-.7701 5.160322-1.4213 5.357422-1.4453.1971-.024.09739 1.0002-.222656 2.2754-.477 1.9006.0883 2.7071 3.140625 4.4765h.002c5.2374 3.036 9.88545 2.8046 15.52735-.7734 2.5827-1.6379 4.69531-3.7114 4.69531-4.6074 0-1.1556-.5085-1.4225-1.75-.918-4.606 1.8717-7.72885 2.4254-8.62695 1.5273-.61-.61-.34162-1.1949.73828-1.6093 2.6939-1.0337 3.59054-3.6898 2.65234-7.8497l-.85742-3.8046 6.17187.6816c9.1225 1.0074 10.67188 1.5383 10.67188 3.666 0 2.3363 2.28278 2.4645 4.12695.2305 1.14909-1.3926 1.15289-1.738.0195-2.1192-.7441-.2502-2.91095-1.9679-4.81445-3.8164-1.9035-1.8486-5.18828-3.8256-7.30078-4.3945-3.9119-1.0533-11.71695-.8048-15.78125.502-1.6522.5313-2.25.3257-2.25-.7715 0-1.8157 1.5337-3.1017 5.5-4.6133 1.86019-.7089 2.55569-.9765 1.87695-.9648zm72.73242 1.3398l-.48242 3.6894c-.3788 2.9015-.17811 3.5747.9375 3.1465.8048-.3088 1.71702.2328 2.10742 1.25.4029 1.0498.19842 1.9573-.49218 2.1875-.6489.2163-1.17969 1.2545-1.17969 2.3086 0 1.4426.70838 1.918 2.86328 1.918 2.5925 0 3.02458.5168 4.58398 5.4746 2.45731 7.8123 2.83483 20.2496.70313 23.1875-.9079 1.2513-2.6367 2.2896-3.8418 2.3066-1.205.017-2.46869.4813-2.80859 1.0313-1.059 1.7135-4.49749 1.1432-4.52148-.75-.0123-.9625-.90302-2.875-1.97852-4.25s-1.96652-3.1248-1.97852-3.8867c-.0122-.762-1.03398-2.3403-2.27148-3.5078-4.003-3.7765-8.30589-15.5882-5.96289-16.3692 1.6075-.5359 1.55915-2.2363-.0644-2.2363-2.1 0-4.2265-3.2967-4.1875-6.4941.0471-3.8767 2.39709-4.3548 6.49609-1.3243 3.0334 2.2427 3.05841 2.3254.87891 2.8399-2.208.5212-2.19791.5593.58789 2.3847 2.6075 1.7085 3.03641 1.7318 5.41601.293 3.501-2.117 4.18334-5.178.92774-4.164-2.2168.6905-2.2548.6299-.7168-1.1524.8937-1.0356 2.38099-3.2328 3.30469-4.8828zm-46.26953 2.584c-.47853.062-.26286.9619.89844 2.666 1.0476 1.5374 1.81995 4.2933 1.75195 6.25-.0664 1.925.0216 3.7954.19532 4.1562.5977 1.2416 4.37863-.4088 5.42773-2.3691 1.0948-2.0456.98543-2.2285-5.00976-8.3437-1.61341-1.6457-2.78516-2.4213-3.26368-2.3594zm35.47852.3965c.51206.027 1.1817.4151 1.6914 1.0293 1.0048 1.2107.94308 1.4902-.32812 1.4902-1.8671 0-3.08705-1.631-1.81055-2.4199.12415-.077.27658-.1081.44727-.1zm-72.7832 13.6894c.14177.015.34698.09.61718.2129.7409.3382 2.13516.8929 3.09766 1.2324.9625.3395 1.75 1.0142 1.75 1.5 0 1.7837-3.9649.8205-5.0625-1.2304-.68137-1.2731-.82767-1.76-.40234-1.7149zm-138.718754.094c.0742.021.115234.099.115234.2363-.007 1.766-2.857484 6.1385-2.896484 4.4414-.0195-.8573.626093-2.4323 1.433593-3.5.60563-.8007 1.124997-1.2406 1.347657-1.1777zm57.433593.7519c1.8194.012 1.963.2005.75.9844-1.9388 1.2529-3 1.2529-3 0 0-.55 1.0125-.9944 2.25-.9844zm117.330081.9844c-1.9873 0-4.59696 2.7936-4.50196 4.8203.049 1.0403.27139 1.2043.58399.4297.2774-.6875 1.03279-1.25 1.67969-1.25.6469 0 1.73888-.9 2.42578-2 1.0315-1.6516.9992-2-.1875-2zm-179.580081 7c.55 0 1 .675 1 1.5s-.45 1.5-1 1.5-1-.675-1-1.5.45-1.5 1-1.5zm51.6113285 9.3437c.11953.02.2511719.071.3886719.1563.55.3399.9999996.8161.9999996 1.0586 0 .2426-.4499996.4414-.9999996.4414s-1-.4762-1-1.0586c0-.4369.2527381-.658.6113281-.5977zm-98.8359375 9.7129c.66168-.066 1.239414.6933 1.271484 2.1934.0263 1.2375.259759 4.6717.517578 7.6328.404781 4.6501.117891 5.8427-2.099609 8.75-1.4121 1.8514-2.913337 3.3672-3.335937 3.3672-.4228 0-.645394-2.075-.496094-4.6094.1644-2.7917-.308066-5.4905-1.197266-6.8476-1.3419-2.0478-1.265013-2.445.878906-4.6407 1.2898-1.3211 2.632975-3.1898 2.984376-4.1523.397989-1.0899.961922-1.6418 1.476562-1.6934zm241.19141 1.1817c-.56723-.06-.9668.1537-.9668.5801 0 .5685.7875 1.2405 1.75 1.4921 2.8736.7509 3.1058.7319 3.75-.3105.3399-.55-.0469-1-.85938-1-.8125 0-2.18859-.2735-3.05859-.6074-.2175-.083-.42616-.1342-.61523-.1543zm-124.037113.1328c.70847-.016.93392 2.4206.08789 5.5625-1.371201 5.0921-3.231316 6.4139-2.666016 1.8945.229-1.831.844087-4.4184 1.367187-5.75.46606-1.1861.888908-1.6996 1.210938-1.707zm-45.318359 5.9726c.11953.02.251171.071.388671.1563.55.3399 1 .8161 1 1.0586 0 .2426-.45.4414-1 .4414s-1-.4762-1-1.0586c0-.4369.252738-.658.611329-.5977zm176.218752 2.42c-.84319-.012-1.84214.014-3.02344.072-6.5829.3262-8.28304 1.4057-6.74414 4.2813.7772 1.4522 1.49288 1.5686 4.52148.7324 1.9788-.546 4.21721-.7574 4.97461-.4668.7574.2907 1.66157.069 2.00977-.4941.3483-.5638 1.2638-.7835 2.0332-.4883 1.615.6198 1.77284-.2614.42774-2.3887-.53078-.8395-1.66964-1.2124-4.19922-1.248zm-171.300784 1.7226c.39845.066.767067.8139 1.435547 2.4278.7203 1.739 1.769132 3.0079 2.3320314 2.8203.563-.1877 2.1890812.7381 3.6132812 2.0586 2.0582 1.9071 3.3468438 2.3008 6.27734378 1.9082 2.02790002-.2716 3.90798752-.2718 4.17968752 0 .8196.8195-.4969532 3.2988-1.7519531 3.2988-.6440001 0-1.94091255.9-2.88281255 2-.94180005 1.1-2.05475625 1.9848-2.47265625 1.9668-.4179-.017-3.0097656-2.4421-5.7597656-5.3887-7.5772994-8.1189-7.5678284-8.1038-6.1113284-10.0957.50269-.6874.830715-1.0473 1.140625-.9961zm154.220704.5293c-1.3908-.028-.7636 1.9708 1.25 3.9844 2.7195 2.7197 4.33681 2.5731 2.75781-.25-1.3274-2.3731-2.76071-3.7084-4.00781-3.7344zm-81.996094 7.9844c-.5578 0-.448307.6633.246093 1.5 1.2225 1.473.365182 2.0609-2.324218 1.5937-.4534-.079-.522597.3436-.154297.9395.378.6116 1.864062.8209 3.414062.4805 1.6954-.3724 3.156913-.108 3.820313.6914 1.3055 1.5731 18.029506 1.717 19.066406.164.3728-.5583 1.465234-1.3069 2.427734-1.6621.9625-.3551 1.75-1.0555 1.75-1.5586 0-1.3457-5.205887-2.109-7.179687-1.0527-.935.5004-3.863966.8304-6.509766.7344-2.6459-.096-6.202433.1492-7.902344.5429-2.237699.5182-3.442993.2901-4.371093-.8281-.705-.8495-1.733203-1.5449-2.283203-1.5449zm-109.28711 1.4609c.0603.023.125963.1172.195313.2891.2774.6875.2774 1.8125 0 2.5s-.503906.125-.503907-1.25c0-1.0312.127724-1.6065.308594-1.5391zm-59.070316 5.0821c.26184.044.46422.4127.71289 1.0468.412 1.0507.78132 3.4242.82032 5.2754.0387 1.8512.80713 5.4512 1.70703 8 1.8299 5.1831 2.47051 3.1152-5.90039 18.9961-2.0694 3.926-4.25347 7.1387-4.85547 7.1387-.6404 0-.80729-.7258-.40039-1.75.3823-.9625 1.58889-6.475 2.67969-12.25 1.0909-5.775 2.21911-11.6854 2.50781-13.1348.2888-1.4493.005-3.6057-.62891-4.791-.9516-1.778-.76201-2.7885 1.08399-5.7754 1.23775-2.0027 1.83702-2.8295 2.27343-2.7558zm259.54493 8.457c.5824 0 1.05859.45 1.05859 1s-.19881 1-.44141 1c-.2425 0-.71869-.45-1.05859-1-.3399-.55-.14109-1 .44141-1zm-237.578129.3457c.0909.014.200612.1677.320312.4668.2888.7219.252242 1.5837-.08008 1.916-.3323.3323-.568391-.2584-.525391-1.3125.03-.7281.133577-1.0932.285157-1.0703zm45.21875 4.1055c.0774-.016.176842-.016.294921 0 .1573.023.347813.077.570313.1621.8535.3276 1.552734.7741 1.552734.9903 0 .8099-1.90694.3545-2.49414-.5957-.1971-.3188-.156188-.5115.07617-.5586zm6.277343 3.7207c.0698-.011.140944-.01.214844.02.5913.1971 1.041.6853 1 1.084-.041.3988-.07422 1.3996-.07422 2.2246 0 .825-.45 1.5-1 1.5s-1-1.1632-1-2.584c0-1.2433.370715-2.1651.859375-2.2441zm205.298826.3945c.79886.039.8418.7191.8418 2.4668 0 3.4081-1.72466 4.5497-9.22266 6.0977-2.9023.5992-6.85234 1.4218-8.77734 1.8281l-3.5.7383 2.5 1.0879c1.6765.7294 1.94601 1.1073.82031 1.1503-.9232.035-2.27792-.5356-3.01172-1.2695-1.9197-1.9197-9.70932-2.9939-11.41992-1.5742-1.866 1.5486-1.77657.1535.11133-1.7344.825-.825 1.5-1.9676 1.5-2.5371 0-.5696-.675-.7756-1.5-.459-.9074.3482-1.5-.0001-1.5-.8711 0-1.0799 1.15519-1.3979 4.55469-1.25 2.8909.1258 4.8546-.2849 5.375-1.1269.5834-.944 1.01977-1.0042 1.51367-.2051.3818.6177 1.16724.8304 1.74609.4727.5788-.3577 4.03594-.8017 7.68164-.9864 3.6457-.1848 8.09141-.7668 9.87891-1.2949 1.17728-.3478 1.92891-.5564 2.4082-.5332zm-128.041013 1.7188c.39765.047.781641.2132 1.056641.4882 1.303199 1.3027-.372186 2.3395-2.078126 1.2852-.9945-.6146-1.022334-.9863-.115234-1.5469.3283-.2029.739069-.2741 1.136719-.2265zm-70.117188 1.8437c.45313 0 .90625.07 1.25.209.6875.2774.125.5039-1.25.5039s-1.9375-.2265-1.25-.5039c.34375-.1387.79688-.209 1.25-.209zm173.710941 8.6367c.65832 0 1.30485.6387 1.97265 1.9258.7239 1.3953 1.31641 2.9348 1.31641 3.4219 0 .4871-.47619.8867-1.05859.8867-.5822 0-.83204-.3704-.55274-.8223.2792-.4519-.42947-1.6256-1.57617-2.6074-1.6269-1.393-1.79553-1.9631-.76563-2.5996.22325-.138.44463-.2065.66407-.2051zm-3.74219 5.2344c.5331 0 .74039.5913.46289 1.3144-.3302.8605.80365 1.6521 3.28125 2.2891 3.7524.9647 3.76217.978.98047 1.5567-1.7885.3722-3.33.061-4.25-.8594-1.6385-1.6385-1.93221-4.3008-.47461-4.3008zm15.53125 0c.825 0 1.5.45 1.5 1s-.675 1-1.5 1-1.5-.45-1.5-1 .675-1 1.5-1zm9.85937.016c2.34237-.061 4.64063.3018 4.64063.9844 0 .55-.5625 1.0246-1.25 1.0566-.6875.032-2.9375.2362-5 .4532-3.7742.3971-5.10877-.7739-2.16797-1.9024.95157-.3651 2.37192-.555 3.77734-.5918zm-138.132808 5.9395c.41208-.07.785806.1717.847656.7695.0413.3987-.465.905-1.125 1.125-.66.22-1.018828-.1408-.798828-.8008.21485-.6445.664102-1.0241 1.076172-1.0937zm-57.285156 4.0449c.5824 0 1.058593.45 1.058593 1s-.198806 1-.441406 1c-.2425 0-.718694-.45-1.058594-1s-.141093-1 .441407-1zm-89.441406 1c1.1241 0 1.53744 1.3158 1.64844 5.25.1944 6.8956.31964 7.8794 1.31054 10.25.4598 1.1 1.45008 3.5304 2.20118 5.4023.751 1.872 1.20346 3.566 1.00586 3.7637-.6639.6639-8.14883-5.8115-9.89063-8.5566-1.4311-2.2558-1.54175-3.3875-.65625-6.6641.5867-2.1707 1.47376-4.374 1.97266-4.8965.4989-.5225.9082-1.76.9082-2.75s.675-1.7988 1.5-1.7988zm151.570312 1.2012c.62305-.081 1.309369.1977 2.417969.791 1.3817.7394 2.511718 2.1687 2.511718 3.1758 0 1.007.476194 1.832 1.058594 1.832.5825 0 .791544.4323.464844.9609-.3267.5286.816162 2.2161 2.539062 3.75 1.7229 1.5339 4.466457 3.9785 6.097657 5.4336 1.7453 1.5574 2.478256 2.808 1.779296 3.041-.8271.2757-.510378 1.7494 1.044922 4.8555 1.5848 3.1647 2.204672 6.1149 2.138672 10.1641-.0819 4.992.276435 6.109 2.865235 8.9433 1.627 1.7814 3.270697 2.9246 3.654297 2.541.3836-.3834-.281669-1.7414-1.480469-3.0175-1.1989-1.2762-1.896828-2.6052-1.548828-2.9532.348-.3479.299225-1.4392-.109375-2.4257-.4086-.9859-.897438-2.918-1.085938-4.293-.4795-3.4975-1.105545-6.9557-1.947266-10.75-.480899-2.168-.346103-3.25.404297-3.25.6188 0 1.125.675 1.125 1.5 0 .962.9863 1.5112 2.75 1.5312 3.3838.039 9.678714 6.0226 9.720703 9.2383.016 1.2405.584197 2.1195 1.279297 1.9805.6875-.1375 1.172172.087 1.076172.5-.223.9582 2.388238 6.571 3.398438 7.3047.421.3058.865581 1.7683.988281 3.25.1226 1.4817.539381 2.6953.925781 2.6953.3863 0 .998928 1.35 1.361328 3 .3624 1.65 1.027116 3 1.478516 3 1.265 0 3.323903 9.8004 2.470703 11.7617-.4159.9561-.668147 2.4704-.560547 3.3653.4219 3.5071-3.507472 2.9169-20.388672-3.0626-16.2388-5.7519-28.731637-8.8085-47.023437-11.5039-16.5481003-2.4384-22.988263-3.094-35.476563-3.6113-4.1601-.1723-4.2734-.2435-1.5-.9492 1.65-.4199 4.726791-.8178 6.837891-.8828 4.8062-.1481 16.2063156-5.3446 19.6660156-8.9649 4.1868-4.3811 9.1559344-12.085 8.4902344-13.1621-.3371-.5454-.125297-.9902.470703-.9902 1.1248 0 3.08887-4.2505 3.318359-7.1816.07241-.9244.600529-1.599 1.173829-1.5.5733.099.980297-.6059.904297-1.5684-.0764-.9627.225325-1.75.671874-1.75.44661 0 2.124316-1.2375 3.728516-2.75s4.132488-3.65 5.617188-4.75c1.4847-1.1 3.576637-2.8668 4.648437-3.9258.8599-.8497 1.419919-1.2919 2.042969-1.373zm-57.701172 4.9023c.13625.048.383556.2614.753906.6289.6834.6784.991494 1.4851.683594 1.793-.3079.3078-.866788-.2462-1.242188-1.2324-.339189-.8908-.422382-1.2699-.195312-1.1895zm26.7480469 15.8965c.55 0 .7227125.45.3828125 1s-1.0691406 1-1.6191406 1c-.55000004 0-.72075943-.45-.38085942-1 .33990002-.55 1.06718752-1 1.61718752-1zm56.9414061 2c-.5824 0-1.058594.45-1.058594 1s.198807 1 .441407 1c.2425 0 .718693-.45 1.058593-1 .3399-.55.141094-1-.441406-1zm55.941407 17.1211c.63438 0 1.26875.064 1.75.1894.9625.2515.175.4571-1.75.4571s-2.7125-.2056-1.75-.4571c.48125-.1258 1.11563-.1894 1.75-.1894zm30.91602 3.0019c.34739.014.64634.1054.8125.2715.3323.3323-.2584.5684-1.3125.5254-1.165-.048-1.40122-.2843-.60352-.6035.36095-.1444.75612-.2077 1.10352-.1934zm-92.607427 1.8887c-.20676.029-.308594.1668-.308594.4121 0 .8045 1.35 2.2597 3 3.2344 1.65.9747 3 2.0933 3 2.4844 0 .3911.7875.9163 1.75 1.1679.9625.2515 1.8625.5083 2 .5723.1375.064.25-.2373.25-.6699 0-.4326-2.25-2.4665-5-4.5195-2.51512-1.8777-4.071136-2.768-4.691406-2.6817zm-78.25 10.8301c11.94463-.1037 24.7156987 1.0414 35.324219 3.2598 18.891 3.9503 29.881287 5.8524 30.742187 5.3203.4894-.3024 1.575663.1361 2.414063.9746.8385.8384 3.197387 1.8341 5.242187 2.2129 3.6276.672 18.21875 6.8476 18.21875 7.7109 0 .2388-2.012856.2064-4.472656-.07-8.556-.9644-34.234343 3.2323-60.0273436 9.8105-6.6 1.6833-12.9120434 3.292-14.0273434 3.5743-1.2632.3198-2.717216-.2482-3.853516-1.5039-1.8765-2.0734-15.053019-9.3802-22.074219-12.2422-2.1746-.8864-4.094078-2.0382-4.267578-2.5586-.6712-2.0135 20.880107-6.7532 36.1289064-7.9453 9.238-.7222 9.7978125-1.9355 1.4453125-3.1348-4.0432-.5806-9.9274189-1.104-13.0742189-1.166-6.9503-.1363-28.393844 2.5-35.277344 4.3379-5.2203 1.3938-8.5.6854-8.5-1.836 0-1.8173 2.661878-3.9124 3.955079-3.1132.5741.3548 1.044921.2209 1.044921-.2969 0-.8268 5.1525-1.5679 19.5-2.8067 3.68733-.3184 7.577044-.4928 11.558594-.5273zm-63.142578 22.2812c.3474.014.64635.1054.8125.2715.3323.3323-.2584.5684-1.3125.5254-1.165-.048-1.401216-.2843-.603516-.6035.36095-.1444.756116-.2077 1.103516-.1934zm155.916016 6.8262c12.2349-.04 32.960949 3.2204 41.638669 6.5488 3.31571 1.2717 11.4293 3.9759 18.0293 6.0098s13.51007 4.3419 15.35547 5.1289c1.8454.7874 4.3204 1.1617 5.5.832 1.4409-.4028 1.71915-.3044.84765.3028-1.6303 1.1357-.82572 1.7811 7.04688 5.6445 3.1625 1.552 5.75 2.9207 5.75 3.041 0 .1202-2.06499.2976-4.58789.3926-2.5228.095-5.3353.5407-6.25.9883-1.9118.9356-4.39731.5365-8.66211-1.3887-1.65-.7449-6.375-2.2335-10.5-3.3086-14.497-3.7783-16.513-4.3246-18-4.8867-.825-.3124-2.09592-.4699-2.82422-.3496-.7283.1202-1.8533-.1992-2.5-.7109-.6467-.5118-2.97578-1.2459-5.17578-1.6309-2.2-.385-5.937941-1.3479-8.306641-2.1387-4.1246-1.377-18.868417-4.0281-27.566407-4.957-12.192999-1.3021-26.837753-2.4601-32.126953-2.5391l-6-.09 3.5-1.5293c5.8297-2.5466 23.871532-5.3214 34.832032-5.3574zm36.046879 2.1778c.54375.01 1.05212.08 1.39062.2167.6771.2739-.11953.481-1.76953.461-1.65-.02-2.20337-.2445-1.23047-.4981.4865-.1268 1.06563-.1863 1.60938-.1796zm8.7207 3.1894c2.30264.1493 17.40039 4.6872 17.40039 5.3008 0 .8464-3.87688.014-10.83008-2.3262-4.0312-1.3565-7.11396-2.681-6.85156-2.9433.0315-.032.12774-.041.28125-.031zm-143.94922 1.082c.31846.044.615745.2227.796875.5157.322.521.159672 1.2112-.361328 1.5332-.521.322-1.211203.1577-1.533203-.3633-.322-.521-.159672-1.2093.361328-1.5313.13025-.081.271112-.1304.414062-.1523.10721-.016.216116-.016.322266 0zm46.265625.7246c.3474.014.64635.1054.8125.2715.3323.3323-.2584.5684-1.3125.5254-1.165-.048-1.401216-.2843-.603516-.6035.36095-.1444.756116-.2077 1.103516-.1934zm-68.878906.4043c1.17136-.1176 3.96289 2.5729 3.96289 4.127 0 2.2464-3.717637 1.5365-4.335937-.8281-.3122-1.1955-.320648-2.5741-.01758-3.0645.0884-.143.223285-.2176.390625-.2344zm12.96289 13.4727c.55 0 .8875.3459.75.7695-.1375.4237.306028 1.4362.986329 2.25.680399.8139 2.784881 3.5775 4.675781 6.1407l3.4375 4.6601-6.675781 1.1484c-3.6712.6314-7.686329 1.3948-8.923829 1.6973-1.2375.3024-2.287984.3885-2.333984.1914-.1467-.6308-.770997-4.2375-1.466797-8.4707-.6411-3.9004-.530934-4.1492 2.134766-4.8183 2.2024-.5527 2.497681-.9083 1.363281-1.6368-.9701-.6231-.374966-.7245 1.802734-.3066 2.1103.4049 3.25.2305 3.25-.5 0-.6187.45-1.125 1-1.125zm-43 5c.55 0 1 .6368 1 1.416 0 .7791.468969 1.5743 1.042969 1.7656 1.3407.4469 1.685269 8.4893.417969 9.7539-1.2523 1.2496-12.386869 2.9936-12.980469 2.0332-.6234-1.0087 2.069194-9.721 3.558594-11.5156.6634-.7994 2.276384-1.4531 3.583984-1.4531 1.3077 0 2.376953-.45 2.376953-1s.45-1 1-1zm245.673831 4.5937c1.63125-.047 3.53867 0 5.32617.1485 5.5097.4614 6.99772 1.017 9.76562 3.6504 1.796 1.7086 3.94424 4.1199 4.77344 5.3574 2.1357 3.1872 1.37965 2.798-2.59375-1.3359-4.61-4.7961-8.42213-6.6891-11.92383-5.92-1.6006.3516-3.11652.1628-3.48632-.4355-.3598-.5822-1.41375-1.053-2.34375-1.043-1.3079.012-1.38903.2055-.35743.8594 1.0641.6745.99657.9746-.33203 1.4844-2.44531.9384-3.22305.7529-1.50195-.3594 1.1971-.7736.9951-.992-1-1.084l-2.5-.1152 2.5-.8028c.6875-.2203 2.04258-.3577 3.67383-.4043zm-224.173831 1.4063c.8333 0 1.5.8889 1.5 2 0 1.9922-1.066184 2.5998-2.333984 1.332-1.218-1.2179-.688416-3.332.833984-3.332zm215.058591 2c.2426 0 .44141.45.44141 1s-.47619 1-1.05859 1c-.5825 0-.78131-.45-.44141-1 .3399-.55.81609-1 1.05859-1zm-183.363278 2.0391c1.29659.03 1.831703.5761 1.626953 1.6386-.2338 1.2132-2.537966 2.1674-8.322266 3.4434-9.2093 2.0315-9.932418 2.1125-10.824218 1.2207-1.2128-1.2129 1.539212-3.3418 4.320312-3.3418 1.5135 0 4.665606-.675 7.003906-1.5 2.8417-1.0026 4.898733-1.4903 6.195313-1.4609zm-30.195313 1.9609c1.1 0 2 .45 2 1s-.9 1-2 1-2-.45-2-1 .9-1 2-1zm1.857422 3.6133c2.06751.035 3.623597 1.9682 1.941407 3.0176-2.0269 1.2645-4.638294 1.44-5.308594.3554-.847-1.3704.117631-2.6518 2.457031-3.2636.30827-.081.614806-.1144.910156-.1094zm32.642578.018c.98925-.034 1.606095.075 1.859375.3281 1.5018 1.5018.930863 1.7196-8.960937 3.4219-5.0056.8614-9.7306 1.7986-10.5 2.082-.7695.2834-2.049403.1021-2.845703-.4043-1.1483-.7302-.9413-1.0343 1-1.4649 1.3463-.2985 6.463247-1.4647 11.373047-2.5917 3.74375-.8594 6.425468-1.3146 8.074218-1.3711zm-55.855468 1.3711c.83684-.023 1.355468.071 1.355468.3222 0 .3286-1.6875 1.0516-3.75 1.6055-2.0625.5538-5.55 1.2524-7.75 1.5527l-4 .5469 3.488282-1.5664c2.77733-1.2472 8.14574-2.3907 10.65625-2.4609zm-1.671875 4.2558c1.46395.1036 1.365453 2.2167-.472657 3.7422-.825.6847-1.5 2.0649-1.5 3.0684 0 1.0036-1.024643 3.7623-2.277343 6.1289-4.4284 8.3657-6.068485 14.1119-6.146485 21.539-.0535 5.0996-.448072 7.2617-1.326172 7.2617-.6875.0009-1.25-.673-1.25-1.498s-.43605-1.5-.96875-1.5c-.5328 0-.722275.6391-.421875 1.4219.7303 1.9031-2.685184 3.6236-6.800784 3.4258-1.8196-.087-5.15957.185-7.42187.6035-3.8889.7194-4.14033.6175-4.61133-1.8457-.423-2.2129-.14182-2.6055 1.86328-2.6055 1.2987 0 2.36133-.4361 2.36133-.9688 0-.5328-.675-.7091-1.5-.3925-1.9405.7444-1.92553-1.5237.0547-8.6387.8419-3.025 1.75424-7.0711 2.02734-8.9902.4827-3.3917 1.90846-5.8532 2.84766-4.9141.255.2551.73616 2.0068 1.06836 3.8926.3323 1.8858 1.08658 4.0107 1.67578 4.7207.8216.9899.51852 1.3172-1.30078 1.4062-1.704.083-1.87819.2449-.61719.5742.9656.2521 2.90545 2.8063 4.31055 5.6758 1.4821 3.0269 3.26384 5.2717 4.244136 5.3457 1.5226.1155 1.665025-1.2681 1.453125-14.0117-.3034-18.2491.336916-20.1897 7.166016-21.7305 2.7882-.629 5.857812-1.359 6.820312-1.623.27239-.075.513517-.1025.722657-.088zm28.474609.1543c1.07992-.011 1.552734.345 1.552734 1.0684 0 .8351-.7875 1.5232-1.75 1.5332-.9625.01-2.7625.2835-4 .6152-2.3513.6301-3.3118-1.3659-1-2.0781 2.4303-.7486 4.117336-1.1273 5.197266-1.1387zm24.501953.5879c2.7489 0 3.027081.9815 1.300781 4.6016-1.716 3.5985-4.259328 4.5883-4.236328 1.6484.028-3.5981 1.273147-6.25 2.935547-6.25zm-15.949219 3c.55 0 1 .45 1 1s-.45 1-1 1-1-.45-1-1 .45-1 1-1zm-77.974609 3c2.2527 0 2.25497-.038-.49023 7.918-1.0645 3.0859-1.80513 3.5925-7.60743 5.2148-3.5353.9885-6.76523 1.813-7.17773 1.832-1.8468.087-.35255-2.2243 4.62305-7.1484 7.1235-7.0498 8.16934-7.8164 10.65234-7.8164zm226.35742 3c-.55 0-1.873704.6593-2.941404 1.4668-1.0676.8075-1.491407 1.4687-.941407 1.4687.55 0 1.873805-.6612 2.941411-1.4687 1.0677-.8075 1.4914-1.4668.9414-1.4668zm-176.968748 1.7109c.5028-.1189 1.729915 1.2476 2.728516 3.0351.998599 1.7875 1.546043 3.25 1.214843 3.25-.3311 0-.125769.5733.457031 1.2754.77278.9311.270332 2.8935-1.855468 7.25-1.6031 3.2854-2.9255 7.1792-2.9375 8.6524-.0123 1.4732-.72945 3.3857-1.59375 4.25-2.0202 2.0204-5.427735 2.0339-5.427735.023 0-.8501 1.182507-5.2017 2.628907-9.6699s2.9089-10.3092 3.25-12.9844c.3411-2.6753 1.032456-4.9651 1.535156-5.084zm169.796875 2.3633c-.38864-.011-.969716.2882-1.478516.8008-.9802.9876-.864653 1.1032.560547.5605.9862-.3755 1.540222-.9342 1.232422-1.2421-.077-.077-.184913-.1154-.314453-.1192zm-3.363281 2.1582c-.2281-.02-.916057.2656-2.097657.8946-3.5554 1.8927-7.75 5.1716-7.75 6.0585 0 .4456 2.25-.8055 5-2.7812 3.62161-2.6019 5.349467-4.1272 4.847657-4.1719zm-218.511716 4.9766c.54532.01.66182.3066.45508.9355-.24501.7452-1.76155 1.5019-3.36915 1.6817-3.3323.3728-2.37588-1.161 1.44532-2.3184.65947-.1998 1.14156-.3027 1.46875-.2988zm206.873044 2.8457c-.56617-.01-1.808107.6295-3.347656 1.9121-1.794 1.4946-1.979679 1.975-.767579 2 .8773.018 2.41075-.8668 3.40625-1.9668 1.165-1.2872 1.275145-1.9382.708985-1.9453zm-207.998044 2.0195c.12954 0 .23748.042.31445.1192.3078.3079-.24622.8666-1.23242 1.2421-1.4252.5427-1.54075.4271-.56055-.5605.5088-.5126 1.08988-.8122 1.47852-.8008zm326.10351 3.4668c.82493.05.54575.2184-.81445.5039-3.9503.8292-15.22332 1.2936-14.41602.5938.2292-.1986 4.46602-.6036 9.41602-.8985 3.0604-.1823 4.98949-.2493 5.81445-.1992zm-124.636716.039c-.39302-.01-1.369385.4718-2.927735 1.5664-3.6342 2.5527-8.75 7.3905-8.75 8.2754 0 1.0531.884132.6018 3.269532-1.6719 1.2983-1.2375 3.775506-3.375 5.503906-4.75 2.59412-2.0639 3.559317-3.4116 2.904297-3.4199zm-202.535154 1.4941c1.33365.036 1.85742.6291 1.85742 1.7891 0 1.4595-1.00793 2.0021-4.64063 2.5-11.2446 1.5412-13.04674.2898-3.93164-2.7305 3.2373-1.0727 5.3812-1.5946 6.71485-1.5586zm332.57617 2.0039c.57469.034 1.48929.5202 2.72266 1.4531 1.9432 1.4697 1.58419 1.6353-1.69141.7793-.9625-.2516-1.75-.8751-1.75-1.3847 0-.491.16677-.7688.49414-.834.0682-.014.14251-.019.22461-.014zm-51.71875 3.9219c1.1649 0 1.8399.45 1.5 1-.3399.55-1.0149 1-1.5 1-.4851 0-1.1601-.45-1.5-1-.3399-.55.3351-1 1.5-1zm-280.86133.7773c2.29902.1341 2.0849 1.6708-.88476 2.3692-4.7989 1.1285-11.25391 1.6891-11.25391.9765 0-.7645 7.1218-2.9079 11-3.3105.43025-.045.81024-.054 1.13867-.035zm.77735 7.3457c.34739.014.64635.1054.8125.2715.3323.3323-.2584.5684-1.3125.5254-1.165-.048-1.40122-.2843-.60352-.6035.36095-.1444.75612-.2077 1.10352-.1934z"/>
</svg>
