<svg xmlns="http://www.w3.org/2000/svg" viewBox="0 0 412.95723 444.10312">
  <path fill-rule="evenodd" d="M0 0h411.75125v444.10312H0z"/>
  <path fill="#8fbd92" d="M192.27168 50.71631c-7.1063 0-10.5.40402-10.5 1.25 0 .55.74932 1 1.66602 1 .9166 0 1.38586.28009 1.04296.62304-.3429.34294-1.42971.27518-2.41601-.15039-3.1425-1.35608-5.29297-1.4948-5.29297-.34179 0 .7097-1.0969.90016-3 .51953-2.1043-.42085-3-.21195-3 .70117 0 .8836-1.044 1.17422-3.25.9043-2.568-.31421-2.9352-.16461-1.75.71679 1.2291.91409 1.0486 1.07594-1 .89649-1.375-.12045-4.24149.53417-6.37109 1.45508-2.1297.9209-4.3797 1.68953-5 1.70703-1.545.0436-5.30932 2.96875-3.82032 2.96875.6551 0 1.19141.40774 1.19141.90625 0 .49855-.85464.68311-1.89844.41015-2.4322-.63605-6.36901 1.44148-5.47461 2.88868.3963.64122.22786.82114-.40234.43164-.597-.36895-1.37361-.20466-1.72461.36328s-1.05636.77347-1.56836.45703c-.512-.31643-.93164-.20458-.93164.24805 0 .45262-1.8 1.93525-4 3.29492s-4 2.81617-4 3.23633c0 .42016-.46977.76367-1.04297.76367-.5732 0-1.5857.45561-2.25 1.01367-3.72 3.12513-15.63986 11.47837-24.28515 17.01758-15.27871 9.78947-17.16318 11.50401-20.98438 19.09179l-3.46289 6.87696 5.76367-.0117c8.1593-.0154 21.26172-4.45567 21.26172-7.2051 0-.43141.54333-.7832 1.20703-.7832.6636 0 3.7719-1.8 6.9082-4s6.19101-4 6.78711-4c1.4015 0 21.09766-19.55368 21.09766-20.94532 0-.58046.56651-1.05468 1.25781-1.05468.6913 0 2.70205-1.575 4.46875-3.5 1.7667-1.925 3.63896-3.5 4.16016-3.5.5211 0 1.0959-.34115 1.2793-.75782.5475-1.24425 8.13165-6.74425 11.00195-7.97851 4.4256-1.90302 18.65083-2.94666 32.58203-2.39258 3.96257.1576 4.27667 1.69747.5 2.45117-1.5125.30184-4.86098 1.00929-7.44141 1.57227-2.58042.56297-8.8804 1.09198-14 1.17578-13.0443.21365-18.40786 2.89974-31.72656 15.89648-5.5451 5.41105-10.09824 10.21982-10.11914 10.68555-.021.46573-2.09282 2.42266-4.60351 4.34766-2.51097 1.925-5.0819 3.9651-5.7129 4.5332-.631.5681-2.72148 2.12077-4.64648 3.45117-1.925 1.3304-3.725 2.66804-4 2.97266-1.3161 1.45786-12.0019 8.82411-16 11.0293-3.8581 2.12797-5.89611 2.50037-14.28711 2.61718-8.8332.12296-11.82841.63122-10.62891 1.80274.2292.22381 4.00538.66471 8.39258.97851 8.067.57699 13.2265-.25304 19.3086-3.10547 1.8071-.8475 3.58672-1.24135 3.95312-.875.6518.65175-4.02477 5.59571-5.29297 5.59571-.5958 0-5.16513 1.90208-9.98633 4.1582-2.6085 1.22069-10.36336 1.37958-17.66796.36328-5.6381-.78443-5.72637-.75781-6.98047 2.0918-.6986 1.58715-1.71592 3.19911-2.26172 3.58203-1.1423.80142.27778 1.36999 5.64258 2.25977 2.3877.39601 4.40795 1.5717 5.71875 3.32812 1.8056 2.41928 2.03389 2.49854 2.09179.7168.062-1.89762.16435-1.88165 1.99805.31836 1.2647 1.51732 3.14712 2.38138 5.44922 2.5 1.9349.0997 3.73731.74414 4.0039 1.43164.5741 1.48047 4.54688 1.69891 4.54688.25 0-.55.5349-.8875 1.1875-.75.7995.16845 1.09906-1.13627.92188-4-.15662-2.5308.17345-4.25.81445-4.25 1.06886 0 1.42106 1.6632 1.16406 5.5-.074 1.1.9519 3.2496 2.2793 4.77734 1.3274 1.52773 2.96733 4.11523 3.64453 5.75.6771 1.63476 1.79533 2.97266 2.48633 2.97266 2.0522 0 3.80945 2.86022 3.71875 6.05273-.097 3.42062.92701 3.11864 4.72461-1.39453 3.7464-4.45236 13.08386-7.77174 11.69726-4.1582-.3166.825-.17725 1.5.31055 1.5.4877 0 1.67708.30334 2.64258.67383 1.3534.51935 1.60838.29035 1.11328-1-.8633-2.24967 3.52466-2.30886 5.38086-.0723 1.2055 1.45259 1.49326 1.40123 3.07226-.54883.9582-1.18334 1.49175-2.80343 1.18555-3.60156-.6836-1.78145.75689-1.88964 2.67969-.20117.7829.6875.57802.2375-.45508-1-1.6728-2.00363-1.69646-2.25-.22266-2.25.9103 0 1.6543-.45 1.6543-1s1.40575-1 3.12305-1c2.6735 0 2.94178-.21881 1.86718-1.51367-.7748-.93357-1.68334-1.17504-2.37304-.63086-.6145.48484-3.33578 1.11966-6.04688 1.41015-3.9806.42651-5.47502.12519-7.76562-1.56836l-2.83594-2.09765-1.54102 2.19922c-2.542 3.62922-8.64223 2.566-12.58593-2.19532-1.36851-1.65213-1.67901-3.60473-1.44141-9.10351.3059-7.07831 3.48375-16.5 5.56445-16.5 1.4056 0 1.25387 1.12693-.45703 3.38672-1.0564 1.39549-1.15988 2.3943-.39258 3.82812.57115 1.067.79424 2.58126.49415 3.36328-.30013.78202-.0575 1.42188.53906 1.42188.5969 0 .8502.9.5625 2-.2876 1.1-.12748 2 .35742 2 .49036 0 .46054 1.10918-.0684 2.5-.9576 2.51868.30048 3.62165 1.42578 1.25.32626-.6875.36554.26384.0859 2.11523-.4673 3.09641-.32777 3.3179 1.74023 2.76367 1.2366-.33138 3.03555-.60723 3.99805-.61523.9625-.008 1.75-.44968 1.75-.98242 0-.53273-.62904-.72688-1.39844-.43164-1.4128.54214-2.87874-.99977-3.24414-3.41211-.2702-1.78396 2.50846-2.72159 3.91016-1.32032 1.4026 1.40268 4.08036 1.5064 3.22656.125-1.0141-1.64079 2.00864-4.08892 3.36914-2.72851.8476.84761 1.13672.46519 1.13672-1.50586 0-1.45254.45-2.91789 1-3.25781.55-.33992 1-1.68502 1-2.98828 0-1.30325.675-3.04414 1.5-3.86914.825-.825 1.5-2.24185 1.5-3.14844 0-.9066 1.35-2.99844 3-4.64844s3-3.64114 3-4.42383c0-.7827.44478-1.42187.98828-1.42187.5435 0 1.27515-1.8 1.62695-4 .6696-4.18763 1.91702-5.22857 2.69532-2.25.2814 1.07666.50282.6919.57422-1 .1257-2.98124 1.11184-3.35836 4.31054-1.64649 1.9099 1.02215 2.02727.8737 1.60547-2-.5806-3.9558 1.85848-4.29432 2.54688-.35351.26421 1.5125.39291.82616.28711-1.52344-.1353-3.00176.16903-4.13253 1.02343-3.80469.6687.25662 1.40126-.29649 1.62696-1.22851.3275-1.35258.62884-1.18883 1.49804.80664l1.08985 2.5.0625-2.75c.045-1.96202.58189-2.75 1.87109-2.75 1.0258 0 2.30423 1.18885 2.95703 2.75 1.0763 2.57386 1.13551 2.45052.94141-1.91602-.1616-3.63495.0689-4.43556 1.04297-3.62695.6878.57079 1.30338 1.99391 1.36718 3.16406.092 1.68987.21102 1.7689.57422.37891.2515-.9625.82208-1.75 1.26758-1.75 1.6136 0 1.8324 4.11177.375 7.0332-.8203 1.64439-1.28064 3.54769-1.02344 4.22852.2572.68083 1.1551-.34705 1.9961-2.28321 1.6844-3.87785 5.32984-7.67597 6.36914-6.63672.3645.36449 1.487-.0827 2.49414-.99414 2.51821-2.27894 2.30427-.2442-.34375 3.26758-1.9381 2.57022-1.77447 2.50782 1.5-.5625 4.43676-4.16013 4.82102-2.76883.67578 2.44727-4.76079 5.99066-3.52229 5.45988 3.5-1.5 3.575-3.54322 6.5-5.94801 6.5-5.34375 0 .60427-.675 1.65906-1.5 2.34375s-1.5 1.63844-1.5 2.12109c0 1.82753 1.95807.74343 5.60156-3.10156 4.23072-4.46468 5.4074-4.61195 2.85938-.35742-1.63826 2.73547-1.58781 2.72184 1.40625-.41211 5.92211-6.19881 4.8244-2.71226-1.33399 4.23828-4.50719 5.08694-4.52096 6.36631-.0332 2.94336 1.925-1.46827 3.5-3.01748 3.5-3.44336 0-.42588.675-1.03302 1.5-1.34961 2.88949-1.1088 1.44538 1.19409-4.85742 7.75-3.496 3.6364-6.17726 6.61133-5.95899 6.61133.7437 0 6.80699-4.49433 8.43164-6.25.89067-.9625 1.87957-1.75 2.19922-1.75s1.80147-1.12931 3.29102-2.50977c1.48954-1.38046 2.93806-2.27873 3.2207-1.99609.28264.28264-2.48078 3.43694-6.14258 7.00976-3.66183 3.57278-6.28341 6.4961-5.82421 6.4961.45877 0 1.91466-.9473 3.23632-2.10547 3.91551-3.43118 11.00767-8.12475 11.51368-7.61914.56344.56349-6.74089 7.63301-11.55469 11.18359-1.89435 1.39725-3.08875 2.54102-2.6543 2.54102 1.29381 0 8.78286-5.55084 14.16602-10.5 1.19646-1.1 2.79635-2.14922 3.55468-2.33203 1.48132-.35711-2.14944 4.02629-5.92382 7.15234-1.26647 1.04892-2.0809 2.13004-1.8086 2.40234.54432.54432 6.90927-3.67792 7.44336-4.9375.18334-.43237 1.08334-.7713 2-.7539 1.2136.023.85244.70992-1.33203 2.52539-4.56358 3.7927-4.66887 3.86011-9.75 6.23437-2.6125 1.22074-4.75 2.68972-4.75 3.26563 0 1.1139 8.46184-3.24651 15.35156-7.91016 6.71874-4.54775 7.42613-4.87942 5.64844-2.65234-1.35582 1.69856-1.33653 1.81928.19922 1.24414 1.21468-.45488 1.5401-.22342 1.14258.8125-.30583.79699-.8619 1.44922-1.23633 1.44922-1.12523 0-7.6871 5.91578-6.60547 5.95508.55.02 3.3625-1.75613 6.25-3.94532s5.25-3.575 5.25-3.08008c0 .90838-3.81295 4.74803-7.5 7.55274-2 1.52138-2 1.52131 0 .8418 1.1-.37374 2.225-.96694 2.5-1.31836 1.50416-1.92213 9.88764-6.87891 9.375-5.54297-.34105.88875-.05 1.53711.69141 1.53711.75528 0 .28647 1.0921-1.14258 2.66015-1.83572 2.01425-1.99896 2.50735-.67383 2.03125.9717-.34911 1.75-.14997 1.75.44727 0 .5916.675.81659 1.5.5.825-.31658 1.5-.14015 1.5.39258 0 .53274-.44476.96875-.98828.96875s-.88102.91434-.75 2.0332c.1588 1.35614-.76179 2.60623-2.76172 3.75-1.65.94364-3.1888 1.8293-3.41797 1.9668-.22916.1375-.13674.52927.20508.87109.34182.34183 2.66812-.57796 5.16797-2.04297 2.49984-1.46501 4.54492-2.2905 4.54492-1.83594 0 .45467-1.44382 1.67996-3.20898 2.72266-1.81616 1.07284-2.66698 2.0765-1.95899 2.3125.99244.33081.98361.7407-.041 1.98242-1.0811 1.31011-1.04642 1.45639.20898.90235.825-.36408 2.2875-.9398 3.25-1.2793.9625-.3395 1.75-1.21302 1.75-1.94141 0-.7284.40754-1.57654.90625-1.88476 1.05307-.65083.20984 3.41974-1.04297 5.03515-.46579.6006-.5132 1.45868-.10547 1.90821.40772.44952.0344.56556-.83008.25781-.91913-.32721-2.06385.23059-2.75781 1.3418-.93891 1.50343-.91415 1.90039.1211 1.90039.71966 0 1.84135-.53277 2.49218-1.1836.65084-.65084 1.52647-.83885 1.94727-.41796.4208.42063-.13329 1.46238-1.23242 2.3164-1.11422.86575-1.33437 1.33391-.49805 1.05664 7.00939-2.32387 6.888-2.4749 2.77148 3.4707-1.0446 1.5089-1.62002 3.19477-1.27929 3.7461.34074.55132-.60159 2.13469-2.09375 3.51758-1.49216 1.38289-2.42265 2.80156-2.07032 3.15429.3529.35273 2.78486-1.34724 5.40626-3.77734 8.94963-8.29805 9.64211-8.88281 10.51171-8.88281.47875 0 .61752.41104.30664.91406-.31089.50302-.0828 1.07659.50782 1.27344 1.47322.49107-10.44221 12.25588-14.37891 14.19726-2.39901 1.18307-2.68953 1.57193-1.18164 1.58203 1.1.007 4.32977-1.32169 7.17773-2.95507 5.3013-3.04044 7.93152-5.51902 4.62305-4.35547-1.04938.36905-.10387-1.20215 2.26172-3.76172 9.75767-10.55774 9.95017-11.0317 9.82617-24.14453-.0611-6.4625.27639-11.75.75-11.75s.89891.5625.94531 1.25.30673 3.275.57813 5.75c1.51356 13.80281.39788 17.39388-8.44336 27.17968-2.02904 2.24606-3.74083 4.58595-3.80273 5.20118-.0619.61523-.17988 1.6099-.26368 2.21093-.0838.60103-2.1433 2.11788-4.57617 3.36915-3.11722 1.60309-4.2497 2.72643-3.83594 3.80468.46822 1.22016.01 1.41891-2.26367.98438-1.5677-.29968-3.48823-.29919-4.26758 0-2.14674.82378 4.00741 3.12224 6.89258 2.57422 1.71135-.32506 3.472.50004 6.14844 2.88476 4.09693 3.65039 4.89615 5.38524 1.75 3.79883l-4-2.01758c-1.5618-.78752-2-.67797-2 .5 0 2.10416-2.62754 1.88418-4.92578-.41406-2.39975-2.39975-4.72439-3.61134-8.57422-4.46484-2.84571-.63088-2.7892-.52263 1.11523 2.11132 11.07487 7.47116 12.96929 9.02486 12.08594 9.90821-.29464.29465-1.40717-.33687-2.47265-1.40235-1.06548-1.06548-3.80168-2.98603-6.08204-4.26757-2.28028-1.28173-4.14641-2.64916-4.14641-3.03904 0-1.02558-2.91139-2.00729-7.5-2.52929-2.2-.25028-4.63027-.67674-5.40039-.94922-.77012-.27248-3.64757.67889-6.39453 2.11523-4.63615 2.42418-8.70508 3.81089-8.70508 2.9668 0-.19761 2.88826-1.76778 6.41992-3.48828 5.66474-2.75968 7.03861-3.04564 11.65235-2.4336 3.82844.50786 5.03931.38592 4.51953-.45507-.39484-.63888-.13028-1.16395.59765-1.18165.86946-.0211.72291-.47701-.43945-1.35937-1.93185-1.46648-2.31587-4.13977-.73438-5.11719.55915-.34546.77927-1.01085.49024-1.47851-.28903-.46765.1873-1.5623 1.05664-2.43164.9301-.9301 1.11001-1.58008.4375-1.58008-1.46199 0-3.12787-1.77698-4.91992-5.25-.78044-1.5125-1.79294-2.75-2.25-2.75s-.83008-.47351-.83008-1.05078c0-4.37249-20.60092-17.82892-29.5-19.26954-1.65-.26694-3.74157-.78436-4.64844-1.15039-.90687-.36603-1.94744-.18515-2.31054.40235-.36309.58749-1.53829 1.06836-2.61329 1.06836-1.075 0-2.7363.42112-3.6914.9375-.955.51639-4.32383 2.06712-7.48633 3.44531-3.1625 1.37819-5.75 3.03582-5.75 3.68359 0 .90068.33136.90291 1.41016.008 1.018-.84492 1.60195-.86411 2.09375-.0684.4812.77855 1.31499.68996 2.83789-.30078 4.8162-3.13309 19.37054-3.80283 28.01758-1.28907 6.7266 1.95548 14.00398 7.58417 18.64062 14.41993 1.925 2.83784 4.19633 5.1611 5.04883 5.1621.8525.001 2.07964.53082 2.72656 1.17774 1.96716 1.96716-.46518 3.82873-4.11328 3.14844-2.63701-.49175-2.95065-.36296-1.88672.76953 1.04437 1.11168.88482 1.65398-.87891 2.98437-2.12102 1.59988-2.08922 1.63533 1.97461 2.28516 2.27092.36313 4.12891 1.10494 4.12891 1.64844 0 1.26934-1.01535 1.24381-6.25-.15625-3.97296-1.0626-4.70455-.92289-10.26367 1.96289-9.39436 4.87667-14.30927 6.28329-23.98633 6.86132-7.4786.44688-9.83778.20423-13.95508-1.43554-2.7253-1.08534-5.13933-2.52927-5.36523-3.20703-.3077-.92312.18092-.89391 1.95312.11523 3.4201 1.94749 22.97178 1.60077 28.86719-.51172 2.475-.88686 5.10123-1.61895 5.83594-1.62695.7347-.008 3.75193-1.70117 6.70508-3.76367 5.96724-4.16755 6.1129-4.98948 2.25976-12.75-4.33636-8.73378-10.80047-12.78156-20.31836-12.72266-10.83439.0671-22.90938 4.81315-25.61328 10.06641-.7517 1.46054-1.63775 2.88125-1.96875 3.15625-3.0604 2.54232-3.89209 12.57574-1.43359 17.28906 1.3319 2.55341 1.28314 2.95897-.56836 4.81055-1.1175 1.11742-3.00174 1.88304-4.21094 1.71093-1.7489-.24893-2.1875-.97779-2.1875-3.6289 0-2.19104-.63132-3.67132-1.85742-4.35938-1.7113-.96041-1.8033-.73282-1.1875 2.91211.5879 3.47975.37106 4.14795-1.80274 5.57227-3.3524 2.19662-4.98103.27091-4.21093-4.98047.30854-2.10419.29836-3.26367-.0234-2.57617-.3217.6875-1.20579 1.25-1.96289 1.25-.7571 0-1.90248 1.75918-2.54688 3.91015-1.0436 3.48328-.93951 4.23805.95899 6.9043 2.7221 3.82284 2.69001 4.00758-.61719 3.41602-4.3052-.77032-6.25-3.06925-6.25-7.38672 0-2.11475-.41492-3.84375-.91992-3.84375-.505 0-1.64656-.28058-2.53906-.62305-1.0202-.39147-1.51494-.15499-1.33204.63672.4021 1.74078-4.95645 3.13297-9.34765 2.42969-4.697-.75227-11.81492 1.16478-12.47852 3.35937-.2824.93367-2.51589 5.74727-4.96289 10.69727-4.5783 9.26119-4.99764 10.77066-5.83594 21-.2704 3.3-1.25856 9.6-2.19726 14-2.5763 12.07529-2.68942 19.47527-.35352 23.3164 1.0648 1.75089 2.48229 3.1836 3.15039 3.1836.94477 0 .94863-.26784.0156-1.20117-1.56898-1.56896-1.53852-6.96346.0508-9.08594.6875-.91816 3.05-2.08509 5.25-2.5918l4-.91992-3.66797-.10156c-2.0166-.0553-3.8575-.66211-4.0918-1.34961-.5142-1.50857 1.70801-11.55493 2.77539-12.54688.41661-.38715.95958-.14062 1.20508.54688.2456.6875 1.08223 1.25 1.86133 1.25.7792 0 1.41797.675 1.41797 1.5s.45 1.5 1 1.5 1 .42951 1 .95508c0 1.53615 4.87215 8.30771 8.12695 11.29492 1.6481 1.5125 4.06148 2.75 5.36328 2.75 2.4711 0 4.58246 1.65598 7.19336 5.64062 1.9915 3.03951 2.44104 2.9832 6.46094-.79687 3.0207-2.84044 3.95467-3.14885 9.35547-3.08985 9.6115.10503 12.08331-1.04625 13.39062-6.23828.60956-2.42053 1.10938-6.21048 1.10938-8.42187 0-3.69658-.48873-4.42818-6.05273-9.0586-3.3286-2.77005-6.5047-5.03515-7.0586-5.03515-.5539 0-.74804-.41965-.43164-.93164.3164-.512.19191-1.16629-.27539-1.45508-1.0856-.67093-.24836-6.61328.93164-6.61328.4876 0 .88672 1.47915.88672 3.28711 0 2.6652.41414 3.3175 2.18945 3.45117 1.2043.0907 3.43559 1.08657 4.95899 2.21289 1.5235 1.12633 3.27131 2.04883 3.88281 2.04883 1.4338 0 3.96875 2.53101 3.96875 3.96289 0 .78423.56289.80586 1.93359.0723 2.6792-1.43387 3.10214-1.30611 2.36524.71485-.6019 1.65049-.52731 1.65352 1.30469.0508 1.3051-1.14186 2.41969-1.40495 3.40039-.79883 1.2028.74339.94701 1.4399-1.45899 3.95117-3.605 3.76291-2.21265 4.06009 1.65625.35352 2.1308-2.04141 3.09209-2.4133 3.97071-1.53516.87808.87815 1.46045.74413 2.41015-.55469 1.4353-1.96282 3.16725-.95205 1.81055 1.05665-.4909.72672.11686.1744 1.35156-1.22657 1.5885-1.80231 2.246-2.09747 2.25-1.00781 0 .84702-1.79414 3.52997-3.99414 5.96094-2.2 2.43097-4 4.76991-4 5.19922 0 .42932 2.3625-1.87506 5.25-5.1211 2.8875-3.24604 5.8125-5.94143 6.5-5.99023 1.84343-.13075 1.52548.93759-.9043 3.04492-2.63227 2.28296-1.16322 2.47847 1.9961.26563 3.14691-2.20421 3.80361-1.09662.97461 1.64453-2.31363 2.24178-2.31243 2.24219 1.99023-.11524 3.27734-1.79566 4.49217-2.0626 5.08008-1.11133.42497.68764 1.4789.97956 2.3418.64844.86289-.33113 1.83829-.16623 2.16796.36719.32966.53341-1.42255 1.80178-3.89453 2.81836-2.47197 1.01658-4.49604 2.18711-4.49804 2.59961-.002.4125-.49701.75-1.09961.75s-2.2901.81324-3.75 1.80664c-3.43489 2.33731-12.30751 4.53525-18.65821 4.62304-4.1756.058-5.498.56624-8 3.07032-1.6486 1.65-3.96398 3.53751-5.14648 4.19531-2.5231 1.40357-10.457 1.80836-15.125.77148-3.1711-.70437-3.26842-.63091-3.04492 2.30274.127 1.6668-.3504 3.72863-1.0586 4.58203-.8152.98228-1.00402 2.39484-.51562 3.84961 2.0393 6.0742 1.99449 8.95294-.19531 12.29492-1.8763 2.86363-7.12429 5.775-7.96289 4.41797-.31361-.50729-.32309-2.47194-.0215-4.36719.5571-3.50562-.22871-4.96443-2.00781-3.73047-1.39632.96834-8.41799 9.75571-8.41799 10.53496 0 1.291 2.31345.60658 3.7207-1.10156 1.3732-1.66667 1.41668-1.66667.89258 0-.4835 1.53789.20307 1.74995 5.66797 1.75195 5.7689.002 6.72495-.34118 13.21875-4.74219 3.85-2.60922 7.15068-5.08491 7.33398-5.50195.1834-.41705.97211-.75781 1.75391-.75781.7819 0 3.70996-1.10433 6.50586-2.45313 5.0265-2.42487 10.53653-3.84426 14.39453-3.70703 3.5009.12452 9.89912 3.43645 13.7207 7.10156 5.52275 5.2966 7.39585 6.79945 10.48829 8.42188 3.16079 1.6583 11.63047 9.67929 13.93554 13.19726.83526 1.27477 1.57619 4.7735 1.64649 7.7754.13884 5.92998.72761 5.01282-11.40821 17.75195l-4.37109 4.58789-13.34375 2.18359c-7.3387 1.20071-15.1855 3.07402-17.4375 4.16211-2.2521 1.08809-4.50867 1.97852-5.01367 1.97852-.5051 0-2.63718 1.36134-4.73828 3.02539-3.2704 2.59026-4.93311 5.71788-5.16211 9.70703-.024.42166-.44249 1.89258-.92969 3.26758l-.88672 2.5 2.15039-2.5 2.15039-2.5-.50586 2.75c-.5358 2.91294.60194 3.7969 1.58594 1.23242.7762-2.02277 6.63086-1.64347 6.63086.42969 0 1.15678.26592 1.22044 1.19922.28711 1.3568-1.35684 3.19025-1.6397 2.40625-.3711-.7254 1.17377 3.41101.73968 4.22461-.44336.7024-1.02147 7.87341-5.38476 8.84961-5.38476.3109 0 .0511.61913-.57813 1.37695-1.6345 1.96938 2.22707 2.84965 4.60156 1.04883 2.78511-2.11241 3.51321-1.69051 2.78711 1.61523-.6188 2.81762-.49297 2.9965 1.69532 2.44727 1.29911-.32606 3.47581-.14701 4.83789.39648l2.47656.98828-2.80859.0625c-1.54496.0349-2.55822.472-2.25.97071.30822.49871-.37254.6617-1.51368.36328-1.14113-.29841-3.72985-.0588-5.75195.53125-10.5763 3.08578-13.14176 3.4724-14.66406 2.20898-1.2583-1.04429-2.37366-.33197-6.88086 4.39649-2.9583 3.10354-6.07583 7.54324-6.92774 9.86719-2.28847 6.24237-3.89408 14.9852-2.875 15.65039.4851.31659 1.42344 2.23883 2.08594 4.27148.8335 2.55723 1.65045 3.52511 2.65235 3.14063 1.0478-.40211 1.3778.0952 1.1914 1.80273-.2106 1.92903.15158 2.30348 1.98438 2.04883 1.8006-.25017 2.1081.0453 1.5625 1.5-.5996 1.5986-.47866 1.65014 1.02343.42773 1.47754-1.20205 1.93231-1.12463 3.4375.5918 1.79013 2.04128 2.80389 2.29609 9.92969 2.50195 2.3071.0666 4.16556.38564 4.13086.70703-.1978 1.82801.53893 2.10808 3.92383 1.4961 2.0625-.37288 3.92105-.82708 4.13086-1.00977.20982-.18268 1.1821.0957 2.16016.61914 2.10465 1.12637 16.83289-.49696 18.35937-2.02344.54949-.54949 1.69633-1.0009 2.54883-1.0039 6.17632-.0222 15.81383-6.51945 17.48633-11.78906.38508-1.21327 1.08137-2.20508 1.54883-2.20508 1.51156 0 6.74112-16.461 9.39257-29.56446 2.54163-12.56068 5.86055-23.88842 7.3086-24.94726 2.34953-1.71802 3.27463-8.30931 2.94726-20.98828-.24502-9.48969-.78194-13.25516-2.57031-18-1.2438-3.3-2.61716-7.74358-3.05078-9.87305-.43362-2.12946-1.18746-4.15446-1.67578-4.5-2.13512-1.51081-7.46695-9.23391-7.11133-10.30078.21535-.64604 1.46856.3668 2.78516 2.25 1.3166 1.88321 2.65107 3.64883 2.96484 3.92383 3.00011 2.62944 10.01652 12.1156 10.55859 14.27539.37856 1.50829 1.04043 2.96063 1.47071 3.22656.43037.26592.43219-.97612.004-2.75977-.74423-3.10278-1.21676-4.61276-2.6582-8.49218-.35763-.9625-.81451-2.60403-1.01563-3.64649-.68651-3.55825-7.2001-13.09532-12.36328-18.10351-5.00206-4.8519-12.52576-15.27893-11.65429-16.15039.23695-.23695 2.37175 1.94985 4.74609 4.85937 2.37433 2.90952 6.74417 7.73815 9.71094 10.73047 2.96677 2.99232 6.3058 7.37982 7.41992 9.75 2.41268 5.13276 3.22737 5.51645 2.25586 1.06055-1.17902-5.40767-4.96589-13.12278-10.37891-21.14453-2.82224-4.18306-4.6988-7.60547-4.16992-7.60547 1.07635 0 11.07775 14.11505 12.75391 18 .59325 1.375 1.56082 3.625 2.15039 5 1.97849 4.61419 4.20569 13.80968 3.67773 15.18554-.47907 1.24843 1.08316 10.19623 3.28516 18.81446l.89453 3.5.70898-4c.3901-2.2.47839-5.575.19727-7.5-.28111-1.925-.7277-5.525-.99414-8-.62623-5.81728-3.15338-17.76202-4.51367-21.33985-1.33247-3.5048-1.35508-5.66015-.0605-5.66015.55 0 1 1.09886 1 2.4414 0 1.34254.52041 2.76133 1.15625 3.1543 1.52792.94431.55726-5.20094-1.58594-10.04492-.86414-1.9531-2.27559-5.14503-3.13672-7.0918-2.4059-5.43903-1.31264-7.60237 1.20703-2.38867 3.25388 6.73254 6.56252 19.72486 5.84961 22.9707-.41793 1.90285-.0257 3.73838 1.19532 5.60547 1.1166 1.70741 1.29509 2.45512.46484 1.94336-1.07831-.66468-1.13564-.43094-.28516 1.1582.58554 1.09406.81975 2.23495.51954 2.53516-.30021.30021-.0473 1.47773.5625 2.61719 2.35869 4.40725 1.12572 28.77122-1.95313 38.59961-1.18389 3.77922-1.85731 16.2121-.93359 17.23437.62887.69598-.93689 9.85211-2.52539 14.76563-.57159 1.76804-.4523 1.73904 1.03125-.25.92301-1.2375 2.03707-2.25 2.47656-2.25.4395 0 2.74798-1.99807 5.12891-4.43946 6.80781-6.98071 8.42482-8.88415 9.82226-11.56054.71793-1.375 1.63252-2.725 2.03125-3 1.37097-.94553 4.89345-8.3213 4.375-9.16016-.2854-.4618-.0944-.83984.42383-.83984 1.49601 0 2.23819-4.34162.88867-5.19922-.66682-.42375-.74737-.77716-.17773-.78516 2.61784-.0387.32768-17.4093-3.19727-24.24609-1.4945-2.89865-2.82339-5.71953-2.95117-6.26953-.12779-.55-1.36514-4.2625-2.75-8.25-1.38487-3.9875-2.22918-7.25-1.87695-7.25.35224 0 .17567-.46496-.39258-1.03321-1.20091-1.20091-.65343-10.01767.70898-11.41796.58162-.59779.92383-.54997.92383.1289 0 .59336 1.58559 3.71154 3.52344 6.92969 1.93787 3.21814 3.96127 7.47674 4.49609 9.46289 1.25011 4.64255 3.45636 6.57651 8.89649 7.79883 4.25934.95701 4.48767.88028 8.00195-2.69141 1.99009-2.0226 4.81035-6.15273 6.26562-9.17773 1.45527-3.025 4.47132-9.325 6.70313-14 2.23181-4.675 5.53325-11.22681 7.33594-14.5586 4.63934-8.57456 6.03491-12.21691 5.19726-13.57226-.45619-.73813-.2977-.91199.42578-.46485.63522.39258 1.22455.12452 1.31055-.5957.0859-.71996.29034-2.43359.45508-3.80859s.37565-5.52995.46875-9.23242c.10872-4.32451.53786-6.50446 1.19922-6.09571.64065.39594.72072.13541.21093-.68945-.45058-.72905-.93071-2.71087-1.0664-4.4043-.13569-1.69343-.38119-4.7973-.54492-6.89844-.26087-3.34779-1.6845-6.20105-1.99024-3.98828-.0615.44496-.27867 2.3836-.48242 4.3086-.20375 1.925-1.05667 6.65-1.89453 10.5-1.30952 6.01747-1.84809 13.97754-1.32422 19.55664.175 1.8636-4.21976 10.94336-5.29688 10.94336-.41538 0-1.00765.7875-1.3164 1.75-.79904 2.49094-5.81665 8.37928-12.52149 14.69531-4.14754 3.90703-7.05273 9.1035-7.05273 12.61719 0 2.90879-1.91629 3.2866-2.94531.58008-1.59686-4.20007.88697-8.23041 10.75195-17.43164 6.16443-5.74996 10.51888-10.80809 12.80664-14.87891 3.28278-5.84135 3.44609-6.57784 3.06055-13.875-.22392-4.23797-.0294-9.33747.43359-11.33203.46298-1.99457 1.12199-6.14476 1.46289-9.22266.57001-5.14645.40011-5.82957-2.11523-8.5-1.86741-1.98256-2.88207-2.48936-3.19727-1.59766-.6775 1.91688-4.43045 5.19532-5.94726 5.19532-.72129 0-1.31055.47731-1.31055 1.0625 0 .5852-1.8.0528-4-1.1836-2.2-1.23647-4-2.85471-4-3.5957 0-2.30444-3.16734-2.77435-4.68164-.69531-.76614 1.05186-2.87833 3.48711-4.69336 5.41211-2.89455 3.06992-6.22537 8-5.4043 8 .16048 0 1.84487-.4461 3.74219-.99024 4.98886-1.43079 11.53187 1.85473 13.63086 6.84375 2.59278 6.16271 3.44123 12.7019 2.32031 17.88477-.56638 2.61881-1.37265 6.56172-1.79297 8.76172s-1.55907 5.51546-2.52929 7.36718c-1.61087 3.07451-2.06866 3.31599-5.26758 2.79688-4.32829-.70238-6.58648-2.40219-5.31641-4.00195.50765-.63943 2.29-2.79916 3.96094-4.79883 7.22923-8.65147 6.89385-14.97875-.86523-16.3457-2.11982-.37346-3.10914-.14661-3.11914.71679-.0104.8618-.32359.78813-.98438-.23437-.53316-.825-.97638-1.03778-.98438-.47266-.008.56513.70412 2.05437 1.58399 3.31055 2.10675 3.00781 1.15717 8.05237-2.19727 11.67187-3.56278 3.84431-4.65698 7.10791-3.17773 9.47657 1.49017 2.38613.59463 3.40874-2.20703 2.51953-3.50689-1.11305-5.29063-8.03437-2.75391-10.68555 3.06003-3.19824 7.73618-9.70955 7.73618-10.77344 0-.64061-1.37656-2.87764-3.05859-4.9707-5.67677-7.06399-5.00002-18.71492 1.54297-26.57617 1.37328-1.65 6.1812-6.70747 10.68359-11.23828 6.15491-6.19377 9.05984-8.40109 11.71094-8.89844 5.11873-.96028 11.07627 1.42128 13.83984 5.53516l2.2832 3.40039-.22851-2.76954c-.12602-1.52267-.80233-2.9874-1.50196-3.25585-.69964-.26865-1.27148-1.1147-1.27148-1.88086 0-.76615-.47793-1.39258-1.0625-1.39258s-.98267-.7875-.88477-1.75c.30857-3.03351-.0506-3.80063-1.05273-2.25-.8219 1.2718-.97136 1.22521-.98438-.3086-.008-.99496-.46562-1.53132-1.01562-1.1914s-1-.33508-1-1.5-.43295-1.85096-.96289-1.52344c-.52993.32752-1.87187-.31132-2.98047-1.41992-2.23111-2.23111-6.06376-1.99832-11.55664.70312-4.20559 2.06834-11.91463 10.40602-15.84375 17.13477-1.15801 1.98311-2.92202 4.49689-3.91992 5.58594-.99789 1.08906-2.06947 3.00156-2.38281 4.25-.47865 1.9071-3.35352 3.39042-3.35352 1.73047 0-1.41567 7.37812-16.46094 8.07227-16.46094.4364 0 1.0655-.85924 1.39843-1.90821 1.78681-5.62973 13.42677-16.03614 18.0293-16.11914 1.97343-.0356 1.97389-.0572.0586-1.50586-1.06762-.80751-1.59921-1.46679-1.18164-1.46679.41758 0-.17113-1.3069-1.30859-2.9043-1.13749-1.5974-2.06837-3.20212-2.06837-3.56641 0-.3643-1.17886-2.2074-2.61914-4.0957-1.44028-1.8883-2.31787-3.43359-1.95117-3.43359s-.70444-1.99504-2.38086-4.43164c-1.67642-2.43659-3.04883-5.13659-3.04883-6 0-.8634-.49857-1.56836-1.10742-1.56836-.6088 0-.86162-.63849-.5625-1.41797.29911-.77948-.10231-1.66549-.89258-1.96875-.79027-.30325-1.4375-1.23976-1.4375-2.08203 0-.84226-.5625-1.53888-1.25-1.54688-.83333-.0102-.75-.33812.25-.98437.95801-.61911 1.05726-.97438.27539-.98438-.67331-.008-4.01202-4.17812-7.41992-9.26562-7.54815-11.26829-12.71-16.51276-21.02539-21.36133-1.04787-.611-2.9003-2.01577-4.11719-3.12109-1.21688-1.10533-3.39625-2.63001-4.8418-3.38868-1.44555-.75868-5.1669-3.0664-8.26953-5.1289-3.10263-2.0625-5.88129-3.75-6.17578-3.75-.67374 0-9.33362-3.74214-11.67578-5.04492-1.23508-.68698-1.75-.62008-1.75.22656 0 .65978-.61557.35673-1.36914-.67383-1.06529-1.45687-2.7127-1.88901-7.39844-1.94141-3.31462-.0371-5.82096-.4039-5.57031-.8164.39817-.65528-2.0706-1-7.16211-1zm9.06836 16.00781c4.1482-.091 11.73472 1.14569 12.93164 2.36328.67662.68832-1.26363.95808-6 .83594-10.63145-.27416-13.5-.0517-13.5 1.04297 0 .55 1.40571 1 3.12305 1 5.75194 0 1.39759 2.62702-6.62891 4-4.12177.70505-7.49434 1.55592-7.49414 1.89062.0002.3347-2.9813.5319-6.625.4375-3.6437-.0944-7.42756.13055-8.41016.5-3.2223 1.21153-10.48536 8.60667-14.38476 14.64649-2.8762 4.45487-5.69485 7.83102-12.81055 15.34961-2.7684 2.92515-4.68589 4.16902-5.92969 3.84375-1.0801-.28243-1.83984.0487-1.83984.80273 0 .70617-.68137 1.84834-1.51367 2.53906-.8323.69071-1.41427 1.75892-1.29297 2.37305.2221 1.12442-3.08764 8.61719-3.80664 8.61719-.2124 0-.35912-1.0125-.32422-2.25.1139-4.04573 5.27325-13.22116 7.62305-13.5586 3.3103-.47535 9.19612-6.62605 17.88672-18.6914 7.171-9.95557 7.1572-9.93113 3.78711-8.1836-3.10283 1.60871-10.35938 8.29922-10.35938 9.55078 0 .42448-1.38522 2.31657-3.07812 4.20313-1.69343 1.88656-3.8166 4.66719-4.7168 6.17969-.9003 1.5125-2.17729 2.75-2.83789 2.75-.6606 0-1.34981.35878-1.53321.79687-.407.97275-14.64627 9.20313-15.92187 9.20313-.5017 0-.91211.36573-.91211.81445 0 1.11625-7.98988 5.52966-8.70898 4.81055-.8412-.84115 1.71813-3.625 3.33203-3.625.7577 0 1.37695-.35601 1.37695-.79102 0-.43501 4.11057-3.24751 9.13477-6.25 5.0242-3.00249 10.5367-6.89011 12.25-8.63867 5.348-5.45806 9.12104-10.51429 8.96484-12.01367-.082-.79214.0911-1.1994.38672-.9043.2951.29511 2.716-1.4226 5.3789-3.8164 2.8439-2.55712 6.75603-4.91585 9.48243-5.71876 2.5528-.75157 5.60455-2.49218 6.78125-3.86718 3.1928-3.73105 6.32769-4.85623 14.62109-5.24805 5.1351-.24261 8.8951-1.04613 11.92383-2.54687 2.43296-1.20554 4.61742-1.99781 4.85351-1.76172.2361.23609 1.4011.0594 2.58985-.39258.47034-.17883 1.24389-.27197 2.20117-.29297zm14.43164 4.24219c1.83333 0 3 .51722 3 1.33203 0 1.34798-1.06209 1.5711-4.25.89258-2.88225-.61346-1.97676-2.22461 1.25-2.22461zm-14.29492 3.41211c1.36015-.11085 4.53112.87602 8.13086 2.62695 2.00897.97718 4.05009 1.52952 4.53711 1.22852.48703-.301.6782.0778.42383.84179-.70574 2.11923-3.02463 2.08766-5.79688-.0801-1.375-1.07516-3.7375-2.23288-5.25-2.57226-1.5125-.33938-2.75-1.03986-2.75-1.55664 0-.29331.2517-.45133.70508-.48828zm22.04492 1.59179c.4125.003 2.1 1.11237 3.75 2.46485 3.43866 2.81864 2.33549 3.30673-1.75.77343-2.61436-1.62074-3.61944-3.24898-2-3.23828zm17.75 3.06836c1.19528-.0106 3.48364 1.76855 5.37305 4.17774 2.00626 2.55817 1.0162 2.1471-2.91016-1.20899-1.90423-1.62765-3.01289-2.96375-2.46289-2.96875zm-24.46875 1.92774c.56727 0 1.30965.7875 1.64844 1.75.33879.9625 1.49776 3.74378 2.57617 6.18164 1.74738 3.95012 2.07592 4.22757 3.01758 2.54492 1.02982-1.8402 1.0748-1.83956 1.82031.0664 1.25113 3.19867 1.00593 5.45703-.59375 5.45703-.825 0-1.51375-.7875-1.53125-1.75-.029-1.59486-.14184-1.60813-1.26367-.13477-.98191 1.2896-1.46688 1.36274-2.40235.36133-.64502-.69048-.90604-2.28119-.57812-3.53516.47907-1.83198.26998-2.15463-1.06445-1.64257-1.08306.41563-1.66016.12769-1.66016-.83007 0-.80774-.5625-1.4833-1.25-1.5-.69079-.0168-.46491-.4874.50586-1.05274 1.35479-.78897 1.52635-1.45367.75-2.90429-1.27262-2.37793-1.26682-3.01172.0254-3.01172zm27.26758 3.36133c.24405 0 .59123.43901 1.25781 1.31835 1.55057 2.04565 1.88777 3.71158.58789 2.90821-.47059-.29082-.65069.54416-.40039 1.85351.37986 1.98709-1.3265 7.10515-1.85352 5.5586-.50475-1.4825-.6618-8.75658-.22265-10.32032.24696-.87934.3868-1.31835.63086-1.31835zm-12.00391.63867c1.05182 0 2.12539.88863 2.41602 2 .28766 1.1 1.06055 2 1.71875 2 .65819 0 1.815 1.575 2.57031 3.5.75531 1.925 1.66633 3.5 2.02539 3.5 1.24088 0 2.9417 4.9017 1.91992 5.5332-.53823.33264-.71878 1.02316-.40234 1.53516.31643.51199.21058.86982-.23438.79492-.44496-.0749-1.89404-.33981-3.2207-.58984-1.91637-.3612-2.12189-.65857-1-1.44141 1.04612-.72995 1.09826-1.11243.20117-1.47852-.74695-.30483-1.02343-1.71248-.72265-3.67383.47398-3.0907.45461-3.10974-.69141-.67968-.97917 2.07628-1.25192 2.2034-1.60156.75-.23156-.9625-.79573-1.75-1.25391-1.75-.45819 0-.59449-.90746-.30469-2.01563.39137-1.4966.13853-1.86615-.97851-1.4375-1.12655.43229-1.60644-.31587-1.91797-2.98437-.34729-2.97479-.10412-3.5625 1.47656-3.5625zm20.73633 4c1.20795 0 2.31506 2.46106 1.80078 4.0039-.23856.71567-.76643.66131-1.59375-.16601-1.50205-1.50205-1.6284-3.83789-.20703-3.83789zm-5.63867 4.63476c.20962-.0852.46069.60372.88672 1.86524.55722 1.65 1.5671 3.32744 2.24218 3.72851.82164.4881 1.09683 2.63726.83594 6.5-.38023 5.62949-.35444 5.69803 1.04492 2.77149l1.43555-3 .0801 3.16015c.0908 3.53479-3.71905 14.33985-5.05664 14.33985-.47367 0-.86133-.24054-.86133-.53321 0-.29266.65229-2.09266 1.44922-4 1.2935-3.09578 1.28158-3.46679-.11328-3.46679-1.29054 0-1.44363-.8025-.87305-4.60742.48111-3.20824.36258-4.40226-.39258-3.93555-1.75354 1.08375-2.35074-2.08183-1.55078-8.22461.40371-3.09997.60354-4.48809.87305-4.59766zm-62.67188.34766c-.39673-.0148-1.21979 1.14434-2.25586 3.26758l-1.58593 3.25 2.03906-2.5c1.1209-1.375 2.04825-2.8375 2.06055-3.25.015-.51157-.0775-.76058-.25782-.76758zm71.14258 1.20703c.1814.0194.41552.0874.70703.19922.87622.33624 1.80786.61133 2.07031.61133.26248 0 .1993.45-.14062 1-.91728 1.48419-2.20412 1.21332-2.9043-.61133-.33942-.88453-.27663-1.25732.26758-1.19922zm6.17774.77539c.16644-.0293.35816.1023.58593.33008.91815.91815 1.00115 16.5571.11133 21.06445-1.8468 9.35492-2.65315 6.72755-2.10351-6.85937.45608-11.27403.68498-14.40805 1.40625-14.53516zm-62.1836 5.54102c-.55146-.13621-3.13271 1.65254-7.85742 5.44336-4.1519 3.33123-1.01824 2.29349 3.62109-1.19922 2.37432-1.7875 4.33066-3.61841 4.34766-4.06836.004-.0978-.0325-.15628-.11133-.17578zm-15.28711 1.49414c-.275 0-.98161.9-1.57031 2-.58871 1.1-.84531 2-.57031 2s.98161-.9 1.57031-2c.58871-1.1.84531-2 .57031-2zm17.84571 10.45312c-.0773-.0156-.175-.0156-.29297.002-.1573.0234-.34785.0767-.57032.1621-1.73242.66495-2.04975 1.38282-.61132 1.38282.51754 0 1.21476-.44458 1.55078-.98828.19703-.31887.15559-.5116-.0762-.5586zm53.23242 2.54297c.24633-.0453.32603.42651.33203 1.3125.0115 1.61408.44492 2.54654 1.01953 2.19141.56525-.34934 1.0692.60361 1.1582 2.1914.1495 2.66574.11265 3.40378-.37695 7.5586-.11774.9992-1.04457 1.75-2.16016 1.75-1.07463 0-1.66085.29228-1.30273.65039.35812.35812-.13008 1.24436-1.08398 1.96875-2.02347 1.5364-3.60746 1.79238-2.77735.44922.31644-.512.0954-1.22592-.49023-1.58789-.73399-.45363-.68082-1.12141.16992-2.14649.85714-1.0328.90809-1.69223.16406-2.16015-.69595-.43768.10665-2.95147 2.29297-7.17383 1.76927-3.41693 2.64416-4.92841 3.05469-5.00391zm17.48633 3.97656c.16447-.0561.36285.0269.60156.22461 1.63087 1.351.8994 16.98935-1.01953 21.80274-4.24968 10.65978-7.7168 16.532-7.7168 13.06836 0-.51248 1.40366-4.67498 3.11914-9.25 3.41238-9.10051 4.09345-12.45557 4.26563-20.98242.0662-3.28052.25656-4.69495.75-4.86329zm-16.33789 1.02735c-.11729 0-.32988.33333-.70704 1-.46674.825-1.14529 2.625-1.50976 4l-.66406 2.5 1.50586-2.5c.82837-1.375 1.50871-3.175 1.51171-4 .002-.66667-.0196-1-.13671-1zm-151.57813 8c.6885 0 .85988 1.94459.48828 5.54492-.7132 6.91043.50395 10.38798 4.53125 12.95508 1.7256 1.1 3.72777 3.4625 4.45117 5.25 1.1894 2.93874 1.1475 3.23563-.4375 3.11328-.9641-.0744-3.17782-.86192-4.91992-1.75-4.6159-2.35297-6.609-6.34726-6.56641-13.1582.044-7.09262 1.04183-11.95508 2.45313-11.95508zm142.89844 13c.55 0 .72273.45.38281 1s-1.06719 1-1.61719 1c-.55 0-.72273-.45-.38281-1s1.06719-1 1.61719-1zm-183.19922.49023c-.53789-.05884-.91797.14147-.91797.54102 0 .53274.675.96875 1.5.96875s1.5-.17643 1.5-.39258c0-.21616-.675-.65216-1.5-.96875-.20625-.0791-.40273-.12884-.58203-.14844zm131.56055 1.98047c2.28124-.0509 4.30737 1.27127 6.07226 3.96484 1.55499 2.3732 1.53968 2.72534-.24609 5.79493-2.04323 3.51216-5.75113 4.53864-10.02539 2.77343-4.65293-1.92159-4.08466-9.02026.92968-11.61328 1.14217-.59063 2.2326-.89682 3.26954-.91992zm-.63868 4.54102c-.15812-.008-.31721-.007-.47461.004-.75551.0549-1.46913.34314-1.81835.90821-.49068.79393.88989 1.52386 3.70312 1.95898.4125.0638.75-.55781.75-1.38281 0-.88989-1.0533-1.42868-2.16016-1.48828zm55.57618 1.4414c.23179.047.27323.23973.0762.5586-.58726.95021-2.49219 1.40561-2.49219.5957 0-.21616.69916-.66265 1.55273-.99024.22248-.0854.41301-.1387.57032-.1621.11797-.0176.21567-.0177.29297-.002zm8.03515 1.83789c.68516-.0911.84323 1.34013.55664 4.70899-.22846 2.68548-2.826 8.16025-3.08398 6.5-.45262-2.91282-.34026-4.06122.45117-4.63672.48125-.34995.875-1.82.875-3.26758s.39375-2.87641.875-3.17383c.11959-.074.22827-.11786.32617-.13086zm11.26367 1.08399c.84253-.16323.83243 1.75442-.46484 4.63476-.86455 1.91955-1.64924 3.71524-1.74414 3.99024-.0949.275-.69501 1.75622-1.33203 3.29297-.63702 1.53676-1.43703 3.90382-1.77735 5.25976-.90457 3.60411-2.39648 4.02505-2.39648.67578 0-3.07786 3.46119-12.3229 6.07812-16.23633.69469-1.03872 1.25376-1.54298 1.63672-1.61718zm-193.15625.625c-.7925 0-1.71869.45-2.05859 1-.3399.55.30891 1 1.44141 1 1.1324 0 2.05859-.45 2.05859-1s-.64881-1-1.44141-1zm148.35743.12304c.34739.0143.64635.10536.8125.27149.33229.33229-.25834.56879-1.3125.52539-1.16495-.048-1.40125-.2843-.60352-.60352.36094-.14446.75612-.20766 1.10352-.19336zm-152.11329 2.07618c-.17465.004-.46948.28515-.80273.80078-.5332.825-.96875 1.95-.96875 2.5s.43555.325.96875-.5.96875-1.95.96875-2.5c0-.20628-.0612-.30278-.16602-.30078zm39.46289.85156c.75545 0 1.75613.31701 2.73438.94922 1.1689.75538.8929.97247-1.25.98437-1.5125.008-2.75-.43437-2.75-.98437 0-.63221.5102-.94922 1.26562-.94922zm-43.64453.33789c-.36444.0123-.62109.40961-.62109 1.05273 0 1.75653.59983 2.014 1.45703.62696.3164-.512.11762-1.21314-.44141-1.5586-.13971-.0864-.27305-.12509-.39453-.12109zm-3.44531 2.70312c-.13562-.0148-.024.40213.24219 1.24024.3199 1.00748.58203 2.24498.58203 2.75 0 .50501.45.91797 1 .91797s1-.36372 1-.8086-.71213-1.68238-1.58203-2.75c-.72365-.88814-1.10656-1.33481-1.24219-1.34961zm194.11914 2.26172c.39373-.078.66857.4673.63477 1.33789-.0984 2.53356-1.37863 5.52568-2.06836 4.83594-.78711-.7871.16995-5.42923 1.25781-6.10156.0605-.0374.11958-.0612.17578-.0723zm-177.45898 2.29102c-.31633-.0759-1.14682.40076-2.26172 1.48437-1.0587 1.02905-1.44992 1.8711-.8711 1.8711.5789 0 1.62061-.68709 2.31641-1.52539.9351-1.12676 1.13273-1.75418.81641-1.83008zm2.22265.35547c-.5824 0-1.05859.45-1.05859 1s.19881 1 .44141 1c.2425 0 .71869-.45 1.05859-1 .3399-.55.14109-1-.44141-1zm-20.00586.13476c-.28358-.036-.53967.0182-.71875.19727-.7163.71632.54481 2.66797 1.72461 2.66797.5176 0 .94141-.42387.94141-.94141 0-.88489-1.09653-1.81574-1.94727-1.92383zm104.31836 1.31446c1.44593-.0551 3.1783.38238 6.23243 1.40625 3.2436 1.08737 7.58097 2.28883 9.63867 2.66992 2.05764.38109 3.55613.99092 3.33203 1.35351-.22409.36259 3.04336.81876 7.25976 1.01368 11.05587.51108 14.14709.50328 18.91602-.043 2.3375-.26774 4.25-.0981 4.25.37695 0 .47498 1.575.56816 3.5.20703 2.38026-.44654 3.5-.28223 3.5.51367 0 .64371-.41965.91214-.93164.59571-.512-.31644-1.21313-.11952-1.55859.43945-.34648.56062.27939 1.01758 1.39648 1.01758 2.4335 0 9.09375 3.04671 9.09375 4.16015 0 .43452-1.16282.34696-2.58398-.19336-1.42115-.54029-2.93825-.76361-3.3711-.49609-.43285.26752-1.81322-.4036-3.06836-1.49219-2.58993-2.24623-3.24257-2.33644-7.67773-1.06445-2.24875.64494-3.316.57125-3.61914-.25-.31959-.86586-.76873-.84345-1.75391.0859-.72875.6875-2.42022 1.25-3.75781 1.25-1.33758 0-3.94836.93522-5.80078 2.08008-3.52538 2.17881-4.22353 3.11727-2.11719 2.84375 4.7048-.61094 6.36612.28846 9.5625 5.17578 2.17063 3.31892 3.80811 4.8751 4.75 4.51367 2.113-.81084 4.43552.35829 4.45312 2.24219.008.90365.43589 2.30738.94922 3.11914.77334 1.22292 1.07079 1.1038 1.73633-.69532l.80274-2.16992 1.15429 2.44531c.63504 1.34567.74663 2.19485.24805 1.88672-.49857-.30813-.90625.14254-.90625 1 0 3.10893-4.03376 1.72059-5.55078-1.91015-1.02163-2.44511-1.90695-3.29369-2.99805-2.875-1.7533.67281-3.83807-1.55228-6.0332-6.44141-1.28755-2.86773-5.05971-5.50484-7.20313-5.03516-1.37821.30229-8.21484-1.40965-8.21484-2.05657 0-.35938-2.5875-.62007-5.75-.58007-3.1625.04-6.425-.24684-7.25-.63672-.825-.38987-2.90459-.92889-4.62109-1.19922-3.8531-.6068-7.736-3.07895-9.8086-6.24219-2.2683-3.46186-1.94669-5.06644 1.28321-6.4043.88638-.36715 1.65002-.57822 2.51757-.61132zm-96.16992.55078c-.6648 0-6.20117 8.51824-6.20117 9.54101 0 1.19366.94349.068 3.80859-4.54101 1.7095-2.75 2.78638-5 2.39258-5zm157.07227 1.49609c.0668-.006.15142-.005.2539.006.54656.0562 1.60535.35603 3.22266.93945 7.80712 2.81632 12.84598 5.39824 15.64062 8.01563 1.719 1.60993 3.14701 2.28998 3.5254 1.67773 1.18417-1.91602 2.8337.34059 4.65039 6.36524.99509 3.3 2.61697 6.92043 3.60547 8.04687 2.20526 2.51311 3.423 7.96663 1.97851 8.85938-.57782.35711-1.52201-.23325-2.09961-1.3125-.57759-1.07939-1.05078-2.84599-1.05078-3.92592 0-2.54881-9.95831-15.27243-13.39062-17.10938-1.63079-.87268-2.22128-1.67993-1.53907-2.10156.61133-.37782-2.49491-2.42814-6.92969-4.57227-5.89404-2.84968-8.86936-4.79547-7.86718-4.88867zm37.33984 1.86719c.047-.008.0884.004.12305.0391.79322.79322-.66862 5.59766-1.70313 5.59766-.54248 0-.48635-1.26902.13477-3.05078.51186-1.46831 1.11637-2.52954 1.44531-2.58594zm-181.6875 1.02344c-2.88707.0532-5.23095.51806-6.19922 1.48632-.6196.61955-1.87411 1.12696-2.78711 1.12696-2.8938 0-11.63084 9.59073-13.08984 14.36914-1.9625 6.42722 1.47476 11.91111 8.44727 13.47461 2.31152.51833 4.29379.98993 4.40429 1.04883.1104.0589 2.5854-.39786 5.5-1.01563 8.834-1.87244 16.73367-6.87695 10.85547-6.87695-2.3752 0-5.05664-3.60696-5.05664-6.80078 0-2.61703 5.00381-8.19922 7.34961-8.19922.8274 0 2.47716 1.23367 3.66406 2.74218 2.1207 2.69608 2.18244 2.70901 3.61524.75 2.5193-3.44423 2.79728-6.45393.74218-8.03124-3.10937-2.38658-10.41492-3.95306-16.17773-4.07227-.43221-.009-.85514-.01-1.26758-.002zm67.78516.043c2.52851.0959 9.46444 2.60114 11.02929 4.16602.7718.77179 1.70884 1.40525 2.08204 1.40625.3732.001 2.19834 1.3024 4.05664 2.89063 3.6143 3.08912 7.46499 4.0782 15.93359 4.0957 5.35471.0111 16.1875 4.08274 16.1875 6.08398 0 1.13505-.3205 1.16152-1.55078.13086-1.8154-1.52085-8.4442-3.32421-9.59766-2.61133-.72099.4456-.89062.27987-.44726-.4375.48551-.78558-.36537-1.15429-2.66211-1.15429-7.79688 0-23.80669-4.23399-27.74219-7.33594-.825-.65026-3.1875-2.03571-5.25-3.08008-3.7782-1.91314-4.52812-2.98602-2.82422-4.03906.15286-.0944.42394-.12889.78516-.11524zm-22.84375 3.96485c.19218.0284.37739.19118.55859.48437.386.62451.0267 1.39431-.79883 1.71094-.8251.31663-1.25613 1.21271-.95703 1.99219.6149 1.60229-1.21952 1.95575-2.16992.41797-.3399-.55-1.15359-.9991-1.80859-.9961-.6551.003.0747 1.01801 1.62109 2.25586 1.9551 1.56464 2.60798 2.78341 2.14258 3.9961-.7321 1.90784-1.83452 2.06896-5.10352.75-1.1812-.47659-2.45247-1.36032-2.82617-1.96485-.8737-1.41382 3.44868-6.00083 5.67578-6.02343.9352-.01 2.11013-.75086 2.61133-1.64649.39219-.70079.73438-1.02396 1.05469-.97656zm18.07031 1.21484c.61237-.0575 1.90011.53117 3.08984 1.44531 1.6268 1.25015 1.95976 1.89663.97266 1.89063-.825-.005-2.31515-.62615-3.31055-1.38086-.9954-.75471-1.4315-1.60583-.9707-1.89062.0576-.0356.13125-.0565.21875-.0645zm-15.01562 1.35742c.28236.0237.66737.35129 1.11718 1.0625 1.0008 1.58248 1.29755 4.97071.43555 4.97071-.2886 0-.97564-1.18739-1.52734-2.63867-.7718-2.02989-.64673-3.44674-.0254-3.39454zm-22.72657 1.03321c.4811 0 .40915.86975-.16015 1.93359-.5694 1.06384-1.03516 2.56814-1.03516 3.34375 0 1.7698 3.65719 5.92651 7.17969 8.16016 2.4809 1.5732 2.8645 1.57908 5.1582.0762 1.6672-1.09235 2.69337-1.27324 3.13867-.55273.3639.58872 1.06018.82423 1.54688.52343.4867-.3008 2.10079-.24041 3.58789.13281 2.5884.64966 2.62327.7383.79687 2.09571-1.7718 1.31684-1.7122 1.37042.8418.74414 3.8735-.94985 3.4621 1.00592-.5 2.37695-3.2112 1.11121-3.21572 1.12053-.32422.75 2.8815-.36927 5.57422 1.24581 5.57422 3.34375 0 .58929.45 1.07227 1 1.07227s1 .42168 1 .9375c0 1.14874-2.71977.95653-5.76367-.40821-1.2451-.55822-2.04364-1.59281-1.77344-2.29687.3724-.97064.0297-1.03166-1.41992-.25586-2.6043 1.39381-3.35824 1.28408-2.71485-.39258.40597-1.05777-.26047-1.36567-2.64257-1.22461-1.7523.10376-3.65608.48465-4.23243.84766-1.41834.89352-3.8697-.72374-3.0664-2.02344.3535-.57189-.26595-1.32904-1.37695-1.68164-4.3224-1.37195-8.00977-5.53555-8.00977-9.04499 0-3.67588 1.80651-8.45703 3.19531-8.45703zm147.86328 0c.58246 0 .78133.45.44141 1-.33992.55-.81605 1-1.05859 1-.24254 0-.44141-.45-.44141-1s.47613-1 1.05859-1zm-22.05859.03707c1.63458.0289 5.61957 2.71083 4.92773 3.3164-.23485.20556-1.77773-.46239-3.42773-1.48437-1.65-1.02199-2.325-1.84663-1.5-1.83203zm56.28125 1.42187c1.34792.0383 3.63027.6053 6.21875 1.60938 3.13491 1.21603 7.30224 5.6249 9.62891 10.18554 1.80938 3.54668 2.03853 5.24013 1.52539 11.31055-.33195 3.92695-.88862 7.88097-1.23633 8.78711-.96948 2.52642-2.65719 1.97411-1.83789-.60156.39364-1.2375.67966-5.04239.63476-8.45508-.11665-8.87255-2.81993-14.4174-8.88672-18.22656-2.65574-1.66751-5.39062-3.04038-6.07812-3.05078-.6875-.0104-1.25-.47663-1.25-1.03711 0-.37721.4725-.54448 1.28125-.52149zm-28.82617.54102c1.52215 0 2.71278 4.38491 2.92578 10.77148.16525 4.95502-1.96779 5.21735-2.74805.33789-.34895-2.18224-1.34105-4.67504-2.20508-5.53906-.86403-.86403-1.08928-1.57031-.5-1.57031.58929 0 1.07227-.9 1.07227-2s.655-2 1.45508-2zm-34.3457.0273c1.20879.0681 3.36563.93767 6.26562 2.5586 5.74344 3.21005 6.26262 4.3567 1.125 2.48437-5.08333-1.85255-8.5-3.57738-8.5-4.29102 0-.54665.38409-.79275 1.10938-.75195zm-69.57422.0586c.8997.0474 3.58843.98804 10.08593 3.32812 3.9164 1.4105 9.5414 2.96757 12.5 3.45898 2.95851.4914 4.25391.97882 2.87891 1.08399-1.375.10516-3.4.34231-4.5.52734-1.1.18504-4.3629-.28819-7.25-1.05273-5.9163-1.5667-12.74949-4.81512-13.83789-6.57617-.31249-.50558-.41678-.79793.12305-.76953zm-64.57032 1.76953c-.77339.008-1.68238 2.71444-1.16796 4.05273.46897 1.22013.75854 1.00943 1.24414-.9082.3483-1.375.45748-2.71164.24218-2.97071-.10042-.12082-.20787-.17482-.31836-.17382zm44.43555.41601c.18862-.002.38834.003.59766.0176 1.6489.11536 2.999.55813 3 .98242.001.42429 1.12695 1.28367 2.50195 1.91016 1.375.6265 2.5 1.74179 2.5 2.47851 0 .73671.45 1.33985 1 1.33985s1-.47614 1-1.0586.51523-.74242 1.14453-.35351c.6293.3889 2.48776.66974 4.13086.62305 1.643-.0469 3.97645.56326 5.18555 1.35546 1.209.79224 2.50054 1.13809 2.86914.76954.3686-.36859.66992-.14557.66992.49609 0 1.47006-2.50345 1.50379-5.18555.0684-1.3027-.69715-1.82177-.72367-1.41797-.0703.8765 1.41822-.28777 1.77897-4.39257 1.36132-1.9228-.19563-3.9478-.7101-4.5-1.14453-.5522-.43439-1.82704-.65802-2.83203-.49609-1.00492.16192-2.65954-.45885-3.67774-1.37891-1.0181-.92006-2.55747-2.25178-3.42187-2.96093-2.4796-2.0343-2.0011-3.90656.82812-3.93946zm97.84961 7.35547c.7656-.0597 1.46663.25873 2.36133.98633 1.81276 1.47417 1.79702 1.51389-.42188 1.03711-3.26684-.70194-3.69971 1.4302-1.25976 6.21289 1.13838 2.23141 2.08551 5.98629 2.10351 8.3457.0179 2.35941.90271 6.76602 1.9668 9.79102 2.3321 6.6297 2.69099 16 .61328 16-.76233 0-2.19387-1.6875-3.18164-3.75-.98776-2.0625-1.86291-4.875-1.94531-6.25-.22981-3.83343-1.54735-7.24633-3.87305-10.03125-1.16224-1.39173-2.96267-4.41688-4.00195-6.72266-1.03927-2.30578-2.18391-4.01097-2.54297-3.78906-.35906.22191-.71732-.44009-.79492-1.4707-.25065-3.32747 2.70946-1.00911 4.96679 3.89062 1.17113 2.54202 3.23402 5.74805 4.58594 7.12305l2.45899 2.5-.53711-6.87696c-.29559-3.78184-1.05048-7.19241-1.67774-7.58007-.62725-.38767-1.40186-2.3126-1.7207-4.27735-.46944-2.89288-.20451-3.77404 1.39648-4.63086.56208-.30081 1.04455-.47201 1.50391-.50781zm-14.0293.81055c.35441-.01.8469.2032 1.4375.69336 1.43722 1.19278 1.83964 3.86914.58203 3.86914-.4177 0-1.29147-.85187-1.9414-1.89258-.97137-1.55546-.85783-2.64882-.0781-2.66992zm-46.59765 2.10547c.80683.028 1.37695.27901 1.37695.66211 0 .51079.9.64405 2 .29492 1.2313-.3908 2-.18011 2 .54883 0 .69165.8316.96569 2 .66015 2.64383-.69138 2.53615-.0715-.25 1.43946-1.2375.67088-4.275 1.31618-6.75 1.43164-2.475.11545-5.97143.67752-7.76953 1.25-2.2745.724-3.06943.72204-2.62109-.006.35453-.57614.0265-1.44222-.73047-1.92188-1.08168-.68515-1.09792-.87472-.0703-.88672.71966-.008 1.04546-.44263.72266-.96484-.5216-.84407 1.40365-1.35753 9.21875-2.45703.30937-.0438.6041-.0598.87305-.0508zm-117.62305 1.45707c-.55 0-1 .45-1 1s.45 1 1 1 1-.45 1-1-.45-1-1-1zm128.38281 2c.825 0 1.77727.45 2.11719 1s-.0578 1-.88281 1c-.825 0-1.77727-.45-2.11719-1s.0578-1 .88281-1zm63.17969.42187c.0487-.009.10316-.01.16406 0 .44301.0694 1.2087.63755 2.28125 1.8711 1.72015 1.97834 2.57585 2.37941 3.13867 1.46875.57727-.93403 1.15673-.74591 2.28125.74218 4.11194 5.44137-1.43531 6.36654-5.75.95899-2.19113-2.74617-2.84507-4.90734-2.11523-5.04102zm-3.7793.58399c.69129-.0587 1.26738.59354 1.125 1.74414-.31949 2.58192 1.07625 5.19344 2.48633 4.65234 1.33503-.5123 2.83162 2.01882 4.58399 7.75781.61492 2.01387 1.77191 3.91237 2.57031 4.21875.7984.30637 1.45117 1.6695 1.45117 3.0293 0 1.3598.45 2.75188 1 3.0918.55.33992 1 1.71605 1 3.05859s-.45 2.44141-1 2.44141-1-.7585-1-1.68555c0-.92705-.92681-2.67222-2.05859-3.87695-1.13179-1.20473-2.69012-4.60874-3.46485-7.56446-.80368-3.06615-2.40982-6.23194-3.74023-7.37304-2.64429-2.26804-5.04751-7.18782-4.18945-8.57617.36608-.59237.82155-.88277 1.23632-.91797zM61.95527 201.3999c-.11749.009-.18359.0793-.18359.2168 0 2.21477 5.6527 6.13308 9 6.23828 1.1178.0351 1.00509-.32781-.44141-1.42188-1.0677-.80751-2.38854-1.46679-2.93554-1.46679-.5469 0-2.0356-.97991-3.3086-2.17578-.95467-.89691-1.77827-1.41793-2.13086-1.39063zm46.44532 2.56641c2.424 0 2.37685 1.88926-.11329 4.57617-1.384 1.49332-2.51562 3.10063-2.51562 3.57031 0 1.45478-1.75351.93865-2.38281-.70117-.6833-1.78069 3.12982-7.44531 5.01172-7.44531zm-42.41211 5.49218c-.33514.007-.9515.15682-1.90235.41797-1.9158.5262-2.7155 1.32716-2.5039 2.50586.1709.95256-.22225 2.37401-.87305 3.15821-.84485 1.01808-.86185 1.42578-.0605 1.42578.6173 0 1.12305-.41898 1.12305-.92969 0-.51072.5625-1.52496 1.25-2.25391.6875-.72894 1.84115-2.0796 2.56445-3.00195.74032-.94405.96091-1.33327.40235-1.32227zm43.50586.50782c.94816 0 1.27096.57569.88476 1.58203-.3339.86998-.60742 1.99498-.60742 2.5 0 1.01456-1.35141 1.23251-2.22461.35937-1.0415-1.04151.44897-4.4414 1.94727-4.4414zm106.77929 1.4707c.5142.0283 1.4439.50337 2.60547 1.4707 1.8499 1.54056 2.02451 1.99969.76563 2.02539-.89515.0183-2.19686-.65388-2.89258-1.49218-1.11169-1.33951-1.13963-2.04031-.47852-2.00391zm-1.17383 2.93555c.33049.002.72717.22435 1.26172.66797 2.63624 2.18788 1.42501 3.85436-1.46875 2.02148-.75795-.48009-1.05458-1.39501-.66015-2.0332.27169-.43961.53672-.65825.86718-.65625zm-133.11523.22851c-.10888-.008-.22662-.005-.35351.008-.60916.0633-1.4483.36548-2.74415.85937-1.9879.75765-4.51523 1.61538-5.61523 1.90625-1.1.29089.1375.3274 2.75.0801 4.0104-.37961 4.7503-.18012 4.75 1.28125-.0003 1.38219-1.0075 1.77301-5 1.94141-3.8141.16086-5-.13555-5-1.25 0-1.8425-.75242-1.85113-2.57422-.0293-1.2422 1.24218-1.13459 1.53205.82031 2.19531 1.2392.42042 2.81641.65733 3.50391.52539.6875-.13193 1.25.22863 1.25.80274s-.9 1.04492-2 1.04492-2 .43601-2 .96875c0 .53273.675.70916 1.5.39258.825-.31659 1.49528-.19009 1.48828.28125-.017 1.19823-6.62822 5.35742-8.51562 5.35742-.8557 0-2.52243.9-3.70313 2-2.5118 2.34016-4.5967 2.69965-2.75.47461.69573-.83829 1.04063-1.74844.76563-2.02344-1.1233-1.12334-2.58008 2.38842-3.23438 7.79883-.5008 4.14171-.36482 5.75.48438 5.75.64841 0 .92011.675.60351 1.5s-.14915 1.5.37305 1.5c.5223 0 1.2405 1.15699 1.5957 2.57226.46 1.8325.95445 2.26428 1.71875 1.5 1.7239-1.7239 2.86123-1.23817 2.17383.92774-.3641 1.14731-.18066 2 .43164 2 .5871 0 1.06836-.45 1.06836-1s.45913-1 1.01953-1c.57592 0 .78352 1.19589.47852 2.75-.5171 2.63398-.48934 2.65507.63476.5 1.4542-2.78792 3.28833-2.96578 2.57813-.25-.6692 2.55934.95337 2.63486 1.76367.082.5175-1.63052 1.0791-1.78358 3.75-1.01758 1.7283.49568 3.35629.68661 3.61719.42578.8925-.89253 3.13717 1.7344 2.45508 2.87305-.37451.62518.10927.49392 1.07617-.29102.9668-.78494 2.37064-2.61122 3.11914-4.05859 1.5441-2.98597.64185-14.02699-1.46875-17.9707-.9726-1.81723-.86639-3.69946.54101-9.67579 1.4608-6.2031 1.53448-7.81328.45508-9.83007-.67495-1.26125-1.04445-1.84645-1.80664-1.90235zm140.29883.36524c.21814.007.52972.0558.9375.13476 1.03691.20094 2.07187.92774 2.30078 1.61524.59396 1.78389-1.2595 1.54602-2.8457-.36524-.8699-1.04815-1.04699-1.40516-.39258-1.38476zm5.37109 0c.55 0 1.27727.45 1.61719 1s.16719 1-.38281 1-1.27727-.45-1.61719-1-.16719-1 .38281-1zm-83.44726.11914c3.02829-.0794 5.48977 1.09275 8.29687 3.77539 5.52927 5.28411 5.53683 10.55005.0195 13.93359-1.7884 1.09667-4.93945 1.98842-7.00195 1.98242-3.8696-.0117-4.53243-.62772-2.67383-2.48632.7677-.76769.20069-1.38097-1.97851-2.14063-3.6251-1.26371-4.02001-.8181-4.97461 5.61524l-.69727 4.70117-1.21289-3.40039c-3.1463-8.8204.42956-19.84212 6.97266-21.49219 1.16917-.29485 2.24057-.46178 3.25-.48828zm162.21484 2.2793c.31847.0436.61577.22257.79688.51562.32198.52097.15964 1.21123-.36133 1.5332-.52097.32198-1.21124.15769-1.53321-.36328-.32198-.52097-.15964-1.20928.36133-1.53125.13025-.0805.27114-.13044.41406-.15234.10722-.0165.21611-.0166.32227-.002zm-76.09375 2.08593c.24447-.0366.56229.008.94336.1543.825.31659 1.5.97759 1.5 1.46875 0 1.0484-1.37829 1.18031-2.33398.22461-.911-.911-.84279-1.73789-.10938-1.84766zm9.49805.0156l.55859 3.5c.84717 5.30068 1.66009 6.94681 2.125 4.30664.21234-1.20592-.30426-3.45592-1.14844-5l-1.53515-2.80664zm-17.14649.6582c.40652.0139.88998.23958 1.29102.64063 1.51091 1.51091.66837 2.3554-1.19922 1.20117-.79318-.49019-1.11082-1.22317-.70508-1.62891.15215-.15219.36937-.22089.61328-.21289zm-144.96679 1.8418c1.1324 0 2.05859.45 2.05859 1s-.64881 1-1.44141 1c-.7925 0-1.71869-.45-2.05859-1-.3399-.55.30891-1 1.44141-1zm130.19336.61328c.56134-.002 1.09589.0384 1.60351.12109l3.76172.61133-3 1.30859c-2.91647 1.27186-2.8747 1.29195 1.5.69922 5.23367-.70912 4.62488.84532-1 2.55274-3.07063.93208-2.76978.99062 2.45312.48047 5.3747-.52496 5.82378-.42646 4.62696 1.01562-1.1047 1.33113-1.09687 1.60048.0469 1.61328 1.15393.0129 1.15287.15505-.0117.89258-1.09187.69149-.88018 1.14204 1 2.13477 3.2861 1.73504 8.22746 6.64587 7.21485 7.16992-.45613.23606-2.63008-.18902-4.83008-.94531-5.15637-1.77259-6.66899-3.24241-3.44922-3.34961 2.24829-.0749 2.17868-.20009-.8457-1.52149-1.81264-.79197-3.07087-1.80545-2.79492-2.25195.27595-.44649-.0418-.8388-.70508-.87109-5.60638-.27263-13.19234-1.42407-13.64649-2.07227-.7577-1.08145-4.89666-1.27316-5.52539-.25586-.27814.45004.88533 1.49177 2.58399 2.31445 1.75345.84922 2.62597 1.7795 2.01953 2.1543-.58749.36309-2.91078-.28016-5.16406-1.42969l-4.09766-2.08984 3.49219-2.36914c5.64952-3.83388 10.83818-5.89891 14.76758-5.91211zm-147.5.72266c-.0741-.0154-.1564-.0154-.2461.002-.11953.0231-.25117.0771-.38867.16211-.55.33992-1 1.0675-1 1.61718 0 .55017.45.72274 1 .38282.55-.33992 1-1.06914 1-1.61914 0-.30938-.14287-.49863-.36523-.54492zm6.77929.66406c-.586 0-2.12236 1.125-3.41406 2.5s-2.02576 2.5-1.63086 2.5c.3949 0 1.93116-1.125 3.41406-2.5s2.21686-2.5 1.63086-2.5zm156.52735 0c.58246 0 1.05859.45 1.05859 1s-.19887 1-.44141 1c-.24254 0-.71867-.45-1.05859-1-.33992-.55-.14105-1 .44141-1zm9.54882.42383c.31504-.0256.79275.13394 1.39454.50585.85973.53135.96288 1.0457.29101 1.46094-.57071.35272-1.33895.15416-1.70703-.4414-.57402-.92882-.50358-1.48279.0215-1.52539zm-156.49023.5762c1.1 0 2 .45 2 1s-.9 1-2 1-2-.45-2-1 .9-1 2-1zm-.5 3.33203c.825 0 1.5.34952 1.5.77539 0 1.12626-1.61433 1.94459-2.36133 1.19726-1.0914-1.09119-.70607-1.97265.86133-1.97265zm187.48828 2.17383c.37931-.0519.95233.71406 1.61524 2.54882 1.4457 4.0017 1.74494 7.94532.60351 7.94532-.43592 0-1.34322-2.05823-2.01562-4.57227-.92984-3.47655-.83531-5.83527-.20313-5.92187zm-191.28906.49414c.715 0 1.30078.45 1.30078 1s-.675 1-1.5 1-1.5.45-1.5 1-.45 1-1 1-1-.36078-1-.80078c0-1.24622 2.25832-3.19922 3.69922-3.19922zm112.95898 2.39844c.14318.0171.28216.0654.41016.14453 1.38704.85723 1.12956 1.45703-.62695 1.45703-.85754 0-1.27714-.45861-.93164-1.01758.25905-.41923.71892-.63552 1.14843-.58398zm-6.92187 1.0332c.34129 0 .84141.42723 1.78906 1.2832 2.2278 2.01228 6.47461 2.80778 6.47461 1.21289 0-.57597.48086-.74981 1.06836-.38672.58747.3631.87505 1.17868.63867 1.81055-.23638.63187-.0739 2.04844.36133 3.14844.72933 1.84331.79653 1.81182.86133-.39649l.0703-2.39648 2.69336 2.89648c1.48186 1.59281 3.05686 2.78399 3.5 2.64649.44313-.1375.81429.3125.82226 1 .0102.83333.33813.75.98438-.25.82843-1.2819.97127-1.24555.98438.25.008.9625.67663 1.75 1.48437 1.75.9623 0 1.24698.57721.82617 1.67383-.48654 1.2679-.23665 1.51779 1.03125 1.03125 1.11471-.42775 1.67383-.13272 1.67383.88476 0 .84016.45 1.25008 1 .91016.55-.33992 1 .0839 1 .9414 0 .85746.45 1.5586 1 1.5586s1.03474.7875 1.07812 1.75c.0472 1.04544.28267 1.24674.58399.5.27741-.6875.94384-1.25 1.48047-1.25.53663 0 .71895.41396.40625.91992-.3127.50595.56116 1.80688 1.9414 2.89258 1.38024 1.08569 2.51779 2.58424 2.52539 3.33008.0128 1.12459.1598 1.12813.86133.0215.6332-.99893.9969-.75772 1.44532.95703.32949 1.25997.90035 1.98832 1.26953 1.61914.97418-.97418 6.32065 5.06156 7.04687 7.95508.3398 1.35387 1.69688 4.69801 3.01563 7.43164 3.12551 6.47889 3.87316 12.41871 2.39648 19.02734-1.24385 5.56661-2.97268 9.84985-3.9707 9.83985-.31956-.003-.65414-1.90221-.74414-4.2207-.09-2.31858-.65246-4.37895-1.25-4.57813-.59753-.1992-1.08593-1.00016-1.08593-1.77932 0-.77917-.39156-1.41601-.86914-1.41601s-1.10079-1.73243-1.38477-3.84961c-.28397-2.11718-1.91741-5.78504-3.63086-8.15039-1.71344-2.36534-3.11523-5.07899-3.11523-6.0293 0-.95032-.68129-3.35744-1.51367-5.34961-.83234-1.99216-1.22179-3.62109-.86524-3.62109.35655 0-.64965-1.0125-2.23632-2.25-4.18195-3.26165-20.05293-19.31529-21.9336-22.18555-.92507-1.41183-2.20208-2.21482-3.02148-1.90039-.7804.29944-1.19964.90041-.93164 1.33398.268.43361-1.19726.39603-3.25586-.082-2.0587-.47809-4.0266-.87947-4.375-.89257-.87996-.0332-1.84466-4.02344-.97266-4.02344.3885 0 1.24625.53922 1.90625 1.19922 1.4064 1.40637 1.57012.38424.32422-2.01563-.4809-.92634-.58171-2.48758-.22461-3.46875.3116-.85597.49465-1.2832.83594-1.2832zm25.61328 1.63086c.28314.005.82173.15033 1.6582.40429 3.51099 1.06597 4.85096 2.53321 2.31446 2.53321-1.14265 0-2.69088-.74019-3.44141-1.64453-.76337-.9198-1.00315-1.30197-.53125-1.29297zm-93.31836 5.9375c-1.33908 0-1.78418.47971-1.39258 1.5.3697.96343-.0194 1.5-1.08984 1.5-.92686 0-1.37316.47407-1.00586 1.06836.3631.5875 1.32632.8125 2.14062.5.8144-.31249 1.89344-.56836 2.39844-.56836.505 0 .91797-.9.91797-2 0-1.3227-.66685-2-1.96875-2zm-50.11523 1.12304c.3474.0143.64635.10536.8125.27149.3323.33229-.2584.56879-1.3125.52539-1.165-.048-1.40122-.2843-.60352-.60352.36095-.14446.75612-.20766 1.10352-.19336zm147.85156 4.20508c.66482.003 2.08188.62938 4.1914 2.02539 2.19939 1.45549 4.45775 2.64649 5.01954 2.64649.56179 0 1.02148.37302 1.02148.83008s1.2375 1.46847 2.75 2.24804c1.5125.77956 2.975 1.66024 3.25 1.95508.275.29484 1.76727 1.50826 3.31641 2.69727 4.80935 3.69134 8.47111 9.12271 10.73242 15.91797 2.40202 7.21806 1.45954 10.70749-1.23633 4.57617-.9008-2.04872-3.25163-5.46994-5.22461-7.60157-1.97299-2.13163-3.58789-4.07227-3.58789-4.31445 0-.69241-12.09723-12.41496-17.01953-16.49219-3.34093-2.76734-4.32093-4.49328-3.21289-4.48828zm-42.45508 3.32617c1.84754.0389 1.50393 1.17127-1.57617 2.3125-1.7805.65971-4.01766 1.61112-4.97266 2.11524-.9551.50413-2.3337.91797-3.0625.91797-.7287 0-2.21388.7875-3.30078 1.75-2.7028 2.39348-8.19073 6.25-8.89453 6.25-.3166 0-.12903-.7875.41797-1.75 2.6885-4.73046 9.81313-8.97958 18.83203-11.23047 1.08235-.27014 1.94079-.37824 2.55664-.36524zm5.79102 8.34571c-4.5253 0-17.96871 4.42599-22.31641 7.34765-11.6869 7.85364-19.20854 10.24455-29.08594 9.24805-6.8179-.68784-10.93345.65373-11.53125 3.75781-.636 3.30244.85612 6.70526 3.35742 7.65625 1.9521.74217 2.47266 1.64713 2.47266 4.29883 0 1.84695.29932 3.65678.66602 4.02344.9079.90797 5.38898.71861 7.83398-.33203 1.10005-.47269 1.60675-.89109 1.12695-.92969-.4799-.0387-.31963-.73733.35547-1.55078.8916-1.07441 1.72774-1.21119 3.05664-.5 3.0694 1.64274 8.9547 1.13008 11.6875-1.01953 1.3984-1.1 2.16809-2 1.70899-2-.4592 0-.27896-.55889.40234-1.24024.6814-.68135 3.67243-1.244 6.64453-1.25 4.3073-.009 5.8291-.46633 7.5-2.25976 1.153-1.2375 1.7974-2.25 1.4336-2.25-.3638 0-.10072-.675.58398-1.5.6847-.825 2.7937-1.5 4.6875-1.5 4.1422 0 7.3125-1.53244 7.3125-3.53516 0-.80565.45-1.46484 1-1.46484s1 1.125 1 2.5c0 1.98153.50354 2.5 2.43164 2.5 3.489 0 4.08233-3.07495 1.54883-8.04102-2.413-4.72968-2.04252-8.08516.64648-5.85351.8816.73168 2.56388 1.34352 3.73828 1.36132 2.6353.0399 5.60447 5.52953 5.69727 10.53321.058 3.10288.16699 3.24471.96875 1.25.49742-1.2375 1.59477-2.25 2.4375-2.25 2.42612 0 1.81238-1.95168-2.12109-6.75196-5.29411-6.46081-10.92844-10.24804-15.24414-10.24804zm-3.4961 6c2.8782 0 3.4843.31981 3 1.58203-.3339.86998-.60742 2.44498-.60742 3.5 0 2.54289-1.17977 2.4205-3.82617-.39649-3.1418-3.3443-2.73081-4.68554 1.43359-4.68554zm-13.13867 4c2.5945 0 3.27123 1.90667 1.92383 5.41797-.7696 2.0056-1.44911 1.89872-3.7207-.58008-2.32564-2.53771-1.47053-4.83789 1.79687-4.83789zm-96.69141 3c-.5977 0-.37405.78834.49805 1.75195 1.8044 1.9939 6.62739 12.5738 8.74609 19.18555l1.42188 4.43554.64844-3.16601c.35617-1.74164.33643-4.86368-.043-6.9375-.3792-2.07383-.73025-4.14553-.78125-4.60352-.1508-1.35606-9.30754-10.66601-10.49024-10.66601zm79.03516 3.17578c.95575-.0104 1.72571 2.02634 1.81641 5.65625.071 2.84211-.0107 5.16797-.18164 5.16797-.171 0-1.24512-1.31277-2.38672-2.91602-1.6847-2.36592-1.8853-3.41602-1.0625-5.58008.59992-1.57796 1.241-2.32212 1.81445-2.32812zm110.43164 1.01367c-.3753.0439.27365 2.81834 2.32617 11.4707 1.41413 5.96126 2.42474 12.75235 2.24414 15.08985-.20434 2.64484.0904 4.25.78125 4.25.75577 0 .99756-2.79087.75977-8.73242-.34398-8.59512-2.33805-16.86748-5-20.74024-.55879-.81296-.94074-1.35789-1.11133-1.33789zm52.62891 1.81055c-.54541 0-.75844.37473-.47461.83398.87425 1.41455-1.72562 8.59053-3.61328 9.97266-1.91149 1.39958-2.54314 4.77983-.67774 3.62695.76485-.4727.86704.0505.33203 1.69141-.42595 1.30638-.85742 4.625-.95898 7.375-.10155 2.75-.7006 6.26614-1.33203 7.81445-1.73841 4.26273-1.30024 4.61595.85156.68555 1.27168-2.3228 1.93118-2.89058 1.95898-1.68555.0231.99866-.44113 2.71545-1.02929 3.81445-.77855 1.45473-.74465 2.3881.12304 3.4336.65551.78985.77627 1.4375.26758 1.4375-.74711 0-3.15561 5.35748-5.15625 11.4707-.18503.56538.84629-.7707 2.29297-2.9707l2.63086-4-.65039 3.375c-.50066 2.59624-.35721 3.19297.625 2.58594.92132-.56948 1.08999-.30094.60352.96679-1.56675 4.0829-1.94918 6.86512-.84961 6.18555.7326-.45278 1.03697.34238.89648 2.34766-.11691 1.66863-.55039 3.0361-.96289 3.0371-.4125.001-.74235.78946-.73438 1.75196.0131 1.49555.15595 1.5319.98438.25 1.06239-1.64394 1.14471-1.54631 1.49023 1.75.12971 1.2375-.15204 2.25-.62695 2.25-.4749 0-.86328.43601-.86328.96875 0 .53273.66334.71365 1.47461.40234 1.27955-.49101 1.2654.14251-.10547 4.78125-.86917 2.94108-1.78365 5.68516-2.0332 6.09766-.24956.4125.023.75.60547.75.58246 0 1.05859-.81372 1.05859-1.8086 0-1.87123 2.9106-6.4677 2.9707-4.6914.0698 2.06399-7.43225 21.5-8.29882 21.5-.49746 0-.66872-.9012-.38086-2.00196.28785-1.10076.11394-1.74962-.38477-1.4414-.49871.30822-.93751-.25309-.97461-1.24805-.15432-4.13664-1.005-8.69572-1.81445-9.7168-.8214-1.03614-1.66895-4.72064-2.5-10.86132-.20605-1.52254-1.47396-4.44754-2.81641-6.5s-2.73311-4.51797-3.08984-5.48047c-1.09739-2.96085-2.72886-1.96308-4.90821 3-1.14718 2.6125-2.48798 5.01111-2.97851 5.33008-.49052.31897-.6184 1.29443-.2832 2.16796.34092.88841-.74445 4.02317-2.46485 7.11524-1.69157 3.04026-3.07617 6.07297-3.07617 6.73828 0 .66531-1.125 2.68361-2.5 4.48633-1.375 1.80272-2.5 3.95855-2.5 4.78906 0 .83051-.7875 2.09772-1.75 2.81641-.9625.71868-1.79461 1.86914-1.84961 2.55664-.055.6875-.1675 2.15-.25 3.25-.0825 1.1-.82539 2-1.65039 2-.825 0-1.5.45-1.5 1s-.7875 1.03472-1.75 1.07812c-.9625.0434-1.21563.29654-.5625.5625 1.72372.7019-1.80243 4.14957-3.59766 3.51758-1.01974-.35899-1.25905.0865-.86132 1.60742.36056 1.37879-.0155 2.35133-1.08985 2.82032-2.69822 1.17772-4.13867 1.29008-4.13867.32421 0-.50134.675-.91015 1.5-.91015.93333 0 1.5-.94444 1.5-2.5 0-1.70845.55408-2.50513 1.75-2.51563 1.19663-.0105 1.36803-.25882.54297-.7832-.85685-.5446-.3348-1.69931 1.80078-3.98438 1.65401-1.76979 3.4349-3.21679 3.95703-3.21679.52212 0 .94922-.87067.94922-1.9336 0-1.06294.87729-2.21057 1.94922-2.55078 1.07194-.34022 1.73569-1.17508 1.47461-1.85547-.26109-.68038.88662-2.54239 2.55078-4.13671 3.32457-3.18521 3.91749-4.80471 1.4082-3.8418-1.39053.53359-1.44894.30972-.42187-1.60938.65662-1.2269 1.815-2.98334 2.57422-3.90234 6.7833-8.2108 9.79924-13.35219 5.96484-10.16992-2.06256 1.71177-2.00602 1.54299 2.49414-7.5 2.6297-5.28434 3.57731-8.13617 2.79297-8.40039-.65308-.22-1.34877.0853-1.54688.67968-.1981.5943-3.14638 3.93777-6.55078 7.42969-7.56142 7.75581-9.07524 9.66308-11.51757 14.50391-1.05082 2.08247-2.61424 5.13711-3.47266 6.78711-2.74741 5.28089-9.69922 21.80098-9.69922 23.04883 0 .66281-.60227 1.70588-1.33789 2.3164-.73563.61052-1.3972 2.7091-1.4707 4.66406l-.13282 3.55469 4.22071-.66601c2.32162-.36557 5.6832-.72092 7.4707-.79102 1.94661-.0763 3.25-.6515 3.25-1.43555 0-.71951.42273-1.04786.93945-.72851.51671.31935 2.13943-.66702 3.60547-2.19141l2.66602-2.77148-.66602 4c-.6921 4.16687-4.06567 14.58357-5.80859 17.93554-.55395 1.06535-1.86639 2.85969-2.91602 3.98633-1.04963 1.12665-1.4504 2.20208-.89062 2.38867.60445.20149.37342 1.32334-.57031 2.76368-.98312 1.50017-1.1643 2.42578-.47461 2.42578.61326 0 1.11523-.45 1.11523-1s.49857-1 1.10742-1c.61554 0 .8268.7279.47656 1.64062-.52667 1.37248-.38077 1.43374.89258.37696 1.25743-1.04358 1.52344-.98026 1.52344.35937 0 .89234.49857 1.62305 1.10742 1.62305.60888 0 .85661.65223.55078 1.44922-.37166.96857-.0759 1.26423.89258.89257.79699-.30583 1.44922-.95805 1.44922-1.44921 0-.49115.45905-.89258 1.01953-.89258.58765 0 .75246 1.05835.39063 2.5-.76094 3.03183-.0253 3.15046 2.85742.46484 2.00344-1.86649 2.23226-1.89258 2.78515-.3164.42238 1.20411.82116 1.36494 1.33399.53515 1.08158-1.75002 3.66223-1.4755 2.97461.31641-.6378 1.66208 1.16062 2.08252 2.13867.5.33992-.55 1.06719-1 1.61719-1 .55 0 .74962.40754.4414.90625-.30822.49871.38956.65769 1.55274.35351 1.87763-.49101 1.99053-.31983 1.00195 1.52735-1.5296 2.85805-1.39514 3.63731.33008 1.91211.84844-.8484 2.51221-1.24032 4.03516-.94922 2.50858.4795 2.55261.40473 1.36914-2.37696-.67234-1.58027-1.8997-3.43554-2.72657-4.12304-.92397-.76823-1.05087-1.25-.33007-1.25.81199 0 1.07963-2.10003.87109-6.82422-.16567-3.75313.17934-8.53504.76758-10.62695.93021-3.30806 1.07977-2.35757 1.13867 7.29882.0373 6.10638.55369 12.1258 1.14844 13.37696 3.00202 6.31534 3.54481 8.75529 2.2832 10.27539-.85992 1.0361-.89886 1.5-.12305 1.5.61734 0 1.12305-.45 1.12305-1s.5625-.9999 1.25-1c.78805-.0001 1.22801-1.386 1.19141-3.75-.061-3.93888 1.27017-8.06415 3.14648-9.75.61213-.55 2.36857-2.69988 3.90234-4.77735 1.53377-2.07747 2.9876-3.5788 3.23047-3.33593.65846.65846-1.81025 4.99257-3.36718 5.91211-2.36776 1.39841-1.54663 4.43752 1.48437 5.49414 2.65549.92571 2.91725.77213 4.06445-2.40039.6744-1.86502 2.09758-3.85802 3.16211-4.42774 2.36818-1.26741 2.4847-3.70121.29297-6.12305-1.53151-1.6923-1.46384-2.21296 1-7.70312 1.45347-3.23876 2.64258-6.48611 2.64258-7.21484 0-1.02432.26946-1.05476 1.18945-.13477.91998.91998.80653 1.99451-.5 4.73438-2.06816 4.33698-2.07212 4.47656-.13086 4.47656.85746 0 1.3047.41231.99219.91797-.31252.50566.0193 1.51816.73828 2.25 1.39534 1.4204 6.14223 13.32656 6.3125 15.83203.23725 3.49099.44159 4.09067 1.22656 3.60547.45558-.28156 1.62516 1.2952 2.59961 3.5039 1.56526 3.5477 5.43056 6.55776 7.78711 6.06446.39271-.082.46961.48386.17188 1.25976-.64467 1.68-3.38672 2.92316-3.38672 1.53516 0-.5327-.5625-.98842-1.25-1.01172-1.46408-.05-5.75-6.42901-5.75-8.55859 0-.8041-.7875-1.75624-1.75-2.11524-.9625-.35905-2.34323-1.47644-3.06836-2.48437-1.52653-2.12184-2.71336-1.69873-3.48242 1.24218-.4694 1.79503-.3281 1.89758 1.04883.76563 1.40643-1.15625 1.51974-.96031.99023 1.69336-.32925 1.65-.90303 3.7875-1.27539 4.75-.39479 1.0205-.21583 1.75.42969 1.75.60885 0 1.10742-.675 1.10742-1.5s.37142-1.5.82617-1.5c.45472 0 .62889 1.35.38672 3-.24366 1.6601.0157 3 .58008 3 .5609 0 .78604.89438.5 1.98828-.28604 1.0938-.92739 1.73844-1.42383 1.43164-.49644-.3069-.64261-.97823-.32617-1.49024.31643-.51193-.11293-.92968-.95313-.92968-.94717 0-1.30801-.5701-.95117-1.5.31659-.825.0776-1.5-.53125-1.5s-1.10742.84691-1.10742 1.88281c0 1.0426-.8923 2.11655-2 2.40625-2.75681.7209-5.60186-3.14241-6.44336-8.75391-.37019-2.4686-1.06905-4.73501-1.55469-5.03515-.48565-.30014-.62762 1.03299-.31445 2.96289.54476 3.3569.38059 3.59622-3.80859 5.51562-2.40821 1.1034-3.47891 1.88368-2.37891 1.73438 2.19668-.2982 6.00039 3.66964 5.02734 5.24414-.38745.6269 4.14899.76864 12.6836.39844 7.30854-.3171 16.77701-.6398 21.03906-.7168 4.26205-.077 7.7338-.36367 7.7168-.63867-.017-.275-.69055-1.37381-1.49805-2.44141-2.64339-3.4949-1.53811-4.06572 1.29687-.66992 2.66774 3.1955 2.98678 3.29914 9.00196 2.96094 3.42987-.1928 6.23537-.0707 6.23437.26953-.002.6964 5.69142.1885 7.00782-.625.4687-.2897 1.11059-.10961 1.42578.40039.31519.51 1.35804.7758 2.31836.5918.96032-.1839 2.64609-.38522 3.74609-.44922 1.44268-.084.88536-.68118-2-2.13867-2.2-1.11132-4.41868-2.10469-4.92969-2.20899-1.07873-.2202-4.10508-2.4806-6.44336-4.8125-.89503-.8926-3.20195-2.41652-5.12695-3.38672-9.50545-4.79107-13.13909-9.53743-16.45117-21.49023-.99062-3.575-2.41811-7.91923-3.17383-9.65235-.75572-1.73312-1.375-3.64558-1.375-4.25195 0-.60638-.9-2.78357-2-4.83594-2.24039-4.18008-2.47958-5.84527-.97461-6.77539.56362-.34834.9181-.26197.78906.19141-.12904.45338.52116 2.39922 1.44532 4.32422 2.19203 4.56598 6.72342 18.06175 6.73242 20.05078.004.85284.57031 2.75941 1.25781 4.23828.97138 2.08952 1.88006 2.6421 4.07617 2.48047 1.55432-.11439 3.02583-.52952 3.26953-.92383.52731-.85321 5.4043 3.82825 5.4043 5.1875 0 1.30673 6.70864 5.39943 11.3457 6.92188 2.11567.69463 5.04067 1.91891 6.5 2.7207l2.6543 1.45898-3.5-.66601c-8.7527-1.66598-22.65919-7.89744-23.83398-10.67969-.42543-1.00752-4.16602-1.04092-4.16602-.03711 0 1.29383 5.19938 5.60389 13 10.77539 4.125 2.7346 7.99751 5.60787 8.60547 6.38477.60797.77681 1.76154 1.16091 2.5625.85351.80096-.3073 2.55346.28376 3.89453 1.31446 1.34108 1.0308 2.94429 1.88418 3.56445 1.89648.62015.012 1.68836.69844 2.37305 1.52344 1.74794 2.1061 7 1.98865 7-.15625 0-1.54.12651-1.54 1.82812 0 1.00582.9103 2.46831 1.64305 3.25 1.62695.83966-.017.11724-1.21629-1.76562-2.92969-2.66132-2.4219-2.95338-3.09456-1.77539-4.07226 1.8106-1.5026 8.26563-1.96114 11.35156-.80664 3.33134 1.2462 3.94763.17624.74024-1.28516-4.03882-1.8402-3.11795-3.10972 1.00586-1.38672 3.04854 1.27379 11.67628 3.5066 18.55078 4.91016v-19.49805c-.48602.0917-1.10137.15367-1.87696.16797-2.09496.0386-4.70859.43531-5.80859.88281-1.43479.58369-2.63587.23242-4.25-1.24414-1.2375-1.13203-2.25-1.77421-2.25-1.42773 0 .34647-1.75989.008-3.91016-.75-2.15028-.75868-4.24724-1.07564-4.66015-.70508-.41295.37056-.42541.10742-.0274-.58399.43826-.7612.008-1.52308-1.08984-1.93164-2.53947-.94479-11.36019-7.51252-15.0625-11.21484-1.70325-1.70322-3.36904-3.0957-3.70312-3.0957-.33416 0-1.9416-1.51974-3.57227-3.37696-1.63066-1.85723-4.43067-3.97694-6.2207-4.70898-1.79003-.73205-3.84939-1.91232-4.57618-2.62305-.72678-.71073-1.94827-1.29101-2.71484-1.29101-1.85171 0-8.59815-5.97178-7.94336-7.03125.28218-.45659-.0142-1.15671-.6582-1.55469-.73122-.45192-.90266-.2894-.45703.43164.39246.63498.4307 1.1543.084 1.1543-1.05347 0-3.48828-2.7838-3.48828-3.98828 0-.62178-.40216-.88048-.89453-.57618-.49236.3043-1.15338-.11956-1.46875-.9414-.31537-.82184-1.29256-1.49414-2.17188-1.49414-1.19937 0-1.42323.56209-.89648 2.25.3862 1.2375.97804 2.475 1.31641 2.75.33837.275.76567 1.4.94921 2.5.56407 3.3806 4.36391 11.07202 4.84375 9.80468.24876-.65699-.0724-2.17422-.71289-3.37109-.88204-1.64801-.88171-2.00064-.002-1.45703.6388.3948 1.57612 1.81082 2.08399 3.14648.50782 1.33567 1.65089 2.70606 2.53906 3.04688 2.05722.78943 6.41406 5.12025 6.41406 6.375 0 1.38992 1.74691 1.16969 2.33789-.29492.27741-.6875.54055-.2375.58399 1 .0434 1.2375.45309 2.25.91015 2.25s1.42456 1.10861 2.15039 2.46484c.72584 1.35623 1.65493 2.25893 2.06446 2.00586.40944-.25307 1.00103.21332 1.3164 1.03516.31537.82184 1.21315 1.49414 1.99414 1.49414 2.22782 0 12.83176 10.78006 12.46485 12.67187-.4934 2.54403-2.82227 2.83396-2.82227.35157 0-1.17832-.41259-1.88732-.91602-1.57618-.50343.31114-2.19093-.50844-3.75-1.82031-1.55907-1.31187-3.17277-2.43364-3.58789-2.49414-2.90236-.42315-7.61641-3.32288-9.57031-5.88672-2.16929-2.84648-5.97247-3.82297-5.4375-1.39648.79353 3.59929 7.16262 11.76648 11.14649 14.29297l4.56054 2.89062-3.63867-.26758c-2.00058-.14679-3.5615-.49953-3.4707-.78515.0908-.28563-.88814-1.63563-2.17383-3-7.16226-7.60048-22.16203-31.75889-22.16203-35.69336 0-.70796-.52435-1.28711-1.16602-1.28711-.64166 0-.91411-.25384-.60546-.5625.30866-.30865-1.24872-5.82115-3.46094-12.25-2.21222-6.42884-4.0411-12.18833-4.0625-12.80078-.0214-.61244-.92134-1.66622-2-2.33985-1.83334-1.14494-1.92118-1.00546-1.35938 2.11524.33054 1.83607.8449 7.61289 1.14258 12.83789.70364 12.35093 2.02118 20.71675 5.64844 35.86718 2.72954 11.40082 3.21331 16.75644.99609 11.02149-.50793-1.31378-2.26624-5.76367-3.90625-9.88867-1.64002-4.125-3.3128-9.075-3.71875-11-.40595-1.925-1.07567-3.95-1.48633-4.5-.41065-.55-1.07412-2.35-1.47656-4-.40244-1.65-.90183-3.675-1.10937-4.5-.20754-.825-.83008-3.3-1.38282-5.5-.55273-2.2-1.02613-6.925-1.05273-10.5-.0266-3.575-.44554-8.3-.92969-10.5-.48415-2.2-1.17426-7.825-1.5332-12.5-.35895-4.675-.84069-9.85-1.07227-11.5-.23158-1.65-.50537-4.6875-.60742-6.75-.10204-2.0625-.44915-3.75191-.77148-3.75391-.32234-.002-.68397-3.03953-.80274-6.75-.11877-3.71046-.63418-7.64609-1.14648-8.74609-.51229-1.1-1.47692-4.66811-2.14453-7.92774-.66762-3.25963-2.03166-7.83081-3.0293-10.1582-.99763-2.32738-1.58091-4.46402-1.29687-4.74805.80306-.80306-.68147-4.66601-1.79297-4.66601zm-179.05664 4.21289c.34056-.0101.73537-.007 1.18359.006 3.0385.0864 3.43209.83246 2.15039 4.08008-.6548 1.6591-.88189 1.61534-2.92969-.56446-2.55403-2.7186-2.78826-3.44968-.40429-3.52148zm118.51953 9.11328c1.14578-.0201.0889 11.6474-1.24805 12.98437-.59857.59857-1.13812.77368-1.19922.38868-.56116-3.53532 1.00873-12.51735 2.33008-13.33399.0416-.0257.0802-.0384.11719-.0391zm-15.79688.9707c-.42899.0654-.26009 1.24321.58985 3.31446.94511 2.30319 1.27231 2.52344 1.61132 1.08984.23385-.98892-.12698-2.46157-.80078-3.27344-.67112-.80865-1.14299-1.17006-1.40039-1.13086zm-1.41992 15.70313c1.72572 0 .84393 4.12895-1.36914 6.41211-1.2375 1.27669-2.74297 3.16732-3.3457 4.20312-.94221 1.6192-7.94419 6.34856-9.4043 6.35156-.275.00062-1.10594-.38071-1.8457-.84961-.98406-.6236-.59742-1.04151 1.43945-1.55273 3.77355-.9471 8.40625-4.36281 8.40625-6.19922 0-1.75763 4.83352-8.36523 6.11914-8.36523zm29.875 0c-.54655 0-.99414 1.19934-.99414 2.66601 0 2.93556 1.2076 2.44044 1.68555-.6914.16571-1.08587-.14487-1.97461-.69141-1.97461zm-179.86719 2.5l-.0508 2.5c-.068 3.42953.97352 7 2.04102 7 .4858 0 .88281-.42387.88281-.94141 0-.51754-.45662-1.2229-1.01562-1.56836-.55906-.34546-.78305-1.00564-.49805-1.46679.2851-.46124.0944-1.89335-.42188-3.18165l-.9375-2.34179zm179.61719 3.99414c-.044-.009-.0856-.008-.125.002-.47241.11541-.62652 1.57331-.63672 5.05274-.0274 9.39654-4.86027 29.45117-7.09765 29.45117-.58836 0-.56898-.72095.0508-1.87891 1.81635-3.39388 4.70927-18.56684 4.02734-21.12109-.60702-2.27369-.73962-2.1379-1.46484 1.5-.43856 2.2-1.53989 6.25-2.44922 9-.90934 2.75-1.63056 5.9-1.60156 7 .029 1.1-.2713 2.24333-.66797 2.54101-.39668.29768-.95558 3.22268-1.24219 6.5-.4869 5.5675-.4257 5.79484.92773 3.45899.7967-1.375 1.21266-3.2851.92578-4.24414-.34946-1.16838-.082-1.57614.8086-1.23438.79352.3045 2.09214-.90662 3.22266-3.00586 1.04151-1.93399 2.25713-3.51562 2.70117-3.51562.44404 0 1.31718-.95472 1.9414-2.1211.8741-1.63333.85709-1.9494-.0723-1.375-1.4237.87989-.40302-5.20767 1.20898-7.21093.53384-.6634.68098-1.6759.32617-2.25-.35481-.57409-.26056-1.04297.20899-1.04297 1.32454 0 .8413-13.82472-.53125-15.19727-.17604-.17604-.32901-.28279-.46094-.30859zm-176.65039 8.50586c-.4985 0-.67041.9-.38281 2 .2877 1.1.69545 2 .90625 2 .2109 0 .38281-.9.38281-2s-.40775-2-.90625-2zm139.08203.58594c.3926-.0341.89163.34739 1.79297 1.11914 1.06053.90805 1.70115 2.02076 1.42187 2.47265-.56614.91634-5.39062 1.14531-5.39062.25586 0-.31116.46018-1.42389 1.02148-2.47265.47704-.8914.7617-1.34093 1.1543-1.375zm-18.08398.41406c.46539 0 .55017.7875.18945 1.75-.57766 1.5414-.45076 1.58393 1.05664.35742 2.52123-2.05144 3.1415-.65155 1.75781 3.9668-.79815 2.66397-1.6833 3.91431-2.53906 3.58593-.72236-.2772-1.7292-.0872-2.23828.42188-.56747.56747-1.66308.38601-2.83203-.46875-1.65086-1.20713-1.74507-1.75231-.69336-4.06055.76767-1.68486 1.67364-2.40218 2.46094-1.94922.68516.39419.91162.34852.5039-.10156-.79996-.88303.94597-3.50195 2.33399-3.50195zm-52.5586 1.28906c-.26039.007-.57193.0415-.93554.10742-2.7495.49857-7.81491 3.60352-5.87891 3.60352.6399 0 1.44135-.45 1.78125-1 .3399-.55 1.06719-1 1.61719-1 .55 0 .69421.49474.32031 1.09961-.4916.79535-.10688.79314 1.38672-.006 2.85084-1.52572 3.53171-2.85059 1.70898-2.80469zm44.0918 2.05859c.0467.009.0857.029.11719.0606.69349.6935-.71524 2.5918-1.92383 2.5918-.6631 0-.58759-.575.20117-1.52539.60876-.73351 1.27897-1.19226 1.60547-1.12696zm-110.98047.85352c-.10203-.0134-.19674.0172-.27734.0977-.7265.72651 1.83855 6.70117 2.87695 6.70117.4157 0 .75586.675.75586 1.5s.45 1.5 1 1.5 1-1.575 1-3.5c0-2.7674-.39578-3.5-1.89258-3.5-1.0412 0-2.17664-.74081-2.52344-1.64453-.26002-.67779-.63334-1.114-.93945-1.1543zm103.61328 1.82031c.86682.052 1.99336.57622 2.74219 1.47852 1.0042 1.21005.98025 1.48362-.12695 1.41992-.7548-.0434-1.93555-.30462-2.62305-.58203-.6875-.27741-1.25-.91772-1.25-1.42188 0-.54383.36966-.82872.9043-.88672.11138-.012.22968-.0148.35351-.008zm-10.59961.37696c.14317.0172.28216.0654.41016.14453 1.387.85723 1.12955 1.45703-.62695 1.45703-.85754 0-1.27714-.45861-.93164-1.01758.25905-.41923.71892-.63554 1.14843-.58398zm50.04492 2.04296c.18954-.0233.29688.0957.29688.38282 0 1.2104-2.00751 5.24657-3.07227 6.17578-.31512.275-.90557 1.4-1.31054 2.5-.59074 1.60463-.48674 1.75289.52343.75 1.9421-1.92781 3.05275-1.47983 1.85938.75-1.28863 2.40783-2.32479 2.518-4.05469.43359-1.08024-1.30161-.98221-2.1025.57813-4.75 1.98442-3.36706 4.35879-6.1414 5.17968-6.24219zm-62.64453.5586c.5825 0 .78131.45.44141 1-.3399.55-.81609 1-1.05859 1-.2426 0-.44141-.45-.44141-1s.47619-1 1.05859-1zm12.66016.46484c.49609-.0117.1888 1.07242-1.11133 2.78516-1.2896 1.69872-2.60742 2.30836-2.60742 1.20703 0-.298.9-1.50679 2-2.6875.83434-.89556 1.4211-1.29769 1.71875-1.30469zm-5.80273 1.6582c.3474.0143.64635.10536.8125.27149.3323.33229-.2584.56879-1.3125.52539-1.165-.048-1.40122-.2843-.60352-.60352.36095-.14446.75612-.20766 1.10352-.19336zm-6.38086 3.27344c-.30478.0724-.68908.57088-.97071 1.31055-.5427 1.4252-.42705 1.53885.56055.55859.68364-.67834.98954-1.48508.68164-1.79297-.077-.077-.16989-.10027-.27148-.0762zm137 11c-.30476.0724-.68906.57088-.97071 1.31055-.54268 1.4252-.42707 1.53885.56055.55859.68364-.67834.98953-1.48508.68164-1.79297-.077-.077-.1699-.10027-.27148-.0762zm34.03125 1.60352c-1.15096 0-.52198 4.849.68359 5.26953 1.84602.64393 3.75-.29151 3.75-1.8418 0-1.19592-2.8867-3.42773-4.43359-3.42773zm-52.07422 6.83398c.0343-.0123.0619-.0115.084.004.22706.15844-.18826 1.80302-1.18359 5.28711-.40403 1.4143-.23676 1.89674.5 1.4414 1.61347-.99718 1.39867-.0846-1.47266 6.24414-4.17867 9.21021-4.71657 10.18946-5.58984 10.18946-.45706 0-.83008.47613-.83008 1.05859s.45.78133 1 .44141c1.58198-.97772 1.16236 1.12036-.5 2.5-.825.68469-1.5 1.86344-1.5 2.62109 0 .80273-1.04321 1.37891-2.5 1.37891-1.375 0-2.5-.45438-2.5-1.00977 0-.55538.89018-1.77322 1.97852-2.70508 1.42995-1.22437 1.64638-1.9004.77734-2.4375-.87037-.53792-.61051-1.37836.94531-3.04492 1.18231-1.26647 2.45859-3.54023 2.83399-5.05273.37539-1.5125 1.00754-2.75 1.40625-2.75.39871 0 .72461-1.6145.72461-3.58789 0-1.97338.42976-3.88588.95507-4.25.52531-.36411 1.98067-2.23711 3.23243-4.16211.85887-1.32082 1.39889-2.07942 1.63867-2.16602zm22.08203 2.4668c.0256-.0134.0474-.0131.0625.002.24123.24123.007 1.50979-.51953 2.81836-1.99623 4.9628-4.20865 13.11948-3.69727 13.63086.29306.29307.80674-.31815 1.14063-1.35937s1.00665-2.79258 1.49609-3.89258c.67823-1.52431.75847-1.28646.33398 1-1.08971 5.87085-1.51794 6.34036-4.21093 4.63281-1.04859-.66487-.66819-2.52385 1.84961-9.05273 1.63368-4.2363 3.16145-7.57703 3.54492-7.7793zm6.39453 7.69922c.72721 0 .0806 2.79518-2.43164 10.5-.35866 1.1.51622-.025 1.94531-2.5l2.59961-4.5-.59961 3.82031c-.32969 2.10156-.84012 4.57656-1.13476 5.5-.44877 1.40655-.36731 1.44132.5039.20898.57198-.80907 1.26746-1.24232 1.54688-.96289.86978.86978-7.81401 17.31709-9.39844 17.80078-1.28583.39257-1.30343.22016-.12695-1.20507.75485-.91444.95529-1.66211.44531-1.66211s-.84646-2.1375-.74609-4.75c.10036-2.6125-.16487-5.2-.58985-5.75-.42497-.55.37001-4.07249 1.76563-7.82813 1.54217-4.14996 2.83045-6.35485 3.28515-5.61914.51281.82974.96195.53954 1.42578-.92187.3722-1.17267 1.05066-2.13086 1.50977-2.13086zm-25.93359 4.24023c.11872.008.23111.0321.33593.0723 2.45134.94067 2.11215 4.04586-.37109 3.39648-1.24222-.32485-2-.0297-2 .77735 0 .71467-.675 1.55841-1.5 1.875-.83161.31911-1.49082.033-1.47852-.64258.0408-2.23347 3.23285-5.5972 5.01368-5.47852zm22.72265 1.13477c-.14991-.0757-.40364.30078-.75781 1.125-1.18132 2.74909-1.18132 4.32797 0 2.5.53316-.825.94426-2.175.91406-3-.0136-.3709-.0662-.5796-.15625-.625zm-20.64062 4.625c.48585 0 .87516.5625.86719 1.25-.0215 1.73827-1.49986 3.90054-2.19336 3.20703-.81556-.81553.26796-4.45703 1.32617-4.45703zm18.5 1c-.21085 0-.61859.9-.90625 2s-.1157 2 .38281 2 .90625-.9.90625-2-.17196-2-.38281-2zm-8.16797 1.34961c.0445-.0125.092-.0123.14453 0 .14007.0327.30856.1523.50977.35351.7909.79095.80042 1.62596.0312 2.94922-.94083 1.61863-1.07682 1.4826-1.10352-1.10351-.0146-1.41182.10626-2.11202.41797-2.19922zm-2.14649 1.00781c1.69955-.12858.14611 15.64094-2.15234 20.89258-1.14339 2.6125-2.36927 4.75-2.72266 4.75-.35336 0-.33397-.7875.043-1.75.98124-2.50572 3.52535-17.25135 3.52735-20.44141.00075-1.48004.50872-3.00539 1.1289-3.38867.0617-.0381.12098-.0585.17578-.0625zm-154.6582 1.90039c-.12992-.0549-.48444.19427-1.12109.72266-1.7353 1.44013-1.91686 2.01953-.63086 2.01953.4912 0 1.17704-.73979 1.52344-1.64258.26331-.68624.35844-1.04471.22851-1.09961zm146.35547 2.74219c.55 0 1 .42386 1 .9414s-.45 1.21868-1 1.5586-1-.0839-1-.94141c0-.85746.45-1.55859 1-1.55859zm27.16406.006c.36472-.004.1521 1.34414-.4707 2.99414-.62281 1.65-1.5384 3-2.03516 3-.49677 0-.38242.62585.25391 1.39258.8834 1.06443.84577 1.71467-.16016 2.75-2.30627 2.37371-6.19363 8.2476-4.94922 7.47851 2.32706-1.4382 1.1468.97592-2.88281 5.89649-5.66983 6.92346-6.91992 8.14064-6.91992 6.73632 0-.64559 1.2375-2.32729 2.75-3.73828 2.04247-1.90539 2.42251-2.77205 1.47656-3.36523-.97137-.60912-.79338-1.23218.75-2.62891 1.11299-1.00725 2.02344-2.46153 2.02344-3.23047 0-.76894 1.125-3.05267 2.5-5.07617 1.375-2.02349 2.5-4.10897 2.5-4.63476 0-1.2503 4.30558-7.56522 5.16406-7.57422zm-168.04687 3.99414c-.4858 0-1.11855.9-1.40625 2-.6175 2.36157.80054 2.71405 1.68164.41797.8056-2.09921.77011-2.41797-.27539-2.41797zm177.70508 1.81054c.55761.0765 1.51781 2.46789 2.55078 6.99805 2.11155 9.26043 3.80946 14.46962 4.99414 15.32617.48303.34921.68915 2.26171.45703 4.25-.30816 2.63962-.0424 3.61524.98437 3.61524.80263 0 1.17174.60709.86133 1.41601-.29911.77948.1319 1.67751.95703 1.99414.82515.31663 1.21777 1.03208.87305 1.58985-.34472.55777.0777 1.28328.9375 1.61328.85986.3299 1.56536 1.11544 1.56836 1.74414.003.6286.59105 2.26758 1.30469 3.64258 2.18524 4.2104 2.67141 6 1.63281 6-.54635 0-1.46245-1.23655-2.03711-2.74805-1.27143-3.3441-3.89318-6.37806-4.94727-5.72656-.4252.2628-.52929-.45269-.23242-1.58789.36383-1.3913-.15597-2.54958-1.59375-3.55664-1.17316-.82186-2.13281-2.14383-2.13281-2.93764 0-.79382-.45-1.44336-1-1.44336s-1-1.35-1-3-.3876-3-.86133-3c-.47371 0-.64566-1.125-.38281-2.5.26557-1.38925.008-2.5-.57813-2.5-1.01767 0-1.51783-2.59054-2.64648-13.69141-.35521-3.49362-.23139-5.28913.18555-5.48242.0335-.0155.0683-.0206.10547-.0156zm94.36328.75977c-2.68177.18114-4.89453.84323-5.87696 1.92969-2.20699 2.44069-2.96191 10.46828-1.0957 11.65234.94783.60138.8243.82073-.4707.83203-1.36318.0119-1.54941.40902-.82422 1.76563.51451.9625 1.15846 2.47999 1.42969 3.37304.27433.90322 2.06529 1.91916 4.03711 2.28907 1.19733.22462 2.12586.49201 2.80078.76757v-22.60937zm-139.40039.49023c.19545-.0237.3911.39685.73632 1.24414.40453.99295.30448 2.77178-.22265 3.95313-.92523 2.07351-.97752 2.08057-1.47461.17969-.28321-1.083-.18317-2.86191.22266-3.95313.34629-.93123.54282-1.40013.73828-1.42383zm126.95507 1.61329c-.21821.005-.46376.0207-.74023.0449-1.375.12048-6.64739.31754-11.7168.4375-10.46093.24755-10.44965.19564-1.47265 7.01562 3.1296 2.37762 5.91445 4.59575 6.18945 4.92969.91004 1.1051 6.4852 3.81786 7.3457 3.57422.46484-.13162 1.01549-2.47644 1.22461-5.20899.20913-2.73255.50326-6.31679.6543-7.96679.21258-2.32241.0431-2.85837-1.48438-2.82617zm-254.32031 2.16211c-.0524-.0135-.0989-.0117-.13672.006-.0433.02-.076.0616-.0977.125-.4307 1.26118 1.66943 5.03321 2.80273 5.03321.505 0 .15174-1.34099-.78516-2.97852-.71726-1.25372-1.41657-2.09014-1.7832-2.18554zm131.74414.0137c1.21246.31719 1.81313 6.32099.83008 10.67968-1.50517 6.67373-2.53699 5.56514-2.15234-2.3125.20727-4.2448.55254-7.90559.76758-8.13476.19535-.20822.38147-.27772.55468-.23242zm-16.50586.49023c.0637.005.12595.0257.18555.0625 1.38981.85895.47353 10.13648-1.30664 13.22852-1.29923 2.25666-1.55645 2.40405-1.20703.69336.30413-1.48896.0342-2.01837-.85352-1.67774-1.01565.38974-1.10449-.35702-.41015-3.44726 1.24039-5.52063 2.63689-8.93898 3.59179-8.85938zm9.3418 9.65999c1.1 0 2 .17196 2 .38281 0 .21085-.9.61859-2 .90625s-2 .1157-2-.38281.9-.90625 2-.90625zm7.13672 8c.44813 0 .42947 1.0125-.041 2.25-.97088 2.55361-1.0957 3.14891-1.0957 5.25 0 .825-.45 1.5-1 1.5s-1-.87901-1-1.95313c0-2.4456 2.04849-7.04687 3.13672-7.04687zm105.48437 2.13086c1.00363-.22619 3.96994 3.21337 6.71094 7.85351 2.12803 3.60245 1.16259 3.82679-2.51758.58594-1.4774-1.30105-2.41555-2.63718-2.08398-2.96875.33157-.33157-.1197-.60156-1.00391-.60156-.8842 0-1.93434-.52645-2.33203-1.16992-.49754-.80504-.16034-.95526 1.08203-.47852 1.53743.58997 1.61481.46384.52149-.85352-.70617-.85089-.95346-1.87422-.55078-2.27343.0488-.0484.10692-.0787.17382-.0937zm-4.67968 1.86914c.58246 0 1.05859.45 1.05859 1s-.19887 1-.44141 1c-.24254 0-.71867-.45-1.05859-1-.33992-.55-.14105-1 .44141-1zm11.55859 0c.825 0 1.5.5187 1.5 1.15429 0 .63558 1.04383 2.54808 2.32031 4.25 1.27647 1.70191 2.65261 3.65821 3.0586 4.34571.80775 1.3678-.28949 1.64977-1.88477.48437-1.67442-1.2232-6.49414-8.02742-6.49414-9.16797 0-.5867.675-1.0664 1.5-1.0664zm-222.09375 1.3789c-.27782-.0121-.1577.72868.17773 2.11719.3986 1.65.99252 3.225 1.32032 3.5.3278.275.7492 1.38402.9375 2.46289.1884 1.0789 1.66048 4.57217 3.27148 7.76367 2.6561 5.2617 3.2074 5.78198 5.9082 5.57618 3.0085-.2292 3.81462-1.16804 1.97852-2.30274-1.6811-1.039-1.1114-2.47202.75-1.88672.9625.3027.5125-.26637-1-1.26367-2.3811-1.57-4.0705-5.10184-2-4.18164 8.27825 3.6792 13.25 6.50852 13.25 7.54102 0 .7105-.5625 1.29864-1.25 1.30664-.83333.01-.75.33817.25.98437 1.86488 1.2052 1.74877 1.2053 4.00586 0 1.25242-.6703 2.07794-.6703 2.49219 0 .80507 1.3026 4.50195 1.3048 4.50195 0 0-.55-.47613-1-1.05859-1s-.78258-.44925-.44336-.99805c.77108-1.2477-2.57193-7.07293-3.66993-6.39453-.44274.2737-.57201-.11101-.2871-.85351.6257-1.6305-3.17451-5.26743-6.29102-6.02149-2.23799-.5415-7.22729 1.14697-7.24219 2.45117-.012 1.06022-5.24821-.12968-7.75781-1.76367-1.2375-.80559-2.25-1.17045-2.25-.80859 0 .36185-.97766-.63989-2.17188-2.22656-2.05188-2.7264-3.06467-3.98636-3.42187-4.00196zm226.4707.22461c.36462-.0857 1.3608.6197 3.08008 2.0918.84883.72678 1.76797 1.23998 2.04297 1.14258.275-.0974 1.625.44529 3 1.20508s2.74052 1.31783 3.03516 1.24023c.29465-.0776.53711.72642.53711 1.78711 0 2.5128-1.01987 2.43799-3.53321-.25977-1.72453-1.85106-2.03906-1.92556-2.03906-.49023 0 2.64319-3.45247.0492-5.41602-4.06836-.80453-1.68707-1.07164-2.56274-.70703-2.64844zm-24.93554 3.39649c1.68246 0 3.05859.44229 3.05859.98437 0 .54208 2.11243 1.51764 4.69531 2.16797 3.76133.94709 4.30875 1.33531 2.75 1.94531-2.76745 1.08305-3.65684 1.05385-2.94531-.0976.87595-1.41731-.83916-1.24211-2.44727.25-1.09792 1.01873-1.23575.93188-.74609-.46289.46962-1.33945-.15221-1.85468-2.86328-2.36328-4.47668-.83983-5.45794-2.42383-1.50195-2.42383zm-30.74805 4.07812c.93131-.043 2.39381.92213 3.25 2.14453.85618 1.2224 1.55664 1.65665 1.55664.96485 0-.913.50695-.98703 1.84766-.26953 1.25415.6712 2.19823.63582 2.94336-.10938.79633-.7963.93268-.46637.49609 1.20313-.43099 1.64813-.25834 2.08903.60937 1.55273 1.30765-.8082 7.74906 3.10247 8.56055 5.19727.50821 1.3119-1.80966 1.06722-7.80469-.82618-2.41545-.7629-2.92758-.59906-3.36718 1.08204-.60549 2.3154-1.59709 2.51541-3.15625.63671-.61408-.7399-1.40104-2.7649-1.74805-4.5-.34702-1.7351-1.02461-3.15429-1.50586-3.15429-.48125 0-.875-.63877-.875-1.41797 0-.7791-.5625-1.64252-1.25-1.91992-.76872-.3102-.59798-.53539.44336-.58399zm45.03711.11524c.64799-.0766.51056.63321.41406 2.30468-.0793 1.3746-.36953 2.44752-.64453 2.38282-.275-.065-1.85-.416-3.5-.7793l-3-.66016 3.4043-1.7207c1.84339-.93214 2.82218-1.46774 3.32617-1.52734zm-12.21485 2.80664c.56834 0 1.44447 1.07723 1.94532 2.39453.50084 1.3173 1.50156 2.6111 2.22461 2.875 1.06776.3898 1.05238.73867-.082 1.85547-.76822.7563-1.09578.83924-.72852.18554.36725-.6537.0956-1.5537-.60352-2-1.86797-1.1926-4.00531-5.31054-2.75586-5.31054zm24.64844 4.11718l2.59571 2.59766c2.24198 2.242 3.66828 2.65999 10.41992 3.0586 1.34427.0794 2.37556.16675 3.50586.25195v-1.78125c-5.87832-.6367-7.59384-1.01807-12.10352-2.58789l-4.41797-1.53907zm-10.49804.92774c-.2312-.009-.44759-.007-.64649.006-.95472.062-1.51953.37344-1.51953.94922 0 .55.56707 1 1.25977 1 .6927 0 1.82085.9 2.50781 2 1.2878 2.0621 3.08411 2.41384 6.98242 1.36914 3.23308-.8664 2.80361-1.63874-2.01367-3.61914-2.58159-1.06132-4.95195-1.64488-6.57031-1.70508z"/>
</svg>
