<svg xmlns="http://www.w3.org/2000/svg" viewBox="0 0 194.46153 223.10743">
  <path fill="#0799c4" fill-rule="evenodd" d="M75.94651 27.8693699L90.26397 3.79l12.36508-1.30158 23.42857 2.60317 17.57143 10.4127 8.46032 13.6666699 21.47619 31.2380911 11.06349 15.619047-8.46032 33.84127-24.07936-28.634921 1.30158-14.968254 1.95238-16.269841-9.7619-5.2063491-22.77778-15.619043L98.07349 23.31381z"/>
  <path fill="#f7dbbd" fill-rule="evenodd" d="M91.24016 223.10746L66.51 222.45667l-12.69048-24.40476-9.4365-32.21429-6.50794-22.12698-5.53175-6.18254-6.18254-15.944447v-5.531746s-.97619-2.928571 1.95239-5.531746l2.92857-2.603174-.3254-4.230159s-.3254-2.928572 2.27778-3.253968c2.60317-.325397 2.60317-2.325397 2.60317-2.325397l-8.13492-18.5L25.51 73.75032l.97619-3.904762 5.20635 3.904762 2.92857-.325397 12.36508 22.777778 9.11111 19.198413 4.88095-2.603175s3.25397-2.928572 7.15873-4.880952l3.90477-1.952381 5.20635 1.952381-3.57937 3.579365-6.83333 5.206349-5.20635 8.460317-2.60318 8.134921-5.53174 6.182541 3.90476 8.78571L67.48619 167.79l6.83333 2.60318 11.0635-25.38096.97619-13.666662 5.20635-8.134921 13.99206-5.531746 12.03968-3.253968v-7.809524l-1.95238-5.531746-9.7619 2.603175-5.20635-.650794-4.55556-11.714286-10.0873-11.388888-.97619-3.579366-.3254-10.412698-5.85714-5.857143-1.62698-13.666666-1.62699-14.9682571L94.81952 25.59159l17.57143-.65079 30.26191 16.9206309 4.23016 5.2063491 8.78571 5.531746-3.90476 25.055556 8.46032 22.452381 9.7619 17.246031 13.01587 11.714286 7.15873 12.36508 3.25397 13.01587-.32539 26.35714-13.99207 42.30159z"/>
  <path fill="#0799c4" fill-rule="evenodd" d="M78.54968 204.55984l-18.54762-17.24603 5.20635-10.73809 4.23016-5.20635 3.90476-9.76191 9.76191-8.46032 6.50794 37.42064 12.03968-7.80952 8.46032-20.5 13.99206-7.80953 2.27778-5.53174.97619-2.92857h3.25397l-5.53175 21.15079-14.64286 54.34127z"/>
  <path fill="#fff" d="M103.25571 57.702235a2.7670782 1.9764844 0 0 1-2.75856 1.976475 2.7670782 1.9764844 0 0 1-2.77554-1.964315 2.7670782 1.9764844 0 0 1 2.74149-1.98856 2.7670782 1.9764844 0 0 1 2.7924 1.952081l-2.76686.02432zm3.36003 29.746086a4.7435627 2.9647267 0 0 1-4.72897 2.964713 4.7435627 2.9647267 0 0 1-4.75806-2.946473 4.7435627 2.9647267 0 0 1 4.6997-2.98284 4.7435627 2.9647267 0 0 1 4.78697 2.928121l-4.7432.03648z"/>
  <path d="M101.86389 0c-2.6014.00022-5.42824.727779-6.90234 2.011719-.825.71858-3.48436 1.63312-5.91016 2.03125-2.5685.42156-5.40797 1.718482-6.79687 3.107422-1.3118 1.31174-2.92735 2.39239-3.58985 2.40039-.833.0106-.78967.279601.14063.869141 1.0013.63469.71621 1.00857-1.11719 1.46875-1.3544.33992-3.94747 2.087492-5.76367 3.882812l-3.21094 3.173828c.0964.328711.25043.592462.48633.738282.7742.47862 1.26172 2.956436 1.26172 6.4101559 0 4.91147.3435 5.904226 2.6914 7.785156 2.5132 2.01333 2.73707 2.851672 3.38477 12.6562501.3815 5.775 1.22726 11.625 1.88086 13 .6535 1.375 1.00444 3.325676.77734 4.333985-.3366 1.495002.10675 1.771762 2.40235 1.5 2.7382-.324149 2.81085-.210655 2.66015 4.166015-.1292 3.75114-.0363 4.00076.5586 1.5.4717-1.98309 1.29363-2.951175 2.42773-2.859375 1.1897.09632 1.7168-.609671 1.7168-2.300781 0-3.37208-2.73204-8.339844-4.58594-8.339844-.8433 0-1.28282.404116-.97852.896485.3043.492362-.19592 1.181943-1.11132 1.533203-.9154.35126-2.03237.0616-2.48047-.644532-1.3259-2.08959-.97745-2.78304 1.40625-2.80664l2.25-.02148-2.15039-1.728516c-2.1335-1.71491-4.34961-9.3870381-4.34961-15.0546881 0-3.999941 4.89356-8.901904 9.63086-9.646484 2.1274-.33438 5.66914-1.101028 7.86914-1.705078 11.5365-3.1675999 13.74583-2.6499189 14.89843 3.49414.7101 3.785341 3.86687 7.12118 7.60157 8.033204 4.06.99147 9.00646 4.468347 8.44336 5.935546-.2895.7545911.57772 1.9258281 1.98632 2.6796881 1.3755.73613 2.26376 1.722369 1.97266 2.193359-.8822 1.4274 2.30382 2.070237 4.48242.904297 1.2066-.64574 1.80951-1.695579 1.47461-2.568359-.3116-.81198.0426-1.637734.78711-1.833985.7446-.196249 2.84427-.846032 4.66797-1.4453121l3.31641-1.089844-.68164 3.1875001c-.3747 1.7534-1.18705 3.815191-1.80665 4.582032-.9212 1.139938-.71796 1.265423 1.11524.683593 2.2534-.71519 3.18279.722505 1.24219 1.921875-.55.33992-.98565 1.380502-.96875 2.310547.0276 1.45853.24218 1.414519 1.55664-.310547 1.0129-1.3295 1.32137-3.08957.92187-5.25-.6751-3.65005.29287-4.080072 3.88477-1.726562 2.8303 1.8545 2.70278 5.127224-.36914 9.441406-2.3174 3.25447-5.02138 4.352913-9.48438 3.851562-3.5619-.40013-4.23229 2.406686-1.74219 7.291016 1.7272 3.38777 4.25699 4.071685 6.6504 1.796875 2.3066-2.19231 3.33756-.574027 4.35546 6.845703 1.4274 10.40425 1.49785 10.65434 5.43555 19.25 1.8897 4.125004 5.29591 9.525004 7.57031 12.000004 2.2744 2.475 4.14711 4.7897 4.16211 5.14257.0147.35288-.98515.90805-2.22265 1.23438-1.2375.32634-4.95 2.64439-8.25 5.15039-4.9529 3.76122-6.64663 4.51152-9.70704 4.30469-2.03909-.1378-4.02786.06889-4.41796.45898-.3901.39009.97851.70899 3.04101.70899s3.59942.41051 3.41602.91015c-.5494 1.49727-10.64573 11.846196-14.20703 14.562496-1.8226 1.39022-4.25385 2.52735-5.40235 2.52735-2.1164 0-3.87542 3.13784-2.76562 4.93359.3261.52763-.64605.86407-2.18555.75781-2.332-.16096-2.77401.20309-2.79102 2.28906-.0115 1.44793-.84389 2.9047-2 3.5-1.0892.56086-4.11796 2.50444-6.73046 4.31836-3.6849 2.55853-4.75 3.90554-4.75 6.00586 0 1.755-1.32422 4.11178-3.76172 6.70118-2.0682 2.197-5.04509 5.68164-6.61719 7.74414-1.5721 2.0625-3.20847 3.75-3.63477 3.75-1.0652 0 .72483-7.55762 3.01563-12.73633 1.0366-2.34403 1.51585-4.26367 1.06445-4.26367-.4513 0-1.81182 2.30486-3.02344 5.12109-2.9402 6.83469-4.39453 5.2333-4.39453-4.8457-.004-14.76218.96798-22.54434 3.40821-27.27539 1.9094-3.7019 9.41206-16.349466 10.63476-17.927736.1828-.23593 2.12711.52853 4.32032 1.69922 2.1932 1.17064 3.98828 1.71321 3.98828 1.20508s-1.35-1.62331-3-2.47656c-1.65-.85325-3-1.96973-3-2.48243 0-1.11871 8.12622-6.01757 9.98242-6.01757 1.0106 0 1.17169 1.64487.71289 7.25-.4361 5.32825-.31412 6.76116.45898 5.40429 1.7574-3.08432 2.17941-13.08108.84961-20.1289-1.1814-6.26089-1.13866-6.74156.71094-8.03711 5.5932-3.917645 12.37981-9.725662 11.91211-10.193362-.2927-.29276-2.46628 1.126344-4.83008 3.152344-8.9861 7.701918-21.53596 11.672958-25.22656 7.982418-.8643-.86428-1.57031-1.158336-1.57031-.65429 0 .50405.87396 1.70798 1.94336 2.67578 1.6084 1.45565 2.97157 1.63905 7.88867 1.06836 3.4067-.3954 6.18983-.29121 6.51953.24219.3163.51183.87295 2.78982 1.23633 5.0625.7605 4.75615.81429 4.7184-12.37891 8.2539-6.4283 1.72266-15.03555 6.42929-13.87695 7.58789.2127.21271 3.32521-1.19927 6.91601-3.13867 6.8163-3.68147 11.26974-4.84433 6.49414-1.69531-1.5169 1.00028-2.58497 2.01055-2.37304 2.24414.75427.83158-12.88734 22.378536-13.86914 21.906246-1.3936-.67038-.76019-9.721326.99414-14.191406 1.2354-3.14803 1.24376-3.62772.0508-3.16992-2.1006.80605-3.64823 6.02906-4.11133 13.878906-.38 6.44211-.9762 8.72302-3.625 13.85546-.661 1.28079-.62441 1.64973.11719 1.19141.5906-.36502 1.06664-.30043 1.05664.14453-.0213.95293-7.50322 7.3086-8.60352 7.3086-.4148 0 .56744-1.4625 2.18164-3.25 2.9191-3.23245 2.91467-3.23109-.83593.21875-2.0741 1.90772-3.57665 3.97463-3.33985 4.59179.2369.61717.0158 1.75613-.49023 2.53125-1.5336 2.34906-7.0692-4.82734-6.4375-8.3457.272-1.51549-.0175-3.87799-.64258-5.25-1.1356-2.49222-2.81445-3.38554-2.81445-1.49609 0 .55-.675 1-1.5 1s-1.5.44652-1.5.99023c0 1.50548-3.28221 5.00977-4.69141 5.00977-.6967 0-.99192-.66111-.66992-1.5.3165-.825 1.09005-1.50186 1.71875-1.50586 1.5543-.0105 5.86975-7.73589 4.71875-8.44727-.505-.31211-1.69789-2.6077-2.65039-5.10156l-1.73242-4.5332 3.0625-3.205076c1.6845-1.76295 3.62851-5.23203 4.32031-7.70703 1.826-6.53328 8.24736-14.6275 12.75586-16.08008 5.3746-1.73166 5.47467-1.88833 2.63867-4.11914-3.5422-2.78626-7.96487-1.93141-14.10547 2.72851-6.3393 4.81068-6.317 4.78229-2.8457 3.4668 1.6384-.6209 3.92734-2.01642 5.08594-3.10156 2.3595-2.20989 9.39453-3.7863 9.39453-2.10547 0 .5771-1.51865 1.98673-3.37305 3.13281-6.0386 3.73201-12.38053 12.88664-12.57031 18.14258-.031.8596-1.40664 2.85475-3.05664 4.43555-2.7983 2.680926-4.06631 6.499996-2.15821 6.499996.9772 0 3.15821 6.76736 3.15821 9.79882 0 3.6231-9.53029 8.48481-12.64649 6.45118-.6306-.41153-1.68695-2.775-2.34765-5.25-.6607-2.475-1.69067-5.09676-2.28907-5.82618-.7922-.96571-.75764-1.52953.12696-2.07617.811-.50134.0811-1.36-2.19532-2.58593-2.1413-1.15316-4.21361-3.49436-5.57421-6.294926-1.1913-2.45205-2.37632-4.24868-2.63282-3.99218-.8583.85832 3.4251 9.303186 5.89649 11.624996 3.14702 2.95645 5.40878 10.54459 3.74218 12.55273-.7797.9394-.94338 3.15313-.48828 6.58398.545 4.10819 1.15118 5.34688 2.95118 6.03125 1.6954.6446 2.54098 2.14918 3.36328 5.98438 2.8775 13.41607 16.76521 46.86447 20.44531 49.24023.18605.12009 3.38473.23104.48581.33008h4.25638c-.99018-.28282-1.33433-.75373-1.58789-1.55273-.3526-1.11071-1.08742-2.01953-1.63282-2.01953-.7908 0-7.52689-13.376-12.84179-25.5-1.4883-3.39536-6.72255-20.26479-7.27735-23.45313-.2633-1.51291.27714-1.71388 5.21094-1.92187 1.7344-.0731 4.38431-1.37026 6.38281-3.125 2.1293-1.86964 3.40455-2.80392 4.33985-2.8086.9353-.005 1.53042.92025 2.29882 2.77539.6759 1.63177 1.84531 3.47948 2.59961 4.10547.9952.826 1.09644 1.65279.36914 3.01172-.8211 1.53424-.70472 1.75767.63868 1.24219 1.3614-.52251 1.45836-.30596.57226 1.27344-1.8879 3.36495-6.38535 8.08802-5.72265 6.00976.5104-1.6008.36897-1.69662-.91993-.62695-1.7003 1.41106-2.07663 5.01758-.52343 5.01758.55 0 1 .43601 1 .96875 0 .53273-.675.71111-1.5.39453-4.2438-1.62848 1.6647 10.70763 8.3125 17.35547 2.7867 2.78663 7.51606 6.46687 10.50976 8.17968 6.2421 3.57135 7.26279 4.60271 8.17969 8.25586l.60742 2.41797h42.17578l1.37305-5.375c.7995-3.13267 2.53467-10.64726 3.85547-16.69726 1.3209-6.05 2.80121-12.35 3.29101-14 .4897-1.65.9125-6.6.9375-11 .0354-6.14043-.11906-7.07021-.66406-4l-.71094 4-1.28125-3c-2.868-6.71088-3.16358-7.16866-2.58398-4l.54687 3-1.97851-2.5c-1.0883-1.375-2.75558-4.2144-3.70508-6.31055-1.6331-3.60873-1.6332-3.96573 0-6.73047 1.3351-2.26023 1.47973-3.37727.64063-4.94531-.8907-1.66422-.66009-2.42649 1.29101-4.26953 1.3062-1.23382 6.61146-6.32301 11.78906-11.308596 8.5819-8.26355 9.92227-9.1744 15.16407-10.32031 3.1625-.69135 5.75-1.62744 5.75-2.08008 0-.45259-1.67566-.44606-3.72266.01563-2.0471.46168-3.87545.68515-4.06445.49609-.7595-.75948 6.49072-5.3701 9.41992-5.99023.5459-.11557 1.01931-.18989 1.47851-.1836 1.9901.02725 3.73158 1.57464 10.13282 7.9043 7.39098 7.30825 8.75195 9.2065 10.59765 14.802726 2.831 8.58378 4.40301 23.47381 3.58985 34.00586-.54931 7.11316-1.64516 11.12177-6.38086 23.36719-5.7277 14.81012-9.05078 19.81872-9.05078 13.63867 0-2.46843 3.75695-14.1868 7.56445-23.59179.6851-1.69234.57909-1.81208-.69141-.78125-1.7447 1.41564-4.63132 7.68906-8.41015 18.28125-1.47158 4.125-3.66274 9.975-4.86914 13h-.002l-1.82422 4.57226h12.64063c-.19094-1.32908 1.81746-7.23622 9.43555-28.07226l3.65625-10-.11524-17.5c-.1009-15.479-.37728-18.25066-2.39648-24-2.9616-8.432316-6.59814-13.652596-13.99024-20.082036-3.2989-2.86929-5.99804-5.65459-5.99804-6.18945 0-.53486.66842-.41701 1.48632.26172 2.0733 1.72065 5.6503.51106 7.9629-2.69336 1.42849-1.97933 2.00419-4.5883 2.15039-9.75.1098-3.87562.65348-8.990446 1.20898-11.367186.5555-2.37673.66423-5.531436.24023-7.009766-.424-1.47833-.35309-3.807814.15821-5.177734 1.1007-2.94885.16459-10.372032-1.78321-14.138672-.7603-1.47024-3.00984-4.013444-4.99804-5.652344-3.1128-2.56583-3.46359-3.263012-2.52149-5.023437 1.566-2.92597 1.34999-9.782346-.41601-13.1972661-1.9712-3.81189-4.49179-5.069818-10.42969-5.205078l-4.85937-.111328-3.60352-7.582031C149.66793 16.124852 135.22576 2.608898 126.57676 2.558598c-2.1362-.0124-5.63072-.545907-7.76562-1.185547-2.6614-.79736-4.89764-.85789-7.11524-.19336-2.3559.70599-3.91337.608749-5.73437-.357421-1.0563-.56047-2.53676-.822396-4.09766-.822266zM68.7135 18.945312c-.005-.0154-.01-.03107-.0137-.04687l-.0781.136718zm-.0137-.04687l2.02344-3.554688c1.4096-2.47616 1.65393-3.520532.74023-3.169922-1.771.6796-3.26977 4.845968-2.76367 6.72461zM99.02011 6.53516c.5825 0 .78131.45.44141 1-.3399.55-.8161 1-1.0586 1-.2426 0-.4414-.45-.4414-1s.47609-1 1.05859-1zm22.4082 3.462891c.0603.0225.12602.115229.19532.287109.2774.6875.2774 1.8125 0 2.5s-.50391.125-.50391-1.25c0-1.03125.12769-1.604489.30859-1.537109zm-1.10156 4.884765c.091.0138.19866.165694.31836.464844.2888.72187.25214 1.585679-.0801 1.917969-.3323.33229-.56839-.25834-.52539-1.3125.03-.7281.13561-1.093262.28711-1.070313zm-12.80664 5.652344c.2425 0 .44141.45.44141 1s-.4762 1-1.0586 1c-.5825 0-.7813-.45-.4414-1s.81609-1 1.05859-1zm36.5 2c.5825 0 .78131.45.44141 1-.3399.55-.8161 1-1.0586 1-.2426 0-.4414-.45-.4414-1s.47609-1 1.05859-1zm3.79297 18.0839849c.6416-.107517 1.52479.77817 2.21289 2.58789.5586 1.46917.88626 3.3197681.72656 4.1113281-.4403 2.18275-3.79101-1.8929581-3.79101-4.6113281 0-1.32027.35246-2.004256.85156-2.08789zm-44.02539 4.740234c-.9609.02472-1.88056.165139-2.81836.417969-3.7234 1.0038101-9.27275 5.5189771-8.43945 6.8671871.6728 1.08861 3.26952.03635 7.20312-2.919922 2.8828-2.16658 3.9226-2.381823 8.75-1.814453 3.0131.35413 5.47852.427223 5.47852.164063 0-.26317-2.13399-1.100808-4.74219-1.861328-2.1131-.6161401-3.83014-.8947161-5.43164-.8535161zM.25839 47.126957c-.1574-.02917-.24881.128575-.25781.484375-.0542 2.13415 3.68461 5.493685 8.22461 7.390625 4.2111 1.75951 4.51406 3.158144 2.72656 12.583985-.5553 2.92802-.72223 7.489668-.37109 10.136718.35108 2.64705 1.03959 4.8125 1.52929 4.8125.4896 0 .6312-1.031178.31446-2.292968-.93718-3.734021-.69309-8.763432.78711-16.207032 1.2994-6.53436 1.27001-7.086864-.42969-8.30664-1.0015-.71869-1.88203-2.29369-1.95703-3.5l-.13477-2.19336-.43359 2.25c-.2384 1.2375-.65006 2.25-.91406 2.25-1.8432 0-6.58721-3.496348-7.81641-5.761718-.559-1.03021-1.00528-1.597825-1.26758-1.646485zm110.76563 3.519531c-.905-.07944-2.68239.244731-6.17578.900391-5.43382 1.01983-7.88672 2.919643-7.88672 6.107422 0 .95455.7875 1.941839 1.75 2.193359 2.8294.73942 3.00853.731002 5.55273-.236328 3.3636-1.27882 7.69727-5.467413 7.69727-7.439453 0-.96229-.0325-1.445961-.9375-1.525391zm50.54882 3.357422c.1053.01924.20348.08456.28907.199219.34231.45862 1.02954 1.169531 1.52734 1.582031.4978.4125-.0561.75-1.23047.75-1.5375 0-1.96494-.441641-1.52734-1.582031.2507-.65334.6256-1.006939.9414-.949219zm-60.69921 2.65625c.302-.02866.59969.05473.83789.292969.3393.339234.13557 1.09874-.45313 1.6875-.7182.71815-1.27897.733783-1.70117.05078-.5326-.861825.41041-1.94529 1.31641-2.031249zm-83.54688 3.222656c-.1515-.02295-.25711.342219-.28711 1.070313-.0434 1.05416.19309 1.64479.52539 1.3125.3323-.3323.36896-1.196099.0801-1.917969-.1197-.299149-.22736-.451072-.31836-.464844zm128.79688 4.052735c.7724.0385 1.80596 1.978218 1.82226 3.849609.0119 1.36832-1.71595 2.62621-2.06055 1.5-.5695-1.8606-.68578-4.324838-.23828-5.048828.1348-.218025.29837-.309666.47657-.300781zm13.15039.601562c.7191.00015 1.1875 1.57857 1.1875 4 0 3.19917-.36477 3.998077-1.81836 3.998047-1.43692-.00003-1.66223-.47102-1.07813-2.25.4064-1.2375.69086-3.0375.63086-4-.0601-.9625.42483-1.748177 1.07813-1.748047zm-16.19336 3.503907c.55038-.0078.88086.356401.88086 1.027343 0 .80774-.675 1.466797-1.5 1.466797s-1.5-.401428-1.5-.892578c0-.49116.675-1.15216 1.5-1.46875.2284-.08765.43574-.130208.61914-.132812zM26.71933 69.548832c-.466.0041-.75781.269831-.75781.871094 0 .48585.90712 1.120286 2.01562 1.410156 1.2798.33469 2.94224 2.658867 4.55664 6.367188 4.1703 9.579599 10.1792 20.755053 11.3711 21.152343 1.3006.43356-1.18356-5.282266-5.13086-11.810547-1.6889-2.79376-2.36265-4.852003-1.78125-5.433593.515-.51486 1.07318-.740297 1.24218-.501953 2.5883 3.65023 7.74042 13.13579 8.26172 15.21289.3754 1.49563 1.02662 2.71875 1.44922 2.71875.7214 0 5.06916 9.206394 5.41406 11.464844.087.56973.51 1.59766.93946 2.28516h-.002c.4295.6875 1.19367 1.25 1.69727 1.25 1.2127 0-4.86293-13.27773-11.14453-24.357426-4.9607-8.74987-4.99618-8.878973-2.95508-10.308593 2.6208-1.835388 2.65011-3.333985.0664-3.333985-1.1111 0-2 .66667-2 1.5 0 .825-.4762 1.5-1.0586 1.5-.5822 0-.8508-.33723-.5957-.75.6625-1.07193-4.11449-6.815187-4.96289-5.966797-.3876.38763.1128 1.607568 1.11133 2.710938.9986 1.10337 1.30859 2.005859.6875 2.005859-.62122 0-1.82122-1.33505-2.66602-2.96875-1.3903-2.688562-4.35981-5.029826-5.75781-5.017578zm60.83789.679688c-.054.0021-.12007.10039-.19531.30664-.30079.825-1.02147 2.478708-1.60157 3.673828-1.6442 3.38777-.19685 6.834364 5.08985 12.121094 2.6783 2.67831 5.21878 5.956949 5.64648 7.28711.4276 1.330158.97038 1.855468 1.20508 1.167968.506-1.48252 3.25977-1.69372 3.25977-.25 0 .55.7875.994728 1.75.986328 1.4018-.01227 1.47251-.19187.35351-.90039-1.1227-.7109-.96078-1.149145.82422-2.234375 1.7445-1.06066 8.07227-9.055989 8.07227-10.199219 0-.80568-17.63053 1.62739-18.79493 2.59375-1.1356.94249-1.9798.493084-4.2832-2.285156-3.3922-4.09124-3.65967-5.420282-.92187-4.576172 5.1751 1.59559 6.2109 1.561572 3-.09766-3.08091-1.592023-3.47239-2.225822-3.27539-5.296875.0923-1.439085.0331-2.303261-.12891-2.296871zm11.42773 1.30664c-.6582 0-.59291.718008.17969 1.955078 1.3792 2.20937 2.35117 1.935214 1.45117-.410156-.3257-.84872-1.05896-1.544922-1.63086-1.544922zm-3.52343 4c-1.375 0-2.5.45-2.5 1s1.125 1 2.5 1 2.5-.45 2.5-1-1.125-1-2.5-1zm14.14453 0c-.6808 0-.65296.391947.0781 1.123047.6171.61702 1.00518 1.62952.86328 2.25-.1419.62047-.0778.815194.14258.433594.2204-.38157 1.15904-.417434 2.08594-.08008 1.4453.526 1.41485.303809-.21875-1.556641-1.0477-1.19327-2.37637-2.169922-2.95117-2.169922zm49.76172 1.09375c.9057-.03361.56214.266158-.84766 1.376953-2.3506 1.85195-3.87467 1.980297-3.31445.279297.2264-.6875 1.50208-1.375627 2.83398-1.529297.5863-.06764 1.02643-.11575 1.32813-.126953zm19.26367.976563c.3596.02499.90986.215479 1.74804.537109.87001.33384 1.58204 1.00884 1.58204 1.5 0 .49115-.9.892578-2 .892578-1.1111 0-2-.66667-2-1.5 0-1.051906.0706-1.471341.66992-1.429687zM28.49863 78.97266c-.1566-.01597-.3091.05849-.4375.230469-.3424.45862-1.00631 1.146287-1.47461 1.529297-.4683.383.0506.627922 1.15234.544922 1.2597-.09489 1.80741-.661897 1.47461-1.529297-.182-.474144-.45384-.748768-.71484-.775391zm-2.16016 4.691406c-.6181-.03487-2.27443.244317-4.85156.841797-2.538.58845-4.19368.56669-4.58008-.05859-.6761-1.093911-3.94531-.159897-3.94531 1.126953 0 .4529 1.0125.98398 2.25 1.18164 2.3457.37467 5.5029-.290467 9.75-2.054687 1.5745-.654045 1.99495-1.00224 1.37695-1.037113zm77.27344 1.935547c.47191-.0087.23212.373175-.53125 1.292969-.7505.90434-2.29871 1.642578-3.44141 1.642578-2.5365 0-1.19645-1.46528 2.31445-2.53125.8365-.253961 1.37502-.399077 1.65821-.404297zm62.02539 1.289063c.8585-.05384 1.76732.831506 2.64062 2.582031 1.4137 2.8339 1.39801 3.064453-.21289 3.064453-.9587 0-2.72041-1.125-3.91601-2.5-1.1951-1.375-1.76508-2.5-1.26368-2.5.5014 0 1.57718-.253033 2.38868-.564453.1203-.04618.24058-.07434.36328-.08203zM34.38534 95.464848c-.1342-.03512-.0987.413891.0781 1.320312.2948 1.5125.10909 2.75-.41211 2.75s-1.65328.707974-2.51758 1.572264c-1.7895 1.78955-2.14089 7.42774-.46289 7.42774.7002 0 .86241-.97694.44141-2.6543-.6333-2.52327.51545-4.28958 2.81836-4.33008 1.62229-.02855 9.63086 9.11693 9.63086 10.99805 0 2.68377-1.72596 3.36896-2.91016 1.15625-.5553-1.03752-2.20687-2.67092-3.67187-3.63086-2.8215-1.84868-2.58967-.73074.61523 2.96094 2.0414 2.35139 3.47499 6.5 2.24609 6.5-.4703 0-2.41218-1.33134-4.3164-2.95899-4.1123-3.51504-5.33371-3.7819-4.44141-.9707.4974 1.5674.15056 2.20345-1.43164 2.61719-1.1493.30056-2.08984.94383-2.08984 1.42968 0 1.11439.0475 1.11174 3.92578-.24023 2.9553-1.03023 3.48754-.87415 6.39844 1.87695 1.7465 1.65059 3.85078 3.21459 4.67578 3.47461 1.9635.61885 2.39065-.6295 1.06445-3.10742-1.715-3.20466-1.31543-4.65698.76367-2.77539 2.8299 2.561 4.32025 2.09778 3.52735-1.0957-1.4065-5.66516-3.54521-9.47652-7.03321-12.53907-1.9768-1.73565-4.43981-4.96852-5.47461-7.18359-.7973-1.706738-1.25123-2.552501-1.42383-2.597656zm-6.29879 14.548822c-.0452-.0073-.0996.0063-.16211.04492-2.065 1.27624-3.18493 8.77538-1.89453 12.68555.6902 2.09121 1.45928 3.59732 1.70898 3.34766.2497-.24965.0212-1.71334-.50781-3.25391-1.0719-3.12199-.9519-5.25797.56836-10.07031.49712-1.57336.60341-2.703.28711-2.75391zm23.40039 9.52149c-.6674 0-3.14087 5.01322-3.94727 8-.4856 1.79873.0393 1.37798 1.86914-1.5 2.3394-3.67953 3.24054-6.5 2.07813-6.5zm82.68554 7.10156c-3.498-.10681-11.21093 3.27791-11.21093 4.91992 0 1.43445.85978 1.21676 3.99218-1.01367 1.5402-1.09671 4.5346-2.40234 6.6543-2.90039l3.85352-.90625zm-6.26953 19.89844c.5824 0 1.0586.45 1.0586 1s-.19891 1-.44141 1c-.2425 0-.71869-.45-1.05859-1-.3399-.55-.1411-1 .4414-1zm-6.41601 10.41796c.4117-.013.47461.36877.47461 1.02344 0 .85746-.62763 1.5586-1.39454 1.5586-.76679 0-2.83916 1.35-4.60546 3-1.7663 1.65-3.61357 3-4.10547 3-1.9798 0-.67123-1.81801 3.35547-4.66211 3.9356-2.77978 5.58921-3.89829 6.27539-3.91993zm-81.9043.69922c.326-.002.81414.10788 1.49414.31836 1.3111.40583 3.17227.72609 4.13477.71289.9625-.0132 1.75.62325 1.75 1.41407s-.675 1.4375-1.5 1.4375-1.5-.37196-1.5-.82813-.96664-.7937-2.14844-.75c-1.1818.0437-2.36797-.55137-2.63477-1.32226-.2306-.6664-.1391-.97922.4043-.98243zm10.29102 1.00782c.302-.0286.59969.0547.83789.29296.3393.33925.13557 1.09875-.45313 1.6875-.7182.71816-1.27897.73379-1.70117.0508-.5326-.86183.41041-1.94529 1.31641-2.03126zm66.04296 13.0039c.0994.0185-.33467.51974-1.20507 1.51953-.9625 1.10554-1.75 2.37715-1.75 2.82618 0 2.04151-5.6167 9.49555-6.8125 9.04101-.8097-.3078-1.2263.1666-1.0918 1.24219.1198.95823-.32935 3.08042-.99805 4.71484-.8475 2.07135-.91369 3.63652-.21679 5.16602.7707 1.69138.65353 2.32702-.50977 2.77344-.9876.37897-1.28945 1.272-.87305 2.58398.4968 1.56525.18432 2.00391-1.42968 2.00391-1.1371 0-2.06836.45-2.06836 1 0 1.69575-1.87325 1.10614-2.96485-.9336-1.3772-2.57333-1.30625-4.63618.21485-6.24414.6875-.72679 1.9816-2.89726 2.875-4.82226 2.1851-4.7082 11.67608-17.18505 14.83398-19.5 1.2637-.92644 1.89669-1.38963 1.99609-1.3711zm-50.32031 4.20899c-.0742-.0154-.15649-.0155-.24609.002-.1196.0231-.25117.0752-.38867.16016-.55.33992-1 1.06914-1 1.61914s.45.72078 1 .38086 1-1.06719 1-1.61719c0-.30938-.14294-.49864-.36524-.54492zm-.85351 13.74218c.7049-.0434 1.54734.61613 1.87304 1.46485.3261.84872.3116 1.82307-.0312 2.16601-.3429.34295-.62304-.0901-.62304-.96093s-.5625-1.80853-1.25-2.08594c-.9795-.39506-.9723-.52219.0312-.58399z"/>
</svg>
